<svg viewBox="0 0 256 344" version="1" xmlns="http://www.w3.org/2000/svg" preserveAspectRatio="xMidYMid">
  <path d="m17 83 7 31c1 7-15 24-15 32 0 9 3 24 22 31 18 8 21 27 21 39s-7 34-7 34-4 57 18 67c23 10 18 10 23 10s42 15 64 9 28-13 28-13 21 2 28-17c7-20 11-60 9-78-3-19-6-43 9-51 15-9 31-19 28-27-2-9-16-20-16-20s-3-21-1-26c3-6 18-18 10-27-9-10-24-10-24-10l-19 2s-33-29-76-28c-42 2-69 28-69 28s-15-5-27 0c-13 5-15 0-13 14z" fill="#FBA919"/>
  <path d="m94 208-29 44c-2 3 12 3 12 3l17-47zm8-52-8 19c-3 7-14 11-14 11s6-7 6-22c0-7 8-9 8-9l8 1z" fill="#E78724"/>
  <path d="M97 163s-10 12-29 5c-20-7-22-31-22-38s37 7 42 10c4 3 14 14 9 23zM25 32s17-3 29 6 15 17 15 17L50 70s-10-4-13-17-1-18-12-21z" fill="#E78724"/>
  <path d="M92 127c-8-10-20-15-30-16-17-1-25 5-25 5s27 1 35 12c15 19 37 21 41 16-4 1-9-1-14-6l-7-11zm-47 38s-31-10-25-21 1-17 1-17-17 13-13 27c3 8 7 14 32 26 12 22 3 62 3 62 1 1 17-7 16-45 0-11-1-27-14-32zM85 51 54 67l7 4-1 1 8 3 28 21c-4-11-14-28-14-28s-3-8 3-17zm43 268c-40 0-53-20-53-20l6 15c2 7 28 27 47 27" fill="#E78724"/>
  <path d="M79 286s4 22 19 22c12 0 16-19 16-23l-35 1zm-24-34c1-4 6-18 7-31 2-16 1-39 1-39s-4 15-7 17c-3 3-10 19-10 19l-5 33c5 1 8-1 14 1zm-36-98s9-3 11-21c3-18-3-34-3-34s1 25-2 30-6 6-9 13c-3 6 2 10 3 12z" fill="#E78724"/>
  <path d="m29 36-1-1c-5 1 1 1 1 1z" fill="#FDC168"/>
  <path d="M92 46s-8-1-12-7-15-18-32-18c-18 0-36 5-36 5l16 9h9c19 1 22 20 22 20l67-9" fill="#FBA919"/>
  <path d="M98 150s-9 10-23 7-22-9-23-20c0-11 3-15 3-15s16 5 23 11c8 7 13 17 20 17z" fill="#FFF"/>
  <path d="M87 147s-7 4-16 1c-12-4-13-16-13-16s-7 21 13 25c16 3 26-6 26-6l-10-4z" fill="#C9C9C9"/>
  <path d="M93 42c-1-18 14-33 19-33 0 3 0 15 5 18 1-9 6-20 26-27-4 11-1 21 1 25 14-12 23-10 23-10s-10 16-6 26c-27-2-68 3-68 1zM36 69c-7-6-2-11-2-17l-2-8c-6-9-20-12-20-12l-7-1 5-5c0-1 18-18 46-9 19 6 33 27 34 28l-10 5S69 30 52 24c-13-4-26 0-31 3 6 2 13 6 18 13 2 3 2 8 2 12 1 5 1 10 5 13l-10 4zm-18 78s9-10 11-30c1-8-1-23-3-29 0 15-4 29-4 29s-2 27-4 30z" fill="#463014"/>
  <path d="M61 59s-2-12-9-18c-11-8-23-3-23-3l-2-6c1 0 15-5 28 5 13 9 15 17 15 18l-9 4zm-17 81s-4-6-4-13c1-3 2-7 5-8 5-2 8 3 8 3s-8 2-9 18z" fill="#463014"/>
  <path d="M91 149s-13 10-27 0c-7-5-6-19-4-24 6 1 11 3 15 6l-10-8-6-2-12-4c0 1-4 21 8 34 6 6 31 20 43-3l-7 1z" fill="#463014"/>
  <path d="M90 150c7 12 26 5 26-7 0 0-13 7-24-6-7-7-28-28-56-21 20 4 46 22 54 34z" fill="#463014"/>
  <path d="M34 183c1 1 8 7 8 17l-3 45 10 5c1-17 3-43 2-53-1-12-7-20-13-23l-5-3c-10-5-20-11-20-20 0-8 2-10 5-13h1c2-2 4-3 5-6 4-9 5-30 0-35-2-3-7-12-6-18 1-3 2-4 5-6l10-1c8 0 17 2 22 4a165 165 0 0 1 43 25l4 3-3-4c0-1-14-25-41-34-5-1-15-4-25-4-6 0-11 1-15 3-5 2-8 6-9 11-4 12 7 26 8 26 1 3 1 19-1 26l-3 3-2 1c-4 3-10 7-10 18 0 15 15 23 27 30l6 3z" fill="#463014"/>
  <path d="M36 69c-7-6-2-11-2-17l-2-8c-6-9-20-12-20-12l-7-1 5-5c0-1 18-18 46-9 19 6 33 27 34 28l-10 5S69 30 52 24c-13-4-26 0-31 3 6 2 13 6 18 13 2 3 2 8 2 12 1 5 1 10 5 13l-10 4z" fill="#463014"/>
  <path d="M35 70v-1c-5-3-4-7-3-11l1-6-2-7c-6-9-19-12-19-12l-9-2 6-6s11-12 31-12c5 0 11 1 16 3 20 7 35 28 35 29v1l-11 5-1-1c-1-2-12-20-27-25l-12-2c-7 0-13 2-16 4 5 2 11 6 15 13 3 3 3 7 3 12 1 5 1 10 5 13l1 1-13 4z" fill="#463014"/>
  <path d="M61 59s-2-12-9-18c-11-8-23-3-23-3l-2-6c1 0 15-5 28 5 13 9 15 17 15 18l-9 4z" fill="#463014"/>
  <path d="m61 60-1-1s-2-11-9-17c-4-3-9-5-14-5l-8 2h-1l-2-8h1l9-1c7 0 14 2 19 6 14 9 16 18 16 19v1l-10 4zM37 35c6 0 11 2 15 6 6 5 9 13 10 16l7-2c-1-3-4-10-15-18-5-3-11-5-18-5l-8 1 1 3 8-1zm60 268c-3 0-6-1-8-3-1-2-7-6-9-12-1-3-1-4 1-6 0-1 2-2 6-2h20l6 2v5l-9 13c-1 2-4 3-7 3zm3-152-10-1 4 11c2 7-2 17-2 17s14-16 8-27zM87 330c-37-3-50-38-50-45h10-5 5c0 3 9 33 41 35l-1 10z" fill="#463014"/>
  <path d="M77 267v-9l-12-5c-3-1-19 3-31-11-14-18-11-28-11-28-4 4-7 2-13 21-6 20 3 33 18 46 8 7 18 9 27 10-3-3 5-3 10-5 0-5 1-9 4-12 2-3 5-4 7-5l1-1v-1z" fill="#FFF"/>
  <path d="M65 286v-3c-1-1-2-4 0-1l-1-2c-25 0-47-18-43-54-3-4-8 9-8 9s-12 36 20 51c11 4 20 8 23 6 4 1 9-2 10-4l-1-2z" fill="#C9C9C9"/>
  <path d="m76 262 2-9 1-1c-10 0-21-1-31-4-10-4-23-19-25-35 0 0-20 15-14 47 5 30 31 40 60 42 0 0-4-7-3-11-16 1-34-5-43-20-8-13-6-36-3-39 8 25 38 30 56 30z" fill="#463014"/>
  <path d="M79 244c-5 15-16 27-16 27s15 0 16-3c0-2 13-31 18-66-5 7-17 40-18 42z" fill="#463014"/>
  <path d="m162 208 29 44c2 3-12 3-12 3l-17-47zm-8-52 8 19c3 7 14 11 14 11s-6-7-6-22c0-7-8-9-8-9l-8 1z" fill="#E78724"/>
  <path d="M159 163s11 12 30 5 21-31 21-38-36 7-41 10-15 14-10 23zm72-131s-17-3-29 6-15 17-15 17l20 15s9-4 12-17 1-18 12-21z" fill="#E78724"/>
  <path d="M164 127c8-10 21-15 30-16 17-1 26 5 26 5s-28 1-36 12c-15 19-37 21-40 16 4 1 8-1 13-6l7-11zm47 38s31-10 25-21c-5-11-1-17-1-17s18 13 13 27c-3 8-7 14-32 26-12 22-2 62-3 62-1 1-17-7-16-45 1-11 2-27 14-32zM171 51l31 16-7 4 1 1-7 3-29 21c4-11 14-28 14-28s3-8-3-17zm-43 268c40 0 53-20 53-20l-6 15c-2 7-27 27-47 27" fill="#E78724"/>
  <path d="M177 286s-4 22-18 22c-13 0-17-19-17-23l35 1zm24-34c-1-4-6-18-7-31-2-16-1-39-1-39s4 15 7 17c4 3 10 19 10 19l5 33c-5 1-8-1-14 1zm36-98s-9-3-11-21 3-34 3-34-1 25 2 30 6 6 9 13c4 6-1 10-3 12z" fill="#E78724"/>
  <path d="m227 36 1-1c5 1-1 1-1 1z" fill="#FDC168"/>
  <path d="M164 46s8-1 12-7 15-18 33-18c17 0 35 5 35 5l-16 9h-9c-19 1-22 20-22 20l-67-9" fill="#FBA919"/>
  <path d="M158 150s9 10 23 7 22-9 23-20-3-15-3-15-16 5-23 11c-8 7-13 17-20 17z" fill="#FFF"/>
  <path d="M169 147s8 4 17 1c11-4 12-16 12-16s7 21-13 25c-16 3-25-6-25-6l9-4z" fill="#C9C9C9"/>
  <path d="M220 69c7-6 2-11 3-17l1-8c6-9 20-12 20-12l7-1-4-5c-1-1-19-18-47-9-19 6-33 27-34 28l10 5s11-20 28-26c13-4 26 0 31 3-6 2-13 6-17 13-2 3-3 8-3 12-1 5-1 10-5 13l10 4zm18 78s-8-10-11-30c-1-8 1-23 4-29-1 15 3 29 3 29s2 27 4 30z" fill="#463014"/>
  <path d="M195 59s2-12 10-18c10-8 22-3 22-3l2-6s-15-5-28 5c-13 9-14 17-15 18l9 4zm17 81s4-6 4-13c-1-3-2-7-5-8-5-2-7 3-7 3s7 2 8 18z" fill="#463014"/>
  <path d="M165 149s13 10 27 0c7-5 7-19 4-24-5 1-10 3-14 6l9-8 6-2 12-4c0 1 4 21-8 34-5 6-31 20-43-3l7 1z" fill="#463014"/>
  <path d="M167 150c-8 12-27 5-26-7 0 0 12 7 23-6 7-7 28-28 56-21-20 4-45 22-53 34z" fill="#463014"/>
  <path d="M223 183c-2 1-9 7-9 17l3 45-9 5c-2-17-4-43-3-53 1-12 7-20 13-23l5-3c10-5 21-11 21-20 0-8-3-10-6-13h-1c-2-2-4-3-5-6-4-9-5-30 0-35 2-3 8-12 6-18-1-3-2-4-5-6l-10-1c-8 0-17 2-22 4-16 5-37 20-43 25l-4 3 3-4c0-1 15-25 41-34 5-1 15-4 25-4 6 0 11 1 15 3 5 2 8 6 9 11 4 12-7 26-8 26-1 3-1 19 2 26l3 3 1 1c4 3 10 7 10 18 0 15-15 23-27 30l-5 3z" fill="#463014"/>
  <path d="M205 67c-3-4-9-12-23-19-16-7-34-11-54-11s-38 4-54 11c-14 7-20 15-23 19l-1 1 12 3h1v-1c0-1 2-5 15-12 15-7 31-10 50-10s36 3 50 10c13 7 15 11 15 12v1h1l12-3-1-1z" fill="#463014"/>
  <path d="M220 69c7-6 2-11 3-17l1-8c6-9 20-12 20-12l7-1-4-5c-1-1-19-18-47-9-19 6-33 27-34 28l10 5s11-20 28-26c13-4 26 0 31 3-6 2-13 6-17 13-2 3-3 8-3 12-1 5-1 10-5 13l10 4z" fill="#463014"/>
  <path d="m208 66 1-1c4-3 4-8 5-13 0-5 1-9 3-12 4-7 10-11 16-13a38 38 0 0 0-28-2c-16 5-27 23-28 25l-1 1-11-5v-1c1-1 15-22 35-29l16-3c20 0 31 12 31 12l6 6-8 2c-1 0-14 3-20 12l-1 7v6c1 4 2 8-3 11v1l-13-4z" fill="#463014"/>
  <path d="M195 59s2-12 10-18c10-8 22-3 22-3l2-6s-15-5-28 5c-13 9-14 17-15 18l9 4z" fill="#463014"/>
  <path d="M185 56v-1c1-1 2-10 16-19a33 33 0 0 1 29-5l-2 8h-1c0-1-3-2-8-2s-10 2-14 5c-7 6-9 17-9 17v1l-11-4zm42-20 1-3a33 33 0 0 0-26 4c-11 8-14 15-14 18l6 2c1-3 4-11 10-16 4-4 10-6 15-6l8 1zm-75 264-9-13c0-1-1-3 1-5l6-2h19c4 0 6 1 7 2v6c-2 6-7 10-9 12s-5 3-8 3-5-1-7-3zm4-149 11-1-5 11c-2 7 2 17 2 17s-14-16-8-27z" fill="#463014"/>
  <path d="M128 114c-7 0-15 0-22-5 0 0 9 15 22 15v-2 2c13 0 22-15 22-15-7 5-15 5-22 5z" fill="#E78724"/>
  <path d="M146 114c-6 4-12 5-18 5s-12-1-18-5c0 0 9 12 18 12s18-12 18-12zm23 216-1-10c32-2 42-32 42-35h9c0 7-13 42-50 45z" fill="#463014"/>
  <path d="M180 267v-9l11-5c3-1 19 3 31-11 14-18 11-28 11-28 4 4 7 2 13 21 6 20-3 33-18 46-7 7-18 9-27 10 3-3-5-3-10-5 0-5-1-9-4-12-2-3-5-4-7-5l-1-1 1-1z" fill="#FFF"/>
  <path d="m191 286 1-3v-3c26 0 47-18 43-54 3-4 8 9 8 9s13 36-20 51c-11 4-20 8-22 6-5 1-9-2-11-4l1-2z" fill="#C9C9C9"/>
  <path d="m180 262-2-9v-1c9 0 20-1 30-4 10-4 23-19 25-35 0 0 20 15 14 47-5 30-31 40-60 42 0 0 4-7 3-11 16 1 35-5 43-20 9-13 6-36 3-39-8 25-38 30-56 30z" fill="#463014"/>
  <path d="M192 270c-4-4-10-9-25-9H89c-15 0-21 5-25 9-5 5-5 13-2 22 9 25 22 51 66 51s57-26 66-51c4-9 3-17-2-22zm-7 20c-4 13-16 44-57 44-40 0-52-31-57-44-2-7-2-12 1-15 2-2 6-5 16-5h11a50285 50285 0 0 1 58 0h11c10 0 14 3 16 5 3 3 3 8 1 15z" fill="#463014"/>
  <path d="M177 244c5 15 16 27 16 27s-15 0-16-3c0-2-13-31-18-66 5 7 18 40 18 42z" fill="#463014"/>
</svg>
