<svg viewBox="0 0 256 243" xmlns="http://www.w3.org/2000/svg" preserveAspectRatio="xMidYMid">
  <g fill="#58A958">
    <path d="M213.62 156.001c0 23.865-8.491 44.285-25.47 61.262-16.98 16.981-37.337 25.469-61.065 25.469-23.865 0-44.285-8.488-61.262-25.469-16.981-16.977-25.47-37.397-25.47-61.262 0-23.863 8.489-44.251 25.47-61.164 16.977-16.914 37.332-25.37 61.065-25.37 23.994 0 44.447 8.456 61.361 25.37 16.914 16.913 25.37 37.301 25.37 61.164zm-14.948 0c0-19.796-6.981-36.679-20.945-50.643-13.963-13.963-30.846-20.946-50.642-20.946-19.8 0-36.714 7.05-50.741 21.143C62.313 119.65 55.3 136.467 55.3 156c0 19.538 7.013 36.384 21.044 50.544 14.027 14.16 30.942 21.24 50.74 21.24 19.667 0 36.514-7.047 50.545-21.142 14.028-14.093 21.043-30.976 21.043-50.642z"/>
    <path d="M173.352 87.127c0 23.865-8.49 44.285-25.469 61.263-16.98 16.98-37.336 25.469-61.065 25.469-23.865 0-44.285-8.488-61.263-25.47C8.575 131.413.087 110.993.087 87.128c0-23.861 8.487-44.25 25.468-61.164C42.533 9.049 62.89.593 86.621.593c23.994 0 44.447 8.456 61.361 25.37 16.914 16.913 25.37 37.303 25.37 61.164zm-14.947 0c0-19.796-6.982-36.679-20.945-50.642C123.497 22.52 106.614 15.54 86.818 15.54c-19.8 0-36.713 7.049-50.74 21.141-14.033 14.096-21.045 30.912-21.045 50.446 0 19.538 7.012 36.384 21.044 50.544 14.028 14.161 30.942 21.24 50.74 21.24 19.667 0 36.514-7.045 50.545-21.142 14.028-14.092 21.043-30.975 21.043-50.642z"/>
    <path d="M255.52 87.127c0 23.865-8.489 44.285-25.466 61.263-16.982 16.98-37.338 25.469-61.067 25.469-23.864 0-44.284-8.488-61.262-25.47-16.982-16.977-25.47-37.397-25.47-61.262 0-23.861 8.488-44.25 25.47-61.164C124.703 9.049 145.057.593 168.79.593c23.994 0 44.447 8.456 61.362 25.37 16.913 16.913 25.369 37.303 25.369 61.164zm-14.945 0c0-19.796-6.982-36.679-20.947-50.642-13.962-13.964-30.845-20.945-50.64-20.945-19.8 0-36.714 7.049-50.742 21.141-14.031 14.096-21.043 30.912-21.043 50.446 0 19.538 7.012 36.384 21.043 50.544 14.028 14.161 30.942 21.24 50.741 21.24 19.666 0 36.513-7.045 50.543-21.142 14.028-14.092 21.045-30.975 21.045-50.642z"/>
  </g>
</svg>
