<svg xmlns="http://www.w3.org/2000/svg" viewBox="0 0 40 40" fill="none">
  <path fill="#000" d="M0 0h40v40H0z"/>
  <rect x="23" y="23" width="14" height="14" rx="2" fill="#000" stroke="#eeeeee" stroke-width="2"/>
  <rect x="23" y="3" width="14" height="14" rx="2" fill="#000" stroke="#FF0072" stroke-width="2"/>
  <rect x="3" y="23" width="14" height="14" rx="2" fill="#000" stroke="#eeeeee" stroke-width="2"/>
  <rect x="3" y="3" width="14" height="14" rx="2" fill="#000" stroke="#eeeeee" stroke-width="2"/>
  <circle cx="17" cy="10" r="3" fill="#000"/>
  <circle cx="23" cy="10" r="3" fill="#000"/>
  <circle cx="30" cy="17" r="3" fill="#000"/>
  <circle cx="30" cy="23" r="3" fill="#000"/>
  <circle cx="17" cy="30" r="3" fill="#000"/>
  <circle cx="23" cy="30" r="3" fill="#000"/>
  <circle cx="30" cy="23" r="2" fill="#eeeeee"/>
  <circle cx="17" cy="30" r="2" fill="#eeeeee"/>
  <circle cx="23" cy="30" r="2" fill="#eeeeee"/>
  <path opacity=".35" fill="#eeeeee" d="M18 9.5h4v1h-4zM29.5 21.5v-4h1v4zM18 29.5h4v1h-4z"/>
  <circle cx="17" cy="10" r="2" fill="#eeeeee"/>
  <circle cx="23" cy="10" r="2" fill="#FF0072"/>
  <circle cx="30" cy="17" r="2" fill="#FF0072"/>
</svg>
