<svg viewBox="0 0 125 83" fill="none" xmlns="http://www.w3.org/2000/svg">
  <path d="M189.82 40.74V52h-1.84v-1.8a6.65 6.65 0 0 1-5.02 2.1c-2.92 0-5.02-1.77-5.02-4.56 0-3.22 2.5-4.89 6.27-4.89 1.24 0 2.48.1 3.7.33v-2.3c0-2.56-1.5-4.1-3.8-4.1a5.18 5.18 0 0 0-4.43 2.3l-1.21-1.15a6.74 6.74 0 0 1 5.77-2.82 5.24 5.24 0 0 1 5.58 5.64zm-9.97 6.86c0 1.97 1.47 3.05 3.57 3.05a6.19 6.19 0 0 0 4.5-2.2v-3.74c-1.12-.2-2.25-.3-3.38-.3-2.86 0-4.7.92-4.7 3.19zm24.07 3.74c-.82.51-1.78.78-2.75.75-2.4 0-4.33-1.48-4.33-4.56l.03-10.46h-3.5v-1.68h3.5l.03-5.54h1.94l-.03 5.54h4.69v1.68h-4.7l-.06 10.2c0 2.1 1.21 3.08 2.7 3.08.66.03 1.33-.18 1.86-.59l.62 1.58zm16.41-7.12h-12.47c0 4.03 2.66 6.4 6.1 6.4a6.12 6.12 0 0 0 5.05-2.33l1.22 1.11a7.6 7.6 0 0 1-6.27 2.89c-4.43 0-8.04-3.02-8.04-8.43 0-5.42 3.45-8.76 7.75-8.76 4.59 0 7.18 3.18 6.66 9.12zm-12.44-1.64h10.63c.07-3.68-1.84-5.8-4.92-5.8s-5.41 2.32-5.7 5.8zm24.37-5.35a6.5 6.5 0 0 0-5.01 2.62V52h-1.9V35.4h1.9v2.43a6.66 6.66 0 0 1 5.15-2.53l-.14 1.94zm28.15 4.3v10.46h-1.9V41.8c0-2.85-1.54-4.92-4.3-4.92a6.64 6.64 0 0 0-5.18 2.89c.1.55.16 1.1.16 1.67V52h-1.9V41.8c0-2.85-1.57-4.92-4.3-4.92a6.42 6.42 0 0 0-5.02 2.62V52h-1.9V35.4h1.84v2.27a6.82 6.82 0 0 1 5.48-2.56 5.4 5.4 0 0 1 5.11 3.05 7.56 7.56 0 0 1 6.1-3.05c3.55 0 5.81 2.59 5.81 6.43zm19.16 2.69H267.1c0 4.03 2.66 6.4 6.1 6.4a6.12 6.12 0 0 0 5.06-2.33l1.2 1.11a7.6 7.6 0 0 1-6.26 2.89c-4.43 0-8.03-3.02-8.03-8.43 0-5.42 3.44-8.76 7.74-8.76 4.6 0 7.18 3.18 6.66 9.12zm-12.44-1.64h10.63c.07-3.68-1.83-5.8-4.92-5.8-3.08 0-5.41 2.32-5.7 5.8zM284.58 52V26.5h1.9V52h-1.9zM308 43.7a8.33 8.33 0 1 1-8.33-8.6 8.23 8.23 0 0 1 8.34 8.6zm-14.72 0c0 4.16 2.88 6.3 6.4 6.3 3.5 0 6.4-2.14 6.4-6.3 0-4.24-2.9-6.93-6.4-6.93-3.52 0-6.4 2.7-6.4 6.92zm32.84-2.17v10.46h-1.9V41.8c0-2.85-1.65-4.92-4.4-4.92a6.47 6.47 0 0 0-5.06 2.62V52h-1.9V35.4h1.87v2.23a6.8 6.8 0 0 1 5.48-2.52c3.58 0 5.9 2.59 5.9 6.43zm22.23-14.08c6.53 0 12.67 4.04 12.67 12.27 0 8.27-6.14 12.27-12.67 12.27h-8.23V27.45h8.23zm-6.2 22.7h6.2c5.35 0 10.63-3.27 10.63-10.43 0-7.15-5.28-10.43-10.63-10.43h-6.2v20.87zm30.31-22.7c4.24 0 7.03 2.2 7.03 6.37 0 2.95-1.38 4.79-3.06 5.44 2.17.63 3.78 2.6 3.78 6 0 4.57-3.02 6.73-7.42 6.73h-6.63V27.45h6.3zm-4.26 11.03h4.72c2.86 0 4.5-1.51 4.5-4.6 0-3.08-1.94-4.59-5.02-4.59h-4.2v9.19zm0 11.68h4.46c3.38 0 5.51-1.68 5.51-4.93 0-3.3-1.77-4.95-5.12-4.95h-4.85v9.88z" fill="#000"/>
  <path d="m122.1 24.1-3.17 4.7a102.07 102.07 0 0 0-114.05 0l-3.17-4.7a107.72 107.72 0 0 1 120.39 0z" fill="url(#a)"/>
  <path d="m123.18 22.49-1.08 1.6a107.72 107.72 0 0 0-120.39 0L.63 22.5a3.66 3.66 0 0 1 1.07-5.14 113.15 113.15 0 0 1 120.41 0 3.66 3.66 0 0 1 1.07 5.14z" fill="#06965B"/>
  <path d="M61.9 11.38A101.54 101.54 0 0 0 4.89 28.79l3.17 4.7 31.72 47.04a3.66 3.66 0 0 0 6.07 0l13.03-19.32a3.66 3.66 0 0 1 6.07 0l13.03 19.32a3.66 3.66 0 0 0 6.08 0l31.71-47.04 3.17-4.7a101.54 101.54 0 0 0-57.02-17.41z" fill="url(#b)"/>
  <path d="M43.7 48.77a3.02 3.02 0 1 0 0-6.05 3.02 3.02 0 0 0 0 6.05zm36.42 0a3.02 3.02 0 1 0 0-6.05 3.02 3.02 0 0 0 0 6.05zM50.7 32.36a3.02 3.02 0 1 0 0-6.05 3.02 3.02 0 0 0 0 6.05zm22.42 0a3.02 3.02 0 1 0 0-6.05 3.02 3.02 0 0 0 0 6.05zM30.11 37.5a3.02 3.02 0 1 0 0-6.05 3.02 3.02 0 0 0 0 6.05zm63.59 0a3.02 3.02 0 1 0 0-6.05 3.02 3.02 0 0 0 0 6.05zm-31.8 8.7a3.02 3.02 0 1 0 0-6.04 3.02 3.02 0 0 0 0 6.05z" fill="#641414"/>
  <defs>
    <linearGradient id="a" x1="31.43" y1="55.34" x2="92.38" y2="-5.62" gradientUnits="userSpaceOnUse">
      <stop stop-color="#F9ED95"/>
      <stop offset=".45" stop-color="#F5EB92"/>
      <stop offset=".91" stop-color="#E8E68A"/>
      <stop offset="1" stop-color="#E5E588"/>
    </linearGradient>
    <linearGradient id="b" x1="29.16" y1="70.02" x2="94.66" y2="4.52" gradientUnits="userSpaceOnUse">
      <stop stop-color="#FF6652"/>
      <stop offset=".51" stop-color="#FF5050"/>
      <stop offset="1" stop-color="#FF3B61"/>
    </linearGradient>
  </defs>
</svg>
