<svg xmlns="http://www.w3.org/2000/svg" xmlns:xlink="http://www.w3.org/1999/xlink">
  <defs>
    <symbol id="external-link-icon" viewBox="0 0 24 24" stroke="currentColor" fill="currentColor" stroke-width="0">
      <path d="M18 13v6a2 2 0 0 1-2 2H5a2 2 0 0 1-2-2V8a2 2 0 0 1 2-2h6"></path>
    </symbol>
    <symbol id="github-icon" viewBox="0 0 16 16"  stroke="currentColor" fill="currentColor" stroke-width="0">
      <path fill-rule="evenodd" d="M8 0C3.58 0 0 3.58 0 8c0 3.54 2.29 6.53 5.47 7.59.4.07.55-.17.55-.38 0-.19-.01-.82-.01-1.49-2.01.37-2.53-.49-2.69-.94-.09-.23-.48-.94-.82-1.13-.28-.15-.68-.52-.01-.53.63-.01 1.08.58 1.23.82.72 1.21 1.87.87 2.33.66.07-.52.28-.87.51-1.07-1.78-.2-3.64-.89-3.64-3.95 0-.87.31-1.59.82-2.15-.08-.2-.36-1.02.08-2.12 0 0 .67-.21 2.2.82.64-.18 1.32-.27 2-.27.68 0 1.36.09 2 .27 1.53-1.04 2.2-.82 2.2-.82.44 1.1.16 1.92.08 2.12.51.56.82 1.27.82 2.15 0 3.07-1.87 3.75-3.65 3.95.29.25.54.73.54 1.48 0 1.07-.01 1.93-.01 2.2 0 .21.15.46.55.38A8.013 8.013 0 0 0 16 8c0-4.42-3.58-8-8-8z"></path>
    </symbol>
    <symbol id="home-icon" viewBox="0 0 16 16" stroke="currentColor" fill="currentColor" stroke-width="0">
      <path fill-rule="evenodd" d="M16 9l-3-3V2h-2v2L8 1 0 9h2l1 5c0 .55.45 1 1 1h8c.55 0 1-.45 1-1l1-5h2zm-4 5H9v-4H7v4H4L2.81 7.69 8 2.5l5.19 5.19L12 14z"></path>
    </symbol>
    <symbol id="plus-icon" viewBox="0 0 20 20" fill="currentColor">
      <path d="M10.75 4.75a.75.75 0 00-1.5 0v4.5h-4.5a.75.75 0 000 1.5h4.5v4.5a.75.75 0 001.5 0v-4.5h4.5a.75.75 0 000-1.5h-4.5v-4.5z"></path>
    </symbol>
    <symbol id="search-icon" viewBox="0 0 24 24" fill="none" stroke="currentColor" stroke-width="2" stroke-linecap="round" stroke-linejoin="round">
      <circle cx="11" cy="11" r="8">
      </circle><line x1="21" y1="21" x2="16.65" y2="16.65"></line>
    </symbol>
    <symbol id="star-icon" viewBox="0 0 24 24" stroke="currentColor" fill="currentColor" stroke-width="0">
      <path d="M22 9.24l-7.19-.62L12 2 9.19 8.63 2 9.24l5.46 4.73L5.82 21 12 17.27 18.18 21l-1.63-7.03L22 9.24zM12 15.4l-3.76 2.27 1-4.28-3.32-2.88 4.38-.38L12 6.1l1.71 4.04 4.38.38-3.32 2.88 1 4.28L12 15.4z"></path>
    </symbol>
    <symbol id="tag-icon" viewBox="0 0 15 16" stroke="currentColor" fill="currentColor" stroke-width="0">
      <path fill-rule="evenodd" d="M7.73 1.73C7.26 1.26 6.62 1 5.96 1H3.5C2.13 1 1 2.13 1 3.5v2.47c0 .66.27 1.3.73 1.77l6.06 6.06c.39.39 1.02.39 1.41 0l4.59-4.59a.996.996 0 0 0 0-1.41L7.73 1.73zM2.38 7.09c-.31-.3-.47-.7-.47-1.13V3.5c0-.88.72-1.59 1.59-1.59h2.47c.42 0 .83.16 1.13.47l6.14 6.13-4.73 4.73-6.13-6.15zM3.01 3h2v2H3V3h.01z"></path>
    </symbol>
    <symbol id="x-mark-icon" viewBox="0 0 20 20" fill="currentColor">
      <path d="M6.28 5.22a.75.75 0 00-1.06 1.06L8.94 10l-3.72 3.72a.75.75 0 101.06 1.06L10 11.06l3.72 3.72a.75.75 0 101.06-1.06L11.06 10l3.72-3.72a.75.75 0 00-1.06-1.06L10 8.94 6.28 5.22z"></path>
    </symbol>
  </defs>
</svg>
