<svg xmlns="http://www.w3.org/2000/svg" xmlns:xlink="http://www.w3.org/1999/xlink">
  <defs>
    <symbol id="chevron-down-icon" viewBox="0 0 20 20" fill="currentColor">
      <path fill-rule="evenodd" d="M5.23 7.21a.75.75 0 011.06.02L10 11.168l3.71-3.938a.75.75 0 111.08 1.04l-4.25 4.5a.75.75 0 01-1.08 0l-4.25-4.5a.75.75 0 01.02-1.06z" clip-rule="evenodd"></path>
    </symbol>
    <symbol id="chevron-right-icon" viewBox="0 0 20 20" fill="currentColor">
      <path fill-rule="evenodd" d="M7.21 14.77a.75.75 0 01.02-1.06L11.168 10 7.23 6.29a.75.75 0 111.04-1.08l4.5 4.25a.75.75 0 010 1.08l-4.5 4.25a.75.75 0 01-1.06-.02z" clip-rule="evenodd"></path>
    </symbol>
    <symbol id="chevron-left-icon" viewBox="0 0 20 20" fill="currentColor">
      <path fill-rule="evenodd" d="M12.79 5.23a.75.75 0 01-.02 1.06L8.832 10l3.938 3.71a.75.75 0 11-1.04 1.08l-4.5-4.25a.75.75 0 010-1.08l4.5-4.25a.75.75 0 011.06.02z" clip-rule="evenodd"></path>
    </symbol>
    <symbol id="discord-icon" viewBox="0 0 15 15" fill="none">
      <path fill-rule="evenodd" clip-rule="evenodd" d="M5.07451 1.82584C5.03267 1.81926 4.99014 1.81825 4.94803 1.82284C4.10683 1.91446 2.82673 2.36828 2.07115 2.77808C2.02106 2.80525 1.97621 2.84112 1.93869 2.88402C1.62502 3.24266 1.34046 3.82836 1.11706 4.38186C0.887447 4.95076 0.697293 5.55032 0.588937 5.98354C0.236232 7.39369 0.042502 9.08728 0.0174948 10.6925C0.0162429 10.7729 0.0351883 10.8523 0.0725931 10.9234C0.373679 11.496 1.02015 12.027 1.66809 12.4152C2.32332 12.8078 3.08732 13.1182 3.70385 13.1778C3.85335 13.1922 4.00098 13.1358 4.10282 13.0255C4.2572 12.8581 4.5193 12.4676 4.71745 12.1643C4.80739 12.0267 4.89157 11.8953 4.95845 11.7901C5.62023 11.9106 6.45043 11.9801 7.50002 11.9801C8.54844 11.9801 9.37796 11.9107 10.0394 11.7905C10.1062 11.8957 10.1903 12.0269 10.2801 12.1643C10.4783 12.4676 10.7404 12.8581 10.8947 13.0255C10.9966 13.1358 11.1442 13.1922 11.2937 13.1778C11.9102 13.1182 12.6742 12.8078 13.3295 12.4152C13.9774 12.027 14.6239 11.496 14.925 10.9234C14.9624 10.8523 14.9813 10.7729 14.9801 10.6925C14.9551 9.08728 14.7613 7.39369 14.4086 5.98354C14.3003 5.55032 14.1101 4.95076 13.8805 4.38186C13.6571 3.82836 13.3725 3.24266 13.0589 2.88402C13.0214 2.84112 12.9765 2.80525 12.9264 2.77808C12.1708 2.36828 10.8907 1.91446 10.0495 1.82284C10.0074 1.81825 9.96489 1.81926 9.92305 1.82584C9.71676 1.85825 9.5391 1.96458 9.40809 2.06355C9.26977 2.16804 9.1413 2.29668 9.0304 2.42682C8.86968 2.61544 8.71437 2.84488 8.61428 3.06225C8.27237 3.03501 7.90138 3.02 7.5 3.02C7.0977 3.02 6.72593 3.03508 6.38337 3.06244C6.28328 2.84501 6.12792 2.61549 5.96716 2.42682C5.85626 2.29668 5.72778 2.16804 5.58947 2.06355C5.45846 1.96458 5.2808 1.85825 5.07451 1.82584ZM11.0181 11.5382C11.0395 11.5713 11.0615 11.6051 11.0838 11.6392C11.2169 11.843 11.3487 12.0385 11.4508 12.1809C11.8475 12.0916 12.352 11.8818 12.8361 11.5917C13.3795 11.2661 13.8098 10.8918 14.0177 10.5739C13.9852 9.06758 13.7993 7.50369 13.4773 6.21648C13.38 5.82759 13.2038 5.27021 12.9903 4.74117C12.7893 4.24326 12.5753 3.82162 12.388 3.5792C11.7376 3.24219 10.7129 2.88582 10.0454 2.78987C10.0308 2.79839 10.0113 2.81102 9.98675 2.82955C9.91863 2.881 9.84018 2.95666 9.76111 3.04945C9.71959 3.09817 9.68166 3.1471 9.64768 3.19449C9.953 3.25031 10.2253 3.3171 10.4662 3.39123C11.1499 3.6016 11.6428 3.89039 11.884 4.212C12.0431 4.42408 12.0001 4.72494 11.788 4.884C11.5759 5.04306 11.2751 5.00008 11.116 4.788C11.0572 4.70961 10.8001 4.4984 10.1838 4.30877C9.58933 4.12585 8.71356 3.98 7.5 3.98C6.28644 3.98 5.41067 4.12585 4.81616 4.30877C4.19988 4.4984 3.94279 4.70961 3.884 4.788C3.72494 5.00008 3.42408 5.04306 3.212 4.884C2.99992 4.72494 2.95694 4.42408 3.116 4.212C3.35721 3.89039 3.85011 3.6016 4.53383 3.39123C4.77418 3.31727 5.04571 3.25062 5.35016 3.19488C5.31611 3.14738 5.27808 3.09831 5.23645 3.04945C5.15738 2.95666 5.07893 2.881 5.01081 2.82955C4.98628 2.81102 4.96674 2.79839 4.95217 2.78987C4.28464 2.88582 3.25999 3.24219 2.60954 3.5792C2.42226 3.82162 2.20825 4.24326 2.00729 4.74117C1.79376 5.27021 1.61752 5.82759 1.52025 6.21648C1.19829 7.50369 1.01236 9.06758 0.97986 10.5739C1.18772 10.8918 1.61807 11.2661 2.16148 11.5917C2.64557 11.8818 3.15003 12.0916 3.5468 12.1809C3.64885 12.0385 3.78065 11.843 3.9138 11.6392C3.93626 11.6048 3.95838 11.5708 3.97996 11.5375C3.19521 11.2591 2.77361 10.8758 2.50064 10.4664C2.35359 10.2458 2.4132 9.94778 2.63377 9.80074C2.85435 9.65369 3.15236 9.71329 3.29941 9.93387C3.56077 10.3259 4.24355 11.0201 7.50002 11.0201C10.7565 11.0201 11.4392 10.326 11.7006 9.93386C11.8477 9.71329 12.1457 9.65369 12.3663 9.80074C12.5869 9.94779 12.6465 10.2458 12.4994 10.4664C12.2262 10.8762 11.8041 11.2598 11.0181 11.5382ZM4.08049 7.01221C4.32412 6.74984 4.65476 6.60162 5.00007 6.59998C5.34538 6.60162 5.67603 6.74984 5.91966 7.01221C6.16329 7.27459 6.30007 7.62974 6.30007 7.99998C6.30007 8.37021 6.16329 8.72536 5.91966 8.98774C5.67603 9.25011 5.34538 9.39833 5.00007 9.39998C4.65476 9.39833 4.32412 9.25011 4.08049 8.98774C3.83685 8.72536 3.70007 8.37021 3.70007 7.99998C3.70007 7.62974 3.83685 7.27459 4.08049 7.01221ZM9.99885 6.59998C9.65354 6.60162 9.3229 6.74984 9.07926 7.01221C8.83563 7.27459 8.69885 7.62974 8.69885 7.99998C8.69885 8.37021 8.83563 8.72536 9.07926 8.98774C9.3229 9.25011 9.65354 9.39833 9.99885 9.39998C10.3442 9.39833 10.6748 9.25011 10.9184 8.98774C11.1621 8.72536 11.2989 8.37021 11.2989 7.99998C11.2989 7.62974 11.1621 7.27459 10.9184 7.01221C10.6748 6.74984 10.3442 6.60162 9.99885 6.59998Z" fill="currentColor"></path>
    </symbol>
    <symbol id="external-link-icon" viewBox="0 0 24 24" stroke="currentColor" fill="none" stroke-width="1.5">
      <path stroke-linecap="round" stroke-linejoin="round" d="M13.5 6H5.25A2.25 2.25 0 003 8.25v10.5A2.25 2.25 0 005.25 21h10.5A2.25 2.25 0 0018 18.75V10.5m-10.5 6L21 3m0 0h-5.25M21 3v5.25"></path>
    </symbol>
    <symbol id="github-icon" viewBox="0 0 24 24"  stroke="currentColor" stroke-width="2" stroke-linecap="round" stroke-linejoin="round" fill="none">
      <path d="M15 22v-4a4.8 4.8 0 0 0-1-3.5c3 0 6-2 6-5.5.08-1.25-.27-2.48-1-3.5.28-1.15.28-2.35 0-3.5 0 0-1 0-3 1.5-2.64-.5-5.36-.5-8 0C6 2 5 2 5 2c-.3 1.15-.3 2.35 0 3.5A5.403 5.403 0 0 0 4 9c0 3.5 3 5.5 6 5.5-.39.49-.68 1.05-.85 1.65-.17.6-.22 1.23-.15 1.85v4"></path>
      <path d="M9 18c-4.51 2-5-2-7-2"></path>
    </symbol>
    <symbol id="hamburger-menu-icon" viewBox="0 0 20 20" fill="currentColor">
      <path fill-rule="evenodd" d="M2 4.75A.75.75 0 012.75 4h14.5a.75.75 0 010 1.5H2.75A.75.75 0 012 4.75zM2 10a.75.75 0 01.75-.75h14.5a.75.75 0 010 1.5H2.75A.75.75 0 012 10zm0 5.25a.75.75 0 01.75-.75h14.5a.75.75 0 010 1.5H2.75a.75.75 0 01-.75-.75z" clip-rule="evenodd"></path>
    </symbol>
    <symbol id="home-icon" viewBox="0 0 16 16" stroke="currentColor" fill="currentColor" stroke-width="0">
      <path fill-rule="evenodd" d="M16 9l-3-3V2h-2v2L8 1 0 9h2l1 5c0 .55.45 1 1 1h8c.55 0 1-.45 1-1l1-5h2zm-4 5H9v-4H7v4H4L2.81 7.69 8 2.5l5.19 5.19L12 14z"></path>
    </symbol>
    <symbol id="moon-icon" viewBox="0 0 24 24" fill="none" stroke="currentColor" stroke-width="2" stroke-linecap="round" stroke-linejoin="round">
      <path d="M12 3a6.364 6.364 0 0 0 9 9 9 9 0 1 1-9-9Z"></path>
    </symbol>
    <symbol id="plus-icon" viewBox="0 0 20 20" fill="currentColor">
      <path d="M10.75 4.75a.75.75 0 00-1.5 0v4.5h-4.5a.75.75 0 000 1.5h4.5v4.5a.75.75 0 001.5 0v-4.5h4.5a.75.75 0 000-1.5h-4.5v-4.5z"></path>
    </symbol>
    <symbol id="search-icon" viewBox="0 0 24 24" fill="none" stroke="currentColor" stroke-width="2" stroke-linecap="round" stroke-linejoin="round">
      <circle cx="11" cy="11" r="8">
      </circle><line x1="21" y1="21" x2="16.65" y2="16.65"></line>
    </symbol>
    <symbol id="star-icon" viewBox="0 0 24 24" stroke="currentColor" fill="currentColor" stroke-width="0">
      <path d="M22 9.24l-7.19-.62L12 2 9.19 8.63 2 9.24l5.46 4.73L5.82 21 12 17.27 18.18 21l-1.63-7.03L22 9.24zM12 15.4l-3.76 2.27 1-4.28-3.32-2.88 4.38-.38L12 6.1l1.71 4.04 4.38.38-3.32 2.88 1 4.28L12 15.4z"></path>
    </symbol>
    <symbol id="sun-icon" xmlns="http://www.w3.org/2000/svg" viewBox="0 0 24 24" fill="none" stroke="currentColor" stroke-width="2" stroke-linecap="round" stroke-linejoin="round">
      <path d="M12 16a4 4 0 1 0 0-8 4 4 0 0 0 0 8z"></path>
      <path d="M12 3v1"></path><path d="M12 20v1"></path>
      <path d="M3 12h1"></path><path d="M20 12h1"></path>
      <path d="m18.364 5.636-.707.707"></path>
      <path d="m6.343 17.657-.707.707"></path>
      <path d="m5.636 5.636.707.707"></path>
      <path d="m17.657 17.657.707.707"></path>
    </symbol>
    <symbol id="tag-icon" viewBox="0 0 15 16" stroke="currentColor" fill="currentColor" stroke-width="0">
      <path fill-rule="evenodd" d="M7.73 1.73C7.26 1.26 6.62 1 5.96 1H3.5C2.13 1 1 2.13 1 3.5v2.47c0 .66.27 1.3.73 1.77l6.06 6.06c.39.39 1.02.39 1.41 0l4.59-4.59a.996.996 0 0 0 0-1.41L7.73 1.73zM2.38 7.09c-.31-.3-.47-.7-.47-1.13V3.5c0-.88.72-1.59 1.59-1.59h2.47c.42 0 .83.16 1.13.47l6.14 6.13-4.73 4.73-6.13-6.15zM3.01 3h2v2H3V3h.01z"></path>
    </symbol>
    <symbol id="x-mark-icon" viewBox="0 0 20 20" fill="currentColor">
      <path d="M6.28 5.22a.75.75 0 00-1.06 1.06L8.94 10l-3.72 3.72a.75.75 0 101.06 1.06L10 11.06l3.72 3.72a.75.75 0 101.06-1.06L11.06 10l3.72-3.72a.75.75 0 00-1.06-1.06L10 8.94 6.28 5.22z"></path>
    </symbol>
  </defs>
</svg>
