<svg xmlns="http://www.w3.org/2000/svg" width="700" height="200" viewBox="0 0 700 200">
  <defs><style>.a{fill:#e65100;}</style></defs>
  <title>bestofjs</title>
  <g transform="translate(-40, -30)">
  <path class="a" d="M40.72,40.18h17.6v90.2q0,15,8.7,25.1t22.5,10.1q15.2,0,24-11.2a35.57,35.57,0,0,0,7.6-22.4q0-16.4-10-25.2a30.81,30.81,0,0,0-20.8-7.6,39.56,39.56,0,0,0-14,2.4,60.27,60.27,0,0,0-11,5.8V89a40.55,40.55,0,0,1,12.2-5.1,51.26,51.26,0,0,1,11.6-1.5q20.4,0,34.6,12.6,15,13.6,15,35,0,21.6-12.6,36.4-13.6,16-36.6,16-21.2,0-35-14.8a49.85,49.85,0,0,1-13.8-35.2Z" />
  <path class="a" d="M173.87,134.5l47.83-26.34a27.39,27.39,0,0,0-6.8-5.58q-6.4-3.39-15.6-3.39-14.2,0-23,10.8-7.8,10-7.8,24a32.14,32.14,0,0,0,8.6,21.9q8.6,9.7,23,9.7,14.79,0,22.19-8,6.8-6.8,9.8-22.2l17.61,2.4q0,15.4-12.6,29-15,16-38.2,16-19.4,0-34.1-14.1t-14.7-34.1q0-25,16.4-39.6a47.94,47.94,0,0,1,32.8-12.6q16.6,0,27.7,7.4t19.3,23l-64.8,36Z" />
  <path class="a" d="M261.12,164h49.6a29.4,29.4,0,0,0,7.2-1.59,7.32,7.32,0,0,0,4.2-7q0-7.56-15.2-12.54l-18.4-5.37q-14.2-4.78-20.2-10.15-7.2-6.37-7.2-17.11,0-14.13,11-20.7,8.2-5,21.8-5h41.4v16.8h-44.8q-11,0-11,8.6.6,5.8,10.4,9.6l18.6,5q17.2,4.8,24.4,12.4a25.78,25.78,0,0,1,7.2,18.4q0,14.6-11.4,21-7.6,4-19.8,4h-47.8Z" />
  <path class="a" d="M355.71,150.33V59.78h17.4v24.6h34.4v16.8h-34.4v52.6a8.34,8.34,0,0,0,3.2,6.8q3,3,9.4,3h21.8v16.8h-22.2q-15.4,0-23-9Q355.71,163.56,355.71,150.33Z" />
  <path class="a" d="M415.31,131.18q0-20.8,15.6-35.2,14.8-13.6,34-13.6a51.43,51.43,0,0,1,34,12.4q16.4,14,16.4,36.8a52.64,52.64,0,0,1-11.55,33.6q-13.55,17.2-35.06,17.2-23.71,0-38.55-14.7A48.37,48.37,0,0,1,415.31,132Zm18.4-.4q0,14,6.78,23.2,8.57,11.6,25.52,11.6,14,0,21.73-8,8.77-9.2,8.77-27.6,0-13.6-8.87-22.2t-22.43-8.6q-15.35,0-23.93,10.4A32.39,32.39,0,0,0,433.71,130.78Z" />
  <path class="a" d="M532.31,180.38v-105q0-18.6,11.4-28a31,31,0,0,1,20.2-7.2h17.2V57h-12.6q-9.6,0-14.2,4.8-3.4,3.8-4.4,10.8v11.8h28.8v16.8h-28.8v79.2Z"/>
  <path class="a" d="M570.51,223.78v-17.2h7.8q11.8,0,15.8-7,2.8-5.2,2.8-19.2v-96h17.6v105.8q0,14.8-8.6,23.6-9.6,10-27.2,10Zm24.6-160.6q0-5.2Z"/>
  <circle class="a" cx="605" r="10" cy="65"/>
  <path class="a" d="M633.71,164h49.6a29.39,29.39,0,0,0,7.2-1.59,7.32,7.32,0,0,0,4.2-7q0-7.56-15.2-12.54l-18.4-5.37q-14.2-4.78-20.2-10.15-7.2-6.37-7.2-17.11,0-14.13,11-20.7,8.2-5,21.8-5h41.4v16.8h-44.8q-11,0-11,8.6.6,5.8,10.4,9.6l18.6,5q17.2,4.8,24.4,12.4a25.78,25.78,0,0,1,7.2,18.4q0,14.6-11.4,21-7.6,4-19.8,4h-47.8Z" />
  </g>
</svg>
