<svg viewBox="0 0 60 60" xmlns="http://www.w3.org/2000/svg">
  <circle cx="30" cy="30" r="25" fill="white"/>
  <path d="M40.674 27.253 27.968 48.196h-2.302l2.276-13.647-7.048.01-.099.002c-.634 0-1.15-.51-1.15-1.138 0-.27.255-.727.255-.727l12.664-20.92 2.34.01-2.332 13.668 7.084-.008.112-.002c.635 0 1.149.51 1.149 1.139 0 .255-.1.479-.244.669zM30.288 0C13.56 0 0 13.432 0 30 0 46.57 13.56 60 30.288 60c16.729 0 30.289-13.431 30.289-30 0-16.568-13.56-30-30.289-30z" fill="#0379C4" fill-rule="evenodd"/>
</svg>
