<svg fill="none" xmlns="http://www.w3.org/2000/svg" viewBox="0 0 192 256">
  <path fill-rule="evenodd" clip-rule="evenodd" d="M131 18.93c1.95 2.41 2.94 5.67 4.93 12.18l43.3 142.27a180.28 180.28 0 0 0-51.77-17.53l-28.2-95.29a3.67 3.67 0 0 0-7.04.01L64.36 155.8a180.22 180.22 0 0 0-52.01 17.56L55.87 31.08c1.99-6.5 2.98-9.75 4.93-12.16a16 16 0 0 1 6.48-4.8c2.87-1.15 6.27-1.15 13.07-1.15h31.09c6.8 0 10.2 0 13.08 1.15a16 16 0 0 1 6.49 4.8z" fill="url(#a)"/>
  <path fill-rule="evenodd" clip-rule="evenodd" d="M136.19 180.15c-7.14 6.1-21.39 10.27-37.8 10.27-20.15 0-37.04-6.27-41.52-14.7-1.6 4.83-1.96 10.36-1.96 13.9 0 0-1.05 17.35 11.02 29.42 0-6.27 5.08-11.35 11.35-11.35 10.74 0 10.73 9.37 10.72 16.98v.68a27.73 27.73 0 0 0 17.08 25.6 23.27 23.27 0 0 1-2.34-10.2c0-11 6.47-15.1 13.98-19.87 5.97-3.79 12.61-8 17.19-16.45a31.02 31.02 0 0 0 3.74-14.82c0-3.3-.51-6.48-1.46-9.46z" fill="#FF5D01"/>
  <path fill-rule="evenodd" clip-rule="evenodd" d="M136.19 180.15c-7.14 6.1-21.39 10.27-37.8 10.27-20.15 0-37.04-6.27-41.52-14.7-1.6 4.83-1.96 10.36-1.96 13.9 0 0-1.05 17.35 11.02 29.42 0-6.27 5.08-11.35 11.35-11.35 10.74 0 10.73 9.37 10.72 16.98v.68a27.73 27.73 0 0 0 17.08 25.6 23.27 23.27 0 0 1-2.34-10.2c0-11 6.47-15.1 13.98-19.87 5.97-3.79 12.61-8 17.19-16.45a31.02 31.02 0 0 0 3.74-14.82c0-3.3-.51-6.48-1.46-9.46z" fill="url(#b)"/>
  <defs>
    <linearGradient id="a" x1="144.6" y1="5.42" x2="95.79" y2="173.38" gradientUnits="userSpaceOnUse">
      <stop stop-color="#000014"/>
      <stop offset="1" stop-color="#150426"/>
    </linearGradient>
    <linearGradient id="b" x1="168.34" y1="130.49" x2="126.06" y2="218.98" gradientUnits="userSpaceOnUse">
      <stop stop-color="#FF1639"/>
      <stop offset="1" stop-color="#FF1639" stop-opacity="0"/>
    </linearGradient>
  </defs>
</svg>
