<svg viewBox="0 0 512 280" xmlns="http://www.w3.org/2000/svg" preserveAspectRatio="xMidYMid">
  <path d="M116.55 6.28c6.22 3.87 10.6 8.63 13.2 14.15a3048.2 3048.2 0 0 0 12.87 29c4.7 10.46 9.46 21.06 14.15 31.78 4.7 10.72 9.27 21.19 13.58 31.34 4.31 10.15 8.25 19.48 11.67 27.92a435.4 435.4 0 0 1 8.19 21.5c2.03 5.9 3.04 9.84 3.04 11.68 0 3.17-.44 6.22-1.27 9.26a20.29 20.29 0 0 1-4.56 8.31c-2.22 2.48-5.33 4.5-9.27 5.97-4 1.46-9.13 2.22-15.41 2.22-6.67 0-12.06-.9-16.25-2.67-4.18-1.77-7.6-4-10.4-6.79a46.03 46.03 0 0 1-6.92-8.75 148.74 148.74 0 0 0-5.7-8.76 28.27 28.27 0 0 0-6.67-6.79c-2.47-1.77-5.9-2.66-10.15-2.66H88.9c-5.2 0-9.27.89-12.38 2.66-3.04 1.78-5.52 4-7.48 6.8a87.5 87.5 0 0 0-5.4 8.75 42.9 42.9 0 0 1-6.4 8.75c-2.6 2.8-5.97 5.02-10.15 6.8-4.2 1.77-9.77 2.66-16.82 2.66-10.34 0-17.95-2.29-22.77-6.92C2.66 187.86.25 182.4.25 176.12c0-2.4.96-6.6 2.92-12.62 1.97-6.03 4.57-13.2 7.93-21.51 3.5-8.38 7.3-17.57 11.55-27.79 4.25-10.15 8.76-20.68 13.58-31.47 4.82-10.85 9.64-21.63 14.4-32.48 4.82-10.85 9.45-21.26 13.9-31.22 2.6-5.7 6.9-10.27 12.87-13.57A41.12 41.12 0 0 1 97.51.44c6.48 0 12.82 1.97 19.04 5.84zm224.4.95c4.82 4.38 7.24 9.96 7.24 16.82 0 3.87-.96 8.94-2.92 15.29a377.05 377.05 0 0 1-7.49 21.38 810.54 810.54 0 0 1-10.53 25.82c-4 9.26-8 18.65-12.06 28.3a1019.92 1019.92 0 0 0-14.27 35.4c-4 10.47-8.06 19.35-12.18 26.64-4.19 7.3-8.7 12.95-13.58 16.94-4.88 4-10.98 5.97-18.14 5.97-7.43 0-13.58-1.59-18.47-4.89-4.88-3.23-9.32-8.12-13.32-14.72-4-6.53-7.87-14.84-11.67-24.8-3.81-9.96-8.25-21.83-13.45-35.53-3.88-10.34-7.87-20.5-11.93-30.4-4.06-9.89-7.74-19.03-11.1-27.34-3.3-8.3-6.03-15.8-8.19-22.33-2.1-6.53-3.17-11.67-3.17-15.42 0-8.5 2.85-14.59 8.63-18.33C180.05 2.35 187.23.5 195.73.5c7.74 0 13.83.95 18.14 2.92a38.12 38.12 0 0 1 11.23 7.6c2.22 2.23 4.44 5.47 6.66 9.72a125.6 125.6 0 0 1 6.22 14.02c1.97 5.07 3.87 10.21 5.84 15.41 1.97 5.2 3.74 9.97 5.4 14.28a67.16 67.16 0 0 0 4.88 10.53c1.58 2.67 2.98 4 4.31 4 1.46 0 2.98-1.33 4.57-4a78.12 78.12 0 0 0 4.88-10.4c1.65-4.25 3.37-8.95 5.14-14.02a529.44 529.44 0 0 1 5.52-15.1c1.9-4.95 4-9.58 6.1-13.7 2.09-4.2 4.3-7.37 6.53-9.59 2.03-2.03 4-3.74 5.96-5.14a31.12 31.12 0 0 1 6.41-3.49 36.93 36.93 0 0 1 7.93-2.1c2.98-.43 6.54-.69 10.85-.69 7.55 0 13.83 2.16 18.65 6.47zm94.22-.95c6.22 3.87 10.6 8.63 13.2 14.15 3.86 8.88 8.18 18.53 12.87 29 4.7 10.46 9.46 21.06 14.15 31.78 4.7 10.72 9.27 21.19 13.58 31.34 4.31 10.15 8.25 19.48 11.67 27.92a435.4 435.4 0 0 1 8.19 21.5c2.03 5.9 3.04 9.84 3.04 11.68 0 3.17-.44 6.22-1.27 9.26a20.29 20.29 0 0 1-4.56 8.31c-2.22 2.48-5.33 4.5-9.27 5.97-4 1.46-9.13 2.22-15.41 2.22-6.67 0-12.06-.9-16.25-2.67-4.18-1.77-7.6-4-10.4-6.79a46.03 46.03 0 0 1-6.92-8.75 148.74 148.74 0 0 0-5.7-8.76 28.27 28.27 0 0 0-6.67-6.79c-2.47-1.77-5.9-2.66-10.15-2.66h-17.76c-5.2 0-9.27.89-12.38 2.66-3.04 1.78-5.52 4-7.48 6.8a87.5 87.5 0 0 0-5.4 8.75 42.9 42.9 0 0 1-6.4 8.75c-2.6 2.8-5.97 5.02-10.15 6.8-4.2 1.77-9.77 2.66-16.82 2.66-10.34 0-17.95-2.29-22.77-6.92-4.83-4.63-7.24-10.09-7.24-16.37 0-2.4.96-6.6 2.92-12.62 1.97-6.03 4.57-13.2 7.93-21.51 3.3-8.31 7.1-17.57 11.36-27.73 4.25-10.15 8.75-20.68 13.58-31.46 4.82-10.85 9.64-21.64 14.4-32.49 4.82-10.85 9.45-21.25 13.9-31.21 2.6-5.71 6.9-10.28 12.87-13.58A41.12 41.12 0 0 1 415.94.51c6.67-.07 13.01 1.9 19.23 5.77z" fill="#eee"/>
  <path d="M96.88 279.54a4.1 4.1 0 0 0 3.68-2.22c0-.07 6.03-11.17 12-24.3a255.6 255.6 0 0 0 8.3-20.18c1.14-3.3 2.1-6.4 2.8-9.26.7-2.92 1.14-5.58 1.14-8 0-9.45-3.5-17.89-9.33-23.72a26.36 26.36 0 0 0-18.65-7.87 26.36 26.36 0 0 0-18.66 7.87c-5.77 5.77-9.32 14.2-9.32 23.73 0 2.47.44 5.13 1.14 7.99 1.2 5.08 3.3 10.85 5.65 16.81 7.17 17.83 17.44 36.86 17.44 37a4.6 4.6 0 0 0 3.81 2.15zm318.62 0a4.1 4.1 0 0 0 3.68-2.22c0-.07 6.03-11.17 12-24.3a255.6 255.6 0 0 0 8.3-20.18c1.14-3.3 2.1-6.4 2.8-9.26.7-2.92 1.14-5.58 1.14-8 0-9.45-3.5-17.89-9.33-23.72a26.36 26.36 0 0 0-18.65-7.87 26.36 26.36 0 0 0-18.66 7.87c-5.77 5.77-9.32 14.2-9.32 23.73 0 2.47.44 5.13 1.14 7.99 1.2 5.08 3.3 10.85 5.65 16.81 7.17 17.83 17.44 36.86 17.44 37a4.6 4.6 0 0 0 3.81 2.15z" fill="#E0C7C1"/>
</svg>
