<svg viewBox="0 0 200 200" fill="none" xmlns="http://www.w3.org/2000/svg">
  <path d="M100.374 50.735c0-2.426 0-3.64.479-4.201a1.995 1.995 0 0 1 1.676-.696c.734.058 1.59.916 3.301 2.631l47.586 47.701c1.187 1.19 1.78 1.785 2.002 2.47a3.005 3.005 0 0 1 0 1.857c-.222.686-.815 1.28-2.002 2.47l-47.586 47.701c-1.711 1.715-2.567 2.573-3.301 2.631a1.994 1.994 0 0 1-1.676-.696c-.479-.561-.479-1.775-.479-4.201V50.735z" fill="#276EF1"/>
  <path fill-rule="evenodd" clip-rule="evenodd" d="M118.47 8.47c-10.201-10.2-26.74-10.2-36.94 0L7.65 82.35c-10.2 10.2-10.2 26.739 0 36.939l73.88 73.88c10.2 10.201 26.739 10.201 36.94 0l73.88-73.88c10.2-10.2 10.2-26.739 0-36.94L118.47 8.47zm-9.039 26.765c-5.1-5.1-13.37-5.1-18.47 0l-55.41 55.41c-5.1 5.1-5.1 13.369 0 18.469l55.41 55.41c5.1 5.1 13.37 5.1 18.47 0l55.41-55.41c5.1-5.1 5.1-13.37 0-18.47l-55.41-55.41z" fill="#000"/>
</svg>
