<svg viewBox="0 0 256 298" xmlns="http://www.w3.org/2000/svg" preserveAspectRatio="xMidYMid">
  <path fill="#00B46F" d="m192 112.384 64 37.943v74.441l-64 36.48-64-36.48v-74.423"/>
  <path fill="#2294D9" d="m128 0 64 37.943v74.441l-64 36.48-64-36.48V37.961"/>
  <path fill="#2294D9" d="m192 37.943 64 37.943v74.45l-64 36.48-64-36.48v-74.45"/>
  <path fill="#F85551" d="m64 37.943 64 37.943v74.45l-64 36.48-64-36.48v-74.45"/>
  <path fill="#F85551" d="m64 112.384 64 37.943v74.441l-64 36.48-64-36.48v-74.423"/>
  <path fill="#00B46F" d="m128 148.873 64 37.943v74.441l-64 36.48-64-36.48v-74.441"/>
  <path d="m192 37.943-64 37.943-64-37.943L128 0l64 37.943zm64 37.943-64 37.96-64-37.942 64-37.943 64 37.943v-.018z" fill="#30B2E9"/>
  <path fill="#00AB64" d="M128 223.305v-74.423l-64 37.943v74.423"/>
  <path fill="#00CE8E" d="m192 186.816-64 36.48-64-36.48 64-37.943"/>
  <path fill="#00C783" d="m128 223.305-64-36.48 64-37.943z"/>
  <path fill="#2CAEE7" d="M128 75.886 64 37.943 128 0z"/>
  <path fill="#FB716C" d="m128 75.886-64 37.96L0 75.905l64-37.943"/>
  <path fill="#1F8ED6" d="m256 150.336-64 36.48-64-37.943 64-35.017"/>
  <path fill="#F64743" d="M63.013 260.626 0 224.146l63.013-37.96v74.44z"/>
  <path fill="#F96560" d="M64 113.847V37.96l64 37.943v72.96"/>
  <path fill="#B71D1D" d="M128 148.873V75.886l-64 37.96v72.96"/>
  <path fill="#B21A1A" d="m128 148.873-64-35.017 64-37.97z"/>
  <path fill-opacity=".2" fill="#10161A" style="mix-blend-mode:soft-light" d="m256 224.768-64-37.943 64-36.48v74.423z"/>
  <path d="M192 261.257v-74.441l-64 36.48v74.45l64-36.48v-.009zm64-36.48v-74.441l-64 36.48v74.441l64-36.48z" fill="#007233"/>
  <path fill="#00682C" d="m256 224.768-64-37.943 64-36.48v74.423z"/>
  <path fill="#0759BA" d="M256 150.336v-74.45l-64 37.96v72.96"/>
  <path fill="#0860BF" d="m256 150.336-64-36.48 64-37.97z"/>
  <path d="m0 75.886 64 36.498 64-36.48-62.537 38.674L64 186.514c0 .028 0 0 0 0l-1.463-71.954L0 75.886z" fill="#FEBCB7" opacity=".78"/>
  <path fill="#4EDCF8" opacity=".78" d="m128 75.886 64 36.498 64-36.48-62.537 38.674L192 186.807l-1.463-72.229"/>
  <path d="m64 186.816 64 35.035 64-35.035-62.537 37.211L128 297.691c0 .028 0 0 0 0l-1.463-73.654L64 186.825v-.009z" fill="#00F3C9" opacity=".78"/>
</svg>
