<svg viewBox="0 0 256 256" xmlns="http://www.w3.org/2000/svg" preserveAspectRatio="xMidYMid">
  <defs>
    <filter x="-50%" y="-50%" width="200%" height="200%" filterUnits="objectBoundingBox" id="b">
      <feOffset dy="2" in="SourceAlpha" result="shadowOffsetOuter1"/>
      <feGaussianBlur stdDeviation="2" in="shadowOffsetOuter1" result="shadowBlurOuter1"/>
      <feColorMatrix values="0 0 0 0 0 0 0 0 0 0 0 0 0 0 0 0 0 0 0.273992301 0" in="shadowBlurOuter1" result="shadowMatrixOuter1"/>
      <feMerge>
        <feMergeNode in="shadowMatrixOuter1"/>
        <feMergeNode in="SourceGraphic"/>
      </feMerge>
    </filter>
    <filter x="-50%" y="-50%" width="200%" height="200%" filterUnits="objectBoundingBox" id="c">
      <feOffset dy="2" in="SourceAlpha" result="shadowOffsetOuter1"/>
      <feGaussianBlur stdDeviation="2" in="shadowOffsetOuter1" result="shadowBlurOuter1"/>
      <feColorMatrix values="0 0 0 0 0 0 0 0 0 0 0 0 0 0 0 0 0 0 0.273992301 0" in="shadowBlurOuter1" result="shadowMatrixOuter1"/>
      <feMerge>
        <feMergeNode in="shadowMatrixOuter1"/>
        <feMergeNode in="SourceGraphic"/>
      </feMerge>
    </filter>
    <linearGradient x1="50%" y1="0%" x2="50%" y2="100%" id="a">
      <stop stop-color="#29ABE2" offset="0%"/>
      <stop stop-color="#28A9E1" offset="47.57%"/>
      <stop stop-color="#23A2DC" offset="66.39%"/>
      <stop stop-color="#1A96D4" offset="80.12%"/>
      <stop stop-color="#0E85C9" offset="91.3%"/>
      <stop stop-color="#0071BC" offset="100%"/>
    </linearGradient>
  </defs>
  <path d="M256 204.8c0 28.16-23.04 51.2-51.2 51.2H51.2C23.04 256 0 232.96 0 204.8V51.2C0 23.04 23.04 0 51.2 0h153.6C232.96 0 256 23.04 256 51.2v153.6z" fill="#115A91"/>
  <path d="M204.8 28.16c12.705 0 23.04 10.335 23.04 23.04v128c0 12.705-10.335 23.04-23.04 23.04H51.2c-12.705 0-23.04-10.335-23.04-23.04v-128c0-12.705 10.335-23.04 23.04-23.04h153.6" fill="#FFF"/>
  <path d="M204.8 28.16c12.705 0 23.04 10.335 23.04 23.04v128c0 12.705-10.335 23.04-23.04 23.04H51.2c-12.705 0-23.04-10.335-23.04-23.04v-128c0-12.705 10.335-23.04 23.04-23.04h153.6zm0-28.16H51.2C23.04 0 0 23.04 0 51.2v128c0 28.16 23.04 51.2 51.2 51.2h153.6c28.16 0 51.2-23.04 51.2-51.2v-128C256 23.04 232.96 0 204.8 0z" fill="url(#a)"/>
  <g fill="#4D4D4D">
    <path d="M143.36 0v122.88h-64V92.16h35.84v-64H79.36V0h64z" filter="url(#b)" transform="translate(56.32 53.76)"/>
    <path d="M64 0v28.16H28.16v64H64v30.72H0V0h64z" filter="url(#c)" transform="translate(56.32 53.76)"/>
  </g>
</svg>
