<svg viewBox="0 0 256 266" xmlns="http://www.w3.org/2000/svg" preserveAspectRatio="xMidYMid">
  <path d="M99.3 250.6a24 24 0 0 0 15.2 12.5c2.5.9 5.8 1.7 8.4 2.2 2.8.5 6.2.5 9.4.4a63.5 63.5 0 0 0 23.8-4.4c4.7-1.8 7.6-3.8 8.2-5.2a261 261 0 0 1-3-17c-.6-6-.2-10.2.5-17.2 1.2-10.3 3.4-15 6.6-21.1 3-5.9 8.1-14 12-19.3 4.1-5.5 14.3-16.3 18-20.3 1.3.4 3.8 1.3 7.7 2 3 .6 6.4 1.3 10.7 1.2a32 32 0 0 0 20-6.3 39.7 39.7 0 0 0 13.4-17.4 31.2 31.2 0 0 0 1.9-16.8 69.3 69.3 0 0 0-7.6-22.8s6.2-7.5 8.7-13.7a39.9 39.9 0 0 0 2.7-16.6 40.6 40.6 0 0 0-6.6-15.6c-3.2-3.9-6.3-8-10.2-11a52.3 52.3 0 0 0-27.4-11.4A34.4 34.4 0 0 0 196 10.6 51.4 51.4 0 0 0 171.5.2c-3.9-.3-9.5-.4-16.5 1a71.2 71.2 0 0 0-16.7 6.2c-9.3-3.5-17.9-3-24.7-1.1-5.7 1.5-7 2.5-12.1 5.5a40.7 40.7 0 0 0-15.1 13.4 84.2 84.2 0 0 0-39 11.6 69.7 69.7 0 0 0-24.5 25.4 55.7 55.7 0 0 0-5 38.5c-23.7 14.6-21.2 38-7.9 51 11.7 11.4 31.1 15 49.5 13.1 5.5 5.6 26.2 30.7 26.2 30.7s21 23.6 13.6 55.1zm-22.5-97.5c2.8-2.9 5.3-7 7.2-10 2.1 0 6.5.4 10.9.2 4.3-.2 9-.9 10.8-2 .5 1.6 4 14.4 4.3 22.3.3 10.4 0 12.2-1.6 15.9-1 .4-1.8.6-3 .2-4-1.4-10.6-6.4-15.3-10.9-7.4-6.8-13.3-15.7-13.3-15.7zm82-2.2c0 1.2-.2 5.7.4 9.7.7 4 1.3 7.7 2.8 9.2 5.3-1 9-4.4 12.2-6.8 0 0 10.4-8.1 12.4-10a22.3 22.3 0 0 1-4.4-6.6s-7.4 2.2-11 3c-4.7 1-10.1 1.4-12.3 1.5z" fill="#598527"/>
</svg>
