<svg viewBox="0 0 256 216" version="1" xmlns="http://www.w3.org/2000/svg" preserveAspectRatio="xMidYMid">
  <path d="M111 0c-5 0-10 3-14 2l-6-1-5 2-8 4-5 7c-6 7-11 16-13 23-1 6-1 14-3 20-1 1-4 10-1 12 1 1 7 2 9 0 1-1 9-4 12-7 3-4 5-11 7-16l2-3 2 6 4 10c-2 3-2 7 0 9-6 2-3 9-4 10l-2 1-1 3 1 3c-6 14-12 32-18 42l-7 2-26 7-1 2-4 2h-4l-9 5h-2l-6 4-8 9c-3 3 3 11 4 11 3 3 8 4 10 6l7 1h1l16 5c7 2 12 8 19 10l16 3 7 1 11 4h4l8 2c5 2 12-1 17 0 3 1 24 0 25-2h8l6-1c2-3 7-3 11-4l5-1 4 1h10c4 0 10-2 16-6l16-3c3-3 10-2 13-5l7-5 8-7 2-3 4-12-5-6h-2c-2-3-7-3-9-5l-14-8-3-2-9-3-4-1-14-4-2-1-5-2-1-6v-2c-3-15-4-31-6-32-3-2-4-14-7-17l-7-7-3-10v-5c-3-2-6-15-9-17s-4-7-7-9c-8-6-20-16-34-15l-2-1h-2z" fill="#3C6991"/>
  <path d="M108 81h-9c-6 1-10 2-11 4 9-2 18 3 22 9 2 2-1 5 0 8v5c-2 1-2 5-3 6l-7 11c-3 3-10 4-13 5h-4l1 1h2c3 2 14 1 17 0l6-2c3-1 5-5 7-7 6-7 9-19 6-28-2-5-6-7-9-10l-5-2zm13-9v6l-6 3h1l6 2v4l1 2v1l1-2 3-4h4s7 1 5-1l-5-3-1-1h1v-1l1-1s2-2 0-2l-6 1v-1c-1 0-3-3-5-3zm-17 0s1 0 0 0c0 0-3 2-2 3h5l2 2v-4l3-1h1v-1h-1l-3-1v-3h-1l-2 2h-4l2 3zm26 26v-1 1c0-1-4-3-4-1l2 4-1 3 4-1 1 2 1 1s1 0 0 0l1-2-1-2 2-1 1-1-1-1-2-1-1-3-2 3z" fill="#E6B35A"/>
  <path d="m189 122-5 8-5 6-5 4-6 4-4 2-11 3h-3l-12 2c-2 2-7 0-9 1h-23l-6-1-9-1c-5 0-16-6-19-8l-3-2-1-1-2-4v-3l1-2-4 5-1 4c0 6 3 6 6 10l4 1 2 1-5 2-6 4-2 1-26 22-1 11c0 2-1 5 1 7l4 1 3 2-1-7c0-6 1-12 5-16 7-8 18-11 25-18l8-5 1 2 1-1c3 2 11 5 14 2l1 2c1 2 0 9-1 11-3 6-4 24-7 26l1 6v7l1 3h4c0 1 3 3 4 2l-2-7 2-15v-3l2-25v-5l-1-3h19l28-1c2-1 7-1 10-3l9-1 11-5 8-7c2-1 3-5 4-6 0-2 4-5 3-6l-2-6z" fill="#E6B35A"/>
</svg>
