<svg viewBox="0 0 256 296" xmlns="http://www.w3.org/2000/svg" preserveAspectRatio="xMidYMid">
  <defs>
    <linearGradient x1="50%" y1="45.227%" x2="50%" y2="100%" id="a">
      <stop stop-color="#F7F6F3" offset="0%"/>
      <stop stop-color="#FEF6D5" offset="100%"/>
    </linearGradient>
  </defs>
  <path d="m11.071 215.711 116.926 67.509 116.932-67.509V80.696L127.997 13.189 11.071 80.696v135.015zM127.997 296 0 222.1V74.306L127.997.404 256 74.306V222.1L127.997 296z" fill="#A1070C"/>
  <path d="M9.579 79.833 128 11.463l118.421 68.37v136.741L128 284.944 9.579 216.574V79.833" fill="url(#a)"/>
  <path d="M182.332 98.173c0 5.372-1.06 10.708-3.18 16.008a59.125 59.125 0 0 1-8.534 14.736 62.439 62.439 0 0 1-12.35 11.874c-4.666 3.393-9.507 5.83-14.525 7.315l-2.226-3.71a34.048 34.048 0 0 0 8.163-5.725 37.143 37.143 0 0 0 6.36-7.898 39.166 39.166 0 0 0 4.082-9.33 35.758 35.758 0 0 0 1.431-10.018c0-3.887-.565-7.562-1.696-11.025-1.13-3.464-2.791-6.485-4.982-9.065-2.191-2.58-4.895-4.611-8.11-6.095-3.216-1.485-6.91-2.227-11.079-2.227-5.089 0-9.753.99-13.994 2.969-4.24 1.979-8.057 4.647-11.45 8.004-3.392 3.357-6.343 7.209-8.852 11.555a79.725 79.725 0 0 0-6.254 13.676 91.782 91.782 0 0 0-3.764 14.471c-.848 4.877-1.272 9.47-1.272 13.782 0 4.382.46 8.905 1.378 13.57a80.657 80.657 0 0 0 4.029 13.782 70.818 70.818 0 0 0 6.573 12.827c2.615 4.029 5.636 7.563 9.064 10.602a42.219 42.219 0 0 0 11.45 7.262c4.205 1.802 8.78 2.703 13.728 2.703 3.393 0 6.697-.46 9.912-1.378a48.88 48.88 0 0 0 9.277-3.71 52.352 52.352 0 0 0 8.428-5.513 64.885 64.885 0 0 0 7.368-6.891l3.498 3.392c-3.11 4.1-6.802 8.04-11.078 11.82a90.514 90.514 0 0 1-13.835 10.072 75.56 75.56 0 0 1-15.531 6.997c-5.407 1.732-10.76 2.597-16.061 2.597-5.16 0-10.019-.9-14.577-2.703a48.106 48.106 0 0 1-12.563-7.315c-3.816-3.074-7.227-6.679-10.23-10.813a73.252 73.252 0 0 1-7.633-13.2 74.963 74.963 0 0 1-4.771-14.417c-1.095-4.947-1.643-9.789-1.643-14.524 0-6.856 1.148-13.906 3.445-21.15 2.297-7.244 5.46-14.276 9.489-21.097 4.028-6.82 8.781-13.27 14.258-19.347 5.478-6.078 11.38-11.38 17.705-15.902 6.325-4.524 12.934-8.11 19.824-10.76 6.891-2.651 13.765-3.976 20.62-3.976 4.24 0 8.199.618 11.874 1.855 3.675 1.237 6.855 3.021 9.541 5.354 2.686 2.332 4.806 5.23 6.361 8.693 1.555 3.463 2.332 7.42 2.332 11.873z" fill="#A1070C"/>
</svg>
