<svg viewBox="0 0 256 256" xmlns="http://www.w3.org/2000/svg" preserveAspectRatio="xMidYMid">
  <defs>
    <linearGradient x1="29.184%" y1="99.591%" x2="86.484%" y2=".354%" id="a">
      <stop stop-color="#51D3D9" offset="41.47%"/>
      <stop stop-color="#C8FF8C" offset="100%"/>
    </linearGradient>
    <linearGradient x1="34.118%" y1="106.866%" x2="94.65%" y2="20.552%" id="b">
      <stop stop-color="#51D3D9" offset="41.47%"/>
      <stop stop-color="#5A919B" offset="100%"/>
    </linearGradient>
  </defs>
  <path d="M255.96 198.32c-.12 2.6-.84 5.16-2.16 7.48l-24.24 42a16.33 16.33 0 0 1-14.16 8.2H80.88c-5.84 0-11.24-3.12-14.16-8.16L2.2 136.2C.72 133.64 0 130.84 0 128c0-2.84.56-5.8 2.28-8.68L66.76 8.16C69.68 3.12 75.08 0 80.88 0H215.4c5.84 0 11.24 3.12 14.16 8.16 0 0 23.32 38.2 25 40.92 1.68 2.72 1.4 6.16 1.4 8.96 0 2.4-.68 5.68-1.32 8.28-.64 2.6-20.16 81.72-20.16 81.72l-42.6-90.6h-87.32L63.68 128l40.88 70.56h87.28l64.12-.24z" fill="url(#a)"/>
  <path d="m224.84 127.96 29.6 62.76a16.31 16.31 0 0 1-.64 15.12l-61.92-7.24 32.96-70.64z" fill="url(#b)"/>
</svg>
