<svg viewBox="0 0 256 296" xmlns="http://www.w3.org/2000/svg" preserveAspectRatio="xMidYMid">
  <path d="m0 74.055 128-73.9 128 73.9v147.801l-128 73.902L0 221.856v-147.8z" fill="#FFF"/>
  <path d="M128.236 15.042 13.212 81.657l.682 1.182 56.913 33.314 56.744-98.918.685-2.193z" fill="#95CA71"/>
  <path d="m128.156 15.15.673 1.404.511 130.016-1.184 1.588-1.798-.226-56.232-32.12 58.03-100.662z" fill="#7DC262"/>
  <path d="m128.085 62.817.132 85.233 2.146-.373 72.334-41.493-74.612-43.367z" fill="#67BC59"/>
  <path d="m128.085 63.814.151-48.772L243.27 81.6l-.954 1.325-40.215 23.77-74.016-42.881zM185.487 178.605l55.721 32.973 2.063 2.996-115.038 66.528 2.045-6.646 55.21-95.851z" fill="#51B755"/>
  <path d="m186.765 179.372-54.443-31.184-4.105-.137-2.03 4.739.512 124.222 1.518 4.09 58.548-101.73z" fill="#67BC59"/>
  <path d="m128.217 148.05-4.841 1.161-69.78 40.896 72.08 42.43 2.54-.34V148.05z" fill="#95CA71"/>
  <path d="M128.232 232.197v48.905l-115.02-66.537 2.3-2.731 38.34-22.494 74.38 42.857z" fill="#7DC262"/>
  <path d="M243.27 81.6v132.973L128.217 148.05 243.271 81.6z" fill="#39B353"/>
  <path d="M128.217 148.05 13.212 81.657v132.909l115.005-66.516z" fill="#B1D58B"/>
</svg>
