<svg width="32" height="26" viewBox="0 0 32 26" xmlns="http://www.w3.org/2000/svg"><g fill="#770C56" fill-rule="evenodd"><path d="M.0773 12.9618c0-2.496.464-4.8498 1.3921-7.0613.928-2.2116 2.2645-4.1707 4.0092-5.8776h3.508c-3.638 3.5605-5.4569 7.8734-5.4569 12.9389 0 5.0654 1.819 9.3783 5.457 12.9388h-3.508c-1.7448-1.7068-3.0812-3.666-4.0093-5.8775-.928-2.2116-1.392-4.5653-1.392-7.0613zm31.3605 0c0 2.496-.464 4.8497-1.392 7.0613-.9281 2.2115-2.2645 4.1707-4.0093 5.8775h-3.508c3.638-3.5605 5.457-7.8734 5.457-12.9388 0-5.0655-1.819-9.3784-5.457-12.9389h3.508c1.7448 1.7069 3.0812 3.666 4.0092 5.8776.928 2.2115 1.3921 4.5653 1.3921 7.0613zM12.954 1.7206h2.3202v13.1912H12.954z"/><path d="M15.273 14.8705l-1.5038-1.487 9.4333-9.3276 1.5039 1.487-9.4334 9.3276z"/></g></svg>