<svg viewBox="0 0 32 26" xmlns="http://www.w3.org/2000/svg">
  <g fill="white" fill-rule="evenodd">
    <path d="M.077 12.962c0-2.496.464-4.85 1.392-7.061A17.773 17.773 0 0 1 5.48.022h3.508C5.349 3.583 3.53 7.896 3.53 12.962c0 5.065 1.819 9.378 5.457 12.939H5.479a17.772 17.772 0 0 1-4.01-5.878C.541 17.811.077 15.458.077 12.962zm31.36 0c0 2.496-.463 4.85-1.391 7.061a17.772 17.772 0 0 1-4.01 5.878h-3.508c3.639-3.56 5.458-7.874 5.458-12.94 0-5.065-1.82-9.378-5.457-12.938h3.508A17.771 17.771 0 0 1 30.046 5.9c.928 2.211 1.392 4.565 1.392 7.06zM12.955 1.72h2.32v13.19h-2.32z"/>
    <path d="m15.273 14.87-1.504-1.486 9.433-9.328 1.504 1.487-9.433 9.328z"/>
  </g>
</svg>
