<svg xmlns="http://www.w3.org/2000/svg" viewBox="0 0 120 90">
  <g fill="none">
    <path d="M40.96 11H114a9.85 9.85 0 0 0-9.96-10H31c5.47 0 9.9 4.17 9.96 10z" fill="#E2D9C5"/>
    <path d="M94.04 10.88A9.92 9.92 0 0 1 104 1H30.96A9.92 9.92 0 0 0 21 10.88V92h63.07c5.5 0 9.97-4.42 9.97-9.88V10.88z" fill="#F2EBDA"/>
    <g fill="#E2D9C5">
      <path d="M92.43 1c-5.52 0-10 4.46-10 9.95v71.73c0 5.5-4.47 9.95-9.99 9.95h12.13c5.52 0 10-4.45 10-9.95V10.95c0-5.5 4.47-9.95 10-9.95H92.42z"/>
      <path d="M74.36 82.1H1.12c.06 6.14 4.5 10.53 9.99 10.53h73.24c-5.48 0-9.93-4.4-9.99-10.54z"/>
    </g>
    <path d="M69 64c2.02-6.26 3.84-12.65 8.14-17.53 9.39-10.66 28.2-13.8 41.86-13.44-4.27 3.5-8 7.05-12.31 11.7-4.84 5.2-15.4 12.14-20.47 13.7C78.3 60.83 74.65 61.24 69 64z" fill="#DDA064"/>
    <path d="M69 64c2.02-6.26 36.35-31.35 50-31-4.27 3.51-8 7.07-12.31 11.71-4.84 5.22-15.4 12.15-20.47 13.7C78.3 60.85 74.65 61.25 69 64z" fill="#B57947"/>
    <path d="M87 18.5c0-.83-.79-1.5-1.76-1.5H47.76c-.97 0-1.76.67-1.76 1.5s.79 1.5 1.76 1.5h37.48c.97 0 1.76-.67 1.76-1.5zM31.86 20h6.28c1.03 0 1.86-.67 1.86-1.5s-.83-1.5-1.86-1.5h-6.28c-1.03 0-1.86.67-1.86 1.5s.83 1.5 1.86 1.5zm-.09 51c-.98 0-1.77.67-1.77 1.5s.8 1.5 1.77 1.5h18.46c.98 0 1.77-.67 1.77-1.5s-.8-1.5-1.77-1.5H31.77zM60 56.5c0-.83-.8-1.5-1.8-1.5H31.8c-1 0-1.8.67-1.8 1.5s.8 1.5 1.8 1.5h26.4c1 0 1.8-.67 1.8-1.5zm13-18c0-.83-.8-1.5-1.8-1.5H31.8c-1 0-1.8.67-1.8 1.5s.8 1.5 1.8 1.5h39.4c1 0 1.8-.67 1.8-1.5z" fill="#1F2D3D"/>
    <path d="M94.41 60.85c-.97 0-1.76.8-1.76 1.78V84.2a8.21 8.21 0 0 1-8.15 8.25h-.22c-4.6 0-8.1-3.81-8.15-8.87a1.77 1.77 0 0 0-1.75-1.76H23.55v-70a8.21 8.21 0 0 1 8.15-8.25h64.28l-.15.16-.18.2-.19.22-.18.2-.17.23-.17.22-.16.24-.16.23-.15.23-.15.24-.14.25-.14.25-.12.25-.13.25-.12.26-.11.26-.1.27c-.04.09-.08.17-.1.26l-.1.28-.09.27-.08.29-.07.27-.07.3-.06.26-.06.32-.04.26-.05.34-.03.24-.03.39-.01.2-.02.61v15.79c0 .97.79 1.77 1.76 1.77s1.76-.8 1.76-1.78V14.2h18.07c.47 0 .92-.2 1.25-.53.33-.34.51-.8.51-1.27-.07-7.07-5.08-12.4-11.68-12.4H31.7c-6.43 0-11.67 5.3-11.67 11.81v70H1.76c-.47 0-.92.2-1.25.53-.33.34-.51.8-.51 1.27C.07 90.67 5.08 96 11.66 96H84.5c6.44 0 11.67-5.3 11.67-11.81V62.63c0-.98-.79-1.78-1.76-1.78zm1.85-50.26.02-.16.05-.23.03-.17a8.89 8.89 0 0 1 .48-1.5l.07-.15.09-.2.07-.13.1-.2.05-.08a8.78 8.78 0 0 1 .73-1.1l.03-.04.2-.24.04-.04.2-.23.04-.04a8.6 8.6 0 0 1 .5-.48h.01a8.1 8.1 0 0 1 3.86-1.9l.37-.06h.02l.35-.05h.05l.33-.02h.19l.2-.01c4.03 0 7.22 2.93 7.98 7.07H96.25a.5.5 0 0 1 0-.04zm-84.6 81.85c-4.03 0-7.22-2.93-7.98-7.07h69.06c.03.19.05.37.09.55l.03.18.07.36.05.2.07.33.06.22a13.67 13.67 0 0 0 .43 1.3l.09.21c.03.1.07.19.12.28l.08.2.14.3.09.17.18.33.06.12.26.44.06.1.22.33.1.14.19.27.12.16a11.39 11.39 0 0 0 .65.77l.1.11H11.66z" fill="#1F2D3D"/>
    <path d="M121 32.79v-.06a1.52 1.52 0 0 0-.1-.48v-.04a1.79 1.79 0 0 0-.1-.23l-.02-.03a1.78 1.78 0 0 0-.12-.18l-.02-.04-.16-.17-.03-.04c-.05-.05-.1-.1-.17-.14l-.02-.01a1.83 1.83 0 0 0-.2-.13l-.04-.02a1.78 1.78 0 0 0-.76-.2c-15-.38-34.54 3.2-44.42 14.4-4.33 4.9-6.32 11.1-8.25 17.12L66.1 64l-.01.06-3.03 10.67A1.78 1.78 0 0 0 64.79 77c.78 0 1.5-.51 1.73-1.3l2.8-9.9c3.44-1.59 6.2-2.33 9.93-3.34 1.94-.52 4.14-1.12 6.8-1.93 5.74-1.75 16.75-9.08 21.82-14.52 4.44-4.77 8.17-8.3 12.48-11.84h.01l.18-.18h.01a1.77 1.77 0 0 0 .44-.96v-.01l.01-.17v-.06zM77.53 47.76c4.17-4.73 10.56-8.29 19-10.58a70.74 70.74 0 0 1 7.13-1.54 138.83 138.83 0 0 0-15.62 9.02 143.19 143.19 0 0 0-15.56 11.8 29.11 29.11 0 0 1 5.05-8.7zm27.71-4.17c-4.93 5.3-15.6 12.12-20.25 13.55-2.6.79-4.77 1.37-6.68 1.89-1.72.47-3.3.89-4.85 1.38.7-.66 1.51-1.4 2.47-2.23 3.87-3.35 8.88-7.1 14.1-10.56 9.04-6 17.22-10.2 23.23-12.03-2.61 2.39-5.18 4.95-8.02 8z" fill="#1F2D3D"/>
  </g>
</svg>
