<svg xmlns="http://www.w3.org/2000/svg" viewBox="0 0 100 100">
  <path fill="#843131" d="M91.41 40.63v-.13c0-.17-.04-.3-.04-.48l-.14-.53c0-.04-.04-.04-.04-.08-.05-.18-.14-.31-.22-.44v-.05a3.84 3.84 0 0 0-.27-.43l-.1-.09a2.85 2.85 0 0 0-.35-.4l-18.7-18.38L52.82 1.24c-.13-.13-.27-.22-.4-.35l-.1-.09c-.12-.09-.3-.18-.44-.26h-.04c-.13-.1-.31-.13-.45-.18-.04 0-.04-.04-.09-.04l-.53-.13c-.18-.05-.31-.05-.49-.05h-37.7a3.96 3.96 0 0 0-4 3.94v91.93a3.96 3.96 0 0 0 4 3.94h74.86a3.96 3.96 0 0 0 4-3.94V40.76c-.04-.04-.04-.08-.04-.13zm-37.42-9.37V13.54l9.04 8.88L54 31.27zm14.7-3.32 9.04 8.88H59.7l9-8.88zm-52.13-20h29.4v28.88h-29.4V7.93zm0 36.76h29.4v47.28h-29.4V44.7zM83.4 91.98H54V44.7h29.4v47.28z"/>
</svg>
