<svg version="1" xmlns="http://www.w3.org/2000/svg" viewBox="0 0 200 220">
  <path fill="#961914" stroke="#52100F" stroke-width="4" stroke-linejoin="round" stroke-miterlimit="10" d="M45 158.7c-2.6 40.6-7.8 34.5-7.7 43.8 0 9.4 8.4 9 8.4 9s8.3.3 8.2-9c0-11.9-5.9-5.6-8.8-43.8z"/>
  <path fill="#221C3B" d="M161.3 129.6c-.6-.2-32.1-10.2-68.7-26.8l28-10a2 2 0 0 0 0-3.8c-.9-.3-85.4-26.2-107-78a2 2 0 0 0-3.9.9c-.1 21.8 9.6 43 28.4 61.8-13-8.3-25-17.3-34.7-26.9a2 2 0 0 0-3.3 2c15.9 47.3 75.7 67.8 78.2 68.7h.2l81.8 16h.4a2 2 0 0 0 .6-4z"/>
  <path fill="#952A58" d="M20.2 33.9c21 29.4 68.5 54.5 68.5 54.5L83 99.9S28.5 67 20.2 34z"/>
  <path fill="#221C3B" d="M176.8 96.7c-7.1-14-20.8-23.2-40.6-27.5C81.2 57 66.6 46.9 38.4 1a2 2 0 0 0-3.7 1c.2 10 4.4 23 9.3 38 11.6 35.4 26 79.6-.6 117.4v.1a2 2 0 0 0-.4.9v.3c0 .3.2.7.4 1l3.2 4.2c7 8.6 23.4 29 20.6 41.5a2 2 0 0 0 3.7 1.4c8.7-15.5 27.2-18.7 46.8-22 25.6-4.3 54.7-9.3 62.7-45.4a63.4 63.4 0 0 0-3.6-42.7zM80.4 118c9.8 2.9 31.8 10 32 24.6-15.6 4-28.1 7.4-41.3 19.8-3-1.1-11.2-4-18.5-5.2 14.9-8.6 23.9-25 27.8-39.1z"/>
  <path fill="#952A58" d="M47.7 26.3c21.2 33.8 42.8 41.3 80.2 49.5 36.2 8 48.9 32.2 42.8 60-11.6 53-78 28.8-100.4 56-9.7-24.6-25.3-33.2-25.3-33.2s18.4 6.1 24.6 13.2c2.7 3 4 6.7 4 7.2 1.4 1-.4-5 .3-6 21.4-25.3 55-14.3 60.7-40 7.2-33-34.3-30-59.6-42.8-5 31.6-10.7 49-30 68.3C66.2 136.9 67.6 98 59.4 58.8c21.8 29 53.1 34 70 37.8-37-11.2-66.5-29.7-81.7-70.3z"/>
</svg>
