<svg xmlns="http://www.w3.org/2000/svg" viewBox="0 0 60 78" class="Svg Svg--srcLogo">
  <path class="Wave Wave--colorMask" d="M19.7 61.1A20 20 0 0 1 10 40.4l-3.6-2L3.5 43A23.5 23.5 0 0 0 12 74.9a23.4 23.4 0 0 0 32-8.5l2.6-4.7-4-2.5a20 20 0 0 1-22.9 1.9z"/>
  <path class="Wave Wave--colorPurple" d="M19.7 61.1a20 20 0 0 1-8.5-24.9l-2.7-1.6-2.8 4.7a23.5 23.5 0 0 0 8.5 31.9 23.4 23.4 0 0 0 32-8.5l2.6-4.7-3.3-1.9a19.7 19.7 0 0 1-25.8 5z"/>
  <path class="Wave Wave--colorRed" d="M47 54.1c-5.5 9.4-17.7 12.5-27.2 7S7 43.5 12.3 34.1l1-1.7-2.7-1.6L8 35.5A23.4 23.4 0 0 0 48.3 59l2.7-4.7-3.2-1.8-.9 1.6z"/>
  <path class="Wave Wave--colorOrange" d="M23 59.2a23.5 23.5 0 0 1-9-31l-1.3-.8L10 32a23.5 23.5 0 0 0 8.5 31.9 23.5 23.5 0 0 0 32-8.6l2.2-3.6-1.6-.9c-6.5 10.6-17 14.7-28 8.4z"/>
  <path class="Hand" d="M59.3 36.4a6.3 6.3 0 0 0-5.2-4.6c1-3.8-1.5-7.5-5.2-8a6.4 6.4 0 0 0-5-7.8c3.9-6.7 5.2-8.1 4.4-11.3a6.4 6.4 0 0 0-11.7-1.5l-6.9 12a6.4 6.4 0 0 0-10.4 1l-7.2 12.2a23.5 23.5 0 0 0 8.5 31.9 23.5 23.5 0 0 0 32-8.6c6.4-11.1 7.6-12 6.7-15.3zM49 49.6a19.2 19.2 0 0 1-26 7 19.2 19.2 0 0 1-7-26.1c7.4-13.1 7-12.9 8.3-13.3 1.9-.5 3.4 1.5 2.4 3.1l-5.1 8.8c-1.4 2.4 2.3 4.6 3.7 2.1C41 3.8 40.1 4.6 41.5 4.3c1.1-.3 2.3.4 2.6 1.5.4 1.4.2.9-10.7 19.8-1.4 2.4 2.3 4.6 3.7 2.1l3.7-6.5c1.4-2.4 5.1-.3 3.7 2.1l-3.7 6.5c-1.4 2.4 2.3 4.6 3.7 2.1 1.4-2.4 1.7-3.5 3-3.9 1.1-.3 2.3.4 2.6 1.5.4 1.3-.4 2-4 8.2-1.4 2.4 2.3 4.6 3.7 2.1 1.3-2.3 1.7-3.5 3-3.8 1-.3 2.2.4 2.5 1.5.2 1.4-.4 1.7-6.4 12.1z"/>
</svg>
