<svg viewBox="0 0 73 73" xmlns="http://www.w3.org/2000/svg">
  <g fill="#028bf4" fill-rule="evenodd">
    <path d="M36.023 12.023c-13.255 0-24 10.745-24 24v24h24c13.255 0 24-10.745 24-24s-10.745-24-24-24zm0 42h-18v-18c0-9.941 8.059-18 18-18s18 8.059 18 18-8.058 18-18 18z"/>
    <path d="M36.023 24.023c-6.627 0-12 5.373-12 12v12h12c6.627 0 12-5.373 12-12s-5.373-12-12-12zm0 18h-6v-6a6 6 0 1 1 6 6z"/>
    <path d="M36.023.023h-36v72h36c19.882 0 36-16.118 36-36s-16.118-36-36-36zm0 66h-30v-30c0-16.568 13.432-30 30-30 16.568 0 30 13.432 30 30 0 16.568-13.431 30-30 30z"/>
  </g>
</svg>
