<svg viewBox="0 0 256 278" xmlns="http://www.w3.org/2000/svg" preserveAspectRatio="xMidYMid">
  <path d="M90.317 59.645c-36.264-6.605-64.936.308-76.364 20.101-8.527 14.77-6.09 34.353 5.912 55.285a3.719 3.719 0 1 0 6.452-3.699c-10.811-18.856-12.915-35.757-5.923-47.867 9.493-16.442 35.068-22.608 68.59-16.503a3.719 3.719 0 1 0 1.333-7.317zm53.63-33.684c-2.959 5.723-8.932 9.635-15.819 9.635-9.83 0-17.798-7.969-17.798-17.798C110.33 7.968 118.3 0 128.128 0c9.83 0 17.798 7.968 17.798 17.798 0 .257-.006.513-.016.767 29.461 15.237 49.933 67.197 49.933 127.226 0 24.69-3.452 48.382-9.879 68.92a3.719 3.719 0 1 1-7.097-2.221c6.196-19.802 9.539-42.747 9.539-66.699 0-56.524-18.789-105.163-44.458-119.83zM16.469 193.319a18.05 18.05 0 0 1 1.33-.05c9.83 0 17.798 7.97 17.798 17.799 0 9.83-7.969 17.797-17.798 17.797-9.83 0-17.798-7.968-17.798-17.797 0-6.692 3.693-12.52 9.151-15.56-2.68-33.265 32.283-77.855 85.12-108.36 21.946-12.671 44.798-21.665 66.267-26.265a3.719 3.719 0 0 1 1.558 7.273c-20.69 4.433-42.817 13.141-64.107 25.433-49.759 28.728-82.66 70.134-81.52 99.73zm206.26 26.546a17.716 17.716 0 0 1-2.324-8.797c0-9.83 7.969-17.798 17.798-17.798 9.83 0 17.798 7.968 17.798 17.798 0 9.83-7.968 17.797-17.798 17.797a17.717 17.717 0 0 1-10.38-3.338c-28.392 16.703-82.625 8.184-133.66-21.282-21.726-12.543-40.776-27.657-55.439-43.77a3.719 3.719 0 0 1 5.5-5.006c14.134 15.532 32.581 30.167 53.657 42.335 48.165 27.808 98.886 36.084 124.847 22.061zm-1.166-63.914a3.719 3.719 0 0 1-5.676-4.805c21.946-25.926 29.34-51.086 19.867-67.492-6.876-11.91-22.159-18.52-43.362-18.796a3.719 3.719 0 1 1 .097-7.437c23.575.307 41.315 7.98 49.706 22.514 11.404 19.752 3.113 47.965-20.632 76.016zM72.564 221.49a3.719 3.719 0 0 1 7.001-2.507c11.476 32.045 29.591 51.082 48.563 51.082 13.645 0 26.91-9.774 37.71-27.74a3.719 3.719 0 0 1 6.375 3.832c-12.018 19.99-27.428 31.345-44.085 31.345-22.839 0-43.15-21.344-55.564-56.011zm175.999-10.423c0-5.722-4.639-10.361-10.36-10.361-5.723 0-10.362 4.639-10.362 10.36 0 5.723 4.64 10.361 10.361 10.361 5.722 0 10.36-4.638 10.36-10.36zm-230.765 10.36c5.722 0 10.36-4.638 10.36-10.36 0-5.722-4.638-10.361-10.36-10.361-5.722 0-10.36 4.639-10.36 10.36 0 5.723 4.638 10.361 10.36 10.361zm110.33-193.27c5.722 0 10.36-4.638 10.36-10.36 0-5.722-4.638-10.36-10.36-10.36-5.722 0-10.36 4.638-10.36 10.36 0 5.722 4.638 10.36 10.36 10.36zm2.718 130.22c-6.951 1.502-13.8-2.916-15.305-9.868-1.499-6.952 2.916-13.8 9.868-15.305 6.951-1.502 13.8 2.915 15.305 9.867 1.502 6.952-2.916 13.8-9.868 15.305z" fill="#47848F"/>
</svg>
