<svg viewBox="0 0 256 293" xmlns="http://www.w3.org/2000/svg" preserveAspectRatio="xMidYMid">
  <path d="M255.947 209.282c-.073 12.126-6.371 14.83-6.371 14.83s-108.694 62.807-115.76 66.743c-7.003 3.005-11.683 0-11.683 0S8.401 224.894 4.25 221.995C.098 219.094 0 214.577 0 214.577s.115-130.612 0-136.66c-.114-6.05 7.434-10.595 7.434-10.595L121.071 1.641c6.996-3.692 13.807 0 13.807 0s100.386 58.351 111.511 64.623c10.904 5.184 9.558 15.89 9.558 15.89s.068 115.858 0 127.128zm-45.37-131.09c-23.267-13.391-78.08-45.15-78.08-45.15s-5.347-2.89-10.84 0L32.44 84.443s-5.927 3.558-5.837 8.292c.09 4.733 0 106.952 0 106.952s.076 3.535 3.336 5.804c3.26 2.268 92.553 53.89 92.553 53.89s3.675 2.353 9.172 0c5.548-3.08 90.886-52.232 90.886-52.232s4.946-2.118 5.003-11.608c.016-2.736.022-13.36.023-26.706l-100.472 60.881v-23.29c0-9.567 7.406-15.88 7.406-15.88l88.869-53.551c3.353-3.502 4.045-9.112 4.188-11.234-.003-9.728-.007-18.226-.01-23.61l-100.453 60.869v-24.35c0-9.566 6.348-13.762 6.348-13.762l77.126-46.716z" fill="#409EFF"/>
</svg>
