<svg width="512" height="149" viewBox="0 0 512 149" xmlns="http://www.w3.org/2000/svg" preserveAspectRatio="xMidYMid"><path d="M3.33 115.63V58.65h71.15v-3.33H3.33V3.33h75.64V0H0v118.96h79.64v-3.33H3.34zm140.46-82.3l-29.5 38.81-28.82-38.82h-4.33l31.16 41.32-34.16 44.32h4l32.16-41.82 32.32 41.82h4.16l-34.32-44.32 31.33-41.32h-4zm17 114.96V94.97h.32c2 7.77 5.95 14.02 11.83 18.74 5.9 4.72 13.39 7.08 22.5 7.08 5.88 0 11.1-1.19 15.66-3.58a33.32 33.32 0 0 0 11.41-9.74 45.35 45.35 0 0 0 7-14.33 60.17 60.17 0 0 0 2.41-17.16c0-6.45-.83-12.39-2.5-17.83a42.68 42.68 0 0 0-7.24-14.16c-3.17-4-7-7.11-11.5-9.33a33.97 33.97 0 0 0-15.24-3.34c-4.34 0-8.36.64-12.08 1.92a32.33 32.33 0 0 0-9.92 5.41 36.67 36.67 0 0 0-7.5 8.25 37.96 37.96 0 0 0-4.83 10.41h-.33V33.32h-3.33V148.3h3.33zm34.65-30.66c-10.44 0-18.83-3.58-25.16-10.75-6.33-7.16-9.5-17.46-9.5-30.9 0-5.56.78-10.83 2.33-15.83 1.56-5 3.8-9.39 6.75-13.17a32.4 32.4 0 0 1 10.91-9 31.66 31.66 0 0 1 14.67-3.32c5.55 0 10.41 1.1 14.57 3.33a29.56 29.56 0 0 1 10.33 9.08 42.25 42.25 0 0 1 6.17 13.16 57.97 57.97 0 0 1 2.08 15.75c0 5-.64 9.96-1.91 14.9a42.63 42.63 0 0 1-5.92 13.34 32.2 32.2 0 0 1-10.25 9.66c-4.16 2.5-9.19 3.75-15.07 3.75zm54.81 1.33V70.48c0-4.67.67-9.22 2-13.67a33.48 33.48 0 0 1 6.17-11.74 28.9 28.9 0 0 1 10.58-8c4.27-1.94 9.35-2.75 15.24-2.41v-3.34c-5.1-.1-9.58.45-13.41 1.67a32.58 32.58 0 0 0-9.91 5c-2.78 2.1-5 4.58-6.67 7.41a33.15 33.15 0 0 0-3.66 9.08h-.34V33.32h-3.33v85.64h3.33zm38.16-42.15h71.64a59.35 59.35 0 0 0-1.75-17 42.28 42.28 0 0 0-6.66-14.5c-3.06-4.21-7-7.6-11.83-10.15-4.84-2.56-10.58-3.84-17.25-3.84-4.77 0-9.44 1-14 3a34.8 34.8 0 0 0-11.99 8.75 44.4 44.4 0 0 0-8.33 14.08c-2.11 5.55-3.17 11.88-3.17 19 0 6.32.73 12.24 2.17 17.74a41.57 41.57 0 0 0 6.66 14.32c3 4.06 6.86 7.2 11.58 9.42 4.72 2.22 10.42 3.28 17.08 3.16 9.78 0 18-2.75 24.66-8.24 6.66-5.5 10.6-13.25 11.83-23.25h-3.33c-1.45 9.45-5.14 16.53-11.08 21.25-5.94 4.72-13.41 7.08-22.41 7.08-6.11 0-11.28-1.06-15.5-3.17-4.22-2.1-7.66-5-10.33-8.66a37.78 37.78 0 0 1-5.91-12.91 69.5 69.5 0 0 1-2.08-16.08zm68.3-3.33h-68.3c.33-6 1.44-11.39 3.33-16.17a40.08 40.08 0 0 1 7.41-12.24 30.98 30.98 0 0 1 10.67-7.75 32.21 32.21 0 0 1 13.07-2.66c5.56 0 10.45 1.02 14.67 3.08a30.27 30.27 0 0 1 10.58 8.41 37.1 37.1 0 0 1 6.41 12.41 50.7 50.7 0 0 1 2.17 14.92zm72.48-14.83h3.34c0-9.55-2.78-16.5-8.33-20.83-5.56-4.33-13.11-6.5-22.66-6.5-5.34 0-9.83.67-13.5 2a26.98 26.98 0 0 0-9 5.17c-2.33 2.1-4 4.44-5 7-1 2.55-1.5 5-1.5 7.33 0 4.66.84 8.38 2.5 11.16 1.67 2.78 4.28 4.94 7.84 6.5a60.06 60.06 0 0 0 8.33 3c3.1.88 6.72 1.83 10.83 2.83l10.83 2.66c3.55.9 6.69 2.09 9.4 3.59a20.35 20.35 0 0 1 6.67 5.74c1.73 2.34 2.59 5.4 2.59 9.17 0 3.66-.86 6.77-2.59 9.33a20.82 20.82 0 0 1-6.58 6.25 29.29 29.29 0 0 1-8.91 3.5 44.46 44.46 0 0 1-9.58 1.08c-10.1 0-17.86-2.25-23.24-6.75-5.4-4.5-8.08-11.58-8.08-21.24h-3.34c0 10.77 2.92 18.66 8.75 23.66s14.47 7.5 25.9 7.5c3.67 0 7.37-.42 11.09-1.26a30.8 30.8 0 0 0 10-4.08 22.6 22.6 0 0 0 7.16-7.33c1.83-3 2.75-6.66 2.75-11 0-4.1-.8-7.44-2.42-10a20.26 20.26 0 0 0-6.33-6.32 33.6 33.6 0 0 0-8.83-3.92c-3.28-.94-6.58-1.86-9.91-2.75-4.67-1.22-8.75-2.27-12.25-3.16a74.3 74.3 0 0 1-9.75-3.17 16.53 16.53 0 0 1-6.91-5.25c-1.72-2.27-2.58-5.52-2.58-9.74 0-.78.22-2.17.66-4.17.45-2 1.5-4.03 3.17-6.08 1.67-2.06 4.22-3.89 7.66-5.5 3.45-1.6 8.17-2.41 14.17-2.41 4.1 0 7.85.44 11.24 1.33 3.39.89 6.3 2.3 8.75 4.25a19.33 19.33 0 0 1 5.66 7.41c1.34 3 2 6.67 2 11zm77.15 0h3.33c0-9.55-2.78-16.5-8.33-20.83-5.56-4.33-13.11-6.5-22.66-6.5-5.33 0-9.83.67-13.5 2a26.98 26.98 0 0 0-9 5.17c-2.33 2.1-4 4.44-5 7-1 2.55-1.5 5-1.5 7.33 0 4.66.84 8.38 2.5 11.16 1.67 2.78 4.28 4.94 7.84 6.5a60.06 60.06 0 0 0 8.33 3c3.1.88 6.72 1.83 10.83 2.83L490 78.97c3.55.9 6.69 2.09 9.41 3.59a20.35 20.35 0 0 1 6.67 5.74c1.72 2.34 2.58 5.4 2.58 9.17 0 3.66-.86 6.77-2.58 9.33a20.82 20.82 0 0 1-6.59 6.25 29.29 29.29 0 0 1-8.91 3.5 44.46 44.46 0 0 1-9.58 1.08c-10.1 0-17.86-2.25-23.24-6.75-5.39-4.5-8.08-11.58-8.08-21.24h-3.34c0 10.77 2.92 18.66 8.75 23.66s14.47 7.5 25.91 7.5c3.67 0 7.36-.42 11.08-1.26a30.8 30.8 0 0 0 10-4.08 22.6 22.6 0 0 0 7.16-7.33c1.83-3 2.75-6.66 2.75-11 0-4.1-.8-7.44-2.42-10a20.26 20.26 0 0 0-6.33-6.32 33.6 33.6 0 0 0-8.83-3.92c-3.27-.94-6.58-1.86-9.91-2.75-4.67-1.22-8.75-2.27-12.25-3.16a74.3 74.3 0 0 1-9.74-3.17 16.53 16.53 0 0 1-6.92-5.25c-1.72-2.27-2.58-5.52-2.58-9.74 0-.78.22-2.17.67-4.17.44-2 1.5-4.03 3.16-6.08 1.67-2.06 4.22-3.89 7.67-5.5 3.44-1.6 8.16-2.41 14.16-2.41 4.1 0 7.86.44 11.24 1.33 3.4.89 6.3 2.3 8.75 4.25a19.33 19.33 0 0 1 5.67 7.41c1.33 3 2 6.67 2 11z" fill="#222"/></svg>