<svg viewBox="0 0 256 299" xmlns="http://www.w3.org/2000/svg" preserveAspectRatio="xMidYMid">
  <path d="M188.222 191.804v.01l-60.144 35.725-.078-.047v-.004l-60.218-35.674L7.56 227.488 128 298.842l120.444-71.354-60.222-35.684" fill="#4CAD31"/>
  <path d="m128 227.488 60.218 35.67L128 298.842v-71.354" fill="#64B32C"/>
  <path d="M67.782 191.814v71.344L7.56 227.488l60.222-35.674" fill="#8BBE2D"/>
  <path d="M128 227.488v71.354l-60.218-35.684L128 227.488" fill="#76B828"/>
  <path d="M188.222 263.158v-71.344L128 227.488l60.222 35.67" fill="#5DB12E"/>
  <path d="m67.782 263.158 60.296-35.619-60.296-35.725v71.344" fill="#82BB24"/>
  <g>
    <path d="m256 71.354-.007-.004v-.003l-.003.002L135.553 0v71.347l60.222 35.681v71.358l60.218 35.67V71.359l.007-.005" fill="#751F82"/>
    <path d="m195.775 107.028 60.218 35.674V71.347l-60.218 35.681" fill="#934C98"/>
    <path d="m195.775 107.028-.004-71.354L256 71.354l-60.225 35.674" fill="#8A398D"/>
    <path d="m195.775 178.386 60.218 35.67v-71.354l-60.218 35.684" fill="#B987BB"/>
    <path d="m255.993 142.702-60.218 35.684v-71.358l60.218 35.674" fill="#A466A7"/>
    <path d="m195.771 35.674-60.218 35.673 60.222 35.681-.004-71.354" fill="#7B1F82"/>
  </g>
  <g>
    <path d="m.008 71.35-.004-.003v.005L0 71.354l.004.002v142.7l60.218-35.67v-71.358l60.225-35.681V0L.008 71.35" fill="#0062AE"/>
    <path d="M60.222 107.028.004 142.712V71.347l60.218 35.681" fill="#007EC6"/>
    <path d="M120.447 71.347 60.225 35.674 120.447 0v71.347" fill="#26B2E7"/>
    <path d="M60.222 107.028 0 71.354l60.225-35.68-.003 71.354" fill="#008BD0"/>
    <path d="m.004 142.712 60.218 35.674v-71.358L.004 142.712" fill="#0071BB"/>
    <path d="m60.225 35.674-.003 71.354 60.225-35.681-60.222-35.673" fill="#009DDC"/>
  </g>
</svg>
