<svg xmlns="http://www.w3.org/2000/svg" viewBox="0 0 1000 1000"><path fill="#fff" d="M-25.7-30h1055.2v1055.2H-25.7z"/><path d="M899.6 302.7l26.7-69.2-1.1-4.3-264.3 69.6c28.2-40.8 18.5-73.5 18.5-73.5s-84.4 53.9-148.3 52.5c-63.8-1.4-84.4-18.4-182.3 12.8s-125.6 127-153.9 147.6c-28.4 20.6-117.4 87.6-117.4 87.6l.2 1.2 80.3-25.6s-22 20.7-68.8 83.8c0 0-.8-.7-2.2-2l.1.4s37.6 57.5 74.5 46.8c3.7-1.1 7.9-2.8 12.5-5.2 14.8 8.3 34.2 16.4 55.6 18.6 0 0-14.5-16.8-26.6-36 3.3-2.1 6.6-4.3 10-6.5l-1.6 1.1 30.6 11.2-3.4-28.7c.1-.1.2-.1.3-.2l30 11-3.7-26.1c3.8-2 7.6-3.9 11.4-5.6L308 445.7l129.5-88.3-10.3 25.9c-26.2 64.6-75.5 79.8-75.5 79.8l-20.6 7.8c-15.3 18.1-21.7 22.5-27 83.2 12.3-3.1 24.1-3.8 34.8-1 55.3 14.9 74.5 81.6 59.6 100-3.7 4.6-12.6 12.5-23.8 21.8h-22.4l-.3 18.2c-.8.6-1.5 1.2-2.3 1.8h-22.8l-.3 17.8-6 4.5c-21.5.4-48.6-18.3-48.6-18.3 0 17 14.2 43.3 14.2 43.3s.9-.4 2.5-1.2c-1.4 1-2.2 1.6-2.2 1.6s57.5 38.3 93.6 24.1c32.2-12.6 115.4-78.3 187.3-109.4L784.9 600l28.7-74.3-165.8 43.7v-66.8l194.5-51.2 28.7-74.3-223.2 58.8v-66.8l251.8-66.4zM504.8 444.2l51.6-13.6.7 2.6-16.1 41.7-53.5 14.1 17.3-44.8zm17.8 89.3l-53.5 14.1 17.3-44.8 51.6-13.6.7 2.6-16.1 41.7zm69.7-15l-53.5 14.1 17.3-44.8 51.6-13.6.7 2.6-16.1 41.7z"/></svg>