<svg xmlns="http://www.w3.org/2000/svg" viewBox="0 0 140 123">
  <path fill-rule="evenodd" clip-rule="evenodd" d="m124.79 64.44-4.98-.63c-.89-.12-1.7.51-1.84 1.39a40.33 40.33 0 0 1-62.68 26.47c-2.46-1.7-1.57-5.28 1.32-6.06l21.06-5.64a3.32 3.32 0 1 0-1.72-6.4l-27.1 7.25a5 5 0 0 1-.2.05L35.86 84.3a.9.9 0 0 1-.09.03 3.32 3.32 0 1 0 1.72 6.4l.29-.07a5.69 5.69 0 0 1 5.52 1.63A48.58 48.58 0 0 0 82 106.92a48.58 48.58 0 0 0 44.15-40.67 1.57 1.57 0 0 0-1.37-1.8zM23.48 60.17a5.44 5.44 0 0 0-.53.11l-10.43 2.8a3.32 3.32 0 1 1-1.72-6.42l15.96-4.27a5.69 5.69 0 0 0 4-4.34A48.57 48.57 0 0 1 55.39 15.6a48.58 48.58 0 0 1 59.1 10.57c.59.67.5 1.69-.2 2.26l-3.85 3.21-1.24 1.03a40.32 40.32 0 0 0-68.14 10.15c-1.16 2.75 1.45 5.34 4.33 4.57l2.23-.6a3.32 3.32 0 0 1 1.71 6.41l-7.66 2.06a5.35 5.35 0 0 0-.52.16l-17.66 4.74z" fill="#FF4387"/>
  <rect x="69.9" y="56.91" width="6.64" height="16.45" rx="3.32" transform="rotate(75 69.9 56.9)" fill="#FF4387"/>
  <rect x="48.33" y="62.7" width="6.64" height="49.77" rx="3.32" transform="rotate(75 48.33 62.7)" fill="#FF4387"/>
  <rect x="94.36" y="50.56" width="6.64" height="19.83" rx="3.32" transform="rotate(75 94.36 50.56)" fill="#FF4387"/>
  <path fill-rule="evenodd" clip-rule="evenodd" d="M97.72 51.93a21.14 21.14 0 1 0 40.84-10.95 21.14 21.14 0 0 0-40.84 10.95zm20.43 9.45c8.43 0 15.26-6.69 15.26-14.94 0-8.24-6.83-14.92-15.26-14.92s-15.26 6.68-15.26 14.93c0 8.24 6.83 14.92 15.26 14.92z" fill="#FF4387"/>
</svg>
