<svg xmlns="http://www.w3.org/2000/svg" viewBox="0 0 320 276">
  <g fill="none" fill-rule="evenodd">
    <path d="M44.34 87.7c1.7 0 2.56.9 2.56 2.68v8.7c0 1.8-.85 2.7-2.56 2.7H18.61c-1.02 0-1.53.47-1.53 1.4v19.84c0 1.03.5 1.54 1.53 1.54H40.5c1.8 0 2.69.9 2.69 2.69v8.57c0 1.88-.9 2.82-2.69 2.82H18.61c-1.02 0-1.53.47-1.53 1.4v27.27c0 1.8-.9 2.69-2.7 2.69H3.52c-1.8 0-2.69-.9-2.69-2.69V90.38c0-1.79.9-2.68 2.69-2.68zm37.65 0c1.79 0 2.69.9 2.69 2.68v64c0 .94.5 1.41 1.53 1.41h27.01c1.7 0 2.56.94 2.56 2.82v8.7c0 1.8-.85 2.69-2.56 2.69H71.11c-1.8 0-2.69-.9-2.69-2.69V90.38c0-1.79.9-2.68 2.69-2.68zm185.81 0c2.14 0 3.55.9 4.23 2.68l12.16 27.52h.51l12.03-27.52c.86-1.79 2.22-2.68 4.1-2.68h12.54c.86 0 1.47.32 1.86.96.38.64.4 1.3.06 1.98l-19.45 37.25 19.84 39.17c.42.85.47 1.55.12 2.1-.34.56-.98.84-1.92.84h-12.8c-1.79 0-3.03-.85-3.7-2.56l-12.68-27.65h-.51l-12.8 27.65c-.77 1.7-2.05 2.56-3.84 2.56h-12.67c-.86 0-1.45-.28-1.8-.83-.34-.56-.34-1.22 0-1.99l19.84-39.3-19.2-37.37a1.93 1.93 0 0 1 0-1.92c.35-.6.94-.9 1.8-.9z" fill="#4986FF" fill-rule="nonzero"/>
    <path d="M229.99 155.9a2 2 0 0 1 2 2v10.08a2 2 0 0 1-2 2h-93.1a2 2 0 0 1-2-2V157.9c0-1.1.9-2 2-2h93.1zm0-34.7a2 2 0 0 1 2 2v10.08a2 2 0 0 1-2 2h-93.1a2 2 0 0 1-2-2V123.2c0-1.1.9-2 2-2h93.1zm0-33.5a2 2 0 0 1 2 2v10.08a2 2 0 0 1-2 2h-93.1a2 2 0 0 1-2-2V89.7c0-1.1.9-2 2-2h93.1z" fill="#FF7300"/>
    <path d="M276.1 208.04a5 5 0 0 1 0 7.07 125.59 125.59 0 0 1-88.1 36.9h-1c-27.91 0-54.94-9.15-77.07-26.3l-48.77 48.77a2 2 0 0 1-2.83 0L49.84 266a2 2 0 0 1 0-2.83l48.06-48.06 7.1-7.1 2.08 2.09a115.57 115.57 0 0 0 79 31.91h.92a115.6 115.6 0 0 0 82.02-33.97 5 5 0 0 1 7.08 0zm0-171.12a5 5 0 1 1-7.08 7.07c-45.3-45.3-118.74-45.3-164.04 0a5 5 0 1 1-7.08-7.07c49.21-49.2 128.99-49.2 178.2 0z" fill="#999"/>
  </g>
</svg>
