<svg viewBox="0 0 256 256" xmlns="http://www.w3.org/2000/svg" preserveAspectRatio="xMidYMid">
  <path d="M227.314 0H28.686C12.97 0 0 12.971 0 28.686v198.628C0 243.03 12.971 256 28.686 256h198.628C243.03 256 256 243.029 256 227.314V28.686C256 12.97 243.029 0 227.314 0zm-25.943 162.457c0 2.4-2.057 3.429-4.457 4.457-9.543 4.115-19.771 7.829-30.743 7.829-15.371 0-22.514-9.543-40.971-9.543-13.314 0-27.314 4.8-38.571 9.886-.686.343-1.372.343-2.058.685v25.943c0 1.029 0 2.057-.342 2.743v.686c-1.372 4.8-5.829 8.171-10.915 8.171-6.457 0-11.6-5.143-11.6-11.6V76.8c-4.457-3.429-7.485-8.857-7.485-15.029 0-10.571 8.514-19.142 19.142-19.142 10.572 0 19.143 8.514 19.143 19.142 0 6.172-2.743 11.6-7.485 15.029v10.571c1.028-.342 2.057-.685 3.085-1.371 10.572-4.457 23.2-8.171 35.143-8.171 12.972 0 23.2 3.428 34.8 7.828 2.4 1.029 4.8 1.372 7.486 1.372 12.971 0 27.314-9.2 30.743-9.2 2.743 0 5.143 2.057 5.143 4.457v80.171h-.058z" fill="#339AF0"/>
</svg>
