<svg viewBox="0 0 256 380" version="1" xmlns="http://www.w3.org/2000/svg" preserveAspectRatio="xMidYMid">
  <path d="M256 364c0 9-57 16-128 16S0 373 0 364c0-8 67-15 128-15 72 0 128 7 128 15" fill="#1A4658"/>
  <path d="M248 252c-4 0-8-2-11-16l-8-28c5 0 8-2 8-2-4-2-11-7-16-13-5-7-17-17-17-17v-21c0-14 9-25 9-25-6 0-9 6-9 6v-30c0-29 15-42 15-42-5 0-8 2-8 2 2-22 9-28 9-28-25-7-38 8-38 8-3-13 8-21 8-21-13-3-23 1-23 1 0-19 8-26 8-26-39 0-60 29-60 29-2-12 2-23 2-23-37 16-47 50-47 50-2-6-3-19-3-19S52 63 49 80c-2 18 3 69 3 69s-3-3-8-4c0 0 6 6 6 20 0 0-2-2-6-1 0 0 6 5 6 14 0 0-6 4-10 9l-9 1 6 5s-14 15-22 27c0 0 7-4 11-3 0 0-10 12-13 32 0 0 5-2 7-1 0 0-6 13-7 26l-6 4 5 4-5 26 6-4 7 14c5 6 15 11 21 11h12c-2 6-4 11-10 11l-1 1c0 2-4 2-5 4-3 3-5 9-7 13l-1 7-2 4c3-2 12-2 17-3v5l2 1h22l5-1 1-3v-1h1l6-1 11 1c0-5 1-14 10-39l2-1s27 9 53-1c2 5 8 22 9 32l1 5v4l9-1 5 1h1l1 1v3h1l13-1 11 2h1l6 1v-6l11 1h3v1h3l-1-4c0-2-1-8-4-11l4 2c-3-4-4-10-13-13l3-1-5-2 5-6h-3l-2 2-1-1-1-7c18 0 21-10 21-10l1 4c8-10 7-21 7-21l3 2c1-16-4-43-4-43h4c-2-1-3-5-3-5 4 1 5-3 5-3" fill="#EDF7FA"/>
  <path d="M74 367s0-8-2-13c0 0 5 0 5 13h-3m-20-1" fill="#CDE9EE"/>
  <path d="M115 29c-2-12 2-23 2-23-37 16-47 50-47 50-2-6-3-19-3-19S52 63 49 80c-2 18 3 69 3 69s-3-3-8-4c0 0 6 6 6 20 0 0-2-2-6-1 0 0 6 5 6 14 0 0-6 4-10 9l-9 1 6 5s-14 15-22 27c0 0 7-4 11-3 0 0-10 12-13 32 0 0 5-2 7-1 0 0-6 13-7 26l-6 4 5 4-5 26 6-4 7 14c5 6 15 11 21 11h1l-1 6-1 1-2-2h-3l5 6-5 2 4 1c-10 3-11 9-14 13l4-2c-3 3-4 9-4 11l-1 4 6-1c3 0 11-2 14-1v6l4-1a71 71 0 0 1 1-13c1-4 3-6 5-8l1-1 2-4c1-4 1-11-2-18l6 8v-9l9 8 7 5v1l8 4h1l4 3 2 19c1-20 13-40 13-40-4-1-30-10-46-43-1-2 6 3 6 3-6-16-9-41-9-41l4 2c-4-13-6-28-6-43-1-77 27-94 27-94l-10-2c6-14 25-33 25-33l-25 6c16-42 33-54 33-54-2 10 2 21 2 21 36-43 64-41 64-41l5-8c-39 0-60 29-60 29m100 338-3-17s6 4 6 17h-3" fill="#CDE9EE"/>
  <path d="M44 310c5-42 6-125 6-125-10 19-17 52-17 52l2 7-4-1c-7 23-2 53-1 62 4 3 9 4 14 5m-8-1 4 20h2l2-18-8-2" fill="#ABD8D7"/>
  <path d="M179 345h-1l-1 1c6-5 7-10 7-10l-11 3c15-13 17-36 17-36-6 7-14 13-21 18l-8 4h-1l-5 2 5 10a113 113 0 0 0 7 27v3h15l1 4 9-1c0-10 0-28-13-25" fill="#CDE9EE"/>
  <path d="M44 313c-10-1-19-13-19-13 7 8 16 9 16 9 1-9-6-30-6-30 6 7 9 15 10 22l-1 12" fill="#83BAC0"/>
  <path d="M67 297s8 14 15 20c7 7 14 16 17 22l6-12s-22-7-38-30m104 28 3-5 6-7-9 6-16 8 5 12 9-13 2-1" fill="#ABD8D7"/>
  <path d="M64 89h-4c-25 2-43-17-43-17s-2 15 9 28 33 16 33 16c1 3-1 10-1 10s7-7 8-21c1-10-2-16-2-16" fill="#545352"/>
  <path d="M64 89h-4c-25 2-43-17-43-17s11 33 49 30c0 0 2-6-2-13" fill="#6E7979"/>
  <path d="M189 89h4c25 2 43-17 43-17s2 15-9 28-33 16-33 16c-1 3 1 10 1 10s-6-7-8-21c-1-10 2-16 2-16" fill="#545352"/>
  <path d="M189 89h4c25 2 43-17 43-17s-11 33-49 30c0 0-1-6 2-13" fill="#6E7979"/>
  <path d="M51 202s-18 64 0 106V202m179 102c-8 7-18 7-18 7 0-8 10-28 10-28-3 1-4 3-6 5v-7l7-6-6-4 8-29-7 5s-2-41-1-59l-13-12 2 33c4 16 10 49 2 79l1 18 5 22h3l-1-14c10-3 14-10 14-10m-84-125c0 6 4 12 10 12 5 0 10-6 10-12 0-7-5-13-10-13-6 0-10 6-10 13" fill="#CDE9EE"/>
  <path d="M146 175c0 7 5 13 10 13s10-6 10-13-5-12-10-12-10 5-10 12" fill="#FFF"/>
  <path d="m154 169-1 1c0 2 2 3 3 3s2-1 2-3l2 4c0 4-2 6-5 6s-5-2-5-6c0-2 2-4 4-5" fill="#474746"/>
  <path d="M99 179c0 6 4 12 9 12 6 0 10-6 10-12 0-7-4-13-10-13-5 0-9 6-9 13" fill="#CDE9EE"/>
  <path d="M99 175c0 7 4 13 10 13 5 0 9-6 9-13s-4-12-9-12c-6 0-10 5-10 12" fill="#FFF"/>
  <path d="M108 169v1c0 2 1 3 2 3s3-1 3-3l1 4c0 4-2 6-5 6-2 0-4-2-4-6 0-2 1-4 3-5" fill="#474746"/>
  <path d="M182 188c-1 2-3 3-9 4a84 84 0 0 1-23 0c-6-1-6-2-8-4-2-3-3-12-3-13 0-2 0-3 2-4l22-4a130 130 0 0 1 19 2c1 0 2 1 2 3l-2 16zm-59-13c0 1-1 10-3 13-2 2-2 3-8 4H89c-6-1-8-2-9-4l-2-16c0-2 1-3 2-3h1l18-2 22 4c2 1 2 2 2 4zm66-11c-4-1-12-2-21-1-12 0-22 2-28 3l-5 1h-8l-5-1c-6-1-16-3-28-3-9-1-17 0-21 1 0 0-5 0-9 2l1 5 8-2 2 17 1 2c0 3 1 5 5 7a81 81 0 0 0 29 2l11-3c3-2 4-7 5-10v-1l1-3 1-4 2-1a9 9 0 0 1 2 0l2 1 1 4 1 3v1c1 3 2 8 5 10l11 3 10 1 19-3c4-2 5-4 5-7l1-2 2-17 8 2 1-5c-4-2-9-2-9-2z" fill="#545352"/>
  <path d="M112 151s-11-6-18 4c0 0 0-10 8-11 9-1 10 7 10 7m-5-15s-10-5-14 5c0 0-2-8 5-10 8-2 9 5 9 5m44 21s8-5 13 3c0 0 1-8-6-8-7-1-7 5-7 5m6-14s9-1 10 7c0 0 3-6-2-9s-8 2-8 2" fill="#A0D1DE"/>
  <path d="M111 227s6-4 9-4c0 0 1 7 5 11 0 0 7-7 15-7 0 0 2 4 5 6l4 1s4-2 5-7c0 0 1 10-5 16l-9-7-2-3s-12 8-12 13c0 0-8-8-11-14 0 0-5 1-7 3 0 0-4-8-5-14l8 6" fill="#B2DCE5"/>
  <path d="m131 207 23 1 2-4v5s-5 2-11 2l8-2s-11 1-22-2" fill="#545352"/>
</svg>
