<svg viewBox="0 0 512 165" xmlns="http://www.w3.org/2000/svg" preserveAspectRatio="xMidYMid">
  <g fill="#3D515B">
    <path d="M.217 108.238h34.907v17.454H.217zM52.576 108.238h34.885v17.454H52.576zM.19 73.33h87.282v17.455H.19zM.217 38.426h52.366v17.453H.217zM70.031 38.426h17.453v17.453H70.031z"/>
  </g>
  <g fill="#404041">
    <path d="M340.865 38.325c-28.03 0-42.508 19.823-42.508 44.275 0 24.454 14.12 44.28 42.508 44.28 28.388 0 42.508-19.826 42.508-44.28.002-24.452-14.478-44.275-42.508-44.275zm21.207 44.355c-.02 15.724-5.318 28.46-21.207 28.46-15.888 0-21.188-12.735-21.204-28.46V82.6c.016-15.723 5.317-28.458 21.205-28.458 15.888 0 21.186 12.735 21.206 28.459v.078zM215.353 125.691V3.276S231.499.982 232.75.814c1.418-.192 3.3.818 3.3 2.814v45.38c3.351-3.186 7.041-5.753 11.062-7.71 4.025-1.954 8.744-2.933 14.166-2.933 4.693 0 8.852.796 12.484 2.39 3.633 1.59 6.664 3.826 9.094 6.701 2.43 2.88 4.275 6.315 5.532 10.31 1.257 3.994 1.885 8.394 1.885 13.2v54.724h-20.7V70.965c0-5.25-1.216-9.316-3.646-12.195-2.43-2.876-6.076-4.315-10.939-4.315-3.575 0-6.926.81-10.053 2.432-3.13 1.62-6.09 3.825-8.884 6.62v62.184h-20.7zM491.702 126.87c-14.245 0-23.172-8.29-23.172-23.755V57.279h-16.054s3.412-11.801 3.682-12.73c.27-.929.977-1.926 2.394-2.123l9.958-1.389 3.945-25.098s11.59-1.634 13.429-1.908c1.735-.26 3.308.99 3.308 2.88v24.126h20.304V57.28h-20.304v45.218c0 6.174 3.76 8.533 7.362 8.533 2.202 0 5.218-1.17 7.469-2.213 1.39-.643 3.545-.166 4.102 1.775.492 1.72 3.11 10.849 3.11 10.849-2.259 1.458-9.397 5.43-19.533 5.43zM441.1 57.55c-4.034-1.31-11.617-3.408-18.83-3.408-7.35 0-13.132 2.54-13.132 8.65 0 7.633 12.463 9.855 20.994 12.966 5.703 2.08 20.998 6.136 20.998 22.586 0 19.982-16.594 28.525-34.296 28.525-17.704 0-28.163-6.584-28.163-6.584s2.746-9.7 3.302-11.615c.503-1.724 2.506-2.328 3.782-1.838 4.556 1.756 12.784 4.197 22.083 4.197 9.416 0 13.97-2.875 13.97-9.003 0-8.157-12.713-10.65-21.122-13.302-5.793-1.826-21.126-6.084-21.126-24.176 0-17.822 15.65-26.183 32.375-26.183 14.158 0 21.102 2.96 26.29 5.603l-3.32 11.575c-.507 1.783-1.97 2.601-3.804 2.007zM207.272 41.316c0-1.928-1.647-3.032-3.219-2.852-6.946.796-11.902 4.065-15.108 7.108-6.296-4.932-15.036-7.288-24.844-7.288-19.665 0-35.03 9.492-35.03 30.187 0 11.881 5.058 20.068 13.089 24.887-5.965 2.823-9.937 8.814-9.937 14.704 0 9.852 7.783 12.937 7.783 12.937s-13.61 6.606-13.61 19.82c0 16.918 15.569 23.758 34.592 23.758 27.421 0 46.287-11.326 46.287-32.122 0-12.799-9.794-19.865-31.137-20.705-12.666-.5-20.87-.955-22.902-1.628-2.686-.892-4.006-3.042-4.006-5.416 0-2.62 2.152-5.116 5.546-6.83 2.96.525 6.083.784 9.327.784 19.682 0 35.03-9.464 35.03-30.187 0-5.026-.906-9.388-2.556-13.115 2.892-1.543 6.45-2.629 10.697-2.629-.002 0-.002-9.655-.002-11.413zm-54.194 84.482s10.327.39 20.646.869c11.594.536 15.206 3.034 15.206 9.037 0 7.334-10.075 14.468-24.154 14.468-13.365 0-20.04-4.65-20.04-12.391 0-4.442 2.345-9.411 8.342-11.983zm11.06-41.584c-9.316 0-16.584-4.949-16.584-15.743s7.275-15.743 16.584-15.743c9.311 0 16.585 4.935 16.585 15.743 0 10.809-7.265 15.743-16.585 15.743z"/>
  </g>
</svg>
