<svg viewBox="0 0 50 54" fill="none" xmlns="http://www.w3.org/2000/svg">
  <path fill-rule="evenodd" clip-rule="evenodd" d="M0 14.43c0 1.5.8 2.83 2.03 3.53.21.14.48.23.72.3l.16.05H3c.09.1.26.1.35.1H4.5c.04 0 .1-.03.17-.05.07-.02.14-.05.18-.05h.09l.17-.04a4.13 4.13 0 0 0 2.82-3.84c0-.13-.02-.24-.04-.35-.02-.1-.04-.22-.04-.35L24.43 4.2c.26-.08.53-.17.8-.17.26 0 .52 0 .78.17l14.03 8.12a6.71 6.71 0 0 1 2.38-3L27.95.94a5.39 5.39 0 0 0-5.29 0L5.64 10.73a3.02 3.02 0 0 0-1.58-.35A4.1 4.1 0 0 0 0 14.43Zm48.59 3a3.77 3.77 0 0 0 1.41-3 4.12 4.12 0 0 0-5.82-3.7c0 .09-.09.09-.09.09a1.7 1.7 0 0 1-.17.07c-.07.03-.13.05-.18.1 0 .1-.09.1-.09.1a4.42 4.42 0 0 0-.84.79l-.13.17c-.53.7-.8 1.5-.8 2.38a4.07 4.07 0 0 0 2.92 3.88v18.26c0 .62-.27 1.14-.8 1.4l-13.75 7.95c.8.97 1.23 2.29 1.23 3.61l14.46-8.29a5.52 5.52 0 0 0 2.65-4.67V17.43ZM29.37 49.71c0-.18 0-.27.08-.27V48.83c-.08-.1-.08-.1-.08-.18 0-.05-.03-.07-.05-.09-.02-.02-.04-.04-.04-.09-.05-.05-.08-.07-.08-.1l-.01-.07s-.09-.1-.09-.18c-.09 0-.09-.09-.09-.09s-.09-.09-.09-.17c-.08 0-.08-.1-.08-.1-.05-.04-.07-.08-.1-.13a.46.46 0 0 0-.08-.13v-.09a4.01 4.01 0 0 0-3.26-1.67c-1.24 0-2.38.53-3.09 1.41l-15.7-9.08c-.44-.27-.79-.8-.79-1.41V20.43a5.69 5.69 0 0 1-3.7-.09v16.32c0 1.94.97 3.7 2.64 4.67l16.76 9.7a4 4 0 0 0 7.76-.62v-.09c.09-.17.09-.44.09-.61Zm7.24-32.37c0 .1 0 .1.1.27 0 .1 0 .18.17.1v14.68c0 .35-.27.62-.53.8L21.66 41.1c-.09.09-.09.09-.18.09h-.71c-.09-.09-.18-.09-.18-.09l-10.14-5.6a.93.93 0 0 1-.45-.8v-3.75c.09 0 .09-.09.09-.09l.09-.08.09-.1c0-.08.09-.08.09-.08 0-.1.09-.1.09-.1l4-1.95V17.52c.09-.09.09-.18.09-.18l.09-.08.09-.1c0-.08.09-.08.09-.08l.09-.1 7.12-3.9-.27-.72a1.44 1.44 0 0 1-.53-1.16v-.09c0-.08 0-.26.08-.35.36-1.16 2.05-1.96 4.28-1.96 2.22 0 3.91.8 4.27 1.96.09.09.09.18.09.35v.1c0 .44-.18.8-.54 1.15l-.26.71L36.26 17l.09.09c0 .09.09.09.09.09l.09.09c.08 0 .08.08.08.08Zm-12.28-3.73.18.35.8 1.78h.53l.98-2.13c-.35.09-.8.09-1.24.09-.45 0-.9 0-1.25-.1Zm3.74-2.4a5.23 5.23 0 0 0-2.4-.54 4.6 4.6 0 0 0-2.4.53c.35.18 1.15.54 2.4.54a4.6 4.6 0 0 0 2.4-.54Zm-4.45 5.24-.71-1.6-5.43 3.03 8.19 4.54 8.18-4.54-5.42-3.03-.72 1.6c-.17.72-.98 1.25-2.04 1.25-1.07 0-1.87-.53-2.05-1.25Zm1.07 7.66-8.28-4.63v9.08l8.28 4.63V24.1ZM11.87 34.26l8.28 4.63v-1.25L11.87 33v1.25Zm4.45-.9 4.8 2.68 2.5-1.25-8.19-4.54-2.5 1.25 3.39 1.87Zm5.79 5.53 12.72-6.86V19.57l-8.27 4.63v11.04c-.1 0-.1.09-.1.09-.08 0-.08.08-.08.08l-.1.1c0 .08-.08.08-.08.08 0 .1-.09.1-.09.1l-4 1.95v1.25Z" fill="url(#a)"/>
  <defs>
    <linearGradient id="a" x1="23.44" y1="8.8" x2="44.5" y2="46.5" gradientUnits="userSpaceOnUse">
      <stop stop-color="#E535AB"/>
      <stop offset="1" stop-color="#1BCBE2"/>
    </linearGradient>
  </defs>
</svg>
