<svg xmlns="http://www.w3.org/2000/svg" viewBox="0 0 400 400">
  <g fill-rule="evenodd">
    <path d="M170 50c-5 2-10 10-10 17 0 4-1 4-5 0-8-8-19-1-19 14 0 16 18 22 23 8l2-10c0-1 1-1 2 1 3 2 7 3 11 2s6-3 8-7c2-5 4-4 4 0 0 2 4 8 7 9 3 3 6 3 10 1 6-2 9-20 4-26l-2-2c-6-7-14-4-19 6-1 2-2 2-2-1 0-5-4-11-9-12h-5m6 5c1 1 3 8 2 10v3c-2 8-8 12-11 8-6-9 1-26 9-21m24 4c3 1 4 13 2 17-3 9-9 7-11-3s4-18 9-14m-49 10c3 2 4 14 2 18-3 6-8 6-10 1-5-10 1-24 8-19m-29 19c-11 4-8 29 4 32 9 2 14-4 14-15 0-10-11-19-18-17m6 5c3 2 7 14 5 18-2 7-8 6-11-1-5-10-1-21 6-17m58 10c-17 1-27 4-34 9-4 2-9 7-10 9l-7 6c-6 2-10 8-12 15-1 5-1 13 1 28a982 982 0 0 1 8 103l1 7c1 15 6 32 14 44 18 27 54 24 79-6 11-13 13-21 19-55l6-30c3-11 3-10 2-12s-4-3-5-1l-3 12-8 44c-3 15-6 24-13 34a69 69 0 0 1-37 27h-13c-11-3-18-8-24-17-8-13-12-26-13-51a1135 1135 0 0 0-8-99l-2-18c-1-11 3-18 11-21 4-2 4-3 8-7 5-7 10-11 19-13a58 58 0 0 1 17-3c17-3 25 3 23 18-2 19 2 30 14 33 4 1 5 0 8-1 10-5 15-13 21-30 6-16 15-19 23-9 6 7 6 23 1 39a85 85 0 0 1-11 24c-5 8-6 14-4 15 2 2 3 1 6-4l5-9c5-10 7-13 9-21 7-21 7-39-1-47-13-13-25-9-32 10-4 13-7 17-12 23-5 4-10 6-13 4-7-4-9-11-8-24l1-12c-2-9-14-16-26-14m68 98-3 7-1 4c-1 4 4 6 6 3l3-12c0-2-3-3-5-2" fill="#373434"/>
    <path d="M171 49c-6 2-11 10-11 17 0 4-1 4-4 1-6-6-13-5-17 3l-1 2 1-2c4-8 10-9 16-3 4 4 5 4 5 0 0-7 5-16 10-17l3-1 2 1c5 1 9 7 9 12 0 3 1 3 2 1a27 27 0 0 1 8-10l-5 4c-1 2-2 2-8-4-4-4-7-5-10-4m25 4h1-1m6 1 3 3 2 2c5 6 2 24-4 26-4 2-7 2-10-1-3-1-7-7-7-9 0-4-2-5-4 0-2 4-4 6-8 7s-8 0-11-2c-1-2-2-2-2-1-3 13-4 16-10 17-6 2-11-2-14-10l-1-2c0 7 8 14 14 13l5-1c6 0 9-3 10-10 0-4 0-4 4-4h9c3 0 4-1 6-3 2-1 3-1 4 1 5 6 6 7 16 6 5 0 5 0 6-2 6-6 6-18 0-23l-4-4-6-4 2 1m-32 1c-2 1-4 4-4 6l1-1c1-4 5-6 7-6 3 1 4 3 2 5-2 3-4 9-3 14 0 5-4 6-6 2l-1-1c0 2 4 4 6 4 2-1 5-6 6-10v-3c1-1 0-8-1-9-1-2-4-3-7-1m25 4-3 5 1-2c2-4 5-5 7-3s1 3 0 6l-1 9c0 7-1 7-2 7-2 0-4-2-5-5 0-1 0-1 0 0l3 5c4 3 8-3 8-11 0-9-3-14-8-11m-30 4v9h1v-8c0-3 0-3-1-1m26 4v8-5a192 192 0 0 0 0-3m-45 1c-4 2-6 10-5 16 3 9 8 11 12 3 2-5 0-19-3-19v1c2 1 2 2 1 5-2 4-3 9-2 13 1 5-3 6-6 2-4-7-1-19 5-21 1 0 1 0 0 0h-2m-9 7-1 2 1-1v-1m-1 6v-2 2m-15 7c-2 2-5 5-5 8l1-2c3-8 10-9 17-1 5 5 7 10 6 17-1 6-3 8-7 10-8 2-13-2-16-10l-1-3c-1 2 3 8 6 11s4 3 12 2l6 1c0 2-1 4-5 5-12 6-15 16-12 43a998 998 0 0 1 1 1c-2-15-2-23-1-28 2-7 6-13 12-15l7-6c1-2 6-7 10-9 7-5 19-8 35-9 12-1 23 5 25 14l-1 12c-1 10 0 17 4 21 4 3 7 4 10 3 1 0 1-1 0 0-4 1-8-1-9-6v-17c1-9 0-14-6-19l-4-3c-7-6-17-7-36-4-9 2-17 6-22 10-3 3-5 3-4-1 1-7-1-12-8-19s-10-8-15-6m1 5c-4 4-3 16 3 21 4 4 9 0 8-7-1-11-6-17-11-14m6 1 1 1v2l-1 4v10c2 5 0 6-3 2-8-8-5-26 3-19m-13 8v2a63 63 0 0 0 0-2m67 6h-5l-7 2 3-1h6l6-1h9c1 1-1 1-5 1l-4 1-5 1a50 50 0 0 0-11 3c-5 1-9 5-17 13-2 3-4 4-6 5-6 3-10 10-11 16a120 120 0 0 0 1 28l1 8 1 9a133 133 0 0 0 1 16 185 185 0 0 0 2 20 1260 1260 0 0 0 3 36c2 29 4 42 10 53l2 2 5 9v1c-1 0-7-5-10-10a79 79 0 0 1-13-42 359 359 0 0 1-3-40l2 29c1 27 4 39 13 53 6 9 13 14 24 17h13l4-2c12-3 26-14 33-25 7-10 10-19 13-34a906 906 0 0 1 11-56c1-2 4-1 5 1s1 1-2 12l-6 30c-6 34-8 42-19 55-18 22-44 31-64 20-12-6-21-21-26-41l-1-2c-1 0 2 10 5 16 10 24 26 34 51 31 25-2 49-26 55-53a208 208 0 0 1 2-16l1-4 1-4 1-5a102 102 0 0 1 2-12 318 318 0 0 1 19-62c5-9 11-22 13-31l1-16c0-10-1-12-3-17a56 56 0 0 0-12-11l8 9c4 7 4 21 1 35-3 10-6 17-12 29l-5 9c-3 5-4 6-6 4-2-1-1-7 4-15a131 131 0 0 0 11-24c4-12 5-27 2-34-2-6-7-11-11-11h-2 2c3 1 3 2 1 4a31 31 0 0 0-8 14l-2 5c-6 15-14 24-23 24-4 0-4-1 0-4 7-4 11-11 16-23 4-12 5-14 8-16l4-3 1-1c-4 0-9 6-12 15-8 23-18 33-29 31-12-3-16-14-14-33 2-15-7-21-23-18m74 1c-5 3-10 9-13 18-4 12-9 20-15 24l-1 1 5-4c5-5 8-10 12-22 4-10 8-15 14-17h9l-1-1c-2-1-6-1-10 1m-92 2c-9 3-13 6-18 13-4 4-4 5-8 7-5 2-11 8-10 12 0 1 0 1 0 0 2-6 5-10 10-12 4-2 4-2 7-6 7-8 14-13 24-15h-1l-4 1m-36 52 1 7v-3a363 363 0 0 1-1-4m1 14 1 6a72 72 0 0 1 1 6l-1-6a198 198 0 0 1-1-6m2 17v5a179 179 0 0 1 0-5m127 7c1 2 1 2-1 8-2 7-2 8-5 7-2 0-3-2-2-4l1-4c2-7 4-9 7-7m-130 24 1 8a148 148 0 0 1 0-1v-10l-1 3m2 20v6a138 138 0 0 1 1 2l-1-8m2 23v7a103 103 0 0 1 1 2 1313 1313 0 0 1-1-9m1 19 2 5-1-5c-1-2-1-2-1 0" fill="#a16849"/>
    <path d="M168 49c-4 2-8 8-9 15-1 3-1 3-3 1-6-5-15-4-18 4-4 7-4 17 0 23 2 3 0 3-4-1-6-6-12-6-17-1-2 3-3 4-3 12l1 7 1 3c4 8 9 11 16 10 6-2 8 0 3 3-9 4-15 14-15 25a285 285 0 0 0 4 45l1 8 1 9 1 9 1 9v9l1 10a216 216 0 0 0 2 22 109 109 0 0 0 1 13c3 30 18 54 38 59 9 2 23 2 32-2 21-7 36-23 43-44a116 116 0 0 0 6-28v-5l1-5 1-3 1-4 1-5a90 90 0 0 1 2-10c6-28 11-43 18-53 12-17 16-51 9-63-2-3-11-11-15-13-10-5-21 2-26 15-5 15-7 19-13 25-4 4-9 5-11 2-2-4-3-15-1-23 1-5-1-11-4-14-11-11-20-14-33-12l-5 1a78 78 0 0 0-20 5l-8 6c-2 1-2 1-2-3 0-3-1-8-3-11s-2-3 0-2c3 1 5 2 7 1h5c6 0 9-3 11-10 1-5 1-4 4-4l14-2c3-2 2-2 4 0 3 5 8 7 12 6l5-1c12 2 16-20 5-28l-4-4c-5-4-11-5-16 0l-2 2-2-1-4-4c-5-5-9-6-14-3m8 0 4 3 4 3 3 2h2c4-6 12-6 17 0l2 2c8 3 10 18 4 25-2 2-4 3-8 3h-4c-4 1-8-1-11-5-2-3-3-3-4-2-2 2-5 3-7 2h-4l-4 1c-4-1-4 0-4 3-2 7-5 11-8 11l-14-1c-8-4-10-17-6-27 4-7 12-8 18-2 2 2 4 2 4 0 0-11 8-21 16-18m-6 7c-6 5-6 19-1 21 3 1 3 0 3-5-1-5 1-9 3-13 3-4-1-7-5-3m5 0c1 1 0 1-1 3-2 4-3 7-3 12s0 5-2 5c-2-2-3-12-1-16s5-6 7-4m21 3c-7 3-6 22 1 22l1-5c-1-4 0-9 2-12l1-3c0-2-4-3-5-2m3 1v4c-2 3-3 8-2 11a513 513 0 0 1-2 4c-4-4-3-17 0-19h4m-52 9c-7 1-7 22 0 22 2 0 2 0 1-3-1-4 0-11 2-15 2-3 1-5-3-4m3 1v3c-3 5-3 6-3 10l1 6c0 2-1 2-2 0-4-3-4-14 0-18 1-2 3-2 4-1m-22 18 6 3 4 4c4 3 7 9 7 16 0 5 0 5 4 2 9-6 18-9 37-11 8-1 15 1 20 5l4 4c6 4 8 10 7 19-2 10 0 21 3 22 7 4 17-7 23-24 6-19 18-26 29-16l6 4c4 4 6 6 7 11 2 4 2 21 1 28-3 12-7 21-13 30l-6 12a287 287 0 0 0-15 61l-3 18c-2 14-4 19-8 28a64 64 0 0 1-54 39c-16 1-24-2-33-10-14-13-20-31-22-64a1832 1832 0 0 0-8-88c-2-19-3-32-2-37 1-8 6-15 13-18 8-4 5-7-5-5-5 1-10-3-13-10l-2-3v-7c0-8 1-11 6-13h7m-5 6c-4 2-3 14 2 19 3 3 4 1 2-2-1-3-1-11 1-13 1-3 1-4-1-5l-4 1m4 1v3c-1 3-2 10 0 13 1 4-1 3-4-3-3-7-1-16 4-13m46 15c-14 3-19 5-25 12a2513 2513 0 0 1-8 8l-7 4c-5 5-7 15-4 33a143 143 0 0 1 2 18 628 628 0 0 1 5 68l1 11c2 32 7 50 18 61 4 5 4 3 1-3-9-15-11-24-13-57l-2-21-1-22a1196 1196 0 0 0-6-64c-2-12 1-19 9-25l4-2 7-7c6-7 9-9 16-11l4-2 4-1 2-1-7 1m-8 4c-4 2-8 5-12 11l-7 6c-11 5-14 14-12 32a722 722 0 0 1 5 57 24945 24945 0 0 1 9 86l5 12 1 4c-9-11-13-25-15-46v-6l-1-10a185 185 0 0 0-2-21 135 135 0 0 0-1-19l-1-9-1-9a157 157 0 0 0-1-16l-1-7a151 151 0 0 1-2-18v-19c2-5 5-8 10-10 4-2 4-2 6-5a39 39 0 0 1 19-14c3-1 4-1 1 1m93 1c-4 2-6 5-11 19-4 9-9 17-15 21-4 4-4 5 1 4 9-2 16-11 22-28 2-6 5-12 8-14 4-3 0-5-5-2m5 0-2 3c-3 3-5 6-7 13-5 15-13 26-20 27-3 0-3 0-1-2 8-6 12-13 17-29l5-9c3-3 7-5 8-3" fill="#a7a3a3"/>
    <path d="M183 55c3 3 4 4 6 3l-1-1h-1l-3-2-2-1 1 1m21 1 2 1-1-1-2-2 1 2m-28-1c1 2 1 2-1 4-2 4-4 8-3 13l-1 5c1 0 2-1 2-4-1-5 1-11 3-14v-4c-1 0-1 0 0 0m-7 2-1 1 1-1 1-2-1 2m38 2c5 4 6 5 7 11 2 8-2 16-9 16h-4l3 1c4 0 5-1 8-3 6-7 4-22-4-25l-1-1v1m-7 4c-2 5-3 9-2 13s0 5-1 5h-2 3l1-7 1-9 1-4-1 2m-53 0h1-1m-4 1-1 1c0 1 0 0 0 0l2-1 1-1-2 1m22 2s0 1 0 0v-1 1m-5 1c0 2-2 2-3 1s-1 0 0 0c1 2 3 1 3-1v-2 2m5 2v-1 1m-26 0-1 1 1-1v-1 1m12 1c1 1 0 1-1 3-2 4-3 11-2 15 1 2 1 3-1 3h-1l1 1c2 0 3-2 2-5-1-4 0-9 2-13v-4c0-1 0-1 0 0m-10 10v-1 1m44-1c-2 2-4 3-7 3h-3 3c2 1 4 0 7-2l2-1s1 0 0 0h-2m5 4 2 2-1-2-2-1 1 1m-25 0v3c-1 7-4 10-10 10-3 0-2 1 1 1 5 0 8-3 9-9a371 371 0 0 1 2-5l1-1h-1l-2 1m-41 4h1-1m13 8c6 6 8 11 7 18-1 4 1 4 4 1h-1c-2 2-2 2-2-3 0-7-3-13-7-16l-3-2 2 2m-9-1v4c-2 2-2 10-1 13 1 2 2 3 1 4h-1c2 0 3-1 1-4v-10l1-4-1-3v-1 1m17 3h1c1 0 1 0 0 0l-1-1v1m3 0s-1 0 0 0m-28 4v-2 2m69 1h1-1m-5 0h1-1m-7 1h1c1 0 0 0 0 0h-1m84 4h1-1m-77 1-3 1h-1l-2 1-4 1-4 2c-7 2-10 4-16 11l-7 7-4 2c-8 6-11 13-9 25a1498 1498 0 0 1 6 64l1 22 2 21c2 33 4 42 13 57 3 6 3 7-1 3l-2-2 2 3 6 4v-1a92 92 0 0 1-7-11c-6-11-8-24-10-53a804 804 0 0 0-7-81l-1-8v-8c-1-3-2-17-1-20 1-6 5-13 11-16 2-1 4-2 6-5 8-8 12-12 17-13l4-1 7-2 5-1 4-1c4 0 6 0 5-1h-10m26 3c6 5 7 10 6 18-2 9 0 20 3 23 0 0 1 0 0 0-3-4-4-13-2-22 1-10-1-15-7-19l-3-2 3 2m-38-1h1l1-1-2 1m79 3-2 1 2-1 2-2-2 2m23 0 2 2-2-2-1-1 1 1m-13 0h1-1m3 1c1 1 1 2-1 3-3 2-6 8-8 14-6 16-13 26-20 28-5 1-7 0-5-2 1-1 1-1 0 0-3 2-3 3 1 3 9 0 17-9 23-24a151 151 0 0 1 2-7c0-2 5-8 7-11 3-2 3-4 1-4m15 4c6 6 7 9 7 21l-1 16c-2 9-8 22-13 31a318 318 0 0 0-24 92 73 73 0 0 1-2 11c-5 23-22 43-46 51l-16 3h-7 17l5-2c19-6 34-19 42-37 4-9 6-14 8-28a445 445 0 0 1 24-91c6-9 10-18 13-30 1-7 1-24-1-28-1-5-3-7-6-10l-3-2 3 3m-158-1 2 3-2-3-2-2 2 2m13 3h-2 3l5 2v-1l-6-1m-6 1h1-1m20 1-2 2 2-2 1-1-1 1m-12 4h-1l3-1-2 1m-7 5-2 2 2-2 2-3-2 3m-7 16v-1 1m109 1-2 3 3-3 2-2-3 2m-104 5s0 1 0 0v-1 1m-5 1v-1 1m98-1h4-4m-98 7v-1 1m0 5 1 1v-1h-1m1 7v-1 1m6 1c0-1 0-1 0 0m-5 3c0-1 0-1 0 0m1 11v-1 1m6 3v-1 1m-6 3v-1 1m6 3s0 1 0 0v-1 1m-5 1c0-1 0-1 0 0m0 3c0-1 0 0 0 0m1 5v-1 1m6 2v-1 1m0 6c0-1 0-1 0 0m-5 5c0-1 0 0 0 0m0 6v-1 1m6 3v-1 1m1 5v-1 1m0 4v-1 1m-6 1v-1 1m6 3c0 1 0 1 0 0v-1 1m-5 4v-1 1m6 3v-1 1m0 6s0 1 0 0v-1 1m-6 0 1 1v-1h-1m7 4s0 1 0 0v-1 1m-6 1c0 1 0 1 0 0v-1 1m6 5v-2 2m-6 3v-1 1m6 4v-1 1m-5 3v-1 1m6 2v-1 1m0 4v-1 1m-6 1h1v-1l-1 1m6 3 1 1v-1h-1m13 47 2 2-1-2-2-1 1 1m5 4 1 2-1-2-2-1 2 1m5 4 4 2-2-1-2-1" fill="#b5917c"/>
  </g>
</svg>
