<svg xmlns="http://www.w3.org/2000/svg" viewBox="0 0 2000 1406">
  <path d="M35.072 1240.052c-1.425-2.393 148.757-520.764 152.744-527.216 2.575-4.166 200.32-4.18 202.894-.013 1.06 1.715-21.353 83-49.807 180.635-28.454 97.634-51.01 179.404-50.124 181.712 2.25 5.864 66.306 5.894 70.805.033 4.962-6.465 127.762-432.317 125.65-435.735-1.075-1.74-59.861-3.03-138.021-3.03-74.882 0-136.886-1.193-137.786-2.65-.9-1.457 27.886-102.989 63.97-225.626l65.606-222.978 241.2-.854c132.659-.47 242.326.279 243.705 1.665 1.38 1.386-37.883 141.143-87.25 310.57a4252072.688 4252072.688 0 0 0-151.823 521.19c-34.137 117.226-63.404 215.761-65.04 218.967-2.79 5.469-17.807 5.828-244.104 5.828-132.623 0-241.801-1.124-242.62-2.498zM538.12 469.09c3.748-4.835 34.222-109.04 34.222-117.02 0-4.592-4.996-5.368-34.56-5.368-23.745 0-35.549 1.303-37.718 4.163-3.74 4.931-34.291 109.162-34.291 116.99 0 4.63 4.914 5.398 34.56 5.398 23.707 0 35.573-1.308 37.787-4.163zm212.969 164.87c-.83-1.385 28.027-102.927 64.126-225.648l65.634-223.129 99.464-.883c54.704-.486 100.776.43 102.38 2.034 1.669 1.669-14.267 61.319-37.249 139.426-22.09 75.08-40.165 139.029-40.165 142.11 0 4.972 4.209 5.495 37.466 4.66l37.465-.942 41.629-140.038c22.895-77.02 42.84-141.837 44.323-144.035 3.045-4.517 197.211-5.974 199.89-1.5.821 1.374-28.042 102.907-64.141 225.628l-65.635 223.129-241.84.854c-133.011.47-242.518-.28-243.347-1.665zm532.832-.023c-.822-1.373 28.041-102.905 64.14-225.626l65.636-223.13 241.028-.854c132.565-.47 242.092.28 243.393 1.665 1.3 1.386-27.191 102.928-63.315 225.649l-65.68 223.129-99.463.883c-54.705.486-100.777-.43-102.38-2.034-1.67-1.669 14.266-61.319 37.248-139.425 22.091-75.08 40.165-139.03 40.165-142.11 0-4.973-4.208-5.496-37.465-4.66l-37.466.943-41.629 140.038c-22.895 77.02-42.84 141.836-44.322 144.035-3.045 4.517-197.212 5.973-199.89 1.499zm602.79-147.507c-14.136-11.12-14.16-23.526-.139-75.049 9.7-35.648 14.704-48.479 21.654-55.52 17.052-17.277 46.87-8.334 51.32 15.391 3.255 17.351-20.665 101.121-32.216 112.824-11.13 11.277-28.028 12.256-40.617 2.354z" style="opacity:.95;fill:white;fill-opacity:1;stroke:none"/>
  <path d="M829.438 684.813c-31.896-.094-50.496 2.47-71.094 24.03-29.962 31.362-36.968 83.318-25.625 119.782 15.91 41.596 61.088 55.479 80.781 64.469-48.972-39.57-31.241-119.549 19.813-157.094h41.656c93.642-.09 87.743-8.714 89.034 56.23h.427c1.799-91.685.244-105.34-81.805-107.168-21.432.4-38.69-.207-53.188-.25zm161.53 182.906c-9.425 59.543-45.775 66.386-116 66.187-.059-.003-.07-.028-.062-.03H663.813l-19.625 66.187h217.374c78.919-1.702 117.705-66.214 129.407-132.344z" style="font-size:medium;font-style:normal;font-variant:normal;font-weight:400;font-stretch:normal;text-indent:0;text-align:start;text-decoration:none;line-height:normal;letter-spacing:normal;word-spacing:normal;text-transform:none;direction:ltr;block-progression:tb;writing-mode:lr-tb;text-anchor:start;baseline-shift:baseline;opacity:.95;color:#000;fill:white;fill-opacity:1;stroke:none;stroke-width:50;marker:none;visibility:visible;display:inline;overflow:visible;enable-background:accumulate;font-family:Sans;-inkscape-font-specification:Sans"/>
</svg>
