<svg viewBox="0 0 1000 700" xmlns="http://www.w3.org/2000/svg">
  <path d="M151.48 43.39c4.88-3.86 11.23-6.91 17.59-5.86 6.31 1.53 12.97 3.99 16.78 9.58 6.64 9.37 5.56 22.67-1.29 31.63l-.52-.52c-1.54-1.54-3.04-3.18-4.9-4.34-2.05-1.35-5.32-.2-5.88 2.24-.73 3.58.99 7 2.71 10.03-6.05 1.24-12.63 2.07-18.47-.46-8.75-3.6-15.51-12.18-16.26-21.69.48-7.85 4.77-15.13 10.24-20.61zm91.74 107.11c4.99-.86 9.67-3.15 14.78-3.36 11.33-.39 22.9.31 33.68 4.1 3.15 1.14 6.26 2.87 8.12 5.78-4.66.83-9 2.73-13.39 4.39-17.33 6.8-34.36 14.4-50.71 23.3-7.2 3.95-14.41 8.02-20.62 13.44-4.45 3.95-9.7 7.03-13.47 11.7-1.29-12.12 1.15-24.95 8.53-34.85 3.21-5.24 8.43-8.62 12.63-12.96 5.81-5.35 13.01-9.01 20.45-11.54zm320.79 69.53c4.48-4.21 10.89-6.01 16.94-5.23 7.41 1.14 13.88 6.44 16.84 13.28 3.92 9.19 1.45 20.92-6.68 27.03-7.38 5.72-18.65 5.52-25.65-.74 3.54-3.3 7.54-7.85 6.36-13.04-3.53-4.55-10.55-3.9-15.09-1.28-1.08-7.33 1.47-15.26 7.28-20.02zm-69.76 17.3c13.91-1.36 25.98 7.37 36.26 15.62a36.3 36.3 0 0 1 10.08 18.75c1.69 9.86 1.16 20.08-2.29 29.52-2.86 9.37-7.64 19.53-16.96 23.86-.11-5.43-1.34-10.74-2.26-16.07-3.94-21-10.06-41.65-19.01-61.07a54.15 54.15 0 0 0-5.82-10.61zM143.13 398.18c7.38-2.74 15.44-.15 21.79 3.92 13.94 8.12 27.14 18.06 36.94 31.02a160.48 160.48 0 0 1 17.05 27.97c3.3 7.23 5.9 14.97 6.07 22.98.21 7.7-4.54 14.48-9.96 19.5-6.18 5.04-12.24 10.35-19.27 14.19-9.04 4.75-19.67 7.1-29.81 5.2-12.44-2.08-24.09-8.05-33.52-16.35 3.39-2.17 7.18-5.19 7.18-9.61.69-8.27-7.43-15.46-15.47-14.85-3.06 1.35-5 4.31-7.2 6.7-5.06-7.93-9.04-17.24-8.12-26.82 2.56-17.01 8.15-33.87 18.32-47.9 1.07-1.28 1.18-2.97 1.33-4.55 5.15-3.48 8.63-9.24 14.67-11.4zM45.51 523.4A31.08 31.08 0 0 1 73 505.72c7.54.65 14.65 3.56 21.38 6.85 4.69 2.42 7.87 7.01 9.45 11.95 3.97 11 1.74 23.78-5.47 32.94-4.49 5.43-9.96 10.53-17.02 12.21-10.49 3.1-22.05-.7-29.66-8.28-9.07-10.05-12.38-25.63-6.17-37.99z" fill="#9b99a6"/>
  <path d="M173.26 76.12c.56-2.44 3.83-3.59 5.88-2.24 1.86 1.16 3.36 2.8 4.9 4.34 2.8 3.43 6.05 6.43 9.07 9.66 12.29 13.51 23.35 28.07 35.01 42.11a1366.5 1366.5 0 0 1 15.88 19.7l-.78.81c-7.44 2.53-14.64 6.19-20.45 11.54-2.5-2.57-4.2-5.72-6.1-8.72a978.5 978.5 0 0 1-29.69-50.26c-3.29-5.88-7.63-11.09-11.01-16.91-1.72-3.03-3.44-6.45-2.71-10.03zm383.47 163.93c4.54-2.62 11.56-3.27 15.09 1.28 1.18 5.19-2.82 9.74-6.36 13.04-7.75 6.47-15.9 12.64-24.87 17.33a36.3 36.3 0 0 0-10.08-18.75c8.19-5.37 17.82-7.9 26.22-12.9zm-439.8 248.8c2.2-2.39 4.14-5.35 7.2-6.7 8.04-.61 16.16 6.58 15.47 14.85 0 4.42-3.79 7.44-7.18 9.61-4.72 2.9-9.59 5.54-14.21 8.6-4.81 3.08-9.24 6.75-14.38 9.31-1.58-4.94-4.76-9.53-9.45-11.95 5.84-9.37 15.41-15.47 22.55-23.72z" fill="#f79727"/>
  <path fill="#787880" d="M323.07 152.65c12.44-1.99 25.07-1.46 37.62-1.26 36.85 2.51 73.61 16.68 100.27 42.67 3.75 2.58 6.04 6.6 9.35 9.64 9.42 10.11 16.61 22 23.94 33.63 2.4 3.27 4.21 6.9 5.82 10.61 8.95 19.42 15.07 40.07 19.01 61.07.92 5.33 2.15 10.64 2.26 16.07-.45 9.36 1.63 18.72.34 28.06-.63 5.06-.06 10.2-.99 15.22-1.44 9.43-5.58 18.12-9.76 26.59-2 4.22-6.4 6.33-10.08 8.83-3.75 2.44-8.72 4.67-13.08 2.43-6.89-3.92-10.21-11.76-11.78-19.18-1.73-6.88-1.13-14-1.23-21.01-1.09-19.58-2.18-39.31-6.52-58.5-2.91-12.58-7.89-25.26-17.6-34.16a69.1 69.1 0 0 0-20.75-12.14c-11.31-3.36-23.1-5.31-34.92-5.06-14.27-.32-28.33 2.67-42.06 6.26-13.89 3.61-27.01 9.53-39.97 15.6-10.29 4.36-20.02 9.85-29.91 15.02-5.54 2.99-11.02 6.13-16.01 9.98-9.03 6.89-18.74 13.14-26.14 21.89-7.42 8.75-14.01 18.75-16.26 30.18-2.83 16.82.39 34.12 6.38 49.92a152.7 152.7 0 0 0 29.75 47.28c8.76 10.98 20.42 19.02 31.73 27.14a22.95 22.95 0 0 1 10.3 18.67c-.58 6.2-5.31 11.06-10.19 14.45-5.26 3.25-11.41 5.36-17.64 5.17-14.59-.13-29.3-1.87-43.15-6.59-5.84-1.96-11.21-4.99-16.78-7.56 5.42-5.02 10.17-11.8 9.96-19.5-.17-8.01-2.77-15.75-6.07-22.98a160.48 160.48 0 0 0-17.05-27.97c-9.8-12.96-23-22.9-36.94-31.02-6.35-4.07-14.41-6.66-21.79-3.92-6.04 2.16-9.52 7.92-14.67 11.4-1.51-4.39-.8-9.12-1.41-13.65-.76-5.29-.34-10.64-.85-15.94-.81-7.31-.42-14.68-.55-22.02-.21-14.35.06-28.78 2.27-42.99 2.14-13.19 7.56-25.57 13.7-37.34 6.66-12.46 15.16-23.9 24.76-34.26 5.25-6.04 10.85-11.81 17.09-16.83 5.61-6.05 12.89-10.32 18.14-16.7 3.77-4.67 9.02-7.75 13.47-11.7 6.21-5.42 13.42-9.49 20.62-13.44 16.35-8.9 33.38-16.5 50.71-23.3 4.39-1.66 8.73-3.56 13.39-4.39 7.91-.59 15.37-3.67 23.27-4.37z"/>
  <path d="M352.84 380.74c5.51-11.04 21.71-12.7 30.9-5.47 6.08 4.92 7.77 13.19 7.84 20.64.09 20.97.05 41.94.02 62.91 7.22-7.98 15.34-15.57 25.41-19.75 12.59-5.24 26.79-6.33 40.13-3.76 13.95 2.68 26.75 11.35 33.71 23.83 6.92 10.93 7.75 24.26 8.01 36.85.05 26.67-.01 53.34.03 80.01.1 6.48-.36 13.34-3.84 19-6.76 11.41-25.82 12.35-33.54 1.57-3.64-5.41-4.34-12.15-4.38-18.5-.02-23.36 0-46.72-.01-70.08-.11-11.03-.95-22.71-6.73-32.4-5.11-8.08-15.58-10.07-24.45-9.45-15.74.81-29.46 13.69-32.38 28.99-1.44 7.53-1.75 15.23-1.92 22.88-.06 20.33.04 40.66-.05 61-.08 7.02-1.52 14.69-6.8 19.75-5.08 5.03-12.84 6.02-19.61 4.8-4.37-.77-8.5-3.14-11.02-6.83-3.56-5.12-4.41-11.56-4.48-17.65l.01-176.09c-.03-7.47-.44-15.42 3.15-22.25zm581.59-7.14c6.26-1.5 13.19-.31 18.4 3.54 8.67 5.9 9.71 18.88 4.81 27.51-6.93 11.26-24.47 12.42-33.61 3.28-5-4.81-6.21-12.37-4.98-18.95 1.44-7.61 8.03-13.54 15.38-15.38zm-361.3 65.48c18.46-6.77 38.58-6.86 57.93-5.23 14.61 1.53 30.39 5.14 40.68 16.44 9.9 11.09 12.12 26.67 12.89 40.98.35 18.58-.08 37.17-.13 55.75.04 9.92 2.62 19.57 5.51 28.98 1.36 5.45 3.7 11.52.86 16.9-3.76 7.09-11.91 11.87-19.99 11.02-4.02-.45-7.57-2.71-10.47-5.41-5.68-5.35-9.91-11.98-14.07-18.52-13.59 10.67-28.93 20.18-46.28 22.86-15.28 2.39-31.87 1.59-45.46-6.46-11.53-6.51-20.03-18.21-22.32-31.28-1.78-10.42-.32-21.64 5.19-30.77 4.94-8.23 12.64-14.63 21.38-18.5 9.18-4.24 19.33-5.44 29.1-7.66 18.67-3.76 37.28-7.88 55.58-13.16-.43-8.83-1.57-18.33-7.07-25.58-5.28-6.04-13.92-6.99-21.45-7.35-10.47-.15-22.05.39-30.56 7.28-7.85 5.85-11.7 15.14-17.56 22.69-2.55 3.19-7.09 3.22-10.82 3.27-7.66.09-15.43-5.41-16.73-13.17-.99-7.03 1.04-14.2 4.51-20.29 6.18-11.23 17.61-18.33 29.28-22.79m19.85 93.36c-6.47 1.77-12.89 5.28-16.75 10.9-4.9 8.25-2.76 19.71 4.47 25.94 6.7 6.35 16.59 7.46 25.38 6.29 12.89-1.63 26.13-8.2 32.49-19.99 5.32-11.01 4.9-23.6 5.08-35.53-16.51 5.59-33.81 8.13-50.67 12.39zm135.26-94.26c8.26-7.25 22.92-5.76 29.05 3.58 4.09 5.91 4.11 13.41 4.01 20.31 8.96-10.92 20-20.88 33.72-25.18a67.92 67.92 0 0 1 53.85 6.28c10.99 6.29 19.74 16.08 25.6 27.23 8.53 15.71 11.19 33.94 10.79 51.62-.46 19.18-5.43 38.72-16.64 54.51-10.71 15.11-28.04 25.31-46.5 27.1-14.07 1.32-29.14-.58-40.98-8.82-7.63-4.9-13.71-11.68-19.79-18.3-.11 20.84.03 41.68-.07 62.52-.16 7.58-1.07 15.97-6.45 21.8-4.24 4.6-10.94 5.68-16.89 5.04-4.72-.39-9.83-2.27-12.23-6.62-3.2-5.85-3.84-12.69-4.01-19.24-.02-61.01 0-122.01-.02-183.02.03-6.69 1.35-14.12 6.56-18.81m68.26 27.62c-11.33 2.21-20.98 10.27-26.38 20.31-6.38 12.21-7.36 26.43-6.58 39.95.83 13.48 5.49 27.44 15.96 36.51a36.48 36.48 0 0 0 35.06 7.8c8.57-2.72 15.76-8.98 20.23-16.72 7.99-13.37 9.31-29.57 8-44.77-1.25-13.36-6.13-27.23-16.74-36.01-8.06-6.82-19.28-9.27-29.55-7.07zm136.99-31.11c6.92-1.75 14.9-.39 20.14 4.7 5.14 4.67 6.96 11.87 6.87 18.61 0 40.32.02 80.65-.01 120.97-.04 6.79-1.48 14.14-6.46 19.11-5.5 5.81-14.53 7.33-21.94 4.74-5.77-2.03-10.1-7.13-11.89-12.89-2.15-6.43-1.48-13.28-1.57-19.93.04-37.99-.11-75.97.07-113.95.02-9.21 5.28-19.14 14.79-21.36z" fill="#464646"/>
</svg>
