<svg viewBox="0 0 256 305" xmlns="http://www.w3.org/2000/svg" preserveAspectRatio="xMidYMid">
  <circle fill="#FFC627" cx="128" cy="180.374" r="103.632"/>
  <path d="m169.255 211.537-38.761-75.62c-3.415-6.663-11.6-9.304-18.28-5.886-6.664 3.423-9.305 11.605-5.89 18.27l16.185 31.554-28.969 28.887c-5.315 5.303-5.315 13.896-.029 19.21a13.558 13.558 0 0 0 9.609 3.988c3.476 0 6.94-1.335 9.591-3.965l22.793-22.742 9.584 18.69a13.568 13.568 0 0 0 18.276 5.893c6.667-3.416 9.307-11.598 5.89-18.279" fill="#232323"/>
  <path d="M221.39.927c-7.73 4.91 5.324 49.686-25.652 76.097-19.548-12.679-42.846-20.11-67.895-20.11-24.972 0-48.207 7.404-67.726 19.997C29.326 50.497 42.318 5.836 34.622.927 22.001-7.123-1.726 39.113.1 68.483c.983 15.704 5.16 38.713 16.571 56.538-8.507 16.725-13.405 35.533-13.405 55.497 0 68.174 55.882 123.64 124.578 123.64 68.711 0 124.58-55.464 124.58-123.64 0-19.847-4.854-38.56-13.267-55.2 11.548-17.878 15.758-41.051 16.742-56.835 1.836-29.37-21.905-75.607-34.51-67.556m-93.546 275.958c-53.534 0-97.12-43.214-97.12-96.368 0-53.129 43.586-96.36 97.12-96.36 53.567 0 97.125 43.231 97.125 96.36 0 53.157-43.558 96.368-97.125 96.368" fill="#232323"/>
</svg>
