<svg viewBox="0 0 256 243" xmlns="http://www.w3.org/2000/svg" preserveAspectRatio="xMidYMid">
  <path d="m178.6 119.7-1.8-3.1-60.3-19.7-1.7 2-2.6.6-53.6 125.2.7 3.8L188.4 174l1.1-2.2-9-50-1.9-2.1z" fill="#78758C"/>
  <path d="m59.3 228.5 55.5-129.6L.8 61.7l58.5 166.8z" fill="#A3EDBA"/>
  <path d="m157.1.3-42.3 98.6 63.8 20.8.3-.8L157.5 1.2l-.4-.9z" fill="#8087E8"/>
  <path d="m178.6 119.7 9.8 54.3 4.5-.1 61.1-26.5 2.7-2.3-3.2-2.7-71.9-24.2-3 1.5z" fill="#30426B"/>
  <path d="m188.4 174 12.5 69.4 55.8-98.3-68.3 28.9zM157.1.3l21.5 119.4 78.1 25.4L157.1.3z" fill="#6699A1"/>
</svg>
