<svg xmlns="http://www.w3.org/2000/svg" viewBox="0 0 100 100">
  <defs>
    <filter id="a" filterUnits="userSpaceOnUse">
      <feFlood result="flood" flood-color="#41392f"/>
      <feComposite result="composite" operator="in" in2="SourceGraphic"/>
      <feBlend result="blend" in2="SourceGraphic"/>
    </filter>
  </defs>
  <g filter="url(#a)">
    <path data-name="logo" d="M52.75 0c3.68-.03 7.31-.01 10.14.83a17.6 17.6 0 0 1 3.98 1.67 28.33 28.33 0 0 1 2.47 1.82l3.56 2.66c2.3 1.64 4.4 3.43 6.6 5.16l2.4 2.2a23.18 23.18 0 0 1 3.42 3.6 23.55 23.55 0 0 1 4.47 7.55 21.93 21.93 0 0 1 .61 3l.06 1.27.02 1.23a17.4 17.4 0 0 1-.16 2.88c-.2 1.19-.26 2.28-.53 3.35a54.96 54.96 0 0 1-2.59 7.48l-1.67 3.85a2.33 2.33 0 0 0-.44 1.33 8.46 8.46 0 0 1 2.13 2.58 17.37 17.37 0 0 1 2.17 6.05c.18.88.07 1.78.22 2.74a13.74 13.74 0 0 1-.06 3.27l-.22 2.44A43.35 43.35 0 0 1 88.2 72c-1.96 6.2-5.7 10.95-11.15 13.71a21.75 21.75 0 0 1-4.18 1.53 5.57 5.57 0 0 1-2.29.26 18.36 18.36 0 0 1-4.22-1.15 11.3 11.3 0 0 0-2.7-.98c-2.2 1.19-3.8 4.77-4.3 7.7l.15 6.83a1.3 1.3 0 0 1-.78.02 1.77 1.77 0 0 1-.94-1 16.13 16.13 0 0 0-1.45-1.72 14.46 14.46 0 0 0-4.82-3.25 5.03 5.03 0 0 0-3.14-.08 6.68 6.68 0 0 0-2.15 1.67h-.04a9.41 9.41 0 0 0-2-1.61 12 12 0 0 0-9.71-2.22c-1.55.36-2.95 1.15-4.13 1.46a37.75 37.75 0 0 1-3.04.64c-1.1.15-1.6.23-3.33.38a25.17 25.17 0 0 1-4.12-.06 5.36 5.36 0 0 1-1.75-.41.68.68 0 0 1-.38-.5h.02c.08.24 1.9.42 2.61.35a23.82 23.82 0 0 0 2.59-.35 9.12 9.12 0 0 0 3.68-1.53c3.2-2.32 5.05-5.95 6.6-9.92.53-1.37.8-2.88 1.23-4.33a39.33 39.33 0 0 0 .94-4.34 13.46 13.46 0 0 0 .2-1.9c0-.61.14-.65.49.15a12.91 12.91 0 0 1 1.26 3.9h.02c.06-.28.18-.56.24-.88a10.17 10.17 0 0 0 .04-2.39c-.1-1.79-.22-2.61-.28-3.46-.02-.43-.09-.85-.1-1.28-.16-.9-.22-1.68-.38-2.59-.2-1.16-.51-2.39.36-3.07a4.27 4.27 0 0 1 1.37-.72c2.06-.63 4.87.22 6.72.6a6.07 6.07 0 0 0 2.07.16 18.29 18.29 0 0 0 2.19-.34 13.36 13.36 0 0 0 6.6-4.52c.74-.91 1.8-1.47 2.28-2.66.99-2.5-.25-6.8-.9-8.85A19.47 19.47 0 0 0 46.12 32.9a21.07 21.07 0 0 0-3.87-1.11l-1.53-.14-1.45-.02-1.36.14a9.53 9.53 0 0 0-4.1 1.53c-1.17.93-2.3 3.35-3.92 3.65l-.34-1.07c-.3-1-.46-2.06-1.23-2.58a4.49 4.49 0 0 0-3.29-.06 10.81 10.81 0 0 0-5.6 3.77l-1.5 1.53c-1.47 1.83-2.7 2.76-3.2 5.67a4.42 4.42 0 0 0 .06 1.37 42.04 42.04 0 0 0 .86 3.7 5.5 5.5 0 0 1 .32 1.82 2.44 2.44 0 0 1-.6.87c-.68.86-1.57 1.54-2.23 2.4a19.95 19.95 0 0 0-3.04 6.93c-.36 1.41-.47 3.05-.73 4.63-.03.73-.08 1.36-.1 2.1.01 1.85-.05 1.74 0 2.78.02.65.2 2.97-.17 3.15a2.9 2.9 0 0 1-1.5-.08 8.93 8.93 0 0 1-3.63-1.53A9.54 9.54 0 0 1 .5 66.73a22.44 22.44 0 0 1 .62-11.81 18.88 18.88 0 0 1 1.47-3.23 1.7 1.7 0 0 1 .86-.98l.02.02c.35.18.3 1 .3 1.53a14.64 14.64 0 0 0 .1 3.73c.69-.02.72-.93.9-1.47.32-1.03 1.03-3.24 2.26-3.27v.04a4.63 4.63 0 0 1-.38 1.94 17.12 17.12 0 0 0-.38 4.37c0 .58-.06 2.06.22 2.3l.04-.04c.84-.42 1.1-2.81 1.44-3.85a21.25 21.25 0 0 1 1.79-4.46c.7-1.16 1.57-2.12 2.27-3.26.31-.5 1.4-2.24.81-3.1a1.37 1.37 0 0 0-1.35-.04 4.33 4.33 0 0 0-1.3.6 2.4 2.4 0 0 1-.67.52.8.8 0 0 1-.66-.24c.02-.68.8-1.05.68-1.75a.94.94 0 0 0-1.14.08c-.62.4-1.1.98-1.67 1.43a1.07 1.07 0 0 1-.74.4v-.02l.68-1.15A8.64 8.64 0 0 1 10 42.08c1.73-.75 3.64-.31 4.6-1.92.75-1.26.58-3.32.9-5.02.48-2.62.67-5.34 1.22-7.84l.43-2.16a28 28 0 0 1 2.61-6.1c.51-.86.92-1.77 1.5-2.57.85-1.2 1.85-2.31 2.76-3.45a27.8 27.8 0 0 1 4.07-4.2 62.09 62.09 0 0 1 5.53-4.55 26.33 26.33 0 0 1 7.8-3.16c1.2-.3 2.49-.41 3.77-.63l3.98-.34 1.24-.06zM37.63 23.16a1.5 1.5 0 0 0-1.23-1.45 1.4 1.4 0 0 0-.76.15c.27-1.25 2.25-1.82 3.99-1.5 2.93.53 4.6 2.26 7.9 2.32a9.92 9.92 0 0 0-3.44-6.2 3.66 3.66 0 0 0-2.6-.7 1.45 1.45 0 0 1 .62-.88 3.23 3.23 0 0 1 .7-.53c1.45-.64 3.74-.3 5.16.13a24.03 24.03 0 0 1 6.95 3.48c.83.59 1.54 1.31 2.33 1.94a17.34 17.34 0 0 0 2.95 2.18 2.2 2.2 0 0 0 1.35.44c1.11-.2.73-1.95.44-2.76-.12-.35-.47-.75-.02-.85a3.23 3.23 0 0 1 2.07.37 9.8 9.8 0 0 1 3.49 3.31c3.75 5.32 4.19 14.34 4.76 22.76l1.17.4a12.9 12.9 0 0 1 2.15.74l.5-1.45c.32-1 .58-2.05.82-3.14.46-2.08.54-4.26.91-6.46l.14-2.38.04-1.83-.02-1.49-.04-1.72v-2.48l-.04-1.95c-.2-1.2-.11-2.4-.35-3.49a19 19 0 0 0-3.97-8.14 15.4 15.4 0 0 0-2.3-2.28c-1.9-1.52-3.61-3.27-6.06-4.25-2.7-1.07-7.01-.92-10.1-.27-1.04.21-2.1.3-3.03.6-4.46 1.36-7.55 3.75-10.8 6.27s-6.95 5.97-8.7 9.92c-.35.8-.58 1.64-.9 2.54a5.33 5.33 0 0 0 1.32-.28l2.79-.7a6.73 6.73 0 0 1 1.82-.38zm-13.5 16.76h.06l-.4.7-.69 1.48a33.8 33.8 0 0 0-1.35 4.8l-.4 2.08h-.1a1.58 1.58 0 0 0-.9 0l-.04-.04a5.84 5.84 0 0 1-.32-3.47c.47-2.25 1.34-4.03 3.01-5.07.34-.22.75-.28 1.13-.48zm19.08.6a4.54 4.54 0 0 1 1.1.18l-.38 1.01-.91 2.26c-.62 1.46-1.25 2.88-1.88 4.29a8.3 8.3 0 0 1-1.25 2.24c-.93-.11-1.32-1.07-2.12-1.35a9.32 9.32 0 0 1 .72-3.03c.68-2.13 1.3-3.95 3-5.02a4.1 4.1 0 0 1 1.14-.5zm-17.34 8.65c-1.02 0-2.03-.04-3.03-.02v-.02a2.97 2.97 0 0 1 2.55-1.85 2.8 2.8 0 0 1 .48 1.89zm5.7-.66a9.48 9.48 0 0 1 2.38.28l.2 1.03a2.11 2.11 0 0 1 .1 1.01c-1 1.08-3.33-.33-4.16-.69l-1.04-.34.04-.04a2.34 2.34 0 0 1 1.7-1.15zM71.4 51c0-1.14-1-1.34-2-1.5h-.67l-.8.69a18.68 18.68 0 0 0-4.76 8.53c-.27.98-.88 2.54-.18 3.47a.76.76 0 0 0 .44.36 1.54 1.54 0 0 1 1.41-.85c.8.7.62 2.96.88 4.24l.3 1.1.02-.05a6 6 0 0 0 .58-1.48c.54-1.55.89-3.27 1.39-4.87a21.83 21.83 0 0 1 3.19-5.69 11.04 11.04 0 0 0 1.29-2.56 2.46 2.46 0 0 0 .24-1.07A1.42 1.42 0 0 0 71.4 51zm-50.32 1.77a8.83 8.83 0 0 1 6.85 3.35c.36.45.78.85 1.13 1.31a16.4 16.4 0 0 1 2.6 5.06c1.41 4.53.54 10.94-.73 14.94-.34 1.08-.83 2.08-1.25 3.08-.81 1.9-1.34 3.45-3.62 3.9a5.04 5.04 0 0 1-1.66.03l-1.21-.28a10.4 10.4 0 0 1-2.97-1.69 2.15 2.15 0 0 0-1.43-.6c-.5.13-.74 1-.92 1.47l-.35 1.11c-.56 2.22 2.92 2.92 4.3 3.6l-.02.03a8.46 8.46 0 0 1-1.34.76 3.67 3.67 0 0 1-2.2-.28c-1.68-.72-2.55-2.33-3.45-3.81a25.95 25.95 0 0 1-2.1-4.19c-1.18-3.03-1.32-7.02-1.33-11.19a32.53 32.53 0 0 1 .08-5.1 23.5 23.5 0 0 1 .56-3.03 13.15 13.15 0 0 1 5.9-7.54 7.79 7.79 0 0 1 2-.78zm54.72.4-.5.12a4.62 4.62 0 0 0-1.12.63 6.54 6.54 0 0 0-1.51 1.99 26.42 26.42 0 0 0-2.59 7.16c-.26 1.04-.29 2.14-.48 3.27a1.35 1.35 0 0 0 .28 1.39.96.96 0 0 0 1.06-.56 5.32 5.32 0 0 0 .36-1.25l.71-2.72a17.5 17.5 0 0 1 3.3-5.83 20.58 20.58 0 0 0 2.02-2.1c.65-1.1-.36-2.12-1.53-2.1z" fill-rule="evenodd"/>
  </g>
</svg>
