<svg xmlns="http://www.w3.org/2000/svg" viewBox="0 0 116 108">
  <path d="M38.864 68.135c.643 1.438.825 2.82.545 4.146-.28 1.327-.965 2.329-2.055 3.005-1.09.677-2.335.866-3.736.566-.906-.194-1.883-.663-2.93-1.407a621.821 621.821 0 0 1-5.843-6.58 1925.48 1925.48 0 0 1-13.087-15.083 209.22 209.22 0 0 0-5.953-6.669c-1.037-1.608-1.407-3.117-1.11-4.527.35-1.658 1.44-2.942 3.267-3.85l3.253-1.644a278.389 278.389 0 0 1 6.118-2.981 338.221 338.221 0 0 0 7.563-3.711c2.65-1.34 5.172-2.577 7.564-3.712a247.375 247.375 0 0 0 6.192-3.03c1.737-.884 2.796-1.416 3.178-1.594 1.764-.835 11.786-2.272 10.592 1.669L47.912 39.8a1 1 0 0 1-.838.736l-29.008 3.78a817.218 817.218 0 0 0 4.839 5.52 564.546 564.546 0 0 1 5.56 6.389 564.547 564.547 0 0 0 5.56 6.39 817.215 817.215 0 0 1 4.839 5.52zm28.345 8.087c-1.29.887-2.153 1.962-2.593 3.227-.439 1.265-.364 2.463.225 3.592.589 1.13 1.56 1.926 2.917 2.39.877.299 1.956.402 3.237.308a624 624 0 0 0 8.388-2.575 1931.648 1931.648 0 0 0 18.964-6.062 209.975 209.975 0 0 1 8.528-2.594c1.715-.83 2.806-1.916 3.273-3.26.55-1.582.272-3.224-.831-4.927l-1.95-3.054a276.97 276.97 0 0 0-3.725-5.649 336.473 336.473 0 0 1-4.591-7.006 336.47 336.47 0 0 0-4.592-7.007 246.102 246.102 0 0 1-3.763-5.728c-1.038-1.637-1.675-2.628-1.911-2.974-1.44-2.111-8.484-8.695-9.948-4.006l-4.872 16.727a1 1 0 0 0 .343 1.066L97.27 66.72a819.896 819.896 0 0 1-6.983 2.192c-2.649.82-5.331 1.674-8.047 2.56a566.33 566.33 0 0 1-8.048 2.558c-2.648.82-4.976 1.552-6.983 2.193zM65.45 8.012c.86-1.526 1.86-2.577 2.996-3.153 1.136-.577 2.286-.712 3.45-.405 1.08.285 1.997.92 2.752 1.908.755.988 1.129 2.313 1.121 3.975L51.393 99.84c-.595 1.858-1.54 3.12-2.835 3.786-1.294.666-2.565.835-3.81.507-1.164-.307-2.127-1.02-2.89-2.142-.764-1.12-1.025-2.613-.785-4.477L65.45 8.01z" fill="#3E91FF" fill-rule="evenodd"/>
</svg>
