<svg xmlns="http://www.w3.org/2000/svg" viewBox="0 0 469 316">
  <circle cx="1337.4" cy="1708.9" r="26.9" fill="#00e7c3" transform="matrix(.83525 0 0 .83558 -978.2 -1316.8)"/>
  <path d="M152 138.8a28.9 28.9 0 0026.5 15.5c16.8 0 37.3-28.2 50.5-51 17-29.6 36-59.6 63.3-59.6 21 0 41.9 13 50.6 38.7a30.7 30.7 0 00-11.6-2.2 30.8 30.8 0 00-13.1 2.9 29 29 0 00-27.6-17.5c-16.8 0-32.4 20.6-50 50.1-19.1 31.8-36.4 60.6-63.8 60.6-20.2 0-40.4-12.1-49.6-36h.5a30.8 30.8 0 0010.3 1.8 30.8 30.8 0 0014-3.3z" fill="#00e7c3"/>
  <path d="M128.7 81.6c8.8-25.2 29.3-37.9 49.9-37.9 27.2 0 45 27.5 65.3 55 15.2 20.6 32.3 48 49 48 10 0 13-2.1 20.4-10.4a30.9 30.9 0 0018 5.8c3.6 0 7.1-.6 10.3-1.8h.8a57 57 0 01-51.7 37c-27.1 0-45.4-27.1-64.5-54.2-19.9-28-34.8-49.2-51.4-49.8-7.5-.3-14.5 4.3-19.9 12a30.8 30.8 0 00-17-5.1c-3.2 0-6.3.5-9.2 1.4z" fill="#00e7c3"/>
  <circle cx="1337.4" cy="1708.9" r="26.9" fill="#00e7c3" transform="matrix(.83525 0 0 .83558 -785.8 -1316.8)"/>
  <path d="M333 245.5l.8 2.3c2.6 8.5 8.5 13 18 13.6 5 .3 7.2 0 10.9-1.8a48 48 0 007.4-5.7l13.2 9-3.8 3.9a43.1 43.1 0 01-9.3 6.6 48 48 0 01-30.5 1.9 32.1 32.1 0 01-14.7-9 36 36 0 01-9.7-29.2c1.4-22.1 20-36.8 42.7-33.5 15 2 24.4 12 27.1 28.9.6 3.6 1.1 8 1.1 9.8v3.2h-53.1zm-132-41h17v10.4l3.5-4.1c4.4-5.2 10.2-7.5 18.5-7.6 8 0 12.6 2 17.6 7.5l3.6 4 3.5-3.6a23.3 23.3 0 0118.8-7.8c9.1 0 14.5 2.2 19.4 7.7 6.1 6.9 6.5 9 7 37.8l.3 25.8h-17.9l-.4-22.8c-.3-19.6-.6-23.3-2.2-26.6-4.7-9.6-17.6-8.6-23 1.8-2 3.6-2.1 6-2.4 25.8l-.4 21.8H246v-22.8c0-20-.3-23.3-1.9-27-2.2-4.8-6.3-6.8-12.4-6-5 .7-10 5.5-11.6 11.4-.6 2.1-1.1 12.8-1.1 24.1v20.3h-18v-70.1zm-128.2 70h-18v-70h18v70zm319.4-70h17V216l2.6-3.7c3-4.5 9.4-8.3 15.2-9.2 3.9-.6 7.3-.4 7.3-.4v17h-4.4a17 17 0 00-18.5 12.5c-.6 2.1-1.1 12.5-1.1 23.1v19.3h-18v-70.1zm-309.4 0h17v10.4l3.5-4.1c4.4-5.2 10.3-7.5 18.6-7.6 8 0 12.6 2 17.5 7.5l3.6 4 3.5-3.6a23.3 23.3 0 0118.8-7.8c9.1 0 14.5 2.2 19.5 7.7 6 6.9 6.5 9 6.9 37.8l.4 25.8h-18l-.4-22.8c-.3-19.6-.6-23.3-2.2-26.6-4.7-9.6-17.6-8.6-23 1.8-1.9 3.6-2.1 6-2.4 25.8l-.4 21.8h-17.8v-22.8c0-20-.3-23.3-2-27-2.1-4.8-6.2-6.8-12.3-6-5.2.7-10 5.5-11.7 11.4-.6 2.1-1 12.8-1 24.1v20.3h-18v-70.1zm284.4 25.3c0-4-3.3-9-7.2-11-9.6-5-23.1.8-26.3 11.5l-.6 2.2h34.1v-2.7zm-303-60.2a11.6 11.6 0 110 23.2 11.6 11.6 0 010-23.2z"/>
</svg>
