<svg viewBox="0 0 512 73" xmlns="http://www.w3.org/2000/svg" preserveAspectRatio="xMidYMid">
  <path d="M0 0h23.72v70.14H0V0zm31.06 0H49.5l18.26 26.97L86.02 0h18.6v70.14H82.09V44.9L67.75 65.88l-14.33-21v25.26H31.06V0zm80.73 0h18.6l18.09 26.97L166.74 0h18.6v70.14h-22.52V44.9l-14.34 21.16-14.34-21v25.26H111.8V0zm107.69 72.02c-4.44 0-8.37-.51-11.95-1.7-3.58-1.2-6.66-2.74-9.22-5.13a21.69 21.69 0 0 1-5.8-8.53c-1.36-3.41-2.05-7.5-2.05-12.12V0h22.36v43.7c0 2.38.51 4.26 1.54 5.62 1.02 1.37 2.73 1.88 5.12 1.88s4.1-.68 5.12-1.88c1.02-1.36 1.53-3.24 1.53-5.63V0h22.53v44.54c0 4.61-.68 8.7-2.05 12.12a22.04 22.04 0 0 1-5.97 8.53 26.85 26.85 0 0 1-9.22 5.12 42.93 42.93 0 0 1-11.94 1.71zm45.74-53.59h-12.97V0h48.98v18.43h-12.97v51.71h-23.21v-51.7h.17zM318.12 0h16.9l26.62 70.14h-22.01l-2.4-6.31H315.9l-2.39 6.31H291.5L318.12 0zm13.14 48.47-4.77-12.29-4.78 12.29h9.55zM363.35 0h27.48c3.58 0 6.65.34 9.55 1.2a23.6 23.6 0 0 1 7.51 3.58 14.89 14.89 0 0 1 4.78 5.97c1.2 2.4 1.7 5.12 1.7 8.2 0 2.21-.33 4.09-.84 5.8-.52 1.53-1.2 2.9-1.71 3.92-.85 1.2-1.7 2.4-2.56 3.07a21.74 21.74 0 0 1 4.27 3.76 23.8 23.8 0 0 1 2.9 5.12c.85 2.05 1.36 4.6 1.36 7.5 0 3.42-.51 6.5-1.7 9.22a19.09 19.09 0 0 1-5.12 7 24.35 24.35 0 0 1-8.03 4.44 35.58 35.58 0 0 1-10.75 1.53h-28.67V0h-.17zm29.52 21.33c0-3.24-1.7-4.78-5.29-4.78h-2.56v9.73h2.56c3.59 0 5.3-1.7 5.3-4.95zm-5.29 32.26c5.3 0 8.03-2.05 8.03-6.14 0-4.1-2.74-6.15-8.03-6.15h-2.56v12.3h2.56zM423.77 0h23.38v51.71h19.28v18.43h-42.66V0zm46.08 0h41.3v18.43H492.2v7.85h18.6V43.7h-18.6v8.02H512v18.43h-42.15V0z" fill="#FC4349"/>
  <path d="M0 0h23.72v70.14H0V0zm13.31 61.78V8.36h-2.73v53.42h2.73zM31.06 0H49.5l18.26 26.97L86.02 0h18.6v70.14H82.09V44.9L67.75 65.88l-14.33-21v25.26H31.06V0zM44.2 61.78v-48.3l23.55 34.3 23.56-34.3v48.3h2.73V8.36H91.3L67.75 43.01 44.2 8.36h-2.73v53.42h2.73zM111.8 0h18.6l18.09 26.97L166.74 0h18.6v70.14h-22.52V44.9l-14.34 21.16-14.34-21v25.26H111.8V0zm13.14 61.78v-48.3l23.55 34.3 23.38-34.3v48.3h2.73V8.36h-2.73l-23.38 34.65-23.55-34.65h-2.73v53.42h2.73zm94.55 10.24c-4.44 0-8.37-.51-11.95-1.7-3.58-1.2-6.66-2.74-9.22-5.13a21.69 21.69 0 0 1-5.8-8.53c-1.36-3.41-2.05-7.5-2.05-12.12V0h22.36v43.7c0 2.38.51 4.26 1.54 5.62 1.02 1.37 2.73 1.88 5.12 1.88s4.1-.68 5.12-1.88c1.02-1.36 1.53-3.24 1.53-5.63V0h22.53v44.54c0 4.61-.68 8.7-2.05 12.12a22.04 22.04 0 0 1-5.97 8.53 26.85 26.85 0 0 1-9.22 5.12 42.93 42.93 0 0 1-11.94 1.71zm0-12.63c-10.58 0-15.7-5.12-15.7-15.53V8.36h-2.73v35.5c0 5.97 1.53 10.41 4.77 13.48 3.25 3.08 7.85 4.61 13.66 4.61 5.97 0 10.58-1.53 13.82-4.6 3.24-3.08 4.78-7.69 4.78-13.49V8.36h-2.9v35.5c0 10.24-5.12 15.53-15.7 15.53zm45.74-40.96h-12.97V0h48.98v18.43h-12.97v51.71h-23.21v-51.7h.17zm12.97 43.35V10.92h15.02V8.36h-32.77v2.56h15.02v50.86h2.73zM318.12 0h16.9l26.62 70.14h-22.01l-2.4-6.31H315.9l-2.39 6.31H291.5L318.12 0zM307.2 61.78l2.05-5.29h34.64l2.05 5.3h2.9l-20.3-53.43h-3.93L304.3 61.78h2.9zm19.29-50.86 16.38 43.01H310.1l16.39-43zm4.77 37.55-4.77-12.29-4.78 12.29h9.55zM363.35 0h27.48c3.58 0 6.65.34 9.55 1.2a23.6 23.6 0 0 1 7.51 3.58 14.89 14.89 0 0 1 4.78 5.97c1.2 2.4 1.7 5.12 1.7 8.2 0 2.21-.33 4.09-.84 5.8-.52 1.53-1.2 2.9-1.71 3.92-.85 1.2-1.7 2.4-2.56 3.07a21.74 21.74 0 0 1 4.27 3.76 23.8 23.8 0 0 1 2.9 5.12c.85 2.05 1.36 4.6 1.36 7.5 0 3.42-.51 6.5-1.7 9.22a19.09 19.09 0 0 1-5.12 7 24.35 24.35 0 0 1-8.03 4.44 35.58 35.58 0 0 1-10.75 1.53h-28.67V0h-.17zm25.77 61.78c6.14 0 10.75-1.36 13.65-3.92 2.9-2.73 4.44-6.15 4.44-10.59 0-2.9-.68-5.12-1.88-6.82a18.08 18.08 0 0 0-3.92-4.1 17.39 17.39 0 0 0-5.8-2.39c1.7-.5 3.24-1.2 4.6-2.39 1.2-.85 2.22-2.22 3.25-3.75 1.02-1.54 1.36-3.59 1.36-5.97 0-4.44-1.36-7.68-4.27-10.07-2.73-2.22-6.65-3.42-11.43-3.42h-15.19v53.42h15.19zM376.66 32.6V10.92h12.46c4.6 0 7.85 1.03 9.9 3.07 2.05 2.05 3.07 4.61 3.07 7.86 0 3.24-1.02 5.8-3.07 7.85-2.05 2.04-5.3 3.07-9.9 3.07h-12.46v-.17zm0 26.62V35.16h12.29c2.22 0 4.27.17 5.97.68 1.88.51 3.42 1.2 4.95 2.05a9.8 9.8 0 0 1 3.24 3.75 11.2 11.2 0 0 1 1.2 5.46c0 4.27-1.37 7.34-4.27 9.22-2.9 1.88-6.65 2.9-11.26 2.9h-12.12zm16.21-37.89c0-3.24-1.7-4.78-5.29-4.78h-2.56v9.73h2.56c3.59 0 5.3-1.7 5.3-4.95zm-5.29 32.26c5.3 0 8.03-2.05 8.03-6.14 0-4.1-2.74-6.15-8.03-6.15h-2.56v12.3h2.56zM423.77 0h23.38v51.71h19.28v18.43h-42.66V0zm36.86 61.78v-2.56h-23.55V8.36h-2.73v53.42h26.28zM469.85 0h41.3v18.43H492.2v7.85h18.6V43.7h-18.6v8.02H512v18.43h-42.15V0zm34.3 61.78v-2.56h-21V36.18h19.98v-2.56h-19.97v-22.7h20.99V8.36h-23.72v53.42h23.72z" fill="#2C3E50"/>
</svg>
