<?xml version="1.0" encoding="UTF-8" standalone="no"?>
<svg width="630px" height="630px" viewBox="0 0 630 630" version="1.1" xmlns="http://www.w3.org/2000/svg" xmlns:xlink="http://www.w3.org/1999/xlink">
    <!-- Generator: Sketch 3.7.2 (28276) - http://www.bohemiancoding.com/sketch -->
    <title>logo</title>
    <desc>Created with Sketch.</desc>
    <defs/>
    <g id="Page-1" stroke="none" stroke-width="1" fill="none" fill-rule="evenodd">
        <g id="js">
            <g id="logo">
                <rect id="background" fill="#F3DF49" x="0" y="0" width="630" height="630"/>
                <path d="M213.8625,497.29625 C223.16375,513.7875 231.625,527.74 251.92,527.74 C271.37375,527.74 283.63875,520.13025 283.63875,490.53 L283.63875,289.23 L342.8425,289.23 L342.8425,491.3675 C342.8425,552.6875 306.89875,580.59875 254.4575,580.59875 C207.09625,580.59875 179.605,556.07 165.65,526.46875 L213.8625,497.29625 Z" id="j" fill="#2E2E2C"/>
                <path d="M470.64,580.86 C445.079872,580.86 422.760095,574.650062 403.68,562.23 C384.599905,549.809938 371.10004,535.140085 363.18,518.22 L410.16,493.92 C423.120065,519.480128 443.279863,532.26 470.64,532.26 C487.200083,532.26 500.069954,527.940043 509.25,519.3 C518.430046,510.659957 523.02,498.600077 523.02,483.12 C523.02,451.799843 502.860202,436.14 462.54,436.14 C436.61987,436.14 414.120095,442.979932 395.04,456.66 L392.34,455.04 L392.34,289.8 L560.82,289.8 L560.82,337.32 L440.4,337.32 L440.4,392.4 C449.760047,389.519986 462.179923,388.08 477.66,388.08 C507.540149,388.08 532.199903,397.07991 551.64,415.08 C571.080097,433.08009 580.8,456.11986 580.8,484.2 C580.8,513.000144 571.350095,536.309911 552.45,554.13 C533.549906,571.950089 506.280178,580.86 470.64,580.86 L470.64,580.86 Z" id="5" fill="#2E2E2C"/>
            </g>
        </g>
    </g>
</svg>