<svg width="116" height="116" viewBox="0 0 100 100" xmlns="http://www.w3.org/2000/svg"><g fill="#21609B" fill-rule="evenodd"><path d="M88.7 75.46l-.4 1.05C81.47 89.85 69.33 98.03 52 98.39c-8.1.17-15.8-1.9-20.84-4.17A53.84 53.84 0 0 1 6.15 70.6C-1.02 56.73-2.31 37.42 12.59 23c.23 0-1.8 3.13-1.58 3.13l-.4 1.34c-10.74 33.6 22.33 62.4 54.48 59.11 7.72-.8 17.57-5.02 23.62-11.12"/><path d="M69.25 61.57c8.1.05 16.54-3.73 21.54-9.03-4.37 11.1-17.05 18.25-34.04 15.98-14.23-1.9-27.79-16.23-29.18-30.58-1.02-10.44 2.62-16.67 8.61-24.23-2.08 3.95-2.86 7-3.05 8.95-2.28 22.59 18.04 38.79 36.12 38.9"/><path d="M89.98 33.51c-1.26 2.89-8.5 8.33-11.7 9.01-12.65 2.7-20.76-3.3-25-10.13-.64-1.02-1.8-3.81-2.01-4.52-1.65-5.6-.9-14.07 4.02-18.45-1.48 4.17-1.7 9-.92 12.16.47 1.9 1.91 5.22 3.35 7.31 2.62 3.8 4.28 4.73 7.64 6.76 1.52.9 3.14 1.64 3.85 1.84 3.19.93 9.92 3.4 20.77-3.98"/></g></svg>