<svg viewBox="0 0 256 287" xmlns="http://www.w3.org/2000/svg" preserveAspectRatio="xMidYMid">
  <path d="m240.403 225.915-97.117 56.04a29.93 29.93 0 0 1-30.886 0l-97.116-56.04C5.73 220.183 0 209.995 0 199.168V87.086C0 75.942 5.731 66.071 15.284 60.34L112.4 4.3c9.553-5.732 21.016-5.732 30.886 0l97.117 56.04c9.552 5.732 15.284 15.921 15.284 26.747v112.082a29.613 29.613 0 0 1-15.284 26.747z" fill="#DBC01D"/>
  <path d="M106.98 54.607s.32 18.15-7.004 39.164c-5.095 14.966-12.1 22.608-28.658 39.802-7.96 7.96-30.249 27.702-47.125 49.036a182.77 182.77 0 0 0-20.378 30.886s2.865 7.324 11.78 12.737l23.563 13.692 10.827-17.832c4.776-7.323 12.736-17.194 12.736-17.194l25.473 38.847 36.618-24.518-30.886-46.17s14.647-14.01 18.468-18.468l10.189-11.782s15.602 9.234 21.652 13.374c8.916 5.731 20.379 14.965 20.379 14.965l-32.16 48.08 36.617 24.519 26.747-39.802 14.966 21.652c3.502 5.413 7.323 13.373 7.323 13.373l22.29-12.736c9.233-5.413 12.736-14.329 12.736-14.329s-9.871-17.831-18.787-29.612c-9.234-12.419-22.289-26.429-28.339-32.797-10.826-10.508-29.612-25.155-39.164-31.523-8.598-5.732-23.882-14.01-23.882-14.01s3.503-9.871 5.732-24.518c1.274-8.916 1.91-23.881 1.91-23.881l-43.622-.955z" fill="#383307"/>
</svg>
