<svg viewBox="0 0 256 274" version="1" xmlns="http://www.w3.org/2000/svg" preserveAspectRatio="xMidYMid">
  <path d="M128 1 0 64v148l128 63 128-63V64L128 1z" fill="#0081C2"/>
  <path d="M225 186c0-3-1-6-3-8l-5-5a33 33 0 0 0-13-6 46 46 0 0 0 7-13c1-3 2-7 1-11l-3-9-4-4-1-1h-1l-1-1-1-1a1 1 0 0 0-1 2l1 1 1 1v1h1l2 4c1 3 2 5 1 8l-2 7a32 32 0 0 1-8 10v1a26 26 0 0 1-9 3 25 25 0 0 1-14 0 25 25 0 0 0 6-2 19 19 0 0 0 11-14l1-3v-8h-1v-6l-1-5v-3l-1-3v-6l1-3v-2l1-6 2-5 3-4a9 9 0 0 1 4-1v-1h1a1 1 0 0 0 0-2h-2a11 11 0 0 0-5 1l-5 5-3 5-3 6-1 3-1 3a83 83 0 0 0-1 19v6a25 25 0 0 1-2 6l-1 2-2 2h-2a16 16 0 0 1-5-1s-5-1-3-7c1-2 3-4 7-5 0 0 8-63-43-104-51 41-43 104-43 104 4 1 6 3 7 5 1 5-3 7-3 7l-1 1h-6l-2-2-1-2-1-2-1-4v-6a123 123 0 0 0-1-19l-1-3-1-3-3-6-3-5-5-5a12 12 0 0 0-5-1h-2a1 1 0 0 0 0 2h1v1a8 8 0 0 1 4 1l3 4 2 5 1 6v2l1 3v6l-1 3v3l-1 5v6h-1a39 39 0 0 0 1 11 24 24 0 0 0 4 8 19 19 0 0 0 7 6 23 23 0 0 0 6 2 23 23 0 0 1-14 0 29 29 0 0 1-9-3v-1 1-1a25 25 0 0 1-4-3l-4-7-2-7c-1-3 0-5 1-8l2-4h1v-1l1-1 1-1a1 1 0 0 0-1-2l-1 1-1 1h-1l-1 1-4 4-3 9c-1 4 0 8 1 11a40 40 0 0 0 7 13 34 34 0 0 0-13 6l-5 5c-2 2-3 5-3 8a17 17 0 0 0 2 11 23 23 0 0 0 4 5l1 1 1 1a57 57 0 0 0 14 9l9 4 1 1v1h1v1l1 1 7 5 8 1h3l1-1h2l1-1h2v-1h2l1-1a34 34 0 0 1 16-2l5 1 4 3v1h1v1l1 2v1l1 1v2l-1 2a1 1 0 0 0 3 0v-4h1v-1l-1-1v-3l-1-1v-2h-1l-1-2v-1h-1l-3-2-6-3a35 35 0 0 0-19 0h-3l-1 1h-1 1-6l-4-1-2-2v-2l1-2 2-3 8-6h1l1-1 3-1 2-1h2v-1h1l3-1c6-3 19-8 30-8s24 5 30 8l3 1h1v1h2l2 1 3 1 1 1h1l8 6 2 3 1 2v2l-2 2-4 1h-6 1-1l-1-1h-3l-6-1c-5-1-9 0-13 1a25 25 0 0 0-9 5h-1v1l-1 2h-1v2l-1 1v3l-1 1v1h1v4l2 1 1-1-1-2v-2l1-1v-1l1-2v-1h1v-1l4-3 5-1a29 29 0 0 1 16 2l1 1h2v1h2l1 1h2l1 1h3l8-1 7-5 1-1v-1h1v-1l1-1a118 118 0 0 0 18-10l5-3 1-1 1-1a29 29 0 0 0 4-5l1-4c1-2 2-5 1-7zm-150 2-1 1-1 1h-1l-1 1-1 1-1 1-1 1-1 1-1 1-4 7-1 4v2a92 92 0 0 1-11-9l-4-3v-1h-1v-1a17 17 0 0 1-2-3v-4l1-2 3-2 7-2a29 29 0 0 1 17 4h2v1h1l2 1h-1zm38-44a4 4 0 1 1 0-8 4 4 0 0 1 0 8zm30 0a4 4 0 1 1 0-8 4 4 0 0 1 0 8zm70 46a9 9 0 0 1-1 3l-1 2v1h-1v1a48 48 0 0 1-11 9l-4 3v-2l-1-4-4-7-1-1-1-1-1-1-1-1-1-1-1-1h-1l-1-1-1-1h-1l2-1h1v-1h2l2-1a28 28 0 0 1 22-1l3 2 1 2v2z" fill="#FFF"/>
</svg>
