<svg viewBox="0 0 512 136" xmlns="http://www.w3.org/2000/svg" preserveAspectRatio="xMidYMid">
  <defs>
    <linearGradient x1="-6.23%" y1="45.37%" x2="103.07%" y2="58.97%" id="a">
      <stop stop-color="#8AC443" offset="0%"/>
      <stop stop-color="#75B843" offset="100%"/>
    </linearGradient>
    <linearGradient x1="-10.8%" y1="43.54%" x2="111%" y2="56.99%" id="b">
      <stop stop-color="#75B843" offset="0%"/>
      <stop stop-color="#4B9744" offset="100%"/>
    </linearGradient>
    <linearGradient x1="108.51%" y1="41.46%" x2="-3.27%" y2="65.75%" id="c">
      <stop stop-color="#C1DB74" offset="0%"/>
      <stop stop-color="#ACD259" offset="100%"/>
    </linearGradient>
    <linearGradient x1="129.07%" y1="38.39%" x2="-25.41%" y2="61.92%" id="d">
      <stop stop-color="#ACD259" offset="0%"/>
      <stop stop-color="#8AC443" offset="100%"/>
    </linearGradient>
  </defs>
  <path d="M347.7 88.3c-2 1.3-4.1 2-6.1 2-1.5 0-2.7-.6-3.7-1.8-.9-1.2-1.4-2.7-1.4-4.6 0-2.8.7-6.5 2.1-11.2l4-13.6 9.4-.7 2-9.3-8.5.5 6.3-21-16.2 3.3-5.7 18.9-5.8.2-1.9 9.5 4.6-.2-2.6 9.2c-1.2 4.1-2.1 7.7-2.6 10.9-4.8 4.9-8.4 8-10.8 9.4-2.4 1.4-5 2.1-7.6 2.1-6.8 0-11-3.9-12.6-11.8 17.7-5.2 26.6-12 26.6-20.3 0-3.1-1.1-5.7-3.4-7.6-2.3-1.9-5.3-2.9-9-2.9-7.2 0-13.8 3.5-19.7 10.4-5.4 6.3-8.3 13.2-8.8 20.9-4.9 4.8-8.6 8-11 9.5-2.5 1.6-4.8 2.4-7 2.4-2.1 0-3.9-1-5.1-3.1-1.3-2.1-1.9-4.8-1.9-8.3 0-1.6.2-4.5.5-8.6 8.1-8.7 14-17 17.8-24.7a53.5 53.5 0 0 0 5.7-23.9c0-2.9-.4-5.2-1.1-6.9-.7-1.7-1.7-2.6-2.9-2.6-.2 0-.6.1-1.1.2L254.8 20c-5.2 10-9.7 20.9-13.4 32.8-3.3 10.7-5.1 20.1-5.4 28-6.4 7.7-12.3 11.5-17.7 11.5-3.9 0-6.9-2.1-8.9-6.3l5.1-25.3c8.3-7.7 13.9-14.1 16.9-19.3 3-5.2 4.5-10.7 4.5-16.3 0-3.3-.5-5.9-1.5-7.9s-2.2-3-3.7-3c-.2 0-1.7.4-4.5 1.1-2.8.7-5.5 1.5-8 2.2-2.5.8-4 1.6-4.7 2.5-.6.9-2.2 4.2-4.7 10.1-2.5 5.9-4.4 11.2-5.7 16.1-1.4 4.8-3.2 12.7-5.3 23.5l-10.1 10.5v-.1c-3.4 3.4-6.1 6-8 7.6-1.9 1.7-3.6 2.5-5.2 2.5-2.5 0-3.7-1.7-3.7-5.2 0-3.3 1.4-9.4 4.1-18.3l5.3-17.7h-3.4l-12.4 6.8c-2-4.6-5.5-7-10.6-7-4 0-8.6 1.7-13.8 5.1-5.2 3.4-9.5 7.8-12.8 13.3-2.6 4.3-4.2 8.7-4.7 13.3-4.6 4.6-8.1 7.7-10.5 9.1-2.4 1.4-5 2.1-7.6 2.1-6.8 0-11-3.9-12.6-11.8 17.7-5.2 26.6-12 26.6-20.3 0-3.1-1.1-5.7-3.4-7.6-2.3-1.9-5.3-2.9-9-2.9-7.2 0-13.8 3.5-19.7 10.4-5.4 6.3-8.3 13.3-8.8 21-5.9 6.5-12.1 9.8-18.6 9.8-3.4 0-7.4-.9-12.1-2.7-4.7-1.8-8.3-3-10.8-3.7-2.5-.6-5.5-.8-8.9-.6 5.3-5.5 8.8-11.1 10.8-16.8A93.8 93.8 0 0 0 42 46.9c.8-7.4 1.6-12.7 2.3-16 .7-3.3 2-6.1 3.8-8.5 1.8-2.4 4.4-3.6 7.7-3.6 2.7 0 4.9 1 6.5 3 1.6 2 2.4 4.7 2.4 8.2 0 4.5-1 8.4-3.1 11.7-2.1 3.3-4.5 4.9-7.2 4.9-1.7 0-3-.6-4.1-1.9-.5 1.7-.7 3.1-.7 4.4 0 2.4.7 4.3 2.2 5.7 1.5 1.4 3.4 2.1 6 2.1 4.9 0 9.2-2.4 12.9-7.1 3.7-4.8 5.6-10.3 5.6-16.6 0-5.5-1.8-10-5.4-13.5-3.6-3.5-8.1-5.3-13.7-5.3-8.1 0-15.6 4-22.5 12.1-6.9 8-10.7 19.2-11.4 33.4-.4 6.9-.9 11.8-1.5 14.8s-2.1 6.1-4.4 9.2c-5.5.9-9.7 2.5-12.7 4.8s-4.5 5-4.5 8.1c0 1.5.5 2.7 1.5 3.7S4 102 5.5 102c4.4 0 9.3-3 14.8-8.9 2.9.8 6.3 2.1 10.2 3.9 3.8 1.8 7.1 3 9.8 3.8 2.7.7 5.5 1.1 8.4 1.1 10 0 19.7-4.8 29.3-14.5.7 3.7 2.2 6.9 4.7 9.4 3.4 3.5 7.8 5.3 13.3 5.3 4.9 0 9.4-1.2 13.5-3.6 3.9-2.3 8.3-5.9 13.2-10.6.4 3.5 1.6 6.6 3.5 9.2 2.5 3.3 5.5 5 9 5 3.6 0 7.1-1.4 10.6-4.1 3.4-2.7 7.1-7 11.2-12.8-.4 11.2 2.6 16.9 9 16.9 2.5 0 5.2-.9 8-2.8s7.4-5.8 13.8-12l4.1-4.5c1.1 3.1 1.9 5 2.4 5.8-3.2 17.6-5.4 31.9-6.7 43 5.9-1.2 10.9-2 15.1-2.6 1.3-10.3 2.8-19.8 4.5-28.7 2.7 1.2 4.8 1.7 6.3 1.7 3.2 0 6.9-1.3 11-3.8 4-2.5 8-6 12.1-10.5.5 3.7 1.7 6.8 3.7 9.3 2.6 3.3 6.1 5 10.4 5 3.7 0 7.7-1.2 11.8-3.6 4.1-2.4 8.9-6.1 14.4-11.2.7 3.8 2.2 6.9 4.7 9.5 3.4 3.5 7.8 5.3 13.3 5.3 4.9 0 9.4-1.2 13.5-3.6 3.9-2.3 8.3-5.9 13.2-10.6.2 4 1.3 7.3 3.2 9.8 2.2 2.9 5 4.4 8.4 4.4 3.3 0 6.9-1.2 10.6-3.6 3.7-2.4 8.1-6.1 13.2-11.2v-7c-4.3 4-7.3 6.8-9.3 8.1zm-85.9-56.1c2.8-7.4 5-11.1 6.5-11.1.7 0 1.2.5 1.7 1.4.4.9.7 2.1.7 3.6 0 5.1-1.6 11.2-4.8 18.2-3.2 7.1-7.3 13.4-12.5 19.1 2.7-13.4 5.5-23.8 8.4-31.2zm-39.1-4.8c1.8-4.6 3.6-7 5.4-7 .9 0 1.7.5 2.3 1.6.6 1.1.9 2.5.9 4.2 0 4-1.3 8.4-4 13.1a52.4 52.4 0 0 1-11.1 13.3c2.5-12.2 4.7-20.6 6.5-25.2zM102.5 54c2.8 0 4.2 1.9 4.2 5.8 0 7.8-5.2 13.2-15.5 16.1 0-6.5 1.2-11.8 3.6-15.8 2.4-4 5-6.1 7.7-6.1zm52.2 26.1c-3.6 6.9-7.4 10.3-11.4 10.3-1.7 0-3-.7-4.1-2-1.1-1.3-1.6-3.1-1.6-5.3 0-5.8 1.8-12.1 5.4-18.9 3.6-6.9 7.4-10.3 11.5-10.3 1.7 0 3 .6 4.1 1.9 1 1.3 1.5 3 1.5 5.3-.1 5.8-1.9 12.1-5.4 19zM301.3 54c2.8 0 4.2 1.9 4.2 5.8 0 7.8-5.2 13.2-15.5 16.1 0-6.5 1.2-11.8 3.6-15.8 2.5-4.1 5.1-6.1 7.7-6.1z" fill="#70706F"/>
  <path d="M377.4 54.3c1.3 1.5 26 9.7 34.5 19.7 8.6 10 12.3 18.9 11.1 27.5-1.2 8.6-6.5 8.4-8.7 11.6-2.3 3.1-5.5 7-11.5 6.6-8-.5-16.2-4.5-22.1-18.3-5.9-13.8-5.5-26.8-5-34 .4-7.3 1.7-13.1 1.7-13.1z" fill="url(#a)"/>
  <path d="m378.1 56.6 37 55.2-1.7 1.9-35.3-57.1z" fill="url(#b)"/>
  <path d="m236.4 133.3.3-2.4c9.9-5.3 22.1-7.3 32.1-12.4 3 1.3 4.3-.6 7.5-.4 1.2 1-1.5 2.4 1.7 2.2 7.1.9 14.1-.4 21.1-1 7.4-.6 14.7.1 22-.4 2.3-.1 5.9-3.3 8.7-1.7 1.3 2.3-4.2 2.5-2.7 5.1 14.5 3.4 50.8 17.8 57 2.1.1 1-1.1 2.8.6 2.6 12.2-5.5 33-17.3 36.7-20.4 4-3.4 9.4-3.3 14.6-4.5 9.5-2.2 19.6-4.4 27.8-9.2 5.1 3.5 15.7 5.3 21.3 4 5.9-1.3 15.1-11.1 20-14.6 1.9-1.4 4.8-4 6.8-2.5-1.4 1 .2 3.8-1.5 3.3-.9-1.7-2.7.3-4-.1-4.9 4.1-10.1 7.9-15.1 11.8-2.4 1.4 2.3 2.9-.5 3.4-13 2.6-32.9-3.9-41.1 5.1-13 4.5-25.3 5.6-38.1 12.5-7.4 4-16.4 11.2-24.1 15-1.3.6-3.2.9-4.7 1.8-1.9 1.1-2.3 2.6-3.9 2.9-3.9.8-12-1.2-17.2-1.9-17-2.5-35.2-9.4-51.3-10.3-6.4-.3-13.9.7-21.1 1-15.3.7-24.8 1.1-37.1 5.2-4.8 1.7-12.6 6.2-15.8 3.8z" fill="#3D3D3C"/>
  <path d="M472.6 0c-1.7 2.8-40.9 23-52.6 41.9-11.8 19-15.1 33.9-10.8 47.9 4.3 14 12.4 13.4 17 18s10.9 10.2 21 8c13.2-3 25.9-11.8 32.2-36.4 6.3-24.6 2.2-46.2-.5-58.1C476.2 9.4 472.6 0 472.6 0z" fill="url(#c)"/>
  <path d="M471.9 4.2 424.4 106l2.8 2.8L471.9 4.2z" fill="url(#d)"/>
</svg>
