<svg xmlns="http://www.w3.org/2000/svg" viewBox="0 0 77 68">
  <path d="M23.2 48.4h-6.8a11 11 0 010-22.2 2.6 2.6 0 100-5.3 16.4 16.4 0 000 32.7h6.8a11.1 11.1 0 0111.1 11.1 2.6 2.6 0 005.3 0 16.4 16.4 0 00-16.4-16.3zM57.5 21a16.4 16.4 0 00-7.6 1.8 64.4 64.4 0 01-11.9 5 7.3 7.3 0 01-3.7 0 11.4 11.4 0 012.4-22.5 11.4 11.4 0 0111.7 11.4 2.6 2.6 0 005.2 0A16.7 16.7 0 1023.8 27a16.8 16.8 0 009.3 6 12.6 12.6 0 006.4-.2 69.6 69.6 0 0012.9-5.3 11 11 0 015.1-1.3 11 11 0 110 22.2h-6.9a16.4 16.4 0 00-8.1 2.2A2.6 2.6 0 1045 55a11 11 0 015.5-1.4h6.9a16.4 16.4 0 100-32.7z" fill="#d86f9a"/>
</svg>
