<svg xmlns="http://www.w3.org/2000/svg" viewBox="0 0 77 68">
  <path d="M23.2 48.4h-6.8a11 11 0 0 1 0-22.2 2.6 2.6 0 1 0 0-5.3 16.4 16.4 0 0 0 0 32.7h6.8a11.1 11.1 0 0 1 11.1 11.1 2.6 2.6 0 0 0 5.3 0 16.4 16.4 0 0 0-16.4-16.3zM57.5 21a16.4 16.4 0 0 0-7.6 1.8 64.4 64.4 0 0 1-11.9 5 7.3 7.3 0 0 1-3.7 0 11.4 11.4 0 0 1 2.4-22.5 11.4 11.4 0 0 1 11.7 11.4 2.6 2.6 0 0 0 5.2 0A16.7 16.7 0 1 0 23.8 27a16.8 16.8 0 0 0 9.3 6 12.6 12.6 0 0 0 6.4-.2 69.6 69.6 0 0 0 12.9-5.3 11 11 0 0 1 5.1-1.3 11 11 0 1 1 0 22.2h-6.9a16.4 16.4 0 0 0-8.1 2.2A2.6 2.6 0 1 0 45 55a11 11 0 0 1 5.5-1.4h6.9a16.4 16.4 0 1 0 0-32.7z" fill="#d86f9a"/>
</svg>
