<svg id="Layer_1" data-name="Layer 1" xmlns="http://www.w3.org/2000/svg" viewBox="0 0 120 95">
  <defs>
    <style>
      .cls-1{fill:#3f5dff}
    </style>
  </defs>
  <path class="cls-1" d="m31.11 79 12.35-7.93 15.61 8.91 15.76-9.21 13.06 7.44L59.15 95 31.11 79zm-5.2-59.8L58.75 0l33.07 18.86.11 33.19-13.04-7.44-.06-18.18-19.99-11.4-19.9 11.62.05 18.17-4.43 2.59-8.55 5.48-.1-33.69z"/>
  <path class="cls-1" d="m43.63 31.29 9.4 5.35-9.36 5.46-.04-10.81zm21.31 27.09 12.94-7.58 16.07 9.15 10.91-6.37-.07-12.63-8.23-4.7-.05-15 21.39 12.2.01 27.57-23.88 13.95-29.09-16.59z"/>
  <path class="cls-1" d="M.14 61.63 0 33.98l21.23-12.4.05 15.04-8.23 4.8.06 12.63 10.98 6.26 50.08-29.22.05 15.04-50.06 29.2L.14 61.63z"/>
</svg>
