<svg width="322" height="322" fill="none" xmlns="http://www.w3.org/2000/svg"><path fill-rule="evenodd" clip-rule="evenodd" d="M250.62 210.2a7.56 7.56 0 0 0 3.8-6.54l.14-43.76c0-2.7 1.45-5.2 3.8-6.54l23.74-13.63a7.56 7.56 0 0 1 11.33 6.56v79.56c0 2.71-1.45 5.22-3.8 6.56l-89.6 51.43a7.57 7.57 0 0 1-7.51.01l-70.32-40.2a7.57 7.57 0 0 1-3.8-6.56v-40.11c0-.05.05-.08.09-.06.04.03.1 0 .1-.05v-.05c0-.03.01-.06.04-.08l57.9-33.24c.06-.03.03-.11-.03-.11a.06.06 0 0 1-.05-.06l.1-39.34a7.56 7.56 0 0 0-11.33-6.57l-43.05 24.78a7.57 7.57 0 0 1-7.55 0l-43.18-24.86a7.56 7.56 0 0 0-11.34 6.56V195c0 5.8-6.27 9.44-11.31 6.56l-23.97-13.69a7.57 7.57 0 0 1-3.81-6.58l.21-124.25a7.56 7.56 0 0 1 11.33-6.55l82.08 47.11a7.56 7.56 0 0 0 7.53 0l82.06-47.1a7.56 7.56 0 0 1 11.33 6.56v124.29c0 2.7-1.45 5.2-3.8 6.55l-42.96 24.73a7.56 7.56 0 0 0 .03 13.13l23.7 13.48a7.57 7.57 0 0 0 7.5-.01l50.6-29.03Zm4.97-111.5a7.56 7.56 0 0 0 11.46 6.5l22.7-13.62a7.57 7.57 0 0 0 3.68-6.49V57.36a7.56 7.56 0 0 0-11.45-6.5l-22.71 13.62a7.57 7.57 0 0 0-3.67 6.5V98.7Z" fill="#007FFF"/></svg>