<svg viewBox="0 0 105 140" fill="none" xmlns="http://www.w3.org/2000/svg">
  <mask id="a" mask-type="alpha" maskUnits="userSpaceOnUse" x="0" y="0" width="105" height="140">
    <path d="M.2 0h104.6v140H.2V0Z" fill="#fff"/>
  </mask>
  <g mask="url(#a)" fill-rule="evenodd" clip-rule="evenodd">
    <path d="M2.8 119.2H64v-70H2.8v70Z" fill="#D8DEE9"/>
    <path d="M101.9 39.5 91 15.8V8.2C91 3.7 87.3 0 82.8 0H22.2A8.2 8.2 0 0 0 14 8.2v7.6L3 39.5c-2.6 5.6-3 8-3 13.8v78.5c0 4.5 3.8 8.2 8.3 8.2h88.2c4.5 0 8.2-3.7 8.2-8.2V53.3c0-5.8-.3-8.2-3-13.8Zm-79.7-34H75c-.3.8-.5 1.7-.5 2.7v5.5h-55V8.2c0-1.5 1.2-2.7 2.7-2.7ZM5.7 131.8V53.3c0-5.4.3-7 2.4-11.5L18.5 19H73l-9.3 20.4c-2.6 5.6-3 8-3 13.8v78.5c0 1 .2 1.9.5 2.7H8.4a2.7 2.7 0 0 1-2.7-2.7Zm93.6 0c0 1.5-1.2 2.7-2.7 2.7H69a2.7 2.7 0 0 1-2.7-2.7V53.3c0-5.4.3-7 2.4-11.5l11-24.2c.2-.3.3-.7.3-1.1V8.1c.2-3.6 5.4-3.6 5.5 0v8.2c0 .4.1.8.3 1.1l11 24.3c2.2 4.6 2.5 6 2.5 11.5v78.5Z" fill="#5E81AC"/>
  </g>
  <path fill-rule="evenodd" clip-rule="evenodd" d="M41.7 55.4c-1-.5-2-.4-2.8.1L32 60l-6.7-4.5c-.9-.5-2-.6-2.8-.1-1 .5-1.5 1.4-1.5 2.4v11c.2 3.6 5.4 3.5 5.5 0v-5.9l4 2.6c1 .6 2.1.6 3 0l4-2.6v5.8c.2 3.7 5.4 3.6 5.5 0v-11c0-1-.5-1.8-1.4-2.3Z" fill="#434C5E"/>
  <path d="M51 82.5H13.6A2.7 2.7 0 0 0 11 85c0 1.5 1.2 2.7 2.7 2.7h37.2c1.5 0 2.7-1.2 2.7-2.7 0-1.4-1.2-2.6-2.7-2.6ZM51 95.2H13.6A2.7 2.7 0 0 0 11 98c0 1.5 1.2 2.6 2.7 2.6h37.2c1.5 0 2.7-1.1 2.7-2.6s-1.2-2.7-2.7-2.7ZM51 108H13.6a2.7 2.7 0 0 0-2.7 2.7c0 1.4 1.2 2.6 2.7 2.6h37.2c1.5 0 2.7-1.2 2.7-2.6 0-1.5-1.2-2.7-2.7-2.7Z" fill="#434C5E"/>
</svg>
