<svg viewBox="0 0 256 291" xmlns="http://www.w3.org/2000/svg" preserveAspectRatio="xMidYMid">
  <path d="m248.195 223.766-112.39 64.937a15.511 15.511 0 0 1-15.61 0L7.805 223.766C2.966 220.956 0 215.806 0 210.342V80.468c0-5.619 2.966-10.614 7.805-13.424l112.39-64.937a15.511 15.511 0 0 1 15.61 0l112.39 64.937c4.84 2.81 7.805 7.961 7.805 13.424v129.874c-.156 5.463-3.122 10.614-7.805 13.424z" fill="#8D6748"/>
  <path d="M127.844 19.747c-2.341 0-4.683.624-6.712 1.873L24.039 77.659c-4.215 2.342-6.712 6.868-6.712 11.55v112.079c0 4.839 2.497 9.21 6.712 11.552l97.093 56.039c2.029 1.249 4.37 1.873 6.712 1.873 2.34 0 4.683-.624 6.712-1.873l97.093-56.04c4.215-2.341 6.712-6.868 6.712-11.55V89.209c0-4.838-2.497-9.208-6.712-11.55l-97.093-56.04c-2.03-1.248-4.371-1.872-6.712-1.872zm0 4.683c1.56 0 2.966.468 4.37 1.249l97.093 56.039c2.654 1.56 4.37 4.527 4.37 7.649v112.078c0 3.122-1.716 6.087-4.37 7.648l-97.092 56.039c-1.405.78-2.81 1.249-4.371 1.249a8.389 8.389 0 0 1-4.371-1.25L26.38 209.094c-2.654-1.561-4.371-4.526-4.371-7.648V89.367c0-3.122 1.717-6.088 4.37-7.65l97.093-56.038c1.405-.781 2.966-1.25 4.37-1.25zm-8.976 97.717h13.112c.469 0 .781-.157 1.093-.469 7.805-8.741 8.586-27.005 8.586-32.468 0-.78-.625-1.561-1.561-1.561h-29.347c-.78 0-1.561.624-1.561 1.561 0 5.307.781 23.571 8.586 32.468.312.312.624.469 1.092.469zm-3.59-29.659h20.605c.78 0 1.561.624 1.561 1.561 0 4.371-.781 16.702-6.088 23.102-.468.313-.78.469-1.249.469h-9.209c-.469 0-.781-.156-1.093-.469-5.308-6.243-5.932-18.731-6.088-23.102 0-.78.624-1.561 1.561-1.561zm13.112-7.96s5.62-3.279 2.185-9.21c-2.029-3.123-2.965-5.776-2.185-6.869-2.029 2.498-5.463 5.151-1.717 10.771 1.25 1.405 1.873 4.37 1.717 5.307zm-6.244.467s3.746-2.185 1.405-6.244c-1.405-2.029-2.029-3.902-1.405-4.527-1.405 1.717-3.59 3.434-1.093 7.337.781.78 1.093 2.81 1.093 3.434zm-.468 30.752h7.805c.312 0 .624-.156.936-.468 2.654-3.122 3.903-7.961 4.527-12.176 0 0-.156 1.405-3.902 2.81-5.15 1.873-14.205.624-14.205.624.78 3.278 2.03 6.4 3.902 8.742.156.312.625.468.937.468zM62.985 159.61v-31.219H57.21l-9.522 14.673-9.522-14.673H32.39v31.375h5.463v-22.322l9.678 14.517h.156l9.835-14.673v22.322h5.463zm34.967-30.595c-2.03-.78-4.215-1.249-6.556-1.249-2.342 0-4.527.312-6.557 1.25-2.03.78-3.746 2.028-5.151 3.433a15.688 15.688 0 0 0-3.434 5.151c-.78 2.03-1.25 4.058-1.25 6.244V144c0 2.185.47 4.371 1.25 6.244.78 2.03 1.873 3.746 3.278 5.151 1.405 1.405 3.122 2.654 5.15 3.434 2.03.781 4.216 1.25 6.557 1.25 2.342 0 4.527-.313 6.557-1.25 2.029-.78 3.746-2.029 5.15-3.434a15.688 15.688 0 0 0 3.435-5.15c.78-2.03 1.249-4.06 1.249-6.245v-.156c0-2.186-.47-4.37-1.25-6.244-.78-2.029-1.872-3.746-3.277-5.15-1.405-1.406-3.122-2.655-5.151-3.435zm3.746 15.141c0 1.405-.312 2.81-.781 4.215-.624 1.248-1.248 2.497-2.185 3.434a12.49 12.49 0 0 1-3.278 2.341c-1.25.625-2.654.937-4.215.937-1.404 0-2.965-.312-4.214-.937a12.49 12.49 0 0 1-3.278-2.34c-.937-1.094-1.717-2.187-2.186-3.59-.468-1.406-.78-2.81-.78-4.372v-.156c0-1.405.312-2.81.78-4.215.625-1.249 1.249-2.497 2.186-3.434a12.493 12.493 0 0 1 3.278-2.342c1.249-.624 2.653-.936 4.214-.936 1.56 0 2.966.312 4.215.936a12.493 12.493 0 0 1 3.278 2.342c.937 1.093 1.717 2.185 2.185 3.59.469 1.405.78 2.81.78 4.371v.156zm23.102-4.683c.624-1.249 1.249-2.498 2.185-3.434a12.526 12.526 0 0 1 3.278-2.342c1.249-.624 2.498-.936 4.059-.936 1.873 0 3.434.312 4.839 1.092 1.405.781 2.654 1.718 3.902 2.81l3.591-4.058c-.781-.78-1.561-1.405-2.342-2.03-.78-.624-1.717-1.092-2.653-1.56-1.093-.313-2.03-.625-3.279-.937-1.248-.156-2.497-.312-3.902-.312-2.498 0-4.527.468-6.556 1.248-2.029.781-3.746 2.03-5.151 3.435a18.013 18.013 0 0 0-3.278 5.151 16.489 16.489 0 0 0-1.249 6.244V144c0 2.185.468 4.214 1.249 6.244.78 2.03 1.873 3.746 3.278 5.151 1.405 1.405 3.122 2.654 4.995 3.434a15.897 15.897 0 0 0 6.244 1.25c1.405 0 2.809 0 4.214-.313 1.093-.156 2.342-.625 3.278-1.093.937-.468 1.874-.937 2.81-1.717.937-.78 1.717-1.405 2.498-2.342l-3.59-3.59c-1.405 1.25-2.81 2.186-4.059 2.966-1.249.781-2.966 1.093-4.839 1.093-1.405 0-2.81-.469-4.059-.937-1.248-.468-2.341-1.405-3.278-2.34-.936-1.094-1.717-2.187-2.185-3.592-.468-1.404-.781-2.809-.781-4.37v-.156c0-1.405.313-2.81.781-4.215zm32.937-11.082v31.219h5.463v-13.112h14.986v13.112h5.463v-31.22h-5.463v12.957H163.2V128.39h-5.463zm59.941 23.727 3.122 7.493h5.775l-13.736-31.376h-4.996l-13.736 31.375h5.62l3.277-7.493h14.674zm-7.337-17.327 5.307 12.488h-10.614l5.307-12.488zM28.488 171.16h199.024v-1.717H28.488v1.717zm114.42-60.41c0 .624-.157 1.093-.157 1.718h84.761v-1.718h-84.605zm-34.81 0h-79.61v1.718h79.766c0-.624-.157-1.093-.157-1.718z" fill="#FFF"/>
</svg>
