<svg xmlns="http://www.w3.org/2000/svg" viewBox="0 0 207.74 252.58">
  <defs>
    <style>
      .cls-3{fill:#5fbc21}
    </style>
  </defs>
  <g id="Layer_2" data-name="Layer 2">
    <g id="Layer_1-2" data-name="Layer 1">
      <path d="M60.37 205.2c0 2.5 0 5 .05 7.5 0 .54 0 1.07-.05 1.58zm86.92-167.52v85.2c-.06-27.24-.19-54.49-.22-81.73a29 29 0 0 1 .22-3.47z" style="fill:#93ceaa"/>
      <path d="M147.06 125.43a16.9 16.9 0 0 0 .23-2.55v79.66l-41.74-38.17-21-19.15-12.64-11.62-5.62-5.13-2.07-1.89-.15-.13c-.51-.41-1-.84-1.47-1.23s-.88-.73-1.44-.56a1.25 1.25 0 0 0-.79.9v-75l.43.39 8.57 7.75c4.51 4 9.06 8 13.56 12q9.6 8.6 19.14 17.3 7.55 6.86 15.08 13.74c6 5.47 11.92 11 17.92 16.43 2.7 2.44 5.42 4.83 8.15 7.23l1.74 1.52a1.47 1.47 0 0 0 1.4.18 1.16 1.16 0 0 0 .56-.72c.08-.38.08-.64.14-.95z" fill="#4c9717"/>
      <path class="cls-3" d="M60.28 126a15.67 15.67 0 0 0-.1 2.74c0 25.5 0 51 .19 76.49v9.08a14.85 14.85 0 0 1-5.87 11.09c-6.81 5.69-13.16 11.91-19.73 17.89-2.75 2.5-5.48 5-8.31 7.44s-10.11 2.74-14.14-.63a78.48 78.48 0 0 1-8.54-8.66 12.76 12.76 0 0 1-3.73-8.69c0-.72-.06-1.51 0-2.38 0-1.5 0-3 .05-4.51.05-4.3 0-8.61 0-12.91V72.71a12.64 12.64 0 0 1 .38-3.18 18.42 18.42 0 0 1 1-2.64 22.16 22.16 0 0 1 2.02-3.58l16-16 10.19-10.18a7.84 7.84 0 0 1 1.84-1.38 8.05 8.05 0 0 1 3.21-1 13.85 13.85 0 0 1 9.71 1.79 13.59 13.59 0 0 1 2.09 1.57l13.83 12.42v75a3.38 3.38 0 0 0-.09.47z"/>
      <path d="M60.28 126a3.38 3.38 0 0 1 .09-.41v79.61c-.15-25.5-.14-51-.19-76.49a15.67 15.67 0 0 1 .1-2.71z" fill="#e8ceaa" opacity=".6"/>
      <path class="cls-3" d="m205.59 187.21-29.39 27a3.75 3.75 0 0 1-.36.24l-.11.08-.2.12a14 14 0 0 1-16.76-1.65l-1.77-1.55-9.75-8.91V37.68c.16-1.39.4-2.78.67-4.14.7-3.55 3.82-5.31 6.2-7.53 5.17-4.8 10.5-9.42 15.77-14.12 3.63-3.24 7.25-6.49 10.91-9.71 3.19-2.81 9.37-2.67 12.37-.93a10.11 10.11 0 0 1 2.08 1.61l3.38 3.26 2.73 2.61 2.49 2.41a11.45 11.45 0 0 1 1.78 2.09 11.73 11.73 0 0 1 1.7 6.46c-.05 14.66.06 29.32.09 44l.16 74.7q0 19.14.07 38.27v1.75c.15 3.8.07 6.31-2.06 8.8z"/>
    </g>
  </g>
</svg>
