<svg viewBox="0 0 256 255" xmlns="http://www.w3.org/2000/svg" preserveAspectRatio="xMidYMid">
  <path d="M150.7 0c-1.8 0-3.5.4-5.1 1 3.4 2.2 5.2 5.1 6.1 8.5 0 .5.2.8.3 1.3l.1 1.2c.3 5.8-1.5 6.5-2.8 10-1.9 4.4-1.3 9.1 1 13 .2.4.4 1 .8 1.4-2.5-16.7 11.4-19.2 14-24.4.2-4.6-3.6-7.6-6.6-9.8a14.6 14.6 0 0 0-7.8-2.2zm21 3.8c-.2 1.5 0 1 0 1.9l-.2 1.7L171 9l-.5 1.6-.7 1.5-.6.8-.3.6-1 1.3-1.2 1.2-1.3 1.1L161 20c-.5.3-1 .6-1.3 1l-1.3 1-1.2 1.3-1 1.3-.9 1.4-.7 1.5-.6 1.5-.4 1.7c0 .2 0 .6-.2.8v.8l-.2 1.7.1 1.2c0 .5 0 1 .2 1.6 0 .6.2 1 .3 1.6l.6 1.6.4 1-15.2-6-7.6-2-4.2-1c-4-.7-8-1.3-12-1.7h-.4a118.2 118.2 0 0 0-32.6 1.1l-3 .5-5.9 1.4-3 .7c-1 .4-1.9 1-2.8 1.3l-2.2 1-.3.1-1.9 1a29.2 29.2 0 0 0-2.5 1.3l-1.3.6a6 6 0 0 1-.6.3l-1.7 1-1.6 1c-.5.3-1 .6-1.3 1h-.2l-1.3 1-.1.1-1 .8-.4.3-1 .8-.3.3-1.1 1.1-.2.1-1.2 1.2h-.1l-1 1.2-.5.3-1 1.2c-.1.2-.3.2-.3.4L43.4 53l-.2.2a39 39 0 0 1-7 6.1 50 50 0 0 1-12.5 6c-2.7.7-5.6 1.8-8 2l-1.7.2-1.6.4-1.6.6-1.6.7-1.5 1-1.3 1-1.3 1.3L4 73.8c-.4.5-.8 1-1 1.5l-1 1.5-.7 1.7a51 51 0 0 0-.6 1.8l-.3 1.5v.2L0 83.8V86a7 7 0 0 0 .8 2.5l.7 1.2.9 1.2A17.5 17.5 0 0 0 4.8 93c1.5 1.4 2 1.9 4 3l1 .5h.2l.1.4a13.6 13.6 0 0 0 .9 3.1l.5 1.2a29 29 0 0 0 2 3.2l1.1 1.2 1.3 1.2h.1a14.5 14.5 0 0 0 5.5 3l.3.1.8.2c-.2 3.6-.3 7 .3 8.2.6 1.3 3.5-2.7 6.4-7.4-.4 4.6-.7 10 0 11.5.7 1.7 4.7-3.5 8.1-9.1a76.4 76.4 0 0 1 94.2 67.3c-.9-7.2-9.7-11.2-13.7-10.2-2 5-5.4 11.2-10.8 15.1.5-4.4.3-8.8-.7-13.2-1.4 6-4.3 11.8-8.2 16.6-6.2.5-12.5-2.5-15.8-7-.3-.3-.4-.7-.6-1l-.5-1.3-.4-1.4v-2.5l.3-1.4.4-1.4.8-1.3c1.2-3.2 1.2-5.8-.9-7.3l-1.2-.7-.9-.2-.5-.2-1.4-.4a5 5 0 0 0-1.4-.2l-1.5-.1h-1c-.5 0-1 .1-1.4.3l-1.4.2-1.4.5-1.3.6-1.3.7c-15.4 10-6.2 33.5 4.3 40.3-4 .8-8 1.6-9 2.5l-.2.1a62.3 62.3 0 0 0 19.6 7.6 62.9 62.9 0 0 0 74.3-52.5l.4 1.8.6 3.7.3 1.8v.3l.1 1.7.1 2.2v1l.1 1v2.2l-.1 1.3v.9l-.2 1.4v.6l-.2 1.6v.6c-.1.6-.3 1.2-.3 1.9v.1l-.4 1.9v.1l-.4 1.8-.1.3-.5 1.8v.2l-.5 1.8v.2l-.7 2-.7 1.9-.7 1.9-.8 1.9-1 1.9-.1.4-.2.2a62.6 62.6 0 0 1-18.5 22.2l-1.6 1.2a27.8 27.8 0 0 1-2 1.3l.3.4 2.8-.4a140.9 140.9 0 0 0 6.7-1.3l.9-.2 1.4-.2 1.2-.4c6.6-1.6 13-3.7 19.2-6.3a105.9 105.9 0 0 1-41.1 33.5 105.6 105.6 0 0 0 85-53.8 105.5 105.5 0 0 1-17.8 42.5 104 104 0 0 0 45.5-70.9c2.3 10.5 3 21.2 2 31.9C282.1 138 238.3 69 220 50.9l-.1-.3-.1.1v-.1l-.2 2.4a89 89 0 0 1-.7 4.4l-1 4.3a55 55 0 0 1-3.7 8.3 45 45 0 0 1-10 12.3l-1.6 1.3a36.9 36.9 0 0 1-7.6 4.9l-4.2 1.8a46.6 46.6 0 0 1-8.7 2.4 50.9 50.9 0 0 1-16.7-.3c-1.5-.2-3-.6-4.4-1.1a49 49 0 0 0 21.2-7l3.7-2.6c1.2-1 2.3-1.9 3.3-3a65.3 65.3 0 0 0 5.9-6.8l.4-.6 2-3.2a45.6 45.6 0 0 0 3.5-8.3c.5-1.4.8-2.8 1.1-4.3.3-1.5.6-3 .7-4.4l.3-4.5-.2-3.2-.5-4.4a48 48 0 0 0-1-4.4l-1.4-4.3-1.9-4-2.2-4a73 73 0 0 0-5.7-7A41.4 41.4 0 0 0 178 6.5a25.8 25.8 0 0 0-6.2-2.7z" fill="#E0234E"/>
</svg>
