<svg viewBox="0 0 48 48" fill="none" xmlns="http://www.w3.org/2000/svg">
  <path d="m22.43.01-.73.07C14.88.69 8.5 4.37 4.45 10.02A23.75 23.75 0 0 0 .22 20.51a18.3 18.3 0 0 0-.22 3.5c0 1.78.02 2.17.22 3.49A24.1 24.1 0 0 0 21.7 47.94c.73.08 3.87.08 4.6 0a24.22 24.22 0 0 0 8.65-2.53c.4-.2.49-.27.43-.31-.03-.03-1.8-2.4-3.9-5.24l-3.84-5.19-4.81-7.11a688.2 688.2 0 0 0-4.84-7.12c-.02 0-.04 3.16-.05 7.02-.02 6.76-.02 7.04-.1 7.2a.85.85 0 0 1-.42.42c-.15.08-.28.1-.99.1h-.81l-.22-.15a.88.88 0 0 1-.31-.34l-.1-.2.01-9.42.02-9.4.14-.19c.08-.1.24-.22.35-.29.19-.09.27-.1 1.08-.1.95 0 1.11.04 1.36.31.07.08 2.68 4 5.8 8.72l9.46 14.34 3.8 5.76.2-.13c1.7-1.1 3.5-2.68 4.92-4.32a23.89 23.89 0 0 0 5.65-12.27c.2-1.32.22-1.7.22-3.5 0-1.78-.02-2.17-.22-3.49A24.1 24.1 0 0 0 26.37.07c-.45-.04-3.55-.1-3.94-.06zm9.82 14.52a.95.95 0 0 1 .48.55c.03.12.04 2.73.03 8.61v8.44l-1.5-2.28-1.49-2.28v-6.14c0-3.96.02-6.19.05-6.3a.96.96 0 0 1 .46-.59c.2-.1.26-.1 1-.1.7 0 .82 0 .97.09z" fill="#000"/>
</svg>
