<svg fill="none" xmlns="http://www.w3.org/2000/svg" viewBox="0 0 144 144">
  <g clip-path="url(#a)">
    <path d="m108.41 31.03-3.5 3.5a46.07 46.07 0 0 1-65.14 0l-3.5-3.5a3.71 3.71 0 0 0-5.24 5.25l3.5 3.49a46.07 46.07 0 0 1 0 65.15l-3.5 3.5a3.7 3.7 0 1 0 5.25 5.24l3.49-3.5a46.07 46.07 0 0 1 65.15 0l3.5 3.5a3.71 3.71 0 0 0 5.24-5.25l-3.5-3.5a46.07 46.07 0 0 1 0-65.14l3.5-3.5a3.71 3.71 0 0 0-5.25-5.24Z" fill="#000" stroke="#000" stroke-width="4"/>
  </g>
  <defs>
    <clipPath id="a">
      <path fill="#fff" d="M0 0h144v144H0z"/>
    </clipPath>
  </defs>
</svg>
