<svg xmlns="http://www.w3.org/2000/svg" viewBox="0 0 480 480">
  <g transform="translate(0 -572.36)">
    <rect style="color-rendering:auto;color:#000;isolation:auto;mix-blend-mode:normal;shape-rendering:auto;solid-color:#000;image-rendering:auto" ry="56" height="448" width="448" y="588.36" x="16" fill="#8f0000"/>
    <path style="color-rendering:auto;text-decoration-color:#000;color:#000;isolation:auto;mix-blend-mode:normal;shape-rendering:auto;solid-color:#000;block-progression:tb;text-decoration-line:none;text-decoration-style:solid;image-rendering:auto;white-space:normal;text-indent:0;text-transform:none" d="M104.41 321.21c.014-2.385-1.905-4.28-4.29-4.28h-6.243v2.925h6.243c.806 0 1.481.584 1.481 1.39v4.241c0 .805-.675 1.508-1.48 1.508h-6.244v2.808h6.243c2.385 0 4.29-1.931 4.29-4.316v-1.981c9.866.141 12.737 2.707 15.877 5.452 3.024 2.645 6.415 5.487 15.252 5.557v.972c.001 2.385 1.955 4.38 4.34 4.38h6.427v-3.042h-6.428c-.805 0-1.413-.533-1.413-1.338v-4.242c0-.805.608-1.442 1.413-1.442h6.428v-2.808h-6.428c-2.384 0-4.338 1.865-4.339 4.25v1.005c-8.351-.028-10.723-2.343-13.76-5-2.592-2.265-5.637-4.757-12.346-5.663.058-.05.112-.1.168-.15 1.292-1.185 1.989-2.616 2.67-3.852.682-1.236 1.323-2.267 2.373-2.988.852-.585 2.064-1.021 3.926-1.102v.992c0 2.385 1.924 4.433 4.309 4.433h17.242c2.384 0 4.312-2.048 4.312-4.433v-4.242a4.311 4.311 0 0 0-4.312-4.315h-17.242a4.307 4.307 0 0 0-4.309 4.315v.984c-2.247.09-3.95.635-5.207 1.498-1.525 1.047-2.366 2.477-3.076 3.764s-1.311 2.44-2.22 3.273c-.79.725-1.882 1.285-3.657 1.493zm18.468-12.356h17.242c.805 0 1.387.585 1.387 1.39v4.242c0 .805-.582 1.39-1.387 1.39h-17.242c-.805 0-1.5-.585-1.5-1.39v-4.242c0-.805.695-1.39 1.5-1.39z" fill="#fff" transform="translate(-786.19 -1949.8) scale(8.545)"/>
  </g>
</svg>
