<svg xmlns="http://www.w3.org/2000/svg" viewBox="0 0 100 100" xml:space="preserve">
  <circle cx="50" cy="50" r="48" fill="white"/>
  <path stroke="#fff" stroke-width=".3" d="M59.285 14.263c-.687.23-1.357.44-2.02.676-3.973 1.415-7.755 3.216-11.238 5.611-2.41 1.657-4.586 3.568-6.334 5.934a17.306 17.306 0 0 0-2.002 3.482c-.041.096-.129.206-.22.239-20.598 15.459 2.267.111-9.352 9.652-2.258 1.91-4.264 4.042-5.776 6.602-1.007 1.705-1.75 3.507-1.984 5.492-.033.275-.034.555-.049.832 1.64-1.545 3.537-3.012 5.338-3.692-.047.105-.073.166-.102.227-.223.467-.466.927-.666 1.404-.884 2.102-1.276 4.28-.957 6.557 2.65 9.258 10.962 16.08 16.274 22.951.03.041.067.076.14.154.253-2.415-.282-4.637-1.18-6.8 4.603 3.96 6.955 8.99 7.15 15.07.052-.03.096-.045.126-.074 1.795-1.707 3.537-3.463 4.98-5.489 1.167-1.635 2.127-3.37 2.635-5.33a9.846 9.846 0 0 0 .32-2.916.341.341 0 0 1 .08-.226c1.739-1.79 3.733-3.16 6.184-3.787 1.77-.454 3.543-.409 5.319-.024 2.614.567 5.233 1.104 7.84 1.703.694.16 1.305.094 1.958-.144 3.262-1.188 6.282-2.793 8.89-5.112 1.925-1.713 3.423-3.73 4.325-6.166.086-.233.043-.332-.156-.463-4.89-3.227-9.775-6.463-14.666-9.689-.24-.158-.31-.337-.293-.604.05-.782.444-1.353 1.092-1.742.407-.243.853-.42 1.314-.642-3.624-4.147-7.425-8.14-11.658-11.719.286-.643.574-1.278.85-1.918 1.233-2.865 2.312-5.782 3.025-8.824.305-1.301.523-2.616.586-3.953.004-.083 0-.166 0-.293-3.123.87-6.123 1.925-8.91 3.646.02-.373.036-.712.06-1.049a31.934 31.934 0 0 0-.046-5.248c-.13-1.363-.36-2.703-.762-4.013-.03-.095-.07-.189-.115-.315zm-1.823 3.479c.013.07.023.098.024.127.026 1.207.091 2.416.068 3.623a29.333 29.333 0 0 1-1.142 7.593c-.45 1.558-1.022 3.066-1.83 4.479-.091.16-.195.266-.381.312-.61.151-1.212.334-1.823.477-.478.111-.964.181-1.515.281-.107-.645-.224-1.245-.301-1.85-.077-.607.048-1.2.219-1.786-1.061.927-2.004 1.92-2.176 3.41-.536-3.312.12-6.373 1.883-9.219-2.778 2.307-4.97 5.015-5.908 8.6a9.98 9.98 0 0 1-.168-1.01c-.171-1.737.14-3.393.875-4.97.895-1.924 2.244-3.495 3.812-4.89 2.141-1.905 4.557-3.39 7.135-4.62.4-.192.806-.367 1.228-.557zm-.09 25.408a16.538 16.538 0 0 1 2.059.094c2.486.27 4.76 1.11 6.803 2.554 2.05 1.45 3.615 3.334 4.873 5.49.06.104.149.205.25.266 2.329 1.413 4.662 2.82 6.994 4.229 1.384.836 2.767 1.673 4.154 2.504.133.08.178.153.143.316-.065.299-.1.604-.13.908-.132 1.342-.064 2.666.356 3.96.265.816.703 1.537 1.245 2.202-.024.033-.038.062-.06.082-.384.337-.757.688-1.155 1.006-2.386 1.907-5.063 3.281-7.932 4.301-.264.094-.5.085-.752-.006a43.245 43.245 0 0 0-5.746-1.623c-2.934-.623-5.9-.974-8.898-.986-1.216-.005-2.435.064-3.65.117-.465.02-.926.089-1.39.135 1.437.318 2.887.538 4.315 1.123-1.814.706-3.352 1.732-4.75 3.015-.03-.105-.05-.179-.072-.252-.218-.728-.402-1.468-.662-2.181-.941-2.578-2.334-4.917-3.907-7.15-1.03-1.465-2.066-2.923-2.882-4.524-.138-.27-.274-.542-.413-.82-.344.375-.624 1.444-.734 2.697a31.978 31.978 0 0 1-.664-1.72c-.616-1.785-1.022-3.608-.937-5.513.076-1.704.58-3.251 1.658-4.591.889-1.107 2.019-1.906 3.293-2.5 2.332-1.087 4.814-1.547 7.361-1.715.461-.031.923-.044 1.385-.065 0-.01 0-.022.002-.033l-3.112-.92c.05-.037.059-.051.073-.054.084-.02.167-.04.252-.057.873-.177 1.75-.271 2.63-.29z"/>
</svg>
