<svg viewBox="0 0 96 72" xmlns="http://www.w3.org/2000/svg">
  <g fill="none" fill-rule="evenodd">
    <path d="M29.22 68.88a5 5 0 0 1-.53-3.21H6L39.72 6.33l11.07 19.46L54 20.11l-9.65-17C44.08 2.62 42.45 0 39.64 0c-1.27 0-3.09.55-4.57 3.15L.91 63.21c-.29.52-1.7 3.25-.3 5.67.64 1.1 2 2.41 5 2.41h28.61c-2.98 0-4.36-1.29-5-2.41z" fill="#00C58E"/>
    <path d="M95 63.21 66.93 13.76c-.29-.52-1.91-3.15-4.73-3.15-1.27 0-3.09.54-4.57 3.14L54 20.11l3.23 5.68 5-8.85L90 65.67H79.44a4.73 4.73 0 0 1-.22 2.4 3.06 3.06 0 0 1-.22.49l-.09.18c-1.42 2.42-4.49 2.55-5.09 2.55h16.52c.61 0 3.67-.13 5.09-2.55.63-1.1 1.08-2.95-.43-5.53z" fill="#108775"/>
    <path d="m78.91 68.74.09-.18a3.06 3.06 0 0 0 .22-.49 4.73 4.73 0 0 0 .22-2.4 7.31 7.31 0 0 0-.92-2.46L57.25 25.79 54 20.11l-3.23 5.68-21.26 37.42a7.57 7.57 0 0 0-.82 2.46 5 5 0 0 0 .31 2.82c.055.134.119.264.19.39.64 1.1 2 2.41 5 2.41h39.6c.63 0 3.7-.13 5.12-2.55zM54 31.47l19.44 34.2H34.57L54 31.47z" fill="#2F495E" fill-rule="nonzero"/>
  </g>
</svg>
