<?xml version="1.0" encoding="UTF-8"?>
<svg width="250px" height="178px" version="1.1" viewBox="0 0 96 72" 
    xmlns="http://www.w3.org/2000/svg">
    <g fill="none" fill-rule="evenodd">
        <path d="m29.22 68.88c-0.071247-0.12599-0.1347-0.25624-0.19-0.39-0.38356-0.88737-0.50166-1.8669-0.34-2.82h-22.69l33.72-59.34 11.07 19.46 3.21-5.68-9.65-17c-0.27-0.49-1.9-3.11-4.71-3.11-1.27 0-3.09 0.55-4.57 3.15l-34.16 60.06c-0.29 0.52-1.7 3.25-0.3 5.67 0.64 1.1 2 2.41 5 2.41h28.61c-2.98 0-4.36-1.29-5-2.41z" fill="#00C58E"/>
        <path d="m95 63.21l-28.07-49.45c-0.29-0.52-1.91-3.15-4.73-3.15-1.27 0-3.09 0.54-4.57 3.14l-3.63 6.36 3.23 5.68 5-8.85 27.77 48.73h-10.56c0.13513 0.80558 0.059333 1.6324-0.22 2.4-0.058829 0.16947-0.13245 0.33343-0.22 0.49l-0.09 0.18c-1.42 2.42-4.49 2.55-5.09 2.55h16.52c0.61 0 3.67-0.13 5.09-2.55 0.63-1.1 1.08-2.95-0.43-5.53z" fill="#108775"/>
        <path d="m78.91 68.74l0.09-0.18c0.087554-0.15657 0.16117-0.32053 0.22-0.49 0.27933-0.76758 0.35513-1.5944 0.22-2.4-0.15564-0.86882-0.46733-1.7023-0.92-2.46l-21.27-37.42-3.25-5.68-3.23 5.68-21.26 37.42c-0.41279 0.76673-0.69019 1.5989-0.82 2.46-0.1711 0.95021-0.063436 1.9296 0.31 2.82 0.055301 0.13376 0.11875 0.26401 0.19 0.39 0.64 1.1 2 2.41 5 2.41h39.6c0.63 0 3.7-0.13 5.12-2.55zm-24.91-37.27l19.44 34.2h-38.87l19.43-34.2z" fill="#2F495E" fill-rule="nonzero"/>
    </g>
</svg>
