<svg viewBox="0 0 256 290" xmlns="http://www.w3.org/2000/svg" preserveAspectRatio="xMidYMid">
  <path d="M127.866 286.234c-2.74 0-5.251-.685-7.078-1.598L10.503 221.16c-3.881-2.284-7.078-7.992-7.078-12.33V81.42c0-4.338 3.425-10.046 7.078-12.33L120.788 5.614c1.827-1.142 4.338-1.599 7.078-1.599s5.252.685 7.079 1.599L245 69.319c3.881 2.283 7.078 7.991 7.078 12.33v127.18c0 4.339-3.425 10.047-7.078 12.33l-110.056 63.705c-1.827.914-4.339 1.37-7.079 1.37z" fill="#3D3B47"/>
  <path d="M127.866 7.44c2.055 0 4.11.457 5.48 1.142L243.402 72.06c2.74 1.598 5.48 6.165 5.48 9.361v127.181c0 3.197-2.74 7.764-5.48 9.362l-110.056 63.705c-1.37.685-3.425 1.141-5.48 1.141-2.055 0-4.11-.456-5.48-1.141L12.33 218.19c-2.74-1.598-5.48-6.165-5.48-9.361V81.42c0-3.196 2.74-7.763 5.48-9.361L122.386 8.582c1.37-.685 3.425-1.142 5.48-1.142zm0-6.85c-3.196 0-6.393.685-8.905 2.055L8.905 66.122C4.11 69.09 0 75.94 0 81.42v127.181c0 5.709 3.882 12.559 8.905 15.299l110.056 63.704c2.512 1.37 5.709 2.055 8.905 2.055 3.197 0 6.394-.685 8.905-2.055L246.827 223.9c4.795-2.74 8.905-9.59 8.905-15.299V81.421c0-5.71-3.881-12.56-8.905-15.3L136.771 2.646C134.26 1.275 131.063.59 127.866.59z" fill="#CCC"/>
  <path d="M127.866 135.307h.685c3.197.228 6.165 2.055 7.992 4.795.913 1.598 1.37 3.653 1.37 5.708-.457 5.252-4.567 9.133-9.818 9.133h-.685c-3.197-.228-6.165-2.055-7.992-4.795-.913-1.598-1.37-3.653-1.37-5.708.228-5.023 4.567-9.133 9.818-9.133zm0-.685c-5.48 0-10.046 4.338-10.503 9.818-.228 2.055.228 4.11 1.37 5.937 1.827 2.968 4.795 5.023 8.448 5.251h.685c5.48 0 10.047-4.338 10.504-9.818.228-2.055-.457-4.11-1.37-5.937-1.827-2.968-4.795-5.023-8.449-5.251h-.685z" fill="#EFF3F3"/>
  <path d="M128.095 141.7c1.826.228 3.425 1.827 3.196 3.653-.228 1.827-1.826 3.425-3.653 3.197-1.827-.228-3.425-1.827-3.197-3.653 0-1.827 1.827-3.425 3.654-3.197zM127.866 159.053h-.913c-4.567-.228-8.905-2.968-11.188-6.85-1.37-2.511-2.055-5.251-1.827-7.991.228-3.197 1.598-6.165 3.653-8.449v-.228L27.4 204.263l103.663-45.666c-1.142.228-2.055.456-3.197.456z" fill="#EFF3F3"/>
  <path d="M124.441 131.653c1.37-.228 2.74-.456 4.339-.456 4.566.228 8.905 2.968 11.188 6.85 1.37 2.511 2.055 5.251 1.826 7.991-.228 3.425-1.598 6.394-3.881 8.677l91.105-67.13-104.577 44.068z" fill="#0977F7"/>
</svg>
