<svg xmlns="http://www.w3.org/2000/svg" viewBox="0 0 32 32" fill="none">
  <path d="m17.6 28 8.7-5.6h.1l-8.8 5.7v-.2z" fill="url(#a)"/>
  <path d="m17.6 28-12-4.4v-.1l12 4.4v.2z" fill="url(#b)"/>
  <path d="M30.1 6.7 28.8 9l-5.6 2.4-.3.1-5 4.7-.2.3c0-.1 0-.2-.3-.3L15 14.5l-1.8-1.1L8 12l-4.3-1L1 6.6 11.2 4l3.5 5.2.1.1.1.3v-.1l.1-.1a.8.8 0 0 1 0-.2l3.2-4.6 12 2v.1z" fill="#E8B57E"/>
  <path d="m15 14.5-2-1.1L8 12l6.9-2.4v5z" fill="url(#c)"/>
  <path d="m14.9 9.6-7 2.4-.5-.1-3.7-1L1 6.7 11.2 4l3.5 5.2.1.1.1.3z" fill="url(#d)"/>
  <path d="m15 9.8-6.6 2.3-1-.2 7.3-2.7.1.1.1.3v.2z" fill="url(#e)"/>
  <path d="M3.8 11h-.1L1 6.6 3.8 11z" fill="#D1A578"/>
  <path d="m23.2 11.4-.3.1-5 4.7-.2.3c0-.1 0-.2-.3-.3L15 14.5v-5l8.3 1.9z" fill="url(#f)"/>
  <path d="M30.1 6.7 28.8 9l-5.1 2.2-.5.2L15 9.6a.8.8 0 0 1 0-.4l3.2-4.6 12 2v.1z" fill="url(#g)"/>
  <path d="m23.7 11.2-.8.3-.1.1-7.9-1.7v-.3l.1-.3 8.7 1.9z" fill="url(#h)"/>
  <path opacity=".8" d="M15.1 9.6v5H15l-.2-.2V9.6h.4z" fill="url(#i)"/>
  <path d="m17.5 28-12-4.5v-.2l-.6-10.2v-.2L0 10l13.1 3.3 4.3 2.8c.2 0 .2.2.2.3h.1l.2-.3 5-4.7 9-3.8h.1L27.1 12l-.1.3-.5 10-.1.1-8.8 5.6z" fill="#BF9064"/>
  <path d="M17.7 16.5 17.6 28l-12-4.5-.1-.2-.6-10.2 12.7 3.4z" fill="#BE8F63"/>
  <path opacity=".5" d="m17.6 28-12-4.5-.1-.1 12 4.6z" fill="url(#j)"/>
  <path d="M12.2 21v4.4l4.6 1.6v-4.5L12.2 21zm0 0 2.2.8v2.1l-2.1-.7V21zm.1 4.3v-2l2.1.7v2l-2.1-.7zm4.5 1.6-2.3-.8v-2l2.3.7V27zm0-2.2-2.3-.8v-2l2.3.6v2.2z" fill="#322212"/>
  <path d="m16.3 24.4-1.4-.5v-.2l1.4.4v.3zm-1.2-.7h.2v-.9h.3l-.4-.6-.3.5h.2v1z" fill="#322212"/>
  <path d="M15.8 24h.3v-1l.2.1-.3-.6-.4.4h.2v1zm-.6.7H15l1 1.6-1-1.6z" fill="#322212"/>
  <path d="m16 25-.9.9 1-.8zm-1-.1v.8h.1V25zm1.1.4v.8-.8z" fill="#322212"/>
  <path d="m15.4 25 .2.3.3-.2-.5-.1zm.6.4v.5l-.3-.3.3-.2zm-.1.6h-.5l.2-.3.3.4zm-.6-.4v-.5l.2.4-.2.1zm-.7-.6h.1l.3.4-.3.2V25zm2 1v-.2h-.1v-.3l-.3.2.3.4V26h.1zm-3.3-1.9v1.3l-.1-.1H13l.1.2h.2V24z" fill="#322212"/>
  <path d="M12.7 24.5c.2-.6 1-.4 1.4.5-.1-.2-.2-.2-.3-.2h-.3c0-.2-.2-.2-.3-.1 0-.1-.1-.2-.2-.1-.1-.2-.2-.2-.3-.1zm1.1-.3h-.1zm.1-.2h-.1zm-.4 0zm-.3-.1H13zm-.4-.8 1 .4-.4-.3v-.5c.3.1.5-.1.5-.3v-.5l-.9-.3v.3l.1.6-.2-.7v-.3h-.2v.5c0 .2.2.6.5.6v.5h-.4z" fill="#322212"/>
  <path d="m17.7 16.5-.1.1-12.7-3.5v-.2L0 10l13.1 3.3 4.3 2.8a.3.3 0 0 1 .2.3z" fill="url(#k)"/>
  <path d="M12 17.6v-2.5c0-.1 0-.3-.2-.3L7.2 12l-2.1-.6 4.7 2.8v.3L10 17l2 .6z" fill="url(#l)"/>
  <path d="m17.7 16.5-.1.1c0-.1 0-.3-.2-.3l-4.3-2.8v-.1l4.3 2.8a.3.3 0 0 1 .2.3z" fill="#D4A271"/>
  <path d="M13.1 13.4 0 10.2l13.1 3.3z" fill="#DEB37E"/>
  <path d="m27 12.3-.5 10-.1.1-8.8 5.6V16.5h.1l9.3-4.2z" fill="#DBAC76"/>
  <path opacity=".5" d="m26.5 22.3-.1.1-8.8 5.6 8.9-5.7z" fill="url(#m)"/>
  <path d="m23.4 19.6-.2 4.2 3-1.8.1-4-3 1.6zm0 0 1.5-.8-.1 2-1.5.9.1-2zm-.1 4.1v-2l1.5-.8-.1 2-1.4.8zM26 22l-1.4.8.1-2 1.4-.8-.1 2zm.1-2-1.4.8.1-2 1.4-.8-.1 2z" fill="#322212"/>
  <path d="m26 20-.9.5v-.3l.8-.5v.3z" fill="#322212"/>
  <path d="M25.2 20.1h.2v-1h.1l-.1-.4-.3.6h.2v.8zm.5-.3h.1v-.9h.2l-.2-.4-.2.6.1-.1v.8zm0 2.1-.5-.8.6.7zm-.5.3.6-1.5-.6 1.5zm-.1-.9v.7l.1-.8zm.7-.4v.7-.7zm-.5.2.2.2.1-.4-.3.2zm.4-.1v.6l-.1-.2.1-.3zm-.1.8-.3.2.2-.4.1.2zm-.4 0v-.5l.2.2-.2.3zm-.3-.1v-.2l.2.2-.2.3v-.3zm1.1-.5v-.3l-.2.3.2.2v-.2zm-2 .6v1.4l-.1-.1c-.1.1 0 .1 0 .1l.1-.2v-1.3z" fill="#322212"/>
  <path d="M23.6 22.6c.1-.7.7-1.2.9-.5h-.2s-.2 0-.2.2H24l-.1.2-.2.1zm.7-1.1zm.1-.3zm-.2.3z" fill="#322212"/>
  <path d="m24 21.7-.1.1v-.1zm-.3-.5.7-.4h-.3v-.4c.3-.2.4-.5.4-.6v-.6l-.6.4v.7-.7l-.2.1v.5c0 .2.1.4.3.3v.4l-.3.3z" fill="#322212"/>
  <path d="m27.1 12-.1.3-9.2 4.3-.1-.1v-.1a.7.7 0 0 1 .2-.2l5-4.7 9-3.8h.1L27.1 12z" fill="#CE9C6B"/>
  <path d="m23 11.6-5 4.6-.2.4-.1-.1v-.1l.2-.2 5-4.7v.1z" fill="#D7A977"/>
  <path d="m21.9 17.2 1.5-.8V14l.2-.4 5-4.4-1.5.6-5 4.5-.2.4v2.5z" fill="url(#n)"/>
  <path d="m23 11.6 9-3.9-9.1 3.8v.1z" fill="#F8CE92"/>
  <defs>
    <linearGradient id="a" x1="22" y1="25.1" x2="22" y2="25.3" gradientUnits="userSpaceOnUse">
      <stop/>
      <stop offset="1"/>
    </linearGradient>
    <linearGradient id="b" x1="11.6" y1="25.7" x2="11.5" y2="25.8" gradientUnits="userSpaceOnUse">
      <stop/>
      <stop offset="1"/>
    </linearGradient>
    <linearGradient id="c" x1="12.7" y1="11.3" x2="15.1" y2="12.3" gradientUnits="userSpaceOnUse">
      <stop offset=".4"/>
      <stop offset=".4"/>
      <stop offset=".6"/>
      <stop offset=".8"/>
    </linearGradient>
    <linearGradient id="d" x1="9.8" y1="10.8" x2="6.7" y2="6.4" gradientUnits="userSpaceOnUse">
      <stop/>
      <stop offset="1"/>
    </linearGradient>
    <linearGradient id="e" x1="11.2" y1="11" x2="11.1" y2="10.5" gradientUnits="userSpaceOnUse">
      <stop offset=".1"/>
      <stop offset=".1"/>
      <stop offset=".3"/>
      <stop offset=".5"/>
      <stop offset=".7"/>
      <stop offset=".9"/>
      <stop offset="1"/>
    </linearGradient>
    <linearGradient id="f" x1="18.8" y1="10.9" x2="16.8" y2="15.7" gradientUnits="userSpaceOnUse">
      <stop offset=".1"/>
      <stop offset=".4"/>
      <stop offset=".8"/>
    </linearGradient>
    <linearGradient id="g" x1="21.2" y1="10.5" x2="23.5" y2="6.3" gradientUnits="userSpaceOnUse">
      <stop offset="0"/>
      <stop offset="1"/>
    </linearGradient>
    <linearGradient id="h" x1="19.3" y1="10.6" x2="19.4" y2="10.2" gradientUnits="userSpaceOnUse">
      <stop/>
      <stop offset=".1"/>
      <stop offset=".1"/>
      <stop offset=".6"/>
      <stop offset=".8"/>
      <stop offset=".9"/>
    </linearGradient>
    <linearGradient id="i" x1="14.7" y1="12.1" x2="15.1" y2="12.1" gradientUnits="userSpaceOnUse">
      <stop/>
      <stop offset=".5"/>
      <stop offset=".5"/>
      <stop offset=".5"/>
      <stop offset="1"/>
    </linearGradient>
    <linearGradient id="j" x1="11.5" y1="25.7" x2="11.5" y2="25.7" gradientUnits="userSpaceOnUse">
      <stop/>
      <stop offset=".2"/>
      <stop offset="1"/>
    </linearGradient>
    <linearGradient id="k" x1="9.1" y1="12.5" x2="8.6" y2="14.1" gradientUnits="userSpaceOnUse">
      <stop offset="0"/>
      <stop offset=".4"/>
      <stop offset=".8"/>
    </linearGradient>
    <linearGradient id="l" x1="11.8" y1="16.9" x2="6.2" y2="10.7" gradientUnits="userSpaceOnUse">
      <stop offset=".4"/>
      <stop offset=".4"/>
      <stop offset=".4"/>
      <stop offset=".9"/>
      <stop offset=".9"/>
    </linearGradient>
    <linearGradient id="m" x1="22" y1="25.1" x2="22.1" y2="25.2" gradientUnits="userSpaceOnUse">
      <stop/>
      <stop offset="1"/>
    </linearGradient>
    <linearGradient id="n" x1="24.2" y1="17.3" x2="25.9" y2="8.9" gradientUnits="userSpaceOnUse">
      <stop offset=".4"/>
      <stop offset=".4"/>
      <stop offset=".4"/>
      <stop offset=".6"/>
      <stop offset=".6"/>
    </linearGradient>
  </defs>
</svg>
