<svg xmlns="http://www.w3.org/2000/svg" width="64" height="64" viewBox="0 0 32 32" fill="none"><path d="M17.6 28l8.7-5.6h.1l-8.8 5.7v-.2z" fill="url(#Parcel_Paint0_lLnear)"/><path d="M17.6 28l-12-4.4v-.1l12 4.4v.2z" fill="url(#Parcel_Paint1_lLnear)"/><path d="M30.1 6.7L28.8 9l-5.6 2.4-.3.1-5 4.7-.2.3c0-.1 0-.2-.3-.3L15 14.5l-1.8-1.1L8 12l-4.3-1L1 6.6 11.2 4l3.5 5.2.1.1.1.3v-.1l.1-.1a.8.8 0 0 1 0-.2l3.2-4.6 12 2v.1z" fill="#E8B57E"/><path d="M15 14.5L13 13.4 8 12l6.9-2.4v5z" fill="url(#Parcel_Paint2_lLnear)"/><path d="M14.9 9.6l-7 2.4-.5-.1-3.7-1L1 6.7 11.2 4l3.5 5.2.1.1.1.3z" fill="url(#Parcel_Paint3_lLnear)"/><path d="M15 9.8l-6.6 2.3-1-.2 7.3-2.7.1.1.1.3v.2z" fill="url(#Parcel_Paint4_lLnear)"/><path d="M3.8 11h-.1L1 6.6 3.8 11z" fill="#D1A578"/><path d="M23.2 11.4l-.3.1-5 4.7-.2.3c0-.1 0-.2-.3-.3L15 14.5v-5l8.3 1.9z" fill="url(#Parcel_Paint5_lLnear)"/><path d="M30.1 6.7L28.8 9l-5.1 2.2-.5.2L15 9.6a.8.8 0 0 1 0-.4l3.2-4.6 12 2v.1z" fill="url(#Parcel_Paint6_lLnear)"/><path d="M23.7 11.2l-.8.3-.1.1-7.9-1.7v-.3l.1-.3 8.7 1.9z" fill="url(#Parcel_Paint7_lLnear)"/><path opacity=".8" d="M15.1 9.6v5H15l-.2-.2V9.6h.4z" fill="url(#Parcel_Paint8_lLnear)"/><path d="M17.5 28l-12-4.5v-.2l-.6-10.2v-.2L0 10l13.1 3.3 4.3 2.8c.2 0 .2.2.2.3h.1l.2-.3 5-4.7 9-3.8h.1L27.1 12l-.1.3-.5 10-.1.1-8.8 5.6z" fill="#BF9064"/><path d="M17.7 16.5L17.6 28l-12-4.5-.1-.2-.6-10.2 12.7 3.4z" fill="#BE8F63"/><path opacity=".5" d="M17.6 28l-12-4.5-.1-.1 12 4.6z" fill="url(#Parcel_Paint9_lLnear)"/><path d="M12.2 21v4.4l4.6 1.6v-4.5L12.2 21zm0 0l2.2.8v2.1l-2.1-.7V21zm.1 4.3v-2l2.1.7v2l-2.1-.7zm4.5 1.6l-2.3-.8v-2l2.3.7V27zm0-2.2l-2.3-.8v-2l2.3.6v2.2z" fill="#322212"/><path d="M16.3 24.4l-1.4-.5v-.2l1.4.4v.3zM15.1 23.7h.2v-.9h.3l-.4-.6-.3.5h.2v1z" fill="#322212"/><path d="M15.8 24h.3v-1l.2.1-.3-.6-.4.4h.2v1zM15.2 24.7H15l1 1.6-1-1.6z" fill="#322212"/><path d="M16 25l-.9.9 1-.8zM15 24.9v.8h.1V25zM16.1 25.3v.8-.8z" fill="#322212"/><path d="M15.4 25l.2.3.3-.2-.5-.1zM16 25.4v.5l-.3-.3.3-.2zM15.9 26h-.5l.2-.3.3.4zM15.3 25.6v-.5l.2.4-.2.1zM14.6 25h.1V25l.3.4-.3.2V25zM16.6 26v-.2h-.1v-.3l-.3.2.3.4V26h.1zM13.3 24.1v1.3l-.1-.1H13l.1.2h.2V24z" fill="#322212"/><path d="M12.7 24.5c.2-.6 1-.4 1.4.5-.1-.2-.2-.2-.3-.2h-.3c0-.2-.2-.2-.3-.1 0-.1-.1-.2-.2-.1-.1-.2-.2-.2-.3-.1zM13.8 24.2h-.1zM13.9 24h-.1zM13.5 24zM13.2 23.9H13v0zM12.8 23.1l1 .4-.4-.3v-.5c.3.1.5-.1.5-.3v-.5l-.9-.3v.3l.1.6-.2-.7v-.3h-.2v.5c0 .2.2.6.5.6v.5h-.4z" fill="#322212"/><path d="M17.7 16.5l-.1.1-12.7-3.5v-.2L0 10l13.1 3.3 4.3 2.8a.3.3 0 0 1 .2.3z" fill="url(#Parcel_Paint10_Linear)"/><path d="M12 17.6v-2.5c0-.1 0-.3-.2-.3L7.2 12l-2.1-.6 4.7 2.8v.3L10 17l2 .6z" fill="url(#Parcel_Paint11_Linear)"/><path d="M17.7 16.5l-.1.1c0-.1 0-.3-.2-.3l-4.3-2.8v-.1l4.3 2.8a.3.3 0 0 1 .2.3z" fill="#D4A271"/><path d="M13.1 13.4L0 10.2l13.1 3.3z" fill="#DEB37E"/><path d="M27 12.3l-.5 10-.1.1-8.8 5.6V16.5h.1l9.3-4.2z" fill="#DBAC76"/><path opacity=".5" d="M26.5 22.3l-.1.1-8.8 5.6 8.9-5.7z" fill="url(#Parcel_Paint12_Linear)"/><path d="M23.4 19.6l-.2 4.2 3-1.8.1-4-3 1.6zm0 0l1.5-.8-.1 2-1.5.9.1-2zm-.1 4.1v-2l1.5-.8-.1 2-1.4.8zM26 22l-1.4.8.1-2 1.4-.8-.1 2zm.1-2l-1.4.8.1-2 1.4-.8-.1 2z" fill="#322212"/><path d="M26 20l-.9.5v-.3l.8-.5v.3z" fill="#322212"/><path d="M25.2 20.1h.2v-1h.1l-.1-.4-.3.6h.2v.8zM25.7 19.8h.1v-.9h.2l-.2-.4-.2.6.1-.1v.8zM25.7 21.9l-.5-.8.6.7zM25.2 22.2l.6-1.5-.6 1.5zM25.1 21.3v.7l.1-.8zM25.8 20.9v.7-.7zM25.3 21.1l.2.2.1-.4-.3.2zM25.7 21v.6l-.1-.2.1-.3zM25.6 21.8l-.3.2.2-.4.1.2zM25.2 21.8v-.5l.2.2-.2.3zM24.9 21.7v-.2l.2.2-.2.3V21.7zM26 21.2V20.9l-.2.3.2.2v-.2zM24 21.8v1.4l-.1-.1c-.1.1 0 .1 0 .1l.1-.2v-1.3z" fill="#322212"/><path d="M23.6 22.6c.1-.7.7-1.2.9-.5h-.2s-.2 0-.2.2H24l-.1.2-.2.1zM24.3 21.5v0zM24.4 21.2v0zM24.2 21.5v0z" fill="#322212"/><path d="M24 21.7l-.1.1v-.1zM23.7 21.2l.7-.4h-.3v-.4c.3-.2.4-.5.4-.6v-.6l-.6.4v.7-.7l-.2.1v.5c0 .2.1.4.3.3v.4l-.3.3z" fill="#322212"/><path d="M27.1 12l-.1.3-9.2 4.3-.1-.1v-.1a.7.7 0 0 1 .2-.2l5-4.7 9-3.8h.1L27.1 12z" fill="#CE9C6B"/><path d="M23 11.6l-5 4.6-.2.4-.1-.1v-.1l.2-.2 5-4.7v.1z" fill="#D7A977"/><path d="M21.9 17.2l1.5-.8V14l.2-.4 5-4.4-1.5.6-5 4.5-.2.4v2.5z" fill="url(#Parcel_Paint13_Linear)"/><path d="M23 11.6l9-3.9-9.1 3.8v.1z" fill="#F8CE92"/><defs><linearGradient id="Parcel_Paint0_lLnear" x1="22" y1="25.1" x2="22" y2="25.3" gradientUnits="userSpaceOnUse"><stop/><stop offset="1"/></linearGradient><linearGradient id="Parcel_Paint1_lLnear" x1="11.6" y1="25.7" x2="11.5" y2="25.8" gradientUnits="userSpaceOnUse"><stop/><stop offset="1"/></linearGradient><linearGradient id="Parcel_Paint2_lLnear" x1="12.7" y1="11.3" x2="15.1" y2="12.3" gradientUnits="userSpaceOnUse"><stop offset=".4"/><stop offset=".4"/><stop offset=".6"/><stop offset=".8"/></linearGradient><linearGradient id="Parcel_Paint3_lLnear" x1="9.8" y1="10.8" x2="6.7" y2="6.4" gradientUnits="userSpaceOnUse"><stop/><stop offset="1"/></linearGradient><linearGradient id="Parcel_Paint4_lLnear" x1="11.2" y1="11" x2="11.1" y2="10.5" gradientUnits="userSpaceOnUse"><stop offset=".1"/><stop offset=".1"/><stop offset=".3"/><stop offset=".5"/><stop offset=".7"/><stop offset=".9"/><stop offset="1"/></linearGradient><linearGradient id="Parcel_Paint5_lLnear" x1="18.8" y1="10.9" x2="16.8" y2="15.7" gradientUnits="userSpaceOnUse"><stop offset=".1"/><stop offset=".4"/><stop offset=".8"/></linearGradient><linearGradient id="Parcel_Paint6_lLnear" x1="21.2" y1="10.5" x2="23.5" y2="6.3" gradientUnits="userSpaceOnUse"><stop offset="0"/><stop offset="1"/></linearGradient><linearGradient id="Parcel_Paint7_lLnear" x1="19.3" y1="10.6" x2="19.4" y2="10.2" gradientUnits="userSpaceOnUse"><stop/><stop offset=".1"/><stop offset=".1"/><stop offset=".6"/><stop offset=".8"/><stop offset=".9"/></linearGradient><linearGradient id="Parcel_Paint8_lLnear" x1="14.7" y1="12.1" x2="15.1" y2="12.1" gradientUnits="userSpaceOnUse"><stop/><stop offset=".5"/><stop offset=".5"/><stop offset=".5"/><stop offset="1"/></linearGradient><linearGradient id="Parcel_Paint9_lLnear" x1="11.5" y1="25.7" x2="11.5" y2="25.7" gradientUnits="userSpaceOnUse"><stop/><stop offset=".2"/><stop offset="1"/></linearGradient><linearGradient id="Parcel_Paint10_Linear" x1="9.1" y1="12.5" x2="8.6" y2="14.1" gradientUnits="userSpaceOnUse"><stop offset="0"/><stop offset=".4"/><stop offset=".8"/></linearGradient><linearGradient id="Parcel_Paint11_Linear" x1="11.8" y1="16.9" x2="6.2" y2="10.7" gradientUnits="userSpaceOnUse"><stop offset=".4"/><stop offset=".4"/><stop offset=".4"/><stop offset=".9"/><stop offset=".9"/></linearGradient><linearGradient id="Parcel_Paint12_Linear" x1="22" y1="25.1" x2="22.1" y2="25.2" gradientUnits="userSpaceOnUse"><stop/><stop offset="1"/></linearGradient><linearGradient id="Parcel_Paint13_Linear" x1="24.2" y1="17.3" x2="25.9" y2="8.9" gradientUnits="userSpaceOnUse"><stop offset=".4"/><stop offset=".4"/><stop offset=".4"/><stop offset=".6"/><stop offset=".6"/></linearGradient></defs></svg>