<svg fill="none" xmlns="http://www.w3.org/2000/svg" viewBox="0 0 400 400">
  <path fill="#324D5B" d="M0 0h400v400H0z"/>
  <path d="M136.44 221.56c-12.88 3.65-21.34 10.06-26.9 16.47 5.33-4.67 12.47-8.95 22.11-11.68 9.86-2.8 18.27-2.78 25.22-1.44v-5.43a55.62 55.62 0 0 0-20.43 2.08zm-27.5-45.68-47.85 12.6s.87 1.24 2.49 2.88l40.57-10.7s-.57 7.42-5.57 14.05c9.45-7.15 10.37-18.83 10.37-18.83zM149 288.35C81.66 306.49 46.03 228.44 35.24 187.93c-4.98-18.7-7.16-32.86-7.74-42-.06-.95-.03-1.75.03-2.48-3.49.2-5.16 2.02-4.82 7.27.58 9.13 2.75 23.3 7.74 42 10.78 40.5 46.42 118.55 113.76 100.41 14.66-3.94 25.67-11.14 33.94-20.32-7.62 6.88-17.16 12.3-29.15 15.54zm12.66-160.24v4.8h26.42c-.55-1.7-1.1-3.23-1.63-4.8h-24.79z" fill="#2D4552"/>
  <path d="M193.98 167.58c11.88 3.38 18.16 11.7 21.49 19.08l13.24 3.76s-1.8-25.8-25.14-32.42c-21.83-6.2-35.26 12.12-36.9 14.5 6.35-4.53 15.63-8.23 27.31-4.92zm105.44 19.2c-21.85-6.23-35.28 12.14-36.88 14.47 6.35-4.51 15.62-8.22 27.3-4.89 11.86 3.38 18.14 11.7 21.47 19.08l13.26 3.77s-1.83-25.8-25.15-32.43zm-13.16 68.01L176.07 224s1.2 6.05 5.77 13.88l92.78 25.94c7.63-4.42 11.64-9.02 11.64-9.02zm-76.4 66.31c-87.24-23.39-76.7-134.56-62.58-187.24 5.82-21.7 11.8-37.84 16.75-48.66-2.96-.6-5.4.95-7.83 5.87-5.26 10.68-11.99 28.05-18.5 52.38-14.11 52.68-24.66 163.84 62.58 187.23 41.13 11.02 73.16-5.73 97.04-32.02-22.67 20.53-51.6 32.04-87.45 22.44z" fill="#2D4552"/>
  <path d="M161.66 262.3v-22.44l-62.33 17.68s4.6-26.76 37.11-35.98c9.86-2.8 18.27-2.78 25.22-1.44v-92.01h31.2c-3.39-10.5-6.68-18.58-9.44-24.2-4.56-9.3-9.25-3.13-19.88 5.76-7.48 6.25-26.4 19.6-54.87 27.26-28.47 7.68-51.5 5.64-61.1 3.98-13.61-2.35-20.73-5.34-20.07 5.02.58 9.13 2.76 23.3 7.74 42 10.79 40.5 46.42 118.55 113.77 100.41 17.6-4.74 30-14.1 38.62-26.05h-25.97zM61.08 188.48l47.87-12.6s-1.4 18.4-19.34 23.14c-17.95 4.72-28.53-10.54-28.53-10.54z" fill="#E2574C"/>
  <path d="M341.79 129.17c-12.44 2.19-42.3 4.9-79.18-4.98-36.9-9.89-61.37-27.17-71.07-35.3-13.75-11.5-19.8-19.51-25.75-7.4-5.26 10.67-12 28.05-18.5 52.38-14.12 52.67-24.67 163.84 62.58 187.23 87.22 23.37 133.66-78.18 147.77-130.86 6.52-24.32 9.37-42.74 10.16-54.62.9-13.45-8.35-9.54-26.01-6.45zm-175.3 43.59s13.76-21.39 37.07-14.76c23.34 6.63 25.15 32.43 25.15 32.43l-62.21-17.67zm56.93 95.95C182.4 256.7 176.08 224 176.08 224l110.18 30.8s-22.24 25.79-62.84 13.92zm38.96-67.21s13.73-21.37 37.04-14.73c23.32 6.64 25.15 32.44 25.15 32.44l-62.2-17.72z" fill="#2EAD33"/>
  <path d="m139.88 246.04-40.55 11.5s4.4-25.1 34.28-35.04l-22.96-86.17-1.99.6c-28.47 7.68-51.49 5.64-61.09 3.98-13.61-2.35-20.74-5.34-20.07 5.02.58 9.13 2.76 23.3 7.74 42C46.02 228.43 81.66 306.48 149 288.34l1.99-.62-11.11-41.68zm-78.8-57.55 47.87-12.61s-1.4 18.4-19.34 23.14c-17.95 4.72-28.53-10.53-28.53-10.53z" fill="#D65348"/>
  <path d="m225.27 269.16-1.86-.45C182.4 256.7 176.07 224 176.07 224l56.82 15.88 30.08-115.59-.36-.1c-36.9-9.88-61.38-27.16-71.08-35.28-13.75-11.52-19.8-19.52-25.75-7.41-5.25 10.67-11.98 28.05-18.5 52.38-14.1 52.67-24.66 163.84 62.59 187.23l1.78.4 13.62-52.34zm-58.77-96.4s13.75-21.39 37.06-14.76c23.34 6.63 25.15 32.43 25.15 32.43l-62.21-17.67z" fill="#1D8D22"/>
  <path d="m141.95 245.45-10.88 3.09c2.57 14.48 7.1 28.38 14.2 40.66 1.24-.28 2.47-.51 3.73-.86 3.3-.89 6.36-2 9.31-3.2-7.94-11.78-13.2-25.35-16.36-39.69zm-4.25-102c-5.59 20.86-10.59 50.88-9.21 80.99a62.89 62.89 0 0 1 7.95-2.89l2.02-.45c-2.46-32.16 2.85-64.94 8.82-87.23a435.64 435.64 0 0 1 4.55-15.79 141.16 141.16 0 0 1-8.05 4.79 413.23 413.23 0 0 0-6.08 20.58z" fill="#C04B41"/>
</svg>
