<svg viewBox="0 0 400 400" fill="none" xmlns="http://www.w3.org/2000/svg">
  <path d="M136.4 221.6a54.3 54.3 0 0 0-26.9 16.4c5.4-4.6 12.5-9 22.2-11.7a54 54 0 0 1 25.2-1.4v-5.4c-6-.6-12.8-.1-20.5 2ZM109 175.9l-47.8 12.6s.9 1.2 2.5 2.9l40.6-10.7s-.6 7.4-5.6 14c9.4-7.1 10.3-18.8 10.3-18.8ZM149 288.3C81.7 306.5 46 228.4 35.2 188a227 227 0 0 1-7.7-44.5c-3.5.3-5.1 2-4.8 7.3.6 9.2 2.8 23.3 7.7 42C41.2 233.2 77 311.3 144.2 293.1a68.4 68.4 0 0 0 34-20.3 69.8 69.8 0 0 1-29.2 15.5Zm12.7-160.2v4.8H188l-1.7-4.8h-24.7Z" fill="#2D4552"/>
  <path d="M194 167.6a33 33 0 0 1 21.5 19l13.2 3.8s-1.8-25.8-25.1-32.4c-21.9-6.2-35.3 12.1-37 14.5a31 31 0 0 1 27.4-5Zm105.4 19.2c-21.8-6.3-35.3 12.1-36.9 14.5a31 31 0 0 1 27.3-5 33.1 33.1 0 0 1 21.5 19.1l13.3 3.8s-1.9-25.8-25.2-32.4Zm-13.1 68L176 224s1.2 6 5.7 13.9l92.8 26c7.7-4.5 11.7-9.1 11.7-9.1ZM209.9 321c-87.3-23.4-76.7-134.6-62.6-187.2A315.7 315.7 0 0 1 164 85.2c-3-.6-5.4 1-7.8 5.9a296 296 0 0 0-18.5 52.3c-14.1 52.7-24.7 163.9 62.6 187.3 41.1 11 73.1-5.7 97-32-22.6 20.5-51.6 32-87.4 22.4Z" fill="#2D4552"/>
  <path d="M161.7 262.3v-22.4l-62.4 17.6s4.6-26.7 37.1-36a54 54 0 0 1 25.3-1.4v-92h31.2a187 187 0 0 0-9.5-24.2c-4.5-9.3-9.2-3.1-19.9 5.8a148 148 0 0 1-54.8 27.2 147.3 147.3 0 0 1-61.1 4c-13.6-2.3-20.8-5.3-20.1 5 .6 9.2 2.8 23.3 7.7 42C46 228.4 81.7 306.5 149 288.3a67.7 67.7 0 0 0 38.6-26h-26ZM61 188.5l47.8-12.6s-1.3 18.4-19.3 23.1c-18 4.7-28.5-10.5-28.5-10.5Z" fill="#E2574C"/>
  <path d="M341.8 129.2a190.6 190.6 0 0 1-79.2-5 190.5 190.5 0 0 1-71-35.3c-13.8-11.5-19.9-19.5-25.8-7.4-5.3 10.7-12 28-18.5 52.4-14.1 52.6-24.7 163.8 62.6 187.2 87.2 23.4 133.6-78.2 147.7-130.9 6.6-24.3 9.4-42.7 10.2-54.6.9-13.4-8.3-9.5-26-6.4Zm-175.3 43.6s13.7-21.4 37-14.8c23.4 6.6 25.2 32.4 25.2 32.4l-62.2-17.6Zm57 96C182.3 256.6 176 224 176 224l110.2 30.8s-22.3 25.8-62.9 14Zm38.9-67.3s13.7-21.4 37-14.7c23.3 6.6 25.2 32.4 25.2 32.4l-62.2-17.7Z" fill="#2EAD33"/>
  <path d="m139.9 246-40.6 11.5s4.4-25 34.3-35l-23-86.2-2 .6a147.3 147.3 0 0 1-61 4c-13.6-2.3-20.8-5.3-20.1 5 .6 9.2 2.8 23.3 7.7 42C46 228.4 81.7 306.5 149 288.3l2-.6-11.1-41.7ZM61 188.5l47.8-12.6s-1.3 18.4-19.3 23.1c-18 4.7-28.5-10.5-28.5-10.5Z" fill="#D65348"/>
  <path d="m225.3 269.2-1.9-.5c-41-12-47.3-44.7-47.3-44.7l56.8 15.9 30-115.6-.3-.1a190.5 190.5 0 0 1-71-35.3c-13.8-11.5-19.9-19.5-25.8-7.4-5.3 10.7-12 28-18.5 52.4-14.1 52.6-24.7 163.8 62.6 187.2l1.8.4 13.6-52.3Zm-58.8-96.4s13.7-21.4 37-14.8c23.4 6.6 25.2 32.4 25.2 32.4l-62.2-17.6Z" fill="#1D8D22"/>
  <path d="m142 245.5-11 3c2.6 14.5 7.2 28.4 14.3 40.7l3.7-.9c3.3-.8 6.4-2 9.3-3.2-8-11.7-13.2-25.3-16.4-39.6Zm-4.3-102a277.9 277.9 0 0 0-9.2 81c2.5-1.1 5-2.1 8-3l2-.4a273.4 273.4 0 0 1 13.3-103l-8 4.8c-2 6.2-4 13-6.1 20.6Z" fill="#C04B41"/>
</svg>