<svg viewBox="0 0 512 88" xmlns="http://www.w3.org/2000/svg" preserveAspectRatio="xMidYMid">
  <path d="M260.758 1.132h19.024c16.046 23.129 32.634 47.543 49.373 71.673 16.687-24.07 32.718-48.263 48.953-71.682h19.034V87.26h-12.545V13.49l-50.711 73.77-9.688-.016-50.675-73.753-.121 73.769h-12.644V1.132" fill="white"/>
  <path d="M428.069 32.504s-7.796.087-10.865.087c-1.84-21.728 4.276-29.356 22.175-30.835 19.529-.705 33.722-.398 51.405-.003 13.119 1.02 19.025 6.152 20.724 19.225.537 4.137.59 8.403.3 12.569-.854 12.203-6.437 18.15-18.669 19.329-14.632 1.412-29.316 2.28-43.972 3.467-4.006.325-8.039.695-11.967 1.494-7.31 1.487-10.027 3.185-10.358 10.5-.118 2.607.15 6.247.15 9.464h84.832l.089 9.46h-95.075c.105-7.258-.574-15.375.49-22.635 1.459-9.942 8.076-14.783 17.308-16.422 15.2-2.698 30.668-2.594 45.992-4.031a183.4 183.4 0 0 0 10.932-1.338c2.263-.352 3.675-.06 5.984-2.534 4.293-2.453 3.692-14.28 2.628-21.99-1.327-5.664-6.8-8.043-12.161-8.244-15.753-.593-31.52-.622-47.27.027-7.796.322-11.838 4.87-12.504 13.436-.227 2.916-.168 8.974-.168 8.974" fill="#3cb2ea"/>
  <path d="M151.568 11.17 151.61.876s50.56-.018 73.156 0c15.041.013 21.78 6.647 22.054 21.73.086 4.72-.058 9.42-.66 14.134-1.238 9.695-6.293 14.973-16.072 16.542-6.451 1.033-12.928.596-19.394.626-15.566.072-31.133.023-47.38.023v33.33h-11.678V43.63s44.333.27 63.597.025c14.729-.188 20.686-1.319 18.484-21.473-.859-7.86-3.749-10.575-12.037-10.75-13.831-.295-70.113-.263-70.113-.263M64.34 87.713c-18.193 0-36.387.045-54.58-.022-6.397-.023-9.776-3.752-8.792-9.463.897-5.206 4.493-6.465 9.225-6.457 33.063.06 66.128.031 99.191.031 3.499 0 7-.08 10.495.02 5.347.152 8.428 3.081 8.486 7.897.059 4.799-2.99 7.921-8.394 7.952-18.542.104-37.087.04-55.63.042" fill="white"/>
  <path d="M64.34 53.807c-18.193.001-36.387.046-54.58-.022-6.397-.023-9.776-3.752-8.792-9.463.897-5.206 4.493-6.464 9.225-6.456 33.063.06 66.128.03 99.191.03 3.499 0 7-.08 10.495.02 5.347.153 8.428 3.082 8.486 7.897.059 4.8-2.99 7.922-8.394 7.952-18.542.104-37.087.04-55.63.042" fill="#3cb2ea"/>
  <path d="M64.34 18.062c-18.193.001-36.387.045-54.58-.022-6.397-.023-9.776-3.752-8.792-9.463.897-5.206 4.493-6.465 9.225-6.456 33.063.058 66.128.03 99.191.03 3.499 0 7-.079 10.495.02 5.347.152 8.428 3.081 8.486 7.897.059 4.799-2.99 7.921-8.394 7.952-18.542.104-37.087.04-55.63.042" fill="white"/>
</svg>
