<svg fill="none" xmlns="http://www.w3.org/2000/svg" viewBox="30 0 145 100">
  <path fill-rule="evenodd" clip-rule="evenodd" fill="#FFE69D" d="M111.56.01c-3.91.2-7.7 1.33-10.94 3.26a18.77 18.77 0 0 0-3.54 2.47c-1.2 1.04-2.99 3-3.64 4l-.2.3-.22-.18-.9-.69a17.9 17.9 0 0 0-24.79 3.06c-.44.56-.44.56-1.28.9a34.6 34.6 0 0 0-21.22 29.23 34.4 34.4 0 0 0 19.09 33.66A33.53 33.53 0 0 0 76 79.42c1.02.1 1.14.13 1.26.27a39.5 39.5 0 0 0 4.49 4.63 35 35 0 0 0 3.58 2.6l.89.55 5.85 5.84c6.03 6.02 6.28 6.24 7.29 6.7.23.1.7.27 1.04.37.56.17.73.2 1.77.19.96 0 1.26-.02 1.72-.15a8.12 8.12 0 0 0 2.05-.93c.26-.17 2.43-2.28 5.83-5.68l5.42-5.4 1.12-.62a32.35 32.35 0 0 0 12.2-12.06c.29-.53.3-.54.99-.91a32.64 32.64 0 0 0 8.03-6 33.42 33.42 0 0 0 9.55-27 33.38 33.38 0 0 0-13.03-23.36l-.4-.3-.23-.85a24.2 24.2 0 0 0-4.73-8.92A23.59 23.59 0 0 0 111.56.01z"/>
  <path d="M111.56.01c-3.91.2-7.7 1.33-10.94 3.26a18.77 18.77 0 0 0-3.54 2.47c-1.2 1.04-2.99 3-3.64 4l-.2.3-.22-.18-.9-.69a17.9 17.9 0 0 0-24.79 3.06c-.44.56-.44.56-1.28.9a34.6 34.6 0 0 0-21.22 29.23 34.4 34.4 0 0 0 19.09 33.66A33.53 33.53 0 0 0 76 79.42c1.02.1 1.14.13 1.26.27a39.5 39.5 0 0 0 4.49 4.63 35 35 0 0 0 3.58 2.6l.89.55 5.85 5.84c6.03 6.02 6.28 6.24 7.29 6.7.23.1.7.27 1.04.37.56.17.73.2 1.77.19.96 0 1.26-.02 1.72-.15a8.12 8.12 0 0 0 2.05-.93c.26-.17 2.43-2.28 5.83-5.68l5.42-5.4 1.12-.62a32.35 32.35 0 0 0 12.2-12.06c.29-.53.3-.54.99-.91a32.64 32.64 0 0 0 8.03-6 33.42 33.42 0 0 0 9.55-27 33.38 33.38 0 0 0-13.03-23.36l-.4-.3-.23-.85a24.2 24.2 0 0 0-4.73-8.92A23.59 23.59 0 0 0 111.56.01zm3.6 5.35a18.65 18.65 0 0 1 15.56 14.54c.27 1.16.48 1.45 1.73 2.37a28.86 28.86 0 0 1 7.72 8.53 28.57 28.57 0 0 1 3.76 17.4 28.24 28.24 0 0 1-7.87 16.73c-.9.91-2.44 2.33-2.49 2.27a4.7 4.7 0 0 1 .06-.7c.12-1.09-.1-1.83-.75-2.44a2.53 2.53 0 0 0-4.07.78c-.1.22-.22.73-.3 1.2-.3 2.26-1.93 6.33-3.37 8.5a27.27 27.27 0 0 1-19.21 12c-1.1.14-4.37.2-5.6.1a27 27 0 0 1-16.12-7.1 21.82 21.82 0 0 1-6.1-9.51c-.26-.94-.34-1.33-.48-2.38-.12-1.02-.37-1.58-.88-2.03-.46-.4-.9-.59-1.5-.63a2.51 2.51 0 0 0-2.67 1.93c-.1.39-.1.56-.03 1.26.16 1.62.6 3.42 1.22 5 .16.4.28.74.27.74a29.23 29.23 0 0 1-23.42-22.4 29.5 29.5 0 0 1 5.73-24.81c1-1.26 3.18-3.44 4.43-4.44.99-.8 2.23-1.68 2.28-1.63.01.01-.03.48-.1 1.03-.1.85-.1 1.2-.03 2.07.05.58.13 1.22.2 1.41a2.6 2.6 0 0 0 1.83 1.68c1.13.28 2.37-.3 2.9-1.39.17-.35.18-.42.18-1.88 0-1.2.03-1.65.13-2.14.36-1.7 1.2-3.37 2.5-5 .25-.3.61-.78.82-1.05a12.61 12.61 0 0 1 19-.69l.3.33-.17.58c-.42 1.4-.67 3.14-.68 4.67 0 2.97.72 5.8 2.27 8.9.72 1.45 1.43 1.99 2.6 2 .48 0 .65-.03 1-.2.77-.35 1.2-.83 1.43-1.6.26-.84.2-1.19-.54-2.71-1.26-2.63-1.7-4.46-1.61-6.75.1-2.37.76-4.35 2.2-6.5a18.43 18.43 0 0 1 7.2-6.3c.6-.28 1.4-.64 1.8-.79 1.3-.49 3.14-.9 4.62-1.05.89-.09 3.38-.03 4.26.1z" fill="#C83B50"/>
  <path fill-rule="evenodd" clip-rule="evenodd" d="M115.07 49.9c-.8.2-1.35.54-1.97 1.16-.9.9-1.3 1.85-1.3 3.15a4.31 4.31 0 0 0 4.1 4.36 4 4 0 0 0 2.25-.42c.7-.34 1.5-1.09 1.87-1.73a4.5 4.5 0 0 0-.69-5.35 4.22 4.22 0 0 0-2.97-1.29c-.6-.02-.87 0-1.29.12zm-32.11.17a4.57 4.57 0 0 0-2.9 2.36 3.96 3.96 0 0 0-.44 1.98c0 1.18.43 2.22 1.26 3.06a4.38 4.38 0 0 0 6.26.04 4.42 4.42 0 0 0-1.17-7.1 5.84 5.84 0 0 0-1-.36c-.5-.1-1.53-.1-2.01.02zm5.9 14.08c0 .23.35 1.58.58 2.3 1.44 4.25 4.7 7.44 8.64 8.44 1.68.42 3.55.42 5.25 0 3.7-.93 6.88-3.88 8.39-7.79.38-.98.8-2.51.81-2.92 0-.06-2.42-.08-11.84-.08-6.5 0-11.83.03-11.83.05z" fill="#C83B50"/>
</svg>
