<svg viewBox="0 0 256 330" xmlns="http://www.w3.org/2000/svg" preserveAspectRatio="xMidYMid">
  <g fill-opacity=".9">
    <path d="M18.752 0 0 91.459l53.782 50.743-34.943 62.289L89.94 329.677h77.785l71.406-125.186-35.245-62.29 51.96-50.742L238.738 0 165.6 97.41H92.372L18.752 0z" fill="#6CCB94"/>
    <path d="m18.839 204.49 34.942-62.288 75.044 62.29-109.986-.001z" fill="#5DBD85"/>
    <path d="m53.782 142.203 75.044 62.29L92.371 97.41l-38.59 44.792z" fill="#64C48C"/>
    <path d="m239.13 204.49-35.246-62.288-75.056 62.29 110.302-.001z" fill="#6ECC95"/>
    <path d="M89.94 329.677h77.784l-38.897-125.186L89.94 329.677z" fill="#5EBE86"/>
    <path d="m203.884 142.203-75.056 62.29L165.599 97.41l38.285 44.792z" fill="#76D29C"/>
    <path d="m238.74 0 17.102 91.46-51.958 50.743-38.286-44.793L238.74 0z" fill="#74D09B"/>
    <path d="m128.825 204.49 38.9 125.187 71.405-125.186H128.825z" fill="#64C48C"/>
    <path d="M128.825 204.49 89.928 329.678 18.84 204.491h109.986z" fill="#58B880"/>
    <path d="M18.752 0 0 91.46l53.782 50.744L92.37 97.41 18.751 0z" fill="#5FBF87"/>
    <path d="m128.825 204.49 36.773-107.079H92.371l36.454 107.08z" fill="#6ECC95"/>
  </g>
</svg>
