<svg viewBox="0 0 256 383" xmlns="http://www.w3.org/2000/svg" preserveAspectRatio="xMidYMid">
  <path d="M253.4 214.2H2.2v-14.1c0-9.5 7.7-17.3 17.2-17.3h216.8c9.5 0 17.2 7.8 17.2 17.3v14.1z" fill="#DFDEDF"/>
  <path d="M236 378.6H19.6c-9.7 0-17.5-7.9-17.5-17.5V214.2h251.2v146.9c0 9.6-7.8 17.5-17.5 17.5" fill="#FFF"/>
  <path d="M250.3 211.4v-12.7c0-7.5-6-13.6-13.6-13.6H19.3c-7.5 0-13.6 6-13.6 13.6v12.7h244.6zm0 151.5V217H5.7v145.8c0 7.5 6 13.5 13.6 13.5h217.4c7.5 0 13.6-6 13.6-13.5zM20.6 179.4l.8-9.2-3.6 9.3h2.8zM234 163.8l1.2 15.6h1.5c.8 0 1.6 0 2.4.2l-5.1-15.8zm17.2 22.2c3 3.4 4.8 7.8 4.8 12.7v164.2c0 10.6-8.6 19.2-19.3 19.2H19.3A19.3 19.3 0 0 1 0 363V198.7c0-5.2 2-9.8 5.3-13.3l19.3-49.8L32.9 44l9.5.9-7.5 82.5 2.6 1-3.6 9.4-3.8 41.6h195.6L214.8 44.7l9.5-.8 6.4 79.5 20.5 62.6zm-230 8.4a4.3 4.3 0 1 1 0 8.6 4.3 4.3 0 0 1 0-8.6zm14.7 0a4.3 4.3 0 1 1 0 8.6 4.3 4.3 0 0 1 0-8.6zm14.2 0a4.3 4.3 0 1 1 0 8.6 4.3 4.3 0 0 1 0-8.6z"/>
  <path d="M36 287.7a5 5 0 0 0 1.1-3.3c0-1.4-.3-2.5-1-3.4-.9-.8-2-1.2-3.3-1.2h-6.9v9.2h6.9c1.4 0 2.4-.4 3.2-1.3zm-3.2-13.4c3 0 5.2.9 7 2.7 1.7 1.8 2.6 4.3 2.6 7.4 0 3-.9 5.5-2.6 7.4a9.3 9.3 0 0 1-7 2.7h-6.9V307h-5.3v-32.7h12.2zm28.5 20v-9.5H67v21.5h-5.7v-2a9.1 9.1 0 0 1-6.8 2.7c-2.6 0-4.6-1-6.2-2.6a9 9 0 0 1-2.4-6.5v-13.1h5.7v11.9c0 1.5.4 2.7 1.2 3.7a4 4 0 0 0 3.1 1.3c3.6 0 5.4-2.4 5.4-7.4zm28 6a6.4 6.4 0 0 0 1.6-4.7c0-2-.6-3.6-1.7-4.7A5.9 5.9 0 0 0 85 289a6 6 0 0 0-4.3 1.8 6.2 6.2 0 0 0-1.9 4.7 6 6 0 0 0 1.9 4.6 6 6 0 0 0 4.3 1.8c1.7 0 3.2-.6 4.3-1.8zM85.8 284c2.8 0 5.3 1.1 7.4 3.3 2.1 2.2 3.1 4.9 3.1 8.2 0 3.2-1 6-3.1 8.1a10 10 0 0 1-7.4 3.3 11 11 0 0 1-7.2-2.4v12H73v-31.8h5.7v1.7c2-1.6 4.3-2.4 7.2-2.4zm31 16.1a6.4 6.4 0 0 0 1.7-4.6c0-2-.5-3.6-1.7-4.7a5.9 5.9 0 0 0-4.3-1.8 6 6 0 0 0-4.3 1.8 6.2 6.2 0 0 0-1.9 4.7 6 6 0 0 0 1.9 4.6 6 6 0 0 0 4.3 1.8c1.7 0 3.2-.6 4.3-1.8zm-3.3-16c2.8 0 5.3 1 7.4 3.2 2.1 2.2 3.1 4.9 3.1 8.2 0 3.2-1 6-3.1 8.1a10 10 0 0 1-7.4 3.3 11 11 0 0 1-7.2-2.4v12h-5.7v-31.8h5.7v1.7c2-1.6 4.3-2.4 7.2-2.4zm19 8.9H143a5 5 0 0 0-2-3c-.8-.7-2-1-3.1-1-1.2 0-2.3.3-3.3 1s-1.7 1.7-2 3zm5.3-9c2.9 0 5.5 1 7.6 3 2 2.2 3.2 4.8 3.3 8v2h-16.4c.3 1.5 1 2.7 2 3.6a5 5 0 0 0 3.4 1.4c2.4 0 4.2-1 5.3-2.9l5.1 1.1c-.9 2.2-2.3 3.9-4 5-1.9 1-4 1.7-6.4 1.7-3.1 0-5.8-1.1-7.9-3.2a11.2 11.2 0 0 1-3.2-8.2c0-3.4 1.1-6.1 3.3-8.3 2-2.1 4.7-3.2 7.9-3.2zm26.6 17.5c1 0 2.3-.3 3.6-1l1.6 4.8c-2 1-3.8 1.6-5.6 1.6-2.6 0-4.7-.8-6.2-2.2-1.5-1.4-2.2-3.5-2.2-6.4v-9H151v-4.6h4.7v-6.5h5.6v6.5h7v4.6h-7v8.5c0 2.5 1 3.7 3.2 3.7zm12-8.5h10.4a5 5 0 0 0-2-3c-.8-.7-2-1-3.1-1-1.2 0-2.3.3-3.3 1s-1.7 1.7-2 3zm5.3-9c2.9 0 5.4 1 7.6 3 2 2.2 3.2 4.8 3.3 8v2h-16.4c.3 1.5 1 2.7 2 3.6a5 5 0 0 0 3.4 1.4c2.4 0 4.2-1 5.3-2.9l5.1 1.1c-.9 2.2-2.3 3.9-4 5-1.9 1-4 1.7-6.4 1.7-3.1 0-5.8-1.1-7.9-3.2a11.2 11.2 0 0 1-3.2-8.2c0-3.4 1.1-6.1 3.3-8.3 2-2.1 4.7-3.2 7.9-3.2zm20.2 9h10.5a5 5 0 0 0-2-3c-.9-.7-2-1-3.1-1-1.2 0-2.3.3-3.3 1s-1.7 1.7-2 3zm5.4-9c2.9 0 5.4 1 7.6 3 2 2.2 3.2 4.8 3.3 8v2h-16.4c.3 1.5 1 2.7 2 3.6a5 5 0 0 0 3.4 1.4c2.4 0 4.2-1 5.3-2.9l5.1 1.1c-.9 2.2-2.3 3.9-4 5-1.9 1-4 1.7-6.4 1.7-3.1 0-5.8-1.1-7.9-3.2a11.2 11.2 0 0 1-3.2-8.2c0-3.4 1.1-6.1 3.3-8.3 2-2.1 4.7-3.2 7.9-3.2zm28.6.4 1.5.1-.3 5.5H236c-5.2 0-7.7 3-7.7 9.3v7h-5.7v-21.6h5.7v3.9a9 9 0 0 1 7.7-4.2z"/>
  <path fill="#00D8A2" d="m211.1 132.6 30.7-14.8V103l-71-34 71-36.5V18.2L212.2 4.4 128 46.2 42.5 4.4 15 19.2V32l66.8 36.6-66.8 34v15.3l28.6 14.8 84.8-43.4z"/>
  <path d="M215 126.6v-6.4l23-12v7.2l-23 11.2zM16.8 108l22.4 13v5L17 114.8V108zm114.5-27 76.9 38v7.7l-77-39.4V81zm-85.5 39.2L124.7 81v6.3L46 127.2v-7zm55.8-64L22 17.8 42.6 7.2 128 51.5l84-44.3 21.4 11-77.8 39.2a4.2 4.2 0 0 0 0 7.5l77 38.6-20 10.3L128 70.4l-86.2 44.3-19.7-11.3L101.8 64c3.1-1.6 3-6.1 0-7.6zM17.8 30.9v-7L92.3 61l-7.5 3-67-33.1zm152.7 33.5-7.1-3.4L238 23.3v7l-67.6 34zM178 68l65.7-33c.6-.3 1-1 1-1.7V17.7a2 2 0 0 0-1-1.8L213 .2a2 2 0 0 0-1.8 0L129 42a2 2 0 0 1-1.7 0L43.4.2a2 2 0 0 0-1.7 0L11.3 15.6c-.7.4-1.1 1-1.1 1.8v15.9a2 2 0 0 0 1.1 1.7l66 32.6-65.7 32.6c-.7.3-1 1-1 1.7l-.4 15.6a2 2 0 0 0 1.1 1.8l31.5 16a2 2 0 0 0 1.8 0l82.6-41.5a2 2 0 0 1 1.7 0l81.6 41.5a2 2 0 0 0 1.7 0l31.4-15.2a2 2 0 0 0 1.1-1.8V102a2 2 0 0 0-1-1.7L178 68z"/>
</svg>
