<svg viewBox="0 0 256 306" xmlns="http://www.w3.org/2000/svg" preserveAspectRatio="xMidYMid">
  <path d="M21.971 25.115C35.864 10.021 55.79.372 76.406.06c15.773-.627 31.716 3.773 44.812 12.613 16.935 11.085 29.3 28.817 34.118 48.441 1.032 3.748.744 8.344 3.982 11.073 6.15 1.475 12.574.405 18.79 1.54 15.85 3.8 30.41 12.653 41.168 24.887a33.165 33.165 0 0 1 6.124 9.61c8.109 16.7 9.388 35.515 12.757 53.508 3.12 24.116 7.377 48.063 11.36 72.049 3.63 22.197 7.377 44.642 6.293 67.204-5.014-1.867-9.349-5.706-11.085-10.837-2.494-8.134-3.278-16.648-4.31-25.056-.391-3.552-3.342-6.96-7.155-6.568-5.536-.092-7.951 6.907-6.28 11.386 2.833 6.672 7.978 11.947 12.77 17.235 2.624 2.794 3.63 6.607 5.719 9.754 2.703 3.238 6.594 5.079 10.406 6.685-1.358.81-2.467 2.35-4.243 2.115-5.758.274-11.517-.04-17.275.052-7.077-.078-14.232.797-21.23-.679-9.793-24.325-21.035-48.037-31.73-71.983a2105.896 2105.896 0 0 0-16.072-35.933c-6.15-13.227-11.425-26.845-17.954-39.89-.966-4.57-3.656-8.447-5.418-12.704-2.703-6.672-5.72-13.24-9.166-19.56-17.118 31.964-33.505 64.307-50.074 96.544-13.932 27.747-29.117 54.892-41.9 83.213-12.992-.092-25.97-.392-38.962-.483 33.674-63.405 66.368-127.32 99.481-191.025 2.899-5.68 6.046-11.255 8.291-17.235-6.398 1.854-12.221 5.419-18.867 6.49-13.736 2.794-27.76-.131-40.62-5.12 16.216-14.884 39.34-20.473 60.898-19.402-1.815-5.81-4.427-11.399-8.2-16.204 4.478-8.134 11.673-14.062 18.658-19.938-10.119-1.188-18.802 5.615-25.004 12.861-3.852-2.637-7.926-4.922-12.143-6.894.692-7.364 3.93-14.01 7.351-20.434-8.187 1.933-13.03 9.832-15.394 17.353-5.132-.77-10.328-.849-15.512-.535-.9-5.81-.94-11.7-.405-17.55-6.437 3.892-6.241 12.379-6.293 18.986-4.831 1.763-9.44 4.06-13.854 6.685-2.611-4.008-4.53-8.383-6.463-12.744-3.199 5.628-.77 12.248 1.515 17.745a111.57 111.57 0 0 0-7.156 11.947c-3.42-1.723-6.737-3.63-10.093-5.484.927 4.805 4.061 8.657 8.109 11.23-1.123 5.026-1.593 10.144-1.632 15.276-3.421.313-6.855.522-10.29.849 2.808 3.016 6.856 3.72 10.76 4.047 1.005 4.113 2.22 8.187 3.708 12.156-2.128 2.076-4.27 4.126-6.307 6.294 2.912-.431 5.758-1.136 8.553-2.024 3.603 3.382 8.03 5.615 12.273 8.07-.209.992-.64 2.976-.848 3.969 1.423-.927 2.833-1.854 4.256-2.782 8.017 2.312 16.752 3.448 24.809.653 4.948-1.553 8.957-5.092 13.84-6.776-1.828 8.513-8.97 14.937-16.556 18.58-11.086 5.249-23.986 3.786-35.15-.405-7.638-2.206-13.788-7.651-18.867-13.553C6.55 110.117 1.132 98.365.166 86.039-1.296 63.882 6.97 41.397 21.971 25.115zM184.65 146.193c-.796 4.14-.64 8.54.731 12.535 3.63 10.028 14.22 14.69 23.033 19.233-.653-2.22-1.293-4.44-1.92-6.66-11.411-1.161-17.861-17.456-8.93-25.382-1.097-2.56-2.207-5.118-3.304-7.69-3.695 1.853-8.343 3.603-9.61 7.964zm14.833 6.933c-.927 4.649-.013 10.355 5.157 12-1.24-4.152-2.154-8.683-5.157-12z" fill="#ddd"/>
</svg>
