<svg viewBox="0 0 190 190" xmlns="http://www.w3.org/2000/svg">
  <g fill="none" fill-rule="evenodd">
    <path d="M150.28 61.34c3.09-14.98 3.75-26.47 1.75-34.81-1.19-4.96-3.36-9.01-6.66-11.93-3.5-3.08-7.9-4.6-12.86-4.6-8.18 0-16.78 3.73-25.97 10.8a118.25 118.25 0 0 0-11.67 10.44c-.32-.4-.69-.8-1.1-1.16-11.4-10.17-21.02-16.48-29.24-18.92-4.89-1.44-9.48-1.58-13.66-.18-4.41 1.49-7.93 4.55-10.4 8.85-4.1 7.09-5.18 16.4-3.66 27.9.63 4.69 1.69 9.8 3.2 15.33-.57.07-1.14.2-1.7.38-14.5 4.8-24.75 9.95-30.97 15.85-3.7 3.5-6.1 7.41-6.98 11.73-.92 4.56-.02 9.14 2.46 13.43 4.08 7.08 11.6 12.66 22.3 17.08 4.3 1.78 9.16 3.39 14.6 4.83a8.73 8.73 0 0 0-.57 1.78c-3.1 14.98-3.76 26.47-1.76 34.81 1.19 4.97 3.36 9.01 6.67 11.93 3.49 3.09 7.9 4.6 12.86 4.6 8.18 0 16.77-3.72 25.96-10.8 3.79-2.92 7.72-6.44 11.8-10.57a8.7 8.7 0 0 0 1.55 1.8c11.42 10.18 21.04 16.5 29.26 18.93 4.89 1.44 9.48 1.58 13.66.18 4.41-1.49 7.93-4.55 10.4-8.85 4.1-7.09 5.18-16.4 3.66-27.9a119.5 119.5 0 0 0-3.36-15.93c.62-.06 1.25-.2 1.87-.4 14.48-4.8 24.74-9.95 30.96-15.85 3.7-3.5 6.1-7.41 6.98-11.73.92-4.56.02-9.14-2.46-13.43-4.08-7.08-11.6-12.66-22.3-17.08a118.57 118.57 0 0 0-15.08-4.96c.2-.5.36-1 .47-1.55z" fill="#002C4B" fill-rule="nonzero"/>
    <path d="M91.73 120v6h-11.1a5 5 0 0 1-4.33-2.51l-2-3.49h17.44zm24.45 0-2 3.49a5 5 0 0 1-4.34 2.51h-11.1v-6h17.44zm-24.45-14v7H70.28l-4.02-7h25.47zm32.48 0-4.01 7H98.73v-7h25.48zM91.75 92v7h-29.5l-.58-1.01a5 5 0 0 1 0-4.98l.58-1.01h29.5zm36.5 0 .57 1.01a5 5 0 0 1 0 4.98l-.58 1.01h-29.5v-7h29.5zm-36.5-14v7h-25.5l4.02-7h21.45zm28.46 0 4.02 7h-25.5v-7h21.46zM91.73 65v6H74.3l2-3.49A5 5 0 0 1 80.64 65h11.1zm18.11 0a5 5 0 0 1 4.34 2.51l2 3.49H98.73v-6h11.11z" fill="#FFD94C"/>
    <path d="M54.86 108.36a2.71 2.71 0 0 1 3.72 1.04l.47.84c3.8 6.74 7.77 13.14 11.9 19.2a286.9 286.9 0 0 0 16.41 21.71 2.78 2.78 0 0 1-.3 3.85l-.6.53c-20.11 17.57-33.18 21.08-39.21 10.53-5.9-10.32-3.77-29.08 6.4-56.28.23-.6.65-1.1 1.21-1.42zm85.67 20.68a2.7 2.7 0 0 1 3.13 2.15l.15.8c4.97 26 1.47 39.01-10.5 39.01-11.7 0-26.6-11.1-44.7-33.27a2.72 2.72 0 0 1 2.12-4.44h.95c7.63.05 15.03-.22 22.23-.79a281.1 281.1 0 0 0 26.62-3.46zm6.88-55.23a2.82 2.82 0 0 1 3.54-1.66l.8.27c25.83 8.8 35.65 18.47 29.45 29.02-6.07 10.31-23.72 17.82-52.94 22.52-.65.1-1.31-.01-1.88-.34a2.73 2.73 0 0 1-1-3.77l.5-.84c4-6.7 7.6-13.36 10.82-19.99a284.1 284.1 0 0 0 10.7-25.2zm-85.67-7.77c.65-.1 1.31.01 1.88.34a2.73 2.73 0 0 1 1 3.77l-.5.84c-4 6.7-7.6 13.36-10.82 19.99a284.09 284.09 0 0 0-10.7 25.2 2.82 2.82 0 0 1-3.55 1.67l-.8-.27C12.43 108.78 2.6 99.11 8.8 88.56c6.07-10.31 23.72-17.82 52.94-22.52zm41.8-31.57c20.11-17.57 33.18-21.08 39.21-10.53 5.9 10.32 3.77 29.08-6.4 56.28a2.71 2.71 0 0 1-4.93.38l-.47-.84a269.42 269.42 0 0 0-11.9-19.2 286.9 286.9 0 0 0-16.41-21.71 2.78 2.78 0 0 1 .3-3.85zM57.69 18c11.71 0 26.61 11.1 44.7 33.27a2.72 2.72 0 0 1-2.11 4.44h-.95c-7.63-.05-15.03.22-22.23.79a281.1 281.1 0 0 0-26.62 3.46 2.7 2.7 0 0 1-3.13-2.15l-.15-.8C42.22 31.01 45.72 18 57.69 18z" fill="#FF4154"/>
  </g>
</svg>
