<svg xmlns="http://www.w3.org/2000/svg" viewBox="0 0 36 48">
  <path d="m34.3 8-3.4 12.3v-.2l-.3-.3a6.7 6.7 0 0 0-3.6-3l-.4-.2h-.2a6.7 6.7 0 0 0-5 .7L2 28.5l4-14.2 20.8-12A5.2 5.2 0 0 1 34.3 8zm-7 19.7-5.8 3.5L11 37.4l4-14.5 7.3-4.3a5.2 5.2 0 0 1 4-.5c1.3.4 2.4 1.2 3 2.4h.1a6 6 0 0 1 .6 3.6 5.2 5.2 0 0 1-2.5 3.6zm-9.9 18-6.5-6.5 8.9-5.2.9-.5-3.3 12.2zM35.1 3.4A6.7 6.7 0 0 0 25.9.9l-21 12.2c-.2 0-.4.3-.4.5L0 29.9a.8.8 0 0 0 .8 1h.4l11.8-7-4 15h-.1a.8.8 0 0 0 0 .3v.1l.1.2.1.1 8.1 8.2a.8.8 0 0 0 1.4-.4l4-15 5.6-3.4c1.6-1 2.8-2.7 3.3-4.8l4.3-15.7c.4-1.8.2-3.6-.7-5.1z" fill="#6200ee"/>
</svg>
