<svg width="150" height="150" viewBox="0 0 150 150" xmlns="http://www.w3.org/2000/svg">
  <g fill="none" fill-rule="evenodd">
    <rect fill="#EC5990" width="150" height="150" rx="20"/>
    <g fill="#FFF">
      <path d="M98.56 38.32H83.14a8.54 8.54 0 00-16.27 0H51.44a11 11 0 00-11 11v57.31a11 11 0 0011 11h47.12a11 11 0 0011-11V49.32a11 11 0 00-11-11zm-30.92 2a1 1 0 001-.79 6.54 6.54 0 0112.78 0 1 1 0 001 .79h5.38v6.55a3 3 0 01-3 3H65.25a3 3 0 01-3-3v-6.55h5.39zm39.92 66.31a9 9 0 01-9 9H51.44a9 9 0 01-9-9V49.32a9 9 0 019-9h8.81v6.55a5 5 0 005 5h19.5a5 5 0 005-5v-6.55h8.81a9 9 0 019 9v57.31z"/>
      <path d="M96.6 71H79a1 1 0 000 2h17.6a1 1 0 000-2zM70.6 71H53a1 1 0 000 2h17.6a1 1 0 000-2zM96.65 94H79a1 1 0 000 2h17.65a1 1 0 000-2zM70.65 94H53a1 1 0 000 2h17.65a1 1 0 000-2z"/>
    </g>
  </g>
</svg>