<svg xmlns="http://www.w3.org/2000/svg" viewBox="0 0 623.9 700">
  <defs>
    <style>
      .cls-1{fill:#fff;transform:translate(200,0)}
    </style>
  </defs>
  <rect width="623.9" height="700" fill="#007af4" rx="36" ry="36"/>
  <path class="cls-1" d="m258.6 315.5 1.3-.2 34.7-3.3-53.4-58.6a96.5 96.5 0 0 1-25.2-65.1h-29a125.3 125.3 0 0 0 32.8 84.6zM361.1 385l-36 3.4 53.4 58.5a96.4 96.4 0 0 1 25.1 65.1h29a125.3 125.3 0 0 0-32.8-84.6z"/>
  <path class="cls-1" d="M437.7 269.7a72.2 72.2 0 0 0-62.6-58l-6.3-.9a49.6 49.6 0 0 1-43.4-49.1v-20a52.8 52.8 0 1 0-28.9-.4v20.4a78.6 78.6 0 0 0 68.7 77.8l6.3.8c23.3 3 34.8 20 37.9 35.1s-1 35.4-21.3 47a73.8 73.8 0 0 1-30 9.7l-95.7 9a102.5 102.5 0 0 0-41.8 13.3c-27.6 16-41.4 46.6-35 77.9s30.8 54 62.5 58l6.3.9a49.6 49.6 0 0 1 43.4 49v18a52.8 52.8 0 1 0 28.9.3v-18.2a78.5 78.5 0 0 0-68.7-77.8l-6.3-.8c-23.3-3-34.8-20-37.8-35.2s.9-35.3 21.2-47a73.7 73.7 0 0 1 30-9.6l95.7-9a102.5 102.5 0 0 0 41.8-13.4 72.3 72.3 0 0 0 35-77.8z"/>
</svg>
