<svg xmlns="http://www.w3.org/2000/svg" viewBox="0 0 623.9 700">
  <defs>
    <style>
      .cls-1{
        fill:white;
        transform:translate(200,0)
      }
    </style>
  </defs>
  <rect width="623.9" height="700" fill="#007af4" rx="36" ry="36"/>
  <g transform="translate(184, 38)">
    <path class="cls-1" d="M74.6 277.5l1.3-.2 34.7-3.3-53.4-58.6A96.5 96.5 0 0132 150.3H3a125.3 125.3 0 0032.8 84.6zM177.1 347l-36 3.4 53.4 58.5a96.4 96.4 0 0125.1 65.1h29a125.3 125.3 0 00-32.8-84.6z"/>
    <path class="cls-1" d="M253.7 231.7a72.2 72.2 0 00-62.6-58l-6.3-.9a49.6 49.6 0 01-43.4-49.1v-20a52.8 52.8 0 10-28.9-.4v20.4a78.6 78.6 0 0068.7 77.8l6.3.8c23.3 3 34.8 20 37.9 35.1s-1 35.4-21.3 47a73.8 73.8 0 01-30 9.7l-95.7 9a102.5 102.5 0 00-41.8 13.3C9 332.4-4.8 363 1.6 394.3s30.8 54 62.5 58l6.3.9a49.6 49.6 0 0143.4 49v18a52.8 52.8 0 1028.9.3v-18.2A78.5 78.5 0 0074 424.5l-6.3-.8c-23.3-3-34.8-20-37.8-35.2s.9-35.3 21.2-47a73.7 73.7 0 0130-9.6l95.7-9a102.5 102.5 0 0041.8-13.4 72.3 72.3 0 0035-77.8z"/>
  </g>
</svg>
