<svg viewBox="0 0 112 112" fill="none" xmlns="http://www.w3.org/2000/svg">
  <path d="M0 0h112v112H0z"/>
  <g filter="url(#a)">
    <path fill-rule="evenodd" clip-rule="evenodd" d="M48 2.5c-4 2-12.4 6-17 9-4.5 3.1-3.9 6-5.9 8-2 2-8 7-12 10s-3 11-4 14.1l-3.9 13c-1 3 2 7 4 11s7 15 9 19.1c2 4 8 2 12.9 6 5 4 12 9 17 12 4.9 3 6.9 3 11.9 0s12-8 17-12c4.9-4 10.9-2 12.9-6l9-19c2-4 4.9-8 3.9-11l-4-13.1c-1-3 0-11-4-14s-8.6-6.9-12-10c-3.3-3.2-2-5-5.9-8-4-3-13-7-17-9.1-4-2-7.9-2-11.9 0z" fill="#fff"/>
  </g>
  <path fill-rule="evenodd" clip-rule="evenodd" d="m34 19.9 18.6 12.7c.4.3 1 .4 1.4.4.5 0 1-.1 1.4-.4l18.7-12.8a2.5 2.5 0 0 0-.4-4.3L55.1 6.3c-.7-.4-1.5-.4-2.2 0l-18.6 9.2a2.5 2.5 0 0 0-.3 4.4zm26.3 16.7c0 .8.5 1.6 1.2 2.1L76.4 49c1 .7 2.2.6 3.1-.2L92 37.5a2.5 2.5 0 0 0 0-3.9L80 24c-1-.6-2.1-.7-3 0L61.4 34.4c-.7.5-1.1 1.3-1.2 2.1zM23.2 50.5c.6.5.9 1.3.8 2.1 0 .9-.5 1.6-1.2 2l-9 5.3c-.9.6-2 .5-2.8-.2a2.6 2.6 0 0 1-1-2.7l3.3-10.4a2.5 2.5 0 0 1 4.1-1.1l5.7 5zm48.4 1-16.2-11c-.8-.5-2-.5-2.8 0l-16.1 11c-.7.5-1 1.2-1.1 2 0 .8.2 1.6.8 2.1L52.3 70a2.5 2.5 0 0 0 3.4 0l16.1-14.4a2.6 2.6 0 0 0-.2-4zm-43-2.8L16 37.5a2.6 2.6 0 0 1 .1-4l12-9.6c.9-.6 2-.7 3 0l15.5 10.5a2.6 2.6 0 0 1 0 4.3L31.6 49c-.9.7-2.2.6-3-.2zm64.2 16.1-12.7-7.6c-1-.6-2.2-.5-3 .3L61.5 71.4a2.6 2.6 0 0 0 .8 4.3l21.6 8.7 1 .2c1 0 1.8-.6 2.2-1.5l6.7-15c.6-1.2.2-2.6-1-3.3zm1.8-18.2L98 57c.2.7 0 1.6-.4 2.2a2.5 2.5 0 0 1-3.3.7l-9-5.3a2.5 2.5 0 0 1-1.2-2c0-.8.2-1.6.9-2.1l5.6-5a2.5 2.5 0 0 1 4.1 1zM47.3 73.7c.2-.8-.1-1.7-.8-2.3L31 57.4c-.8-.7-2-.8-3-.2l-12.7 7.6c-1 .7-1.5 2-1 3.3l6.7 15c.6 1.2 2 1.8 3.3 1.3l21.6-8.7c.8-.4 1.4-1.1 1.5-2zM55 78l17.3 7c.9.4 1.4 1.2 1.5 2.1.2 1-.3 1.9-1 2.4l-17.4 12c-.4.3-.9.5-1.4.5-.5 0-1-.2-1.4-.5l-17.4-12a2.5 2.5 0 0 1 .5-4.5l17.4-7c.6-.2 1.3-.2 1.9 0z" fill="#BF4722"/>
  <defs>
    <filter id="a" x="3" y="1" width="102" height="110" filterUnits="userSpaceOnUse" color-interpolation-filters="sRGB">
      <feFlood flood-opacity="0" result="BackgroundImageFix"/>
      <feColorMatrix in="SourceAlpha" values="0 0 0 0 0 0 0 0 0 0 0 0 0 0 0 0 0 0 127 0"/>
      <feOffset dy="2"/>
      <feGaussianBlur stdDeviation="1"/>
      <feColorMatrix values="0 0 0 0 0 0 0 0 0 0 0 0 0 0 0 0 0 0 0.202934 0"/>
      <feBlend in2="BackgroundImageFix" result="effect1_dropShadow"/>
      <feBlend in="SourceGraphic" in2="effect1_dropShadow" result="shape"/>
    </filter>
  </defs>
</svg>
