<svg viewBox="0 0 800 800" fill="none" xmlns="http://www.w3.org/2000/svg">
  <path fill="#212121" d="M0 0h800v800H0z"/>
  <g filter="url(#a)" fill="#E8F2FF">
    <path fill-rule="evenodd" clip-rule="evenodd" d="M587.95 527.77c4.25 54.65 4.25 80.27 4.25 108.23H465.76c0-6.1.1-11.66.22-17.31.34-17.57.7-35.88-2.15-72.87-3.76-54.15-27.08-66.19-69.96-66.19H195v-98.52h204.89c54.16 0 81.24-16.48 81.24-60.1 0-38.36-27.08-61.6-81.24-61.6H195V163h227.46C545.06 163 606 220.91 606 313.42c0 69.2-42.88 114.32-100.8 121.84 48.9 9.78 77.48 37.6 82.75 92.5Z"/>
    <path d="M195 636v-73.45h133.7c22.33 0 27.18 16.57 27.18 26.44V636H195Z"/>
  </g>
  <defs>
    <filter id="a" x="131" y="99" width="539" height="601" filterUnits="userSpaceOnUse" color-interpolation-filters="sRGB">
      <feFlood flood-opacity="0" result="BackgroundImageFix"/>
      <feColorMatrix in="SourceAlpha" values="0 0 0 0 0 0 0 0 0 0 0 0 0 0 0 0 0 0 127 0" result="hardAlpha"/>
      <feOffset/>
      <feGaussianBlur stdDeviation="28"/>
      <feComposite in2="hardAlpha" operator="out"/>
      <feColorMatrix values="0 0 0 0 0.223529 0 0 0 0 0.572549 0 0 0 0 1 0 0 0 1 0"/>
      <feBlend in2="BackgroundImageFix" result="effect1_dropShadow_126_53"/>
      <feColorMatrix in="SourceAlpha" values="0 0 0 0 0 0 0 0 0 0 0 0 0 0 0 0 0 0 127 0" result="hardAlpha"/>
      <feOffset/>
      <feGaussianBlur stdDeviation="32"/>
      <feComposite in2="hardAlpha" operator="out"/>
      <feColorMatrix values="0 0 0 0 0.223529 0 0 0 0 0.572549 0 0 0 0 1 0 0 0 0.9 0"/>
      <feBlend in2="effect1_dropShadow_126_53" result="effect2_dropShadow_126_53"/>
      <feBlend in="SourceGraphic" in2="effect2_dropShadow_126_53" result="shape"/>
    </filter>
  </defs>
</svg>
