<svg viewBox="0 0 512 248" xmlns="http://www.w3.org/2000/svg" preserveAspectRatio="xMidYMid">
  <path d="M481.158 247.153H30.842C13.808 247.153 0 233.345 0 216.311V30.841C0 13.808 13.808 0 30.842 0h450.316C498.191 0 512 13.808 512 30.841v185.47c0 17.034-13.809 30.842-30.842 30.842" fill="#F04"/>
  <path d="M125.671 119.308c6.021 0 10.571-1.805 10.571-8.495 0-6.825-4.95-9.233-10.57-9.233h-12.445v17.728h12.444zM83.254 76h42.685c30.374 0 42.492 13.064 42.492 32.601 0 14.56-7.072 22.293-17.509 27.646l21.195 31.207h-34.649l-17.325-26.6h-6.916v26.6H83.254V76zm105.092 0h29.973v91.454h-29.973V76zm97.516 0c31.157 0 49.718 22.328 49.718 47.527 0 24.939-18.43 47.266-49.718 47.266-31.29 0-49.85-22.327-49.85-47.266 0-25.199 18.694-47.527 49.85-47.527zm85.553 25.607h-27.698V76h85.236v25.607h-27.698v65.847h-29.84v-65.847zm-85.553 42.397c10.109 0 18.649-7.942 18.649-20.477 0-12.534-6.825-20.737-18.65-20.737-11.823 0-18.648 8.203-18.648 20.737 0 12.535 8.54 20.477 18.649 20.477z" fill="#FFF"/>
</svg>
