<svg viewBox="0 0 111 116" fill="none" xmlns="http://www.w3.org/2000/svg">
  <path d="M0 1.00338C0 0.449229 0.447713 0 0.999997 0L75.3214 0C95.0262 0 110 16.0278 110 35.7992V39.7512C110 41.9603 108.209 43.7512 106 43.7512H89.2143C88.1097 43.7512 87.2143 42.8573 87.2143 41.7528C87.2143 39.6623 87.2143 36.5781 87.2143 35.7992C87.2143 29.2087 81.8897 23.8661 75.3214 23.8661L24.7857 23.8661C24.2334 23.8661 23.7857 24.3154 23.7857 24.8695L23.7857 106.394C23.7857 106.948 23.3367 107.4 22.7849 107.377C10.1126 106.851 0 96.3759 0 83.5314L0 1.00338Z" fill="#ED1846"/>
  <path d="M44.6071 47.7323C44.0549 47.7323 43.605 48.1828 43.6278 48.7365C44.1524 61.4516 54.5916 71.5984 67.3928 71.5984H83.25C85.4394 71.5984 87.2143 73.3793 87.2143 75.5761V106.394C87.2143 106.948 87.6633 107.4 88.2151 107.377C100.887 106.851 111 96.3759 111 83.5314V75.5761C111 60.1984 98.5759 47.7323 83.25 47.7323L44.6071 47.7323Z" fill="#ED1846"/>
</svg>

