<svg xmlns="http://www.w3.org/2000/svg" xml:space="preserve" viewBox="0 0 61.34 61.24">  
  <path fill="#eee" d="M52.84 20.45a8.63 8.63 0 0 0-5.87-3.12 8.63 8.63 0 0 0-8.59 4.72l-2.1-.83c.57-.81 1.32-1.67 2.17-2.46 1.76-1.65 3.7-2.75 5.32-3.04a.4.4 0 0 0 .26-.17c.1-.17.28-.35.43-.52.32-.36.63-.7.34-1.03a.4.4 0 0 0-.33-.13c-2.8.17-6.78 1.48-9.55 4.66-.5.59-.94 1.12-1.3 1.64l-8.18-3.24c-.46-.6-1.11-1.04-1.5-1.08a.55.55 0 0 0-.23.06c.2-.5.4-1.1.53-1.83.24-1.35.27-2.47.66-2.56.71-.17.63.2.78-.32.2-.78-.8-1.7-.51-2.37.22-.5.43-.85.63-1.12.72.14 1.35.26 1.97.66.65-.6 1.2-1.5 1.07-2.17-.12-.7-1.47-.67-1.19-1.92.18-.82 1.35-1.07 2.08-1.06.41.01.28-1.76-.21-2.04C28.9.83 23.5-1.05 21.68.8c-1.02 1.03-1.5 3.78-.34 4.77.13.12.26.22.39.32-.17.1-.35.18-.64.21-.63.07-.98-.21-1.26.01-.27.23.2.51-.01.88-.4.68-.75-.25-2.04 1.02-.6.6-.74 1.72-1.33 3.14-.95 2.28-1.78 1.84-2.87 5.35-.27.86.87.43 2.99 1.47-1.03 1.95-1.7 3.8-1.39 4.96.4 1.42 3.15 3.64 4.58 4.9.1.1.2.2.3.33C16.14 31.99 9.27 34.8.12 41.65c-.43.7.48 1.85.88 1.93 5.4-4.55 11.87-6 18.57-5.53-.88.56-1.66 1.02-2.3 1.4l.34-.87-2.3.72-10.63 3.34L3.4 44.1l.6 1.72 1.92.33L16.26 42l.1-.25c3.34-.95 3.96-.06 4.34.95l-1.64 1.75a8.7 8.7 0 1 0 4.04 3.24l2.74-3.33c.12.04.24.05.35.04.39-.07.97-.5 1.63-1.16.13.24.39.4.67.37a.7.7 0 0 0 .62-.77.72.72 0 0 0-.14-.36c1.24.2 2.25.24 2.33-.04.35-1.16-.3-1.66-1.08-2 .44-.58.86-1.16 1.24-1.73 1.38-1.29 2.4-2.49 2.56-3.22.34-1.53-.94-3.93-2.16-5.31l.3-3.02c.17.8.52 1.8.89 2.84.2.62.43 1.25.61 1.84a.4.4 0 0 0 .7.12c.07-.09.15-.16.24-.24.26-.22.64-.55.38-1.26a10.01 10.01 0 0 1 .14-6.85l.13-.4.06-.19 2.4.86a8.63 8.63 0 0 0 1.73 7.63 8.63 8.63 0 0 0 6.71 3.15c2.01 0 3.95-.69 5.52-1.99a8.63 8.63 0 0 0 3.12-5.87 8.63 8.63 0 0 0-1.95-6.36zm-20.31 1.62v-.03.03zm-6.5-.38c-.98.35-1.87.82-2.48 1.42-.83-.81-1.48-1.4-1.66-1.73.07 0 .13-.02.18-.06.28-.2.03-.7.4-.98.58-.45 1.62.6 2.29.18.3-.19.48-.64.48-1.08l1.72.62-.93 1.63zm-7.17 18.35 2.06-1.27c.38.58.9 1.35 1.48 2.13l-.72.77c-.46-.88-1.22-1.6-2.82-1.63zm3.88 4.56c.08 0 .15-.02.23-.04.47-.12 1.11-.42 1.85-.84l.1.1-2.49 3.02a8.7 8.7 0 0 0-.91-.9l1.22-1.34zm-2 3.94.14.18-2.53 3.07a2.57 2.57 0 0 0-.96-1.34l2.52-2.75c.3.25.58.53.83.84zm1.42 4.61a6.3 6.3 0 1 1-4.92-6.75l-3.82 4.07.4.54a2.58 2.58 0 1 0 4.44 2.56l3.22-3.91c.56 1.06.8 2.27.68 3.5zM52.4 26.58a6.26 6.26 0 0 1-6.87 5.67 6.26 6.26 0 0 1-5.68-6.87l.1-.68 3.6 1.27a2.58 2.58 0 1 0 .6-1.64l-3.54-1.4a6.3 6.3 0 0 1 11.8 3.65z"/>
</svg>