<svg viewBox="0 0 256 253" xmlns="http://www.w3.org/2000/svg" preserveAspectRatio="xMidYMid">
  <defs>
    <linearGradient x1="11.947%" y1="90.149%" x2="62.893%" y2="37.124%" id="a">
      <stop stop-color="#EC0B8E" offset="0%"/>
      <stop stop-color="#EB0B8E" offset="40.06%"/>
      <stop stop-color="#A11D8B" offset="70.36%"/>
      <stop stop-color="#5C2E88" offset="100%"/>
    </linearGradient>
    <linearGradient x1="-.092%" y1="50.133%" x2="100%" y2="50.133%" id="c">
      <stop stop-color="#EC0B8E" offset="0%"/>
      <stop stop-color="#E10E8F" offset="36.78%"/>
      <stop stop-color="#C41693" offset="99.93%"/>
    </linearGradient>
    <radialGradient cx="77.573%" cy="33.245%" fx="77.573%" fy="33.245%" r="77.26%" gradientTransform="scale(.7346 1) rotate(.137 .916 117.689)" id="b">
      <stop stop-color="#EC0B8E" offset="0%"/>
      <stop stop-color="#E80C8E" offset="15.99%"/>
      <stop stop-color="#DB0F8D" offset="32.77%"/>
      <stop stop-color="#C6148C" offset="49.9%"/>
      <stop stop-color="#A91B8B" offset="67.29%"/>
      <stop stop-color="#83248A" offset="84.69%"/>
      <stop stop-color="#5C2E88" offset="100%"/>
    </radialGradient>
  </defs>
  <path d="M14.729 159.834c-5.241-16.328-6.753-33.563-3.73-51.302 1.311-7.358 3.327-14.413 5.544-21.57 0 0 13.909-45.657 60.975-66.52 0 0 16.227-8.568 40.617-9.173 0 0-3.326-3.225-5.442-4.636-11.49-7.66-28.623-10.18-39.004.605-3.125 3.225-5.745 6.753-8.668 9.978-3.326 3.628-7.357 6.652-11.993 8.365-4.032 1.512-8.063 1.21-12.196 1.916-4.233.705-8.566 2.217-11.993 4.938-3.73 3.024-5.24 7.056-5.644 11.692-.403 3.628-.302 7.358-.504 10.986-.504 10.684-3.93 13.708-11.59 19.654-3.226 2.42-5.947 5.645-7.962 9.071-6.048 10.684 3.628 21.771 4.132 32.556.1 2.217-.101 4.435-.907 6.551-.807 2.318-2.42 3.83-3.73 5.745-1.814 2.52-3.023 5.544-2.519 8.668.504 3.125 2.116 6.048 3.628 8.769 2.923 4.838 6.551 9.172 10.381 13.304.202-.1.403.202.605.403" fill="#ED168F"/>
  <path d="M207.028 198.437c23.181-10.079 33.058-27.516 33.058-27.516 21.669-29.531 14.312-60.675 14.312-60.675-13.808 30.035-26.406 38.3-26.406 38.3 33.965-51.706.201-82.95.201-82.95 13.808 29.43-4.535 65.312-4.535 65.312-15.42 32.454-37.29 44.045-37.29 44.045 24.39 4.536 42.33-11.893 42.33-11.893-34.973 37.796-72.869 35.982-72.869 35.982 15.924 17.84 39.81 16.328 39.81 16.328-31.243 7.358-60.572-3.024-84.66-23.08-4.535-3.73-8.869-7.762-12.9-12.096 0 0-3.628-3.83-4.334-4.838l-.1-.1c-.505 18.646 18.947 35.982 18.947 35.982-24.39-10.08-35.577-31.95-35.577-31.95s-16.429-28.02-4.536-59.971c11.893-31.95 47.873-38.805 47.873-38.805 29.732 14.413 54.929 18.949 54.929 18.949 53.114 8.87 50.09-17.134 50.09-17.134.504-22.376-33.259-46.162-33.259-46.162-60.17-44.55-114.594-15.623-114.594-15.623-47.066 20.864-60.975 66.522-60.975 66.522-2.217 7.156-4.233 14.211-5.543 21.569-5.14 29.935 2.62 58.257 19.452 83.454C56.656 231.194 99.187 244.7 99.187 244.7c62.992 21.368 106.027-10.079 106.027-10.079 39.609-27.213 47.571-58.66 47.571-58.66-31.949 24.895-45.757 22.476-45.757 22.476zM157.845 51.384a5.42 5.42 0 0 1 5.442 5.443 5.42 5.42 0 0 1-5.442 5.442 5.42 5.42 0 0 1-5.443-5.442 5.42 5.42 0 0 1 5.443-5.443z" fill="url(#a)"/>
  <path d="M225.27 82.226c.504-22.376-33.259-46.162-33.259-46.162C131.842-8.486 77.418 20.44 77.418 20.44 30.35 41.305 16.442 86.963 16.442 86.963c-2.72 7.76-5.14 19.654-5.14 19.654-2.923 14.917-1.612 28.725-1.612 28.725 1.21 13.204 4.132 22.074 4.132 22.074 3.023 9.474 4.434 12.397 4.434 12.397-.1-.303-.604-2.52-.604-2.52s-4.233-20.36-.303-39.913c0 0 3.427-20.36 17.336-36.083 0 0 22.576-32.152 64.603-19.553 0 0 9.071 3.225 12.195 4.838 3.125 1.612 8.567 3.83 8.567 3.83 29.732 14.413 54.928 18.948 54.928 18.948 53.316 8.87 50.293-17.134 50.293-17.134zM157.846 62.37a5.42 5.42 0 0 1-5.443-5.443 5.42 5.42 0 0 1 5.443-5.442 5.42 5.42 0 0 1 5.442 5.442 5.42 5.42 0 0 1-5.442 5.443z" fill="url(#b)"/>
  <path d="M123.376 41.708 89.008 31.024c-.201 0-1.21-.504-3.023 0 0 0-20.258 5.14-16.73 16.227 0 0 2.116 6.955 7.86 13.708l37.795-1.814 8.466-17.437z" fill="url(#c)"/>
</svg>
