<?xml version="1.0" encoding="UTF-8"?>
<svg width="256px" height="253px" viewBox="0 0 256 253" version="1.1" xmlns="http://www.w3.org/2000/svg" xmlns:xlink="http://www.w3.org/1999/xlink" preserveAspectRatio="xMidYMid">
    <defs>
        <linearGradient x1="11.9470805%" y1="90.149298%" x2="62.893221%" y2="37.1238547%" id="linearGradient-1">
            <stop stop-color="#EC0B8E" offset="0%"/>
            <stop stop-color="#EB0B8E" offset="40.06%"/>
            <stop stop-color="#A11D8B" offset="70.36%"/>
            <stop stop-color="#5C2E88" offset="100%"/>
        </linearGradient>
        <radialGradient cx="77.5729158%" cy="33.2452329%" fx="77.5729158%" fy="33.2452329%" r="77.2598002%" gradientTransform="translate(0.775729,0.332452),scale(0.734603,1.000000),rotate(0.136826),translate(-0.775729,-0.332452)" id="radialGradient-2">
            <stop stop-color="#EC0B8E" offset="0%"/>
            <stop stop-color="#E80C8E" offset="15.99%"/>
            <stop stop-color="#DB0F8D" offset="32.77%"/>
            <stop stop-color="#C6148C" offset="49.9%"/>
            <stop stop-color="#A91B8B" offset="67.29%"/>
            <stop stop-color="#83248A" offset="84.69%"/>
            <stop stop-color="#5C2E88" offset="100%"/>
        </radialGradient>
        <linearGradient x1="-0.0915649178%" y1="50.1327144%" x2="100%" y2="50.1327144%" id="linearGradient-3">
            <stop stop-color="#EC0B8E" offset="0%"/>
            <stop stop-color="#E10E8F" offset="36.78%"/>
            <stop stop-color="#C41693" offset="99.93%"/>
        </linearGradient>
    </defs>
    <g>
				<path d="M14.7289138,159.834497 C9.48804953,143.50643 7.97626176,126.271248 10.9998373,108.532113 C12.3100534,101.174404 14.3257704,94.1190661 16.5430591,86.9629379 C16.5430591,86.9629379 30.4515067,41.304824 77.5184994,20.4411825 C77.5184994,20.4411825 93.7450215,11.8739868 118.135198,11.2692435 C118.135198,11.2692435 114.809264,8.04394631 112.692762,6.63287878 C101.203174,-1.02720215 84.0695797,-3.54696561 73.688637,7.23762201 C70.5642756,10.4629192 67.9438435,13.9905881 65.0210538,17.2158853 C61.6951207,20.8443447 57.6636866,23.8680608 53.0275374,25.5815 C48.9961034,27.0933581 44.9646693,26.7909865 40.8324494,27.4965202 C36.5994436,28.202054 32.265652,29.7139121 28.838933,32.4352566 C25.1098565,35.4589728 23.5980688,39.4905943 23.1949254,44.1269591 C22.7917819,47.7554185 22.8925678,51.4846684 22.6909961,55.1131278 C22.1870668,65.7969248 18.7603479,68.820641 11.1006232,74.7672828 C7.87547591,77.1862557 5.15425792,80.4115529 3.13854088,83.8384312 C-2.90861021,94.5222283 6.76683154,105.609188 7.2707608,116.393775 C7.37154665,118.611167 7.16997495,120.828559 6.36368813,122.94516 C5.55740132,125.263343 3.9448277,126.775201 2.63461163,128.690221 C0.820466297,131.209984 -0.388963922,134.2337 0.114965336,137.358207 C0.618894594,140.482714 2.23146822,143.405639 3.74325599,146.126984 C6.66604569,150.96493 10.2943363,155.298923 14.1241987,159.431335 C14.3257704,159.330545 14.5273421,159.632916 14.7289138,159.834497" fill="#ED168F"/>
				<path d="M207.028319,198.437273 C230.209065,188.35822 240.086078,170.921456 240.086078,170.921456 C261.755036,141.389829 254.397669,110.245552 254.397669,110.245552 C240.590007,140.281133 227.991776,148.545957 227.991776,148.545957 C261.956608,96.8404107 228.193347,65.5953438 228.193347,65.5953438 C242.001009,95.026181 223.657984,130.907613 223.657984,130.907613 C208.237749,163.362166 186.367219,174.953078 186.367219,174.953078 C210.757395,179.488652 228.697277,163.059794 228.697277,163.059794 C193.724586,200.856246 155.829106,199.042017 155.829106,199.042017 C171.753271,216.881942 195.639517,215.370084 195.639517,215.370084 C164.395903,222.727793 135.067221,212.346368 110.979402,192.289051 C106.444039,188.559801 102.110247,184.528179 98.0788131,180.194186 C98.0788131,180.194186 94.4505224,176.364146 93.7450215,175.35624 L93.6442356,175.25545 C93.1403064,193.901699 112.591976,211.237672 112.591976,211.237672 C88.2017996,201.158618 77.0145701,179.287071 77.0145701,179.287071 C77.0145701,179.287071 60.5864763,151.267301 72.4792068,119.316701 C84.3719373,87.3661001 120.352486,80.5123435 120.352486,80.5123435 C150.084313,94.9253904 175.280775,99.4609647 175.280775,99.4609647 C228.394919,108.330532 225.371344,82.3265731 225.371344,82.3265731 C225.875273,59.9510736 192.112013,36.1645065 192.112013,36.1645065 C131.942859,-8.38491145 77.5184994,20.5419731 77.5184994,20.5419731 C30.4515067,41.4056145 16.5430591,87.0637284 16.5430591,87.0637284 C14.3257704,94.2198567 12.3100534,101.275194 10.9998373,108.632904 C5.85975888,138.567694 13.6202694,166.889835 30.4515067,192.08747 C56.6558281,231.194198 99.1874575,244.700131 99.1874575,244.700131 C162.178615,266.067725 205.214173,234.621077 205.214173,234.621077 C244.823013,207.407631 252.785095,175.960983 252.785095,175.960983 C220.83598,200.856246 207.028319,198.437273 207.028319,198.437273 Z M157.844823,51.3838778 C160.868399,51.3838778 163.287259,53.8028508 163.287259,56.8265669 C163.287259,59.8502831 160.868399,62.269256 157.844823,62.269256 C154.821248,62.269256 152.402387,59.8502831 152.402387,56.8265669 C152.402387,53.8028508 154.821248,51.3838778 157.844823,51.3838778 Z" fill="url(#linearGradient-1)"/>
				<path d="M225.270558,82.2257826 C225.774487,59.8502831 192.011227,36.063716 192.011227,36.063716 C131.842073,-8.48570199 77.4177135,20.4411825 77.4177135,20.4411825 C30.3507208,41.304824 16.4422733,86.9629379 16.4422733,86.9629379 C13.7210553,94.7238094 11.3021949,106.617093 11.3021949,106.617093 C8.37940517,121.534093 9.68962124,135.342396 9.68962124,135.342396 C10.8990515,148.545957 13.8218412,157.415524 13.8218412,157.415524 C16.8454167,166.889835 18.2564186,169.812761 18.2564186,169.812761 C18.1556328,169.510389 17.6517035,167.292997 17.6517035,167.292997 C17.6517035,167.292997 13.4186977,146.933308 17.349346,127.379944 C17.349346,127.379944 20.7760649,107.020255 34.6845124,91.2969311 C34.6845124,91.2969311 57.2605432,59.1447493 99.2882433,71.7435666 C99.2882433,71.7435666 108.35897,74.9688638 111.483331,76.5815125 C114.607693,78.1941611 120.050129,80.4115529 120.050129,80.4115529 C149.781955,94.8245999 174.978418,99.3601741 174.978418,99.3601741 C228.294133,108.229742 225.270558,82.2257826 225.270558,82.2257826 Z M157.844823,62.3700465 C154.821248,62.3700465 152.402387,59.9510736 152.402387,56.9273575 C152.402387,53.9036413 154.821248,51.4846684 157.844823,51.4846684 C160.868399,51.4846684 163.287259,53.9036413 163.287259,56.9273575 C163.287259,59.9510736 160.868399,62.3700465 157.844823,62.3700465 Z" fill="url(#radialGradient-2)"/>
				<path d="M123.376062,41.7079862 L89.0080864,31.0241891 C88.8065147,31.0241891 87.7986562,30.5202364 85.9845109,31.0241891 C85.9845109,31.0241891 65.7265547,36.1645065 69.2540595,47.2514658 C69.2540595,47.2514658 71.3705624,54.2060129 77.115356,60.958979 L114.91005,59.1447493 L123.376062,41.7079862 Z" fill="url(#linearGradient-3)"/>
		</g>
</svg>