<svg viewBox="0 0 256 200" xmlns="http://www.w3.org/2000/svg" preserveAspectRatio="xMidYMid">
  <path fill="#ddd" d="m75.36 199.75 5.346-150.487h13.2l4.807 135.357c-8.61 4.885-16.455 9.979-23.355 15.128l.002.002zm41.55-24.595 5.692-125.892h14.085l5.213 115.3a272.743 272.743 0 0 0-11.909 4.687 257.109 257.109 0 0 0-13.08 5.903l-.002.002zm44.787-17.16 5.482-108.732h12.316l5.206 103.258c-7.318 1.33-15.03 3.154-23.004 5.474zM33.535.026a6.18 6.18 0 0 1 .548-.024h187.511c.25 0 .498.015.74.044.205-.028.392-.042.559-.042V0c5.124 0 28.628 13.573 31.188 18.005 2.559 4.436 2.559 31.578 0 36.012-2.56 4.436-26.066 18.01-31.184 18.01-5.122 0-28.629-13.574-31.188-18.01-1.948-3.376-2.413-19.9-1.396-29.56H65.687c1.017 9.66.552 26.186-1.396 29.56-2.56 4.436-26.066 18.01-31.184 18.01-5.122 0-28.628-13.574-31.188-18.01-2.559-4.436-2.559-31.574 0-36.01C4.48 13.575 27.985.004 33.107.004V0c.13 0 .274.009.428.026z"/>
</svg>
