<svg viewBox="0 0 256 296" xmlns="http://www.w3.org/2000/svg" preserveAspectRatio="xMidYMid">
  <path d="M219.013 94.362v106.594l-90.576 53.588-.819.745v39.839l.819.772L256 222.216V73.684l-1.205-.295-35.963 20.106.181.867" fill="#2F406A"/>
  <path d="m37.57 201.829 90.867 52.715V295.9L0 221.925V73.975l1.318-.199 35.859 20.848.393 1.194v106.011" fill="#2379BD"/>
  <path d="M37.57 95.818 0 73.975 128.146 0 256 73.684l-36.987 20.678-90.867-51.841L37.57 95.818" fill="#03AFEF"/>
  <path d="m126.878 189.638-.984-1.004v-40.026l.984-.508.239-.987 34.315-20.017 1.05.235v41.242l-35.604 21.065" fill="#2F406A"/>
  <path d="M90.68 169.858v-42.823l.995-.049 34.906 20.314.297.8v41.538l-36.198-19.78" fill="#2379BD"/>
  <path d="M126.284 105.969 90.68 127.035l36.198 21.065 35.604-20.769-36.198-21.362" fill="#03AFEF"/>
  <path d="m82.57 215.748-.983-1.004v-40.027l.983-.507.24-.987 34.314-20.017 1.05.235v41.241L82.57 215.748" fill="#2F406A"/>
  <path d="M46.373 195.968v-42.824l.994-.049 34.906 20.315.297.8v41.538l-36.197-19.78" fill="#2379BD"/>
  <path d="m81.977 132.079-35.604 21.065L82.57 174.21l35.604-20.769-36.197-21.362" fill="#03AFEF"/>
  <path d="m174.35 216.737-.984-1.004v-40.027l.984-.507.239-.987 34.315-20.017 1.05.235v41.241l-35.604 21.066" fill="#2F406A"/>
  <path d="M138.152 196.957v-42.824l.995-.049 34.906 20.315.297.8v41.538l-36.198-19.78" fill="#2379BD"/>
  <path d="m173.756 133.068-35.604 21.065 36.198 21.066 35.604-20.769-36.198-21.362" fill="#03AFEF"/>
  <path d="m130.042 242.847-.983-1.004v-40.027l.983-.507.24-.988 34.315-20.016 1.049.235v41.241l-35.604 21.066" fill="#2F406A"/>
  <path d="M93.845 223.067v-42.824l.994-.049 34.907 20.314.296.801v41.538l-36.197-19.78" fill="#2379BD"/>
  <path d="m129.449 159.177-35.604 21.066 36.197 21.066 35.604-20.769-36.197-21.363" fill="#03AFEF"/>
  <path d="m126.878 132.87-.984-1.005V91.839l.984-.507.239-.988 34.315-20.016 1.05.235v41.241l-35.604 21.066" fill="#2F406A"/>
  <path d="M90.68 113.09V70.266l.995-.049 34.906 20.314.297.801v41.538L90.68 113.09" fill="#2379BD"/>
  <path d="M126.284 49.2 90.68 70.266l36.198 21.066 35.604-20.769L126.284 49.2" fill="#03AFEF"/>
  <path d="m82.57 158.979-.983-1.004v-40.026l.983-.508.24-.987 34.314-20.017 1.05.235v41.242L82.57 158.979" fill="#2F406A"/>
  <path d="M46.373 139.199V96.376l.994-.049 34.906 20.314.297.8v41.538l-36.197-19.78" fill="#2379BD"/>
  <path d="M81.977 75.31 46.373 96.376l36.197 21.065 35.604-20.769L81.977 75.31" fill="#03AFEF"/>
  <path d="m174.35 159.968-.984-1.004v-40.026l.984-.508.239-.987 34.315-20.017 1.05.235v41.242l-35.604 21.065" fill="#2F406A"/>
  <path d="M138.152 140.188V97.365l.995-.049 34.906 20.314.297.8v41.538l-36.198-19.78" fill="#2379BD"/>
  <path d="m173.756 76.299-35.604 21.066 36.198 21.065 35.604-20.769-36.198-21.362" fill="#03AFEF"/>
  <path d="m130.042 186.078-.983-1.004v-40.027l.983-.507.24-.987 34.315-20.017 1.049.235v41.241l-35.604 21.066" fill="#2F406A"/>
  <path d="M93.845 166.298v-42.824l.994-.049 34.907 20.315.296.8v41.538l-36.197-19.78" fill="#2379BD"/>
  <path d="m129.449 102.408-35.604 21.066 36.197 21.066 35.604-20.769-36.197-21.363" fill="#03AFEF"/>
</svg>
