<svg class="logo" xmlns="http://www.w3.org/2000/svg" viewBox="0 0 60 60">
  <path d="M51.6 33.6h-4a7.7 7.7 0 00-3.2.9l-27 15.8a7.5 7.5 0 01-3.3 1H0v7A1.8 1.8 0 001.8 60h56.4a1.8 1.8 0 001.8-1.8v-7H45.9a7.5 7.5 0 01-3.3-1l-8-4.7a1 1 0 010-1.7l3.8-2.3a3.3 3.3 0 013 0l3 1.7a7.6 7.6 0 003.3 1H60V33.5zm0-17.7h-4a7.7 7.7 0 00-3.2.9l-27 15.8a7.7 7.7 0 01-3.3 1H0V44h12.4a7.7 7.7 0 003.2-.9l27-15.8a7.7 7.7 0 013.3-1H60V16zM58.2 0H1.8A1.8 1.8 0 000 1.8v7h14.1a7.7 7.7 0 013.3 1l8 4.7a1 1 0 010 1.8l-3.8 2.2a3.3 3.3 0 01-3 0l-3-1.7a7.7 7.7 0 00-3.2-1H0v10.6h12.4a7.6 7.6 0 003.2-.9l27-15.8a7.5 7.5 0 013.3-1H60v-7A1.8 1.8 0 0058.2 0z" fill="#77e8b9"/>
</svg>
