<svg viewBox="0 0 256 174" xmlns="http://www.w3.org/2000/svg" xmlns:xlink="http://www.w3.org/1999/xlink" preserveAspectRatio="xMidYMid">
  <defs>
    <path d="M40.8 49.1s-12.7 3.4-19 3.4c-6.5 0-19-3.4-19-3.4-1 0-2-.9-2-2V2.7a2 2 0 0 1 2-2h38c1.1 0 2 .9 2 2V47a2 2 0 0 1-2 2z" id="a"/>
    <path d="M53.3 84s-11.4 2.3-17 2.3S19.5 84 19.5 84C9.1 84 .7 78 .7 67.4V36.6a35.7 35.7 0 1 1 71.4 0v30.8C72.1 78 63.7 84 53.3 84z" id="c"/>
    <path d="M53.3 84s-11.4 2.3-17 2.3S19.5 84 19.5 84C9.1 84 .7 78 .7 67.4V36.6a35.7 35.7 0 1 1 71.4 0v30.8C72.1 78 63.7 84 53.3 84z" id="e"/>
    <path d="M53.3 84s-11.4 2.3-17 2.3S19.5 84 19.5 84C9.1 84 .7 78 .7 67.4V36.6a35.7 35.7 0 1 1 71.4 0v30.8C72.1 78 63.7 84 53.3 84z" id="g"/>
    <path d="M53.3 84s-11.4 2.3-17 2.3S19.5 84 19.5 84C9.1 84 .7 78 .7 67.4V36.6a35.7 35.7 0 1 1 71.4 0v30.8C72.1 78 63.7 84 53.3 84z" id="i"/>
    <path d="M53.3 84s-11.4 2.3-17 2.3S19.5 84 19.5 84C9.1 84 .7 78 .7 67.4V36.6a35.7 35.7 0 1 1 71.4 0v30.8C72.1 78 63.7 84 53.3 84z" id="k"/>
    <path d="M53.3 84s-11.4 2.3-17 2.3S19.5 84 19.5 84C9.1 84 .7 78 .7 67.4V36.6a35.7 35.7 0 1 1 71.4 0v30.8C72.1 78 63.7 84 53.3 84z" id="m"/>
  </defs>
  <path d="M75.5 157.5a23.6 23.6 0 0 0 20.1 10.3c11.1 0 20-4.6 26.2-12.7 5.3-7 8.2-16.5 8.2-26v-13.3l-26.7.2-1.1 18.8c0 6.4-2.3 8.5-8 8.5-4.4 0-7.6-4.6-8.6-12.7l-4.5-33.4a47 47 0 0 0-12.6-27 41.2 41.2 0 0 0-20.3-10.8l-22-5.8a5.2 5.2 0 0 0-5.4 5.2c0 4.6.6 6.8 3.2 10 .8 1 2 1.9 3.8 2.7 1.7 1 4 1.8 6.8 2.8a142.8 142.8 0 0 0 9.8 3A22.5 22.5 0 0 1 60 96l7.7 39a49.5 49.5 0 0 0 7.7 22.5zm54.2-41h-25.5v2.4l.3 15c0 6.4-4.6 10.3-10.8 10.3-4.4 0-8.6-4.7-13.6-14.4l-14.4-28a38.8 38.8 0 0 0-28.7-20l-20.4-5.3c-3.3 0-5.8 4-5.8 7 0 3.3 1.4 6.8 3.6 9.5 2 2.5 6.3 4.6 10.2 5.4l8.6 1.9a29 29 0 0 1 16.1 12.5L60.2 139c4.1 9 8.3 15.6 13.3 20.3a29.5 29.5 0 0 0 21 8.5c7.6 0 15.5-2.7 21.6-7.6 6.7-5.3 10.9-13 11.4-22l2.2-21.6z" fill="#053949"/>
  <path d="m69.5 119.5-4.7-24.1a27 27 0 0 0-22-23.5 139 139 0 0 1-13-4.6 14.3 14.3 0 0 1-2.1-1.4c-1.9-2.3-2.2-3.5-2.2-7.1 0-.2 0-.3.2-.4L47 63.9a36.7 36.7 0 0 1 18.2 9.7A42.4 42.4 0 0 1 76.4 98l4.6 33.3c1.2 10.1 5.7 16.8 13.2 16.8 8.2 0 12.7-4.1 12.7-13l.8-14.3 17.6-.1v8.6c0 8.4-2.6 16.8-7.3 23A26.8 26.8 0 0 1 92.7 163c-12.2-.7-20.5-9-28.2-25.8l-11-26.3c-3.5-6.9-11-12.4-19-15l-9-2a15 15 0 0 1-7.4-3.8c-1.6-2-2.6-4.4-2.6-6.5a4.4 4.4 0 0 1 1-2.1l19.5 5A34.2 34.2 0 0 1 61.5 104l8 15.5z" fill="#00D8FE"/>
  <path d="m69.5 119.5-4.7-24.1a27 27 0 0 0-22-23.5 139 139 0 0 1-13-4.6 14.3 14.3 0 0 1-2.1-1.4c-1.9-2.3-2.2-3.5-2.2-7.1 0-.2 0-.3.2-.4L47 63.9a36.7 36.7 0 0 1 18.2 9.7A42.4 42.4 0 0 1 76.4 98l4.6 33.3c1.2 10.1 5.7 16.8 13.2 16.8 8.2 0 12.7-4.1 12.7-13l.8-14.3 17.6-.1v8.6c0 8.4-2.6 16.8-7.3 23A26.8 26.8 0 0 1 92.7 163c-12.2-.7-20.5-9-28.2-25.8l-11-26.3c-3.5-6.9-11-12.4-19-15l-9-2a15 15 0 0 1-7.4-3.8c-1.6-2-2.6-4.4-2.6-6.5a4.4 4.4 0 0 1 1-2.1l19.5 5A34.2 34.2 0 0 1 61.5 104l8 15.5z" fill="#00D8FE"/>
  <path d="m16.4 81 1.4 2c1.4 1.5 5 3.1 8.2 3.8l9.7 1.9a36 36 0 0 1 20.7 15L68.3 130a90 90 0 0 0 5 8.8 73 73 0 0 1-.9-4.9l-2.9-15-8-15.4A34.2 34.2 0 0 0 36 86l-19.5-5z" fill-opacity=".3"/>
  <path d="M111.6 120.7v13.2c0 9-3.7 18.3-16.5 18.3-7.9 0-15.9-4.8-18.5-23l-5-34.8C70.3 84 60 69.8 48.9 67c-.4 0-16-4.7-17.7-5.4l-2.4-1.4-1.4-1.8L48 63.9c7 1.6 13 4.8 17.8 9.7a42.8 42.8 0 0 1 11 24.3l4.4 33.3c1.2 10.1 5.6 16.8 13 16.8 8 0 12.3-4.1 12.4-13l.8-14.3h4.2z" fill-opacity=".3"/>
  <path d="M130.4 132v-16.5h-27.3v2.4c0 21.2-5.8 30.3-18.8 30.3-11.5 0-19.4-8.2-24.4-21.6-5.7-15.4-14.5-22.4-31.4-22.4H5.3c-3 0-5.3 2.5-5.3 5.4a13.7 13.7 0 0 0 13.8 13.8h14.7c3.1 0 6 2.1 9.1 6.7a95 95 0 0 1 8 16.6c3.1 7.4 7.3 13.6 12.8 18.3a38.8 38.8 0 0 0 26 8.9c11.2 0 22.6-4.1 31.3-11.3a39.2 39.2 0 0 0 14.7-30.6z" fill="#053949"/>
  <path d="M125.7 120.2V132c0 10.7-4.7 20-13 27a45.2 45.2 0 0 1-28.4 10.2c-9.3 0-16.8-2.7-22.8-7.8-5-4.2-8.7-9.8-11.5-16.5a98.4 98.4 0 0 0-8.5-17.4c-3.8-5.7-8-8.9-13-8.9H13.8a9 9 0 0 1-9-9c0-.4.2-.6.5-.6h23.2c14.8 0 21.9 5.6 27 19.2a47.2 47.2 0 0 0 9.7 16.4 25.7 25.7 0 0 0 19.1 8.4c15.6 0 23-10.9 23.5-32.8h18z" fill="#00D8FE"/>
  <path d="m4.9 109.2 1.7 1.7a9.1 9.1 0 0 0 6.2 2.3H32c10.7 0 16.3 8.4 23.3 23.9A31.2 31.2 0 0 0 85.7 157c20.4 0 26.4-20 26.4-29.2v-7.6h-4.3c-.5 22-7.9 32.8-23.5 32.8-7.5 0-14-3-19-8.4a47.2 47.2 0 0 1-9.8-16.4c-5.1-13.6-12.2-19.2-27-19.2H5.3c-.2 0-.3 0-.4.2z" fill-opacity=".3"/>
  <path d="M179.7 157.5a23.6 23.6 0 0 1-20 10.3c-11.2 0-20.2-4.6-26.3-12.7-5.3-7-8.1-16.5-8.1-26v-13.3l26.6.2 1.1 18.8c0 6.4 2.3 8.5 8 8.5 4.5 0 7.6-4.6 8.6-12.7l4.5-33.4a47 47 0 0 1 12.6-27A41.2 41.2 0 0 1 207 59.5l22-5.8c3.2 0 5.4 2.4 5.4 5.2 0 4.6-.6 6.8-3.2 10-.8 1-2 1.9-3.7 2.7-1.8 1-4.1 1.8-6.9 2.8a142.8 142.8 0 0 1-9.8 3A22.5 22.5 0 0 0 195.1 96l-7.6 39a49.5 49.5 0 0 1-7.8 22.5zm-54.2-41H151v2.4l-.3 15c0 6.4 4.6 10.3 10.8 10.3 4.5 0 8.6-4.7 13.6-14.4l14.4-28a38.8 38.8 0 0 1 28.7-20l20.4-5.3c3.3 0 5.8 4 5.8 7 0 3.3-1.4 6.8-3.6 9.5-2 2.5-6.3 4.6-10.2 5.4l-8.6 1.9a29 29 0 0 0-16.1 12.5L195 139c-4 9-8.3 15.6-13.3 20.3a29.5 29.5 0 0 1-21 8.5c-7.6 0-15.5-2.7-21.6-7.6a29.8 29.8 0 0 1-11.4-22l-2.2-21.6z" fill="#053949"/>
  <path d="m185.7 119.5 4.7-24.1a27 27 0 0 1 22-23.5 139 139 0 0 0 13-4.6 14.3 14.3 0 0 0 2.1-1.4c1.9-2.3 2.2-3.5 2.2-7.1 0-.2 0-.3-.2-.4l-21.3 5.5a36.7 36.7 0 0 0-18.2 9.7A42.4 42.4 0 0 0 178.8 98l-4.5 33.3c-1.3 10-5.8 16.7-13.3 16.7-8.2 0-12.7-4.1-12.7-13l-.8-14.3-17.5-.1v8.6c0 8.4 2.5 16.8 7.2 23a26.8 26.8 0 0 0 25.3 10.7c12.2-.7 20.5-9 28.2-25.8l11-26.3c3.5-6.9 11-12.4 19-15l9-2A15 15 0 0 0 237 90c1.6-2 2.6-4.4 2.6-6.5a4.4 4.4 0 0 0-1-2.1l-19.5 5a34.2 34.2 0 0 0-25.5 17.6l-8 15.5z" fill="#00D8FE"/>
  <path d="m185.7 119.5 4.7-24.1a27 27 0 0 1 22-23.5 139 139 0 0 0 13-4.6 14.3 14.3 0 0 0 2.1-1.4c1.9-2.3 2.2-3.5 2.2-7.1 0-.2 0-.3-.2-.4l-21.3 5.5a36.7 36.7 0 0 0-18.2 9.7A42.4 42.4 0 0 0 178.8 98l-4.5 33.3c-1.3 10-5.8 16.7-13.3 16.7-8.2 0-12.7-4.1-12.7-13l-.8-14.3-17.5-.1v8.6c0 8.4 2.5 16.8 7.2 23a26.8 26.8 0 0 0 25.3 10.7c12.2-.7 20.5-9 28.2-25.8l11-26.3c3.5-6.9 11-12.4 19-15l9-2A15 15 0 0 0 237 90c1.6-2 2.6-4.4 2.6-6.5a4.4 4.4 0 0 0-1-2.1l-19.5 5a34.2 34.2 0 0 0-25.5 17.6l-8 15.5z" fill="#00D8FE"/>
  <path d="m238.8 81-1.4 2a16.8 16.8 0 0 1-8.2 3.8l-9.7 1.9a36 36 0 0 0-20.7 15L187 130a90 90 0 0 1-5 8.8c.4-1.6.7-3.3.9-4.9l2.9-15 8-15.4A34.2 34.2 0 0 1 219.2 86l19.5-5h.1z" fill-opacity=".3"/>
  <path d="M143.6 120.7v13.2c0 9 3.7 18.3 16.6 18.3 7.8 0 15.8-4.8 18.4-23l5-34.8C185 84 195.1 69.8 206.3 67c.4 0 16-4.7 17.7-5.4l2.4-1.4 1.4-1.8-20.6 5.4c-6.9 1.6-13 4.8-17.7 9.7a42.8 42.8 0 0 0-11 24.3l-4.5 33.3c-1.2 10.1-5.6 16.8-13 16.8-8 0-12.3-4.1-12.3-13l-.8-14.3h-4.3z" fill-opacity=".3"/>
  <path d="M124.8 132v-16.5H152v2.4c0 21.2 5.8 30.3 18.8 30.3 11.5 0 19.4-8.2 24.4-21.6 5.8-15.4 14.5-22.4 31.4-22.4H250c2.9 0 5.2 2.5 5.2 5.4a13.7 13.7 0 0 1-13.8 13.8h-14.7c-3 0-6 2.1-9 6.7a95 95 0 0 0-8.1 16.6c-3 7.4-7.3 13.6-12.8 18.3a38.8 38.8 0 0 1-25.9 8.9 49.9 49.9 0 0 1-31.4-11.3 39.2 39.2 0 0 1-14.7-30.6z" fill="#053949"/>
  <path d="M129.5 120.2V132c0 10.7 4.7 20 13 27a45.2 45.2 0 0 0 28.4 10.2c9.4 0 16.9-2.7 22.8-7.8 5-4.2 8.7-9.8 11.5-16.5a98.4 98.4 0 0 1 8.5-17.4c3.8-5.7 8-8.9 13-8.9h14.7a9 9 0 0 0 9.1-9c0-.4-.3-.6-.5-.6h-23.3c-14.8 0-21.9 5.6-27 19.2a47.2 47.2 0 0 1-9.7 16.4 25.7 25.7 0 0 1-19.1 8.4c-15.6 0-23-10.9-23.5-32.8h-18z" fill="#00D8FE"/>
  <path d="m250.4 109.2-1.8 1.7a9.1 9.1 0 0 1-6.2 2.3h-19.3c-10.7 0-16.3 8.4-23.3 23.9a31.2 31.2 0 0 1-30.3 19.9c-20.4 0-26.4-20-26.4-29.2v-7.6h4.3c.5 22 7.9 32.8 23.5 32.8 7.6 0 14-3 19-8.4 4.2-4.3 7.4-9.9 9.8-16.4 5.1-13.6 12.2-19.2 27-19.2H250c.1 0 .3 0 .4.2z" fill-opacity=".3"/>
  <path d="M145.7 125.4s-12.8 3.4-19.2 3.4c-6.3 0-18.8-3.4-18.8-3.4-1.1 0-2-.9-2-2V79a2 2 0 0 1 2-2h38c1 0 2 .9 2 2v44.4a2 2 0 0 1-2 2z" fill="#00D8FE"/>
  <path d="m139.7 132.6-4.4 1a52 52 0 0 1-8.8.9 50.6 50.6 0 0 1-13-1.9 165.6 165.6 0 0 1-6.8-1.6 7.6 7.6 0 0 1-6.6-7.6V79c0-4.2 3.4-7.6 7.6-7.6h38c4.2 0 7.6 3.4 7.6 7.6v44.4c0 3.9-2.9 7.1-6.7 7.6a173 173 0 0 1-7 1.6zm6.1-7.2c1 0 1.8-1 1.8-2V79c0-1.1-.9-2-2-2h-38c-1 0-1.9.9-1.9 2v44.4a2 2 0 0 0 1.8 2h.5l.2.2A159.8 159.8 0 0 0 119 128c3.2.5 5.8.8 7.6.8a47 47 0 0 0 12-1.7l6.9-1.6h.4z" fill="#043849"/>
  <g transform="translate(104.8 76.3)">
    <mask id="b" fill="#fff">
      <use xlink:href="#a"/>
    </mask>
    <path fill-opacity=".3" mask="url(#b)" d="M.6 14.8H11L5.4 54.3H.6z"/>
  </g>
  <circle fill="#FFF" cx="105.2" cy="98.8" r="11.8"/>
  <path d="M105.2 113.3a14.6 14.6 0 1 1 0-29.2 14.6 14.6 0 0 1 0 29.2zm0-5.6a9 9 0 1 0 0-18 9 9 0 0 0 0 18z" fill="#063A49"/>
  <circle fill="#053949" cx="105.2" cy="98.8" r="3.7"/>
  <circle fill="#FFF" cx="147.6" cy="98.8" r="11.8"/>
  <path d="M147.6 113.3a14.6 14.6 0 1 1 0-29.2 14.6 14.6 0 0 1 0 29.2zm0-5.6a9 9 0 1 0 0-18 9 9 0 0 0 0 18z" fill="#063A49"/>
  <circle fill="#053949" cx="147.6" cy="98.8" r="3.7"/>
  <path d="M138 95.5a147.7 147.7 0 0 1-11.5 1.2 58.5 58.5 0 0 1-11.4-1.2l-5.9-1c-13.8-.3-24-9.4-24-22.3V41.3a41.3 41.3 0 1 1 82.8 0v31c0 12.8-10 21.9-23.9 22.1l-6 1.1zm5.8-6.7c11-.1 18.6-6.9 18.6-16.6V41.3a35.7 35.7 0 0 0-71.5 0v31c0 9.6 7.6 16.4 18.6 16.5h.8a185.8 185.8 0 0 0 9.4 1.7c2.9.4 5.2.6 6.8.6a55.6 55.6 0 0 0 10.7-1.2l6-1 .3-.1h.3z" fill="#043849"/>
  <g transform="translate(90.3 4.8)">
    <mask id="d" fill="#fff">
      <use xlink:href="#c"/>
    </mask>
    <path d="M53.3 84s-11.4 2.3-17 2.3S19.5 84 19.5 84C9.1 84 .7 78 .7 67.4V36.6a35.7 35.7 0 1 1 71.4 0v30.8C72.1 78 63.7 84 53.3 84z" fill="#00D8FE" mask="url(#d)"/>
  </g>
  <g transform="translate(90.3 4.8)">
    <mask id="f" fill="#fff">
      <use xlink:href="#e"/>
    </mask>
    <path d="M10.5 66.5V26.2c0-18 13.4-33 30.8-35.3A35.7 35.7 0 0 0 .7 26.3v40.2C.7 76.9 9 85.4 19.5 85.4h9.9a18.9 18.9 0 0 1-18.9-19z" fill-opacity=".3" mask="url(#f)"/>
  </g>
  <g transform="translate(90.3 4.8)">
    <mask id="h" fill="#fff">
      <use xlink:href="#g"/>
    </mask>
    <circle fill-opacity=".3" mask="url(#h)" cx="32.6" cy="66" r="3.7"/>
  </g>
  <g transform="translate(90.3 4.8)">
    <mask id="j" fill="#fff">
      <use xlink:href="#i"/>
    </mask>
    <circle fill-opacity=".3" mask="url(#j)" cx="22.7" cy="46.7" r="3.7"/>
  </g>
  <g transform="translate(90.3 4.8)">
    <mask id="l" fill="#fff">
      <use xlink:href="#k"/>
    </mask>
    <circle fill-opacity=".3" mask="url(#l)" cx="36.4" cy="28.7" r="3.7"/>
  </g>
  <g transform="translate(90.3 4.8)">
    <mask id="n" fill="#fff">
      <use xlink:href="#m"/>
    </mask>
    <circle fill-opacity=".3" mask="url(#n)" cx="50" cy="47.6" r="3.7"/>
  </g>
</svg>
