<svg xmlns="http://www.w3.org/2000/svg" width="300" height="300" viewBox="0 0 300 300">
  <g fill="none" fill-rule="evenodd">
    <circle cx="150" cy="150" r="150" fill="#6332F6"/>
    <path fill="#FFF" fill-rule="nonzero" d="M190.2 200.9c0-5.4-1-10-3.1-14a37 37 0 00-8.6-10.5 62.5 62.5 0 00-12.9-8.3c-5-2.6-10.4-5.2-16.2-8a559 559 0 01-20.6-10.2 94.9 94.9 0 01-18.6-12.6A59.4 59.4 0 0197 120.6a45.7 45.7 0 01-5.1-22 58.7 58.7 0 0115.3-39.3c5-5.4 11.2-9.8 18.8-13.2A63 63 0 01152 41a70.9 70.9 0 0137.5 10.2 75.8 75.8 0 0122.5 20.4l-18.9 15.3A52.1 52.1 0 00152.1 65a39 39 0 00-15.2 2.7c-4.3 1.8-7.9 4.2-10.9 7.2s-5.2 6.4-6.8 10.3a32.8 32.8 0 00-2.2 11.9c0 5 1.1 9.3 3.3 13 2.2 3.8 5.3 7.2 9.3 10.4a89 89 0 0014.7 9.3c5.8 3 12.3 6.1 19.5 9.3a209 209 0 0121.8 11.3c6.5 3.9 12 8.1 16.5 12.7a48.9 48.9 0 0113.9 36c0 9.2-1.6 17.4-5 24.8a54.1 54.1 0 01-13.6 18.5c-5.8 5.2-12.6 9-20.6 11.8-7.9 2.7-16.3 4-25.3 4a73.8 73.8 0 01-43.5-13.6 68.9 68.9 0 01-14.4-14.2 82 82 0 01-9.6-16l21-12.6a59.9 59.9 0 0017.1 22.5 47 47 0 0043.7 7.8c4.7-1.4 8.8-3.5 12.4-6.3a30.3 30.3 0 0012-24.9z"/>
  </g>
</svg>
