<svg xmlns="http://www.w3.org/2000/svg" viewBox="0 0 460 460" fill-rule="evenodd" clip-rule="evenodd" stroke-linejoin="round" stroke-miterlimit="2">
  <circle cx="274.1" cy="1813.1" r="32" fill="url(#_Linear1)" transform="rotate(-19.4 -4230.6 1317)"/>
  <circle cx="383" cy="1719.6" r="32" fill="url(#_Linear2)" transform="rotate(-19.4 -4230.6 1317)"/>
  <path d="M796 1418.2a155.5 155.5 0 005.4 163.5 12 12 0 1020.4-12.6 131.7 131.7 0 0165.7-198 131.7 131.7 0 01168.1 80.7 131.7 131.7 0 01-132.8 175.3 12 12 0 10-1.2 24 156 156 0 00156.6-207.2A156 156 0 00796 1418z" fill="url(#_Linear3)" fill-rule="nonzero" transform="translate(-675.6 -1327.6)"/>
  <path d="M724.3 1542.4a155.5 155.5 0 00-11.9 129 156 156 0 00198.7 95.4 156 156 0 0078.4-232.9 12 12 0 00-21-.5 12 12 0 00.4 12.7 131.7 131.7 0 01-65.7 198 131.6 131.6 0 01-168.1-80.6 131.7 131.7 0 01133.4-175.3 12 12 0 006.9-22.4 12 12 0 00-6.7-1.5 155.2 155.2 0 00-144.4 78.2z" fill="url(#_Linear4)" fill-rule="nonzero" transform="translate(-675.6 -1327.6)"/>
  <defs>
    <linearGradient id="_Linear1" x1="0" y1="0" x2="1" y2="0" gradientUnits="userSpaceOnUse" gradientTransform="rotate(-40.6 2600.8 580) scale(64.1373)">
      <stop offset="0" stop-color="#0096f2"/>
      <stop offset="1" stop-color="#4cffc4"/>
    </linearGradient>
    <linearGradient id="_Linear2" x1="0" y1="0" x2="1" y2="0" gradientUnits="userSpaceOnUse" gradientTransform="rotate(139.4 -110.8 925.2) scale(64.0044)">
      <stop offset="0" stop-color="#ff8a11"/>
      <stop offset="1" stop-color="#fff550"/>
    </linearGradient>
    <linearGradient id="_Linear3" x1="0" y1="0" x2="1" y2="0" gradientUnits="userSpaceOnUse" gradientTransform="scale(-301.223) rotate(-60 -5.4 .5)">
      <stop offset="0" stop-color="#ff8a11"/>
      <stop offset="1" stop-color="#fff550"/>
    </linearGradient>
    <linearGradient id="_Linear4" x1="0" y1="0" x2="1" y2="0" gradientUnits="userSpaceOnUse" gradientTransform="scale(301.227) rotate(-60 6.3 .7)">
      <stop offset="0" stop-color="#0096f2"/>
      <stop offset="1" stop-color="#4cffc4"/>
    </linearGradient>
  </defs>
</svg>
