<svg width="112" height="112" viewBox="0 0 112 112" xmlns="http://www.w3.org/2000/svg">
  <g transform="translate(-4 -4)" fill="none" fill-rule="evenodd">
    <rect stroke="#3d3d3d" stroke-width="5" x="18.5" y="18.5" width="83" height="83" rx="5"/>
    <path d="M29 24h62c3 0 5 2 5 5v62c0 3-2 5-5 5H29c-3 0-5-2-5-5V29c0-3 2-5 5-5zm7 10h19l2 2v19l-2 2H36l-2-2V36l2-2zm0 30h6l2 2v19l-2 2h-6l-2-2V66l2-2zm13 0h6l2 2v19l-2 2h-6l-2-2V66l2-2zm16-30h19l2 2v19l-2 2H65l-2-2V36l2-2zm0 30h6l2 2v19l-2 2h-6l-2-2V66l2-2zm13 0h6l2 2v19l-2 2h-6l-2-2V66l2-2z" fill="#3d3d3d"/>
    <g fill="#3d3d3d" stroke="#3d3d3d">
      <path d="M36 16h4V9a2 2 0 00-4 0h0v7zM69 16h4V9a2 2 0 00-4 0h0v7zM58 16h4V9a2 2 0 00-4 0h0v7zM47 16h4V9a2 2 0 00-4 0h0v7zM80 16h5v-6a2 2 0 00-5 0h0v6z"/>
    </g>
    <g fill="#3d3d3d" stroke="#3d3d3d">
      <path d="M84 104h-4v7a2 2 0 004 0h0v-7zM51 104h-4v7a2 2 0 004 0h0v-7zM62 104h-4v7a2 2 0 004 0h0v-7zM73 104h-4v7a2 2 0 004 0h0v-7zM40 104h-4v6a2 2 0 004 0h0v-6z"/>
    </g>
    <g fill="#3d3d3d" stroke="#3d3d3d">
      <path d="M104 36v4h7a2 2 0 000-4h0-7zM104 69v4h7a2 2 0 000-4h0-7zM104 58v4h7a2 2 0 000-4h0-7zM104 47v4h7a2 2 0 000-4h0-7zM104 80v5l6-1a2 2 0 000-4h0-6z"/>
    </g>
    <g fill="#3d3d3d" stroke="#3d3d3d">
      <path d="M16 84v-4H9a2 2 0 000 4h7zM16 51v-4H9a2 2 0 000 4h7zM16 62v-4H9a2 2 0 000 4h7zM16 73v-4H9a2 2 0 000 4h7zM16 40v-4h-6a2 2 0 000 4h6z"/>
    </g>
  </g>
</svg>
