<svg viewBox="0 0 225 200" xmlns="http://www.w3.org/2000/svg" fill-rule="evenodd" clip-rule="evenodd" stroke-linecap="round" stroke-linejoin="round" stroke-miterlimit="1.5">
  <path d="M144.8 161.2c2-2 2-5.3 0-7.3L117 126c-2-2-5.3-2-7.3 0l-27.8 28c-2 2-2 5.2 0 7.2l27.8 27.9c2 2 5.3 2 7.3 0l28-28z" fill="#a1ffee"/>
  <path d="M113.5 119.4h1.2l.3.1h.2l.3.1h.2l.3.1.2.1h.2l.3.2h.2l.2.1.3.1.2.1h.1l.1.1.1.1h.2v.1h.2v.1l.2.1h.1l.1.1.1.1h.1l.1.2h.1l.2.1.2.2.2.1.2.2.2.1v.1l.2.1v.1l.2.1 28 28 .1.2h.1l.1.2.2.2.1.2h.1l.1.2.2.2.1.2.2.2v.2l.2.1v.2l.1.2h.1v.2h.1v.2l.2.2v.1l.1.2.1.2v.2l.2.3v.2l.1.2v.3l.2.2v.5l.1.2v.5l.1.3v2.4l-.1.3v.5l-.1.2-.1.2v.3l-.1.2-.1.3-.1.2-.1.2-.1.2v.2h-.1l-.1.3v.1l-.1.1-.2.3-.1.3-.1.1v.1l-.1.1-.1.1v.1l-.2.1v.1l-.1.1-.1.1v.1l-.2.1v.1l-.2.2-.1.1v.1l-.2.1v.1l-28.1 28.1-.1.1h-.1l-.1.2h-.1l-.1.1-.1.1-.1.1-.1.1h-.1l-.1.2h-.1l-.1.1h-.2v.2h-.2v.1h-.2v.1l-.2.1h-.1l-.1.1h-.1l-.1.1-.2.1-.2.1h-.1l-.1.1h-.1l-.3.2h-.2l-.2.1-.3.1-.2.1h-.2l-.3.1h-.2l-.3.1h-.2l-.3.1h-.4l-.3.1h-2.2l-.2-.1h-.3l-.2-.1h-.3l-.2-.1-.2-.1h-.3l-.2-.2h-.3l-.2-.1-.2-.1h-.1l-.1-.1h-.2v-.1h-.2l-.1-.2h-.2l-.1-.1-.1-.1h-.2v-.1l-.2-.1-.2-.1v-.1h-.2l-.1-.2h-.1l-.1-.1-.1-.1h-.1l-.1-.2h-.1l-.1-.1-.1-.1-.1-.1-.1-.1-.2-.2-27.9-27.9-.2-.2-.1-.2h-.1l-.1-.2h-.1v-.2h-.2v-.2h-.1l-.1-.2-.2-.2-.1-.2v-.1l-.1-.1-.1-.1v-.1l-.1-.1v-.1l-.2-.2v-.2h-.1v-.2l-.1-.1v-.1l-.1-.2-.1-.2-.1-.2-.1-.3-.1-.2v-.2l-.1-.3-.1-.2v-.2l-.1-.3v-.5l-.1-.2v-3l.1-.2v-.2l.1-.3v-.2l.1-.3.1-.2v-.2l.2-.3v-.2l.2-.2v-.2l.1-.2v-.1l.1-.1v-.1l.1-.1.1-.1v-.2h.1l.1-.2.1-.2.1-.1v-.1l.1-.1.1-.1.1-.1v-.1l.2-.1v-.1l.1-.1.1-.1v-.1l.2-.1v-.1l.1-.1.1-.1.1-.1.1-.1 28-28h.1l.1-.2.2-.2.2-.1v-.1h.2v-.2h.2l.1-.1.1-.1h.1l.1-.1.1-.1h.1l.1-.2h.3v-.2h.2l.2-.1.1-.1h.1l.1-.1h.2v-.1h.2l.2-.2h.2l.3-.1.2-.1h.3l.2-.2h.5l.2-.1h.3l.2-.1h.7l.3-.1h.7zm-.2 10.3-27.9 27.8 27.9 28 27.9-28-28-27.8z" fill="#253b59"/>
  <path d="M210 24.9c0-8.8-6.5-15.9-14.6-15.9H24.6C16.6 9 10 16.1 10 24.9v127.2c0 8.8 6.5 15.9 14.6 15.9h170.8c8 0 14.6-7.1 14.6-15.9V24.9z" fill="url(#a)" stroke="#243a59" stroke-width="10.4" transform="matrix(1 0 0 .91824 3.3 6.8)"/>
  <path d="M26 20.3v135.5a9.6 9.6 0 0 1-7.7-9.3v-117c0-4.5 3.3-8.3 7.7-9.2z" fill="#fff" fill-opacity=".9"/>
  <ellipse cx="76.3" cy="78.9" rx="9" ry="8.9" fill="#243a59" transform="matrix(1.11111 0 0 1.12246 -9.8 -2.5)"/>
  <ellipse cx="145.2" cy="78.9" rx="9" ry="8.9" fill="#243a59" transform="matrix(1.11111 0 0 1.12246 -10 -2.5)"/>
  <path d="M141 110.5h.7l.3.2h.3l.3.2.3.1.3.2.2.1.3.2.2.2.3.2.2.3.2.2.2.3.1.3.2.3.1.2.1.4.1.3v.3l.1.3v1.6l-.1.3-.1.3-.1.3-.1.3-.2.3-.2.3-.2.2-.2.3-.2.2-.2.2-.3.2-.3.3-.4.3-.4.2-.4.3-.3.3-.4.2-.4.3-.4.2-.3.3-.4.2-.4.3-.3.2-.4.2-.4.3-.3.2-.4.2-.4.2-.4.2-.3.3-.4.2-.4.2-.3.2-.4.2-.3.1-.4.2-.4.2-.3.2-.4.2-.4.1-.3.2-.4.2-.4.1-.3.2-.4.1-.3.2-.4.1-.4.2-.3.1-.4.2-.3.1-.4.1-.3.2h-.4l-.3.2-.4.1-.3.1-.4.1-.3.1-.4.1-.3.1-.4.1-.3.1-.4.1-.3.1-.4.1h-.3l-.4.2h-.3l-.3.1h-.4l-.3.1-.4.1h-.3l-.3.1h-.4l-.3.1h-.3l-.4.1h-.3l-.3.1h-.7l-.3.1h-1l-.3.1h-6.5l-.3-.1h-.6l-.3-.1h-.6l-.3-.1h-.3l-.2-.1h-.3l-.3-.1h-.3l-.3-.1h-.2l-.3-.1h-.3l-.3-.1h-.2l-.3-.1h-.3l-.2-.2h-.6l-.2-.1-.3-.1h-.2l-.3-.2h-.5l-.3-.2h-.2l-.3-.1-.2-.1h-.3l-.2-.2h-.2l-.3-.1-.2-.1h-.3l-.2-.2H99l-.3-.1-.2-.1-.2-.1H98l-.3-.2h-.2l-.2-.2h-.2l-.3-.1-.2-.1-.2-.1-.2-.1-.2-.1-.2-.1-.2-.1h-.2l-.2-.2H95l-.2-.2h-.2l-.2-.2h-.1l-.2-.2h-.2l-.2-.2h-.2l-.2-.2h-.2l-.2-.2h-.2l-.1-.1-.2-.1-.2-.1-.2-.1-.1-.1-.4-.2-.3-.2-.3-.2-.4-.2-.3-.2-.3-.2-.3-.2-.3-.2-.2-.2-.3-.1-.3-.2-.2-.2-.3-.2-.2-.2-.3-.1-.2-.2-.2-.2-.2-.1-.2-.2-.2-.1-.2-.2-.2-.1-.2-.1-.1-.2-.2-.1-.1-.1-.2-.1-.1-.1-.1-.2-.3-.1-.1-.2-.2-.1-.1-.2h-.1l-.2-.3-.2-.2-.2-.3-.2-.2-.2-.3-.1-.3-.1-.3-.1-.3-.1-.3v-.3l-.1-.4v-1.5l.2-.4v-.3l.2-.3.1-.2.2-.3.2-.3.2-.2.2-.3.2-.2.3-.2.2-.2.3-.2.3-.2h.3l.3-.2.3-.1.3-.1h.3l.3-.1h1.3l.3.1h.3l.3.2.3.1.3.2.3.1.2.2.3.2.2.2.1.1h.1l.1.2.2.1.1.1.1.1.1.1.2.1v.1l.2.1.1.1.2.1.1.1.2.2h.1l.2.2.2.1.2.2.2.1.2.1.2.2.2.1.2.2.2.1.2.2.3.1.2.2.3.1.2.2.3.1.2.2.3.1.1.1h.2l.1.2h.2l.1.1h.2l.1.2h.1l.2.1.1.1h.2l.2.2h.1l.2.1h.1l.2.2h.1l.2.1h.2l.1.2h.2l.2.1.3.2h.2l.1.1h.2l.2.1.2.1h.1l.2.2h.4l.2.2h.3l.2.2h.4l.2.2h.3l.2.1.2.1h.2l.2.1h.2l.2.1h.2l.2.1h.2l.2.1h.2l.2.1h.2l.2.1h.2l.2.1h.3l.2.1h.2l.2.1h.4l.2.1h.5l.2.1h.4l.2.1h.7l.2.1h.7l.3.1h5.5l.3-.1h.5l.2-.1h.5l.3-.1h.3l.2-.1h.3l.2-.1h.3l.3-.1h.2l.3-.1h.3l.2-.1.3-.1h.3l.2-.2h.3l.3-.1h.3l.2-.2h.3l.3-.1.3-.1.2-.1.3-.1.3-.1.3-.1.3-.1.3-.1.2-.1.3-.1.3-.2h.3l.3-.2.3-.1.3-.1.3-.2.3-.1.3-.1.3-.2.2-.1.3-.2.3-.1.3-.2.3-.1.3-.2.3-.2.3-.1.4-.2.3-.2.3-.1.3-.2.3-.2.3-.2.3-.2.3-.2.3-.2.3-.2.3-.2.4-.2.3-.2.3-.2.3-.3.3-.2.3-.2.4-.2.3-.3.3-.2.3-.2.3-.2.2-.1.3-.2h.3l.3-.2h.7l.3-.1h.6z" fill="#253b59"/>
  <defs>
    <linearGradient id="a" x1="0" y1="0" x2="1" y2="0" gradientUnits="userSpaceOnUse" gradientTransform="matrix(184.861 147.565 -135.5 201.321 18.9 14.7)">
      <stop offset="0%" stop-color="#b476ff"/>
      <stop offset="22%" stop-color="#ffb69c"/>
      <stop offset="22%" stop-color="#ffda90"/>
      <stop offset="53%" stop-color="#fff"/>
      <stop offset="53%" stop-color="#73ffd5"/>
      <stop offset="81%" stop-color="#a1eeff"/>
      <stop offset="100%" stop-color="#e4fffa"/>
    </linearGradient>
  </defs>
</svg>
