<svg xmlns="http://www.w3.org/2000/svg" viewBox="0 0 64 64">
  <path style="fill:#fff;fill-opacity:1;stroke:none" d="M56.48 31.74a25.1 25.1 0 1 1-50.2 0 25.1 25.1 0 1 1 50.2 0z" transform="matrix(1.275 0 0 1.28 -8.004 -8.8)"/>
  <path style="fill:none;stroke:#333;stroke-width:2.3741;stroke-linecap:round;stroke-linejoin:miter;stroke-miterlimit:4;stroke-opacity:1;stroke-dasharray:none" d="M53.18 999.6S20.82 1031 17.66 1034c-4.4 5-10.649-1-5.92-6" transform="translate(0 -988.4)"/>
  <path style="fill:#0074d9;fill-opacity:1;stroke:none" d="M10.04 1002c9.52-12.6 30.06-13.8 41.47-1 11.42 13 11.41 30-.18 42-.8-8-7.41-11-12.35-11-1.21-10-8.39-17-16.59-18 .17-6-6.42-13-12.35-12z" transform="translate(0 -988.4)"/>
  <path style="fill:#7fdbff;fill-opacity:1;stroke:none" d="M22.39 1014c7.71-8 16.56-13 29.2-13-.31 13-4.5 24-12.61 31-1.98-9-9.64-17-16.59-18z" transform="translate(0 -988.4)"/>
  <path style="fill:none;stroke:#333;stroke-width:2.6088;stroke-linecap:round;stroke-linejoin:round;stroke-miterlimit:4;stroke-opacity:1;stroke-dasharray:none" d="M32.6 1037c-4.24-8-10.07-2-6.18 2 3.92 4-2.07 11-6.92 2" transform="translate(0 -988.4)"/>
</svg>
