<svg width="256" height="254" viewBox="0 0 256 254" xmlns="http://www.w3.org/2000/svg" xmlns:xlink="http://www.w3.org/1999/xlink" preserveAspectRatio="xMidYMid">
	<defs><linearGradient x1="50%" y1="0%" x2="50%" y2="100%" id="c"><stop stop-color="#FFF" offset="0%"/><stop stop-color="#FFF" stop-opacity="0" offset="100%"/></linearGradient>
	<path d="M180.83 252.6a15.87 15.87 0 0012.65-.48l52.5-25.26a15.94 15.94 0 009.02-14.37V41.2c0-6.12-3.5-11.7-9.02-14.36l-52.5-25.26a15.88 15.88 0 00-18.12 3.09L74.86 96.35 31.08 63.12a10.61 10.61 0 00-13.56.6L3.48 76.5a10.63 10.63 0 00-.02 15.72l37.97 34.63-37.97 34.64a10.63 10.63 0 00.02 15.72l14.04 12.77a10.61 10.61 0 0013.56.6l43.78-33.23 100.5 91.7a15.85 15.85 0 005.47 3.57zm10.46-183.64l-76.26 57.88 76.26 57.9V68.95z" id="a"/></defs><mask id="b" fill="#fff"><use xlink:href="#a"/></mask><path d="M246.13 26.87L193.6 1.57a15.89 15.89 0 00-18.12 3.09l-172 156.82a10.63 10.63 0 000 15.72l14.06 12.77c3.79 3.44 9.49 3.7 13.57.6L238.23 33.44a10.55 10.55 0 0116.93 8.4v-.6c0-6.13-3.5-11.71-9.03-14.37z" fill="#0065A9" mask="url(#b)"/><path d="M246.13 226.82l-52.54 25.3a15.89 15.89 0 01-18.12-3.09L3.47 92.21a10.63 10.63 0 010-15.72l14.06-12.77c3.79-3.44 9.49-3.7 13.57-.6l207.13 157.13a10.55 10.55 0 0016.93-8.4v.6c0 6.13-3.5 11.7-9.03 14.37z" fill="#007ACC" mask="url(#b)"/><path d="M193.43 252.13a15.9 15.9 0 01-18.13-3.08c5.88 5.88 15.94 1.72 15.94-6.6V11.27c0-8.31-10.06-12.48-15.94-6.6a15.9 15.9 0 0118.13-3.08l52.53 25.26A15.94 15.94 0 01255 41.21v171.3c0 6.12-3.5 11.7-9.03 14.36l-52.53 25.26z" fill="#1F9CF0" mask="url(#b)"/><path d="M180.83 252.6a15.87 15.87 0 0012.65-.48l52.5-25.26a15.94 15.94 0 009.02-14.37V41.2c0-6.12-3.5-11.7-9.02-14.36l-52.5-25.26a15.88 15.88 0 00-18.12 3.09L74.86 96.35 31.08 63.12a10.61 10.61 0 00-13.56.6L3.48 76.5a10.63 10.63 0 00-.02 15.72l37.97 34.63-37.97 34.64a10.63 10.63 0 00.02 15.72l14.04 12.77a10.61 10.61 0 0013.56.6l43.78-33.23 100.5 91.7a15.86 15.86 0 005.47 3.57zm10.46-183.64l-76.26 57.88 76.26 57.9V68.95z" fill-opacity=".25" fill="url(#c)" mask="url(#b)"/>
</svg>