<svg xmlns="http://www.w3.org/2000/svg" viewBox="0 0 28.5 28.5" enable-background="new 0 0 28.5 28.5">
  <path d="M24 17.3h-8.9c-.1 0-.3 0-.4.1L8 22.7c-.1.1-.1.2 0 .3 0 .1.1.1.2.1h15.9c1.6 0 3-1.4 2.9-3.1-.1-1.6-1.5-2.7-3-2.7" fill-rule="evenodd" clip-rule="evenodd" fill="#00c9db"/>
  <g transform="translate(.64 .72)">
    <defs>
      <filter id="a" filterUnits="userSpaceOnUse" x="0" y=".1" width="16.1" height="22.3">
        <feColorMatrix values="1 0 0 0 0 0 1 0 0 0 0 0 1 0 0 0 0 0 1 0"/>
      </filter>
    </defs>
    <mask maskUnits="userSpaceOnUse" x="0" y=".1" width="16.1" height="22.3" id="b">
      <path d="M0 .1h16.1v22.3H0V.1z" fill-rule="evenodd" clip-rule="evenodd" fill="#fff" filter="url(#a)"/>
    </mask>
    <path d="M16.1 11c-.1-.8-.5-1.6-1.1-2.1L4.7.7c-1.3-1-3.1-.8-4.1.5-1 1.3-.8 3.1.5 4.1l7.5 6-7.5 6c-1.3 1-1.5 2.8-.5 4.1 1 1.3 2.8 1.5 4.1.5L15 13.5c.7-.6 1.1-1.4 1.1-2.3V11" mask="url(#b)" fill-rule="evenodd" clip-rule="evenodd" fill="#0d55ff"/>
  </g>
  <path d="M27 20.2a2.9 2.9 0 1 1-5.8 0 2.9 2.9 0 0 1 5.8 0" fill-rule="evenodd" clip-rule="evenodd" fill="#7000f2"/>
</svg>
