<svg viewBox="0 0 256 290" xmlns="http://www.w3.org/2000/svg" preserveAspectRatio="xMidYMid">
  <path fill="#FFF" d="m128 .048 128 72.405V217.31l-128 72.405L0 217.31V72.453z"/>
  <path d="m233.153 212.287-100.902 57.14V224.99l62.889-34.632 38.013 21.929zm6.907-6.231V86.654l-36.902 21.3v76.8l36.902 21.302zm-217.6 6.23 100.903 57.094v-44.438l-62.889-34.584-38.014 21.929zm-6.907-6.23V86.654l36.903 21.3v76.8l-36.903 21.302zm4.3-127.13 103.51-58.543v42.99L57.045 99.84l-.532.29-36.66-21.205zm215.86 0L132.251 20.382v42.99l66.27 36.515.531.29 36.661-21.253z" fill="#8ED6FB"/>
  <path d="m123.363 214.847-62.02-34.15v-67.574l62.02 35.792v65.932zm8.888 0 62.02-34.101v-67.623l-62.02 35.792v65.932zM65.497 105.298l62.31-34.246 62.26 34.246-62.26 35.937-62.31-35.937z" fill="#1C78C0"/>
</svg>
