<svg xmlns="http://www.w3.org/2000/svg" viewBox="0 0 279.8 98.5" style="enable-background:new 0 0 279.8 98.5" xml:space="preserve">
  <g fill="var(--fill, black)">
    <path d="M55.8 10.4h19.5L55.6 44.6c-6-10.7-5.9-23.7.2-34.2zM75.4 88.1 30.5 10.4H11l22.4 38.9L11 88.1h19.5l12.7-21.9 12.6 21.9z"/>
  </g>
  <g class="st0" fill="var(--fill, black)">
    <path d="M89.1 59.8c3.2 2.7 6.9 4 11.3 4.1 5.2-.1 7.8-2 7.9-5.7 0-3.1-1.7-4.9-5.2-5.5-1.6-.2-3.4-.5-5.3-.8-3.4-.6-6-1.9-7.8-3.9-1.8-2.1-2.8-4.6-2.8-7.6 0-3.6 1.2-6.5 3.5-8.7 2.2-2.2 5.4-3.3 9.5-3.3 4.9.1 9.2 1.5 12.9 4.2l-3.4 5.1c-3-2-6.3-3.1-9.8-3.2-1.9 0-3.4.5-4.6 1.4-1.3 1-2 2.5-2 4.4 0 1.2.4 2.3 1.3 3.2.9 1 2.3 1.7 4.3 2 1.1.2 2.6.4 4.5.6 3.7.5 6.5 1.9 8.3 4.1 1.8 2.2 2.6 4.7 2.6 7.7-.3 8.1-4.9 12-14 12.1-5.9 0-10.9-1.9-15.2-5.6l4-4.6zM135.5 34.2h-10.9v-5.5h27.8v5.5h-10.9v35.5h-6V34.2zM180.9 60.5h-15.1l-3.1 9.2h-6.4l14.4-41h5l14.4 41H184l-3.1-9.2zm-1.7-5.5-5.7-17.9h-.1L167.6 55h11.6zM205.4 34.2h-10.9v-5.5h27.8v5.5h-10.9v35.5h-6V34.2zM234.2 28.7h25.4v5.8h-19.4v11.7h16.5v5.5h-16.5v12.1h19.4v5.8h-25.4V28.7z"/>
  </g>
</svg>
