<svg viewBox="0 0 200 200" xmlns="http://www.w3.org/2000/svg">
  <defs>
    <linearGradient x1="62.102%" y1="0%" x2="108.197%" y2="37.864%" id="a">
      <stop stop-color="#4285EB" offset="0%"/>
      <stop stop-color="#2EC7FF" offset="100%"/>
    </linearGradient>
    <linearGradient x1="69.644%" y1="0%" x2="54.043%" y2="108.457%" id="b">
      <stop stop-color="#29CDFF" offset="0%"/>
      <stop stop-color="#148EFF" offset="37.86%"/>
      <stop stop-color="#0A60FF" offset="100%"/>
    </linearGradient>
    <linearGradient x1="69.691%" y1="-12.974%" x2="16.723%" y2="117.391%" id="c">
      <stop stop-color="#FA816E" offset="0%"/>
      <stop stop-color="#F74A5C" offset="41.473%"/>
      <stop stop-color="#F51D2C" offset="100%"/>
    </linearGradient>
    <linearGradient x1="68.128%" y1="-35.691%" x2="30.44%" y2="114.943%" id="d">
      <stop stop-color="#FA8E7D" offset="0%"/>
      <stop stop-color="#F74A5C" offset="51.264%"/>
      <stop stop-color="#F51D2C" offset="100%"/>
    </linearGradient>
  </defs>
  <g fill="none" fill-rule="evenodd">
    <g fill-rule="nonzero">
      <path d="M91.588 4.177 4.18 91.513a11.981 11.981 0 0 0 0 16.974l87.408 87.336a12.005 12.005 0 0 0 16.989 0l36.648-36.618c4.209-4.205 4.209-11.023 0-15.228-4.208-4.205-11.031-4.205-15.24 0l-27.783 27.76c-1.17 1.169-2.945 1.169-4.114 0l-69.802-69.744c-1.17-1.169-1.17-2.942 0-4.11l69.802-69.745c1.17-1.169 2.944-1.169 4.114 0l27.783 27.76c4.209 4.205 11.032 4.205 15.24 0 4.209-4.205 4.209-11.022 0-15.227L108.581 4.056c-4.719-4.594-12.312-4.557-16.993.12z" fill="url(#a)"/>
      <path d="M91.588 4.177 4.18 91.513a11.981 11.981 0 0 0 0 16.974l87.408 87.336a12.005 12.005 0 0 0 16.989 0l36.648-36.618c4.209-4.205 4.209-11.023 0-15.228-4.208-4.205-11.031-4.205-15.24 0l-27.783 27.76c-1.17 1.169-2.945 1.169-4.114 0l-69.802-69.744c-1.17-1.169-1.17-2.942 0-4.11l69.802-69.745c2.912-2.51 7.664-7.596 14.642-8.786 5.186-.883 10.855 1.062 17.009 5.837L108.58 4.056c-4.719-4.594-12.312-4.557-16.993.12z" fill="url(#b)"/>
      <path d="M153.686 135.855c4.208 4.205 11.031 4.205 15.24 0l27.034-27.012c4.7-4.696 4.7-12.28 0-16.974l-27.27-27.15c-4.218-4.2-11.043-4.195-15.254.013-4.209 4.205-4.209 11.022 0 15.227l18.418 18.403c1.17 1.169 1.17 2.943 0 4.111l-18.168 18.154c-4.209 4.205-4.209 11.023 0 15.228z" fill="url(#c)"/>
    </g>
    <ellipse fill="url(#d)" cx="100.519" cy="100.437" rx="23.6" ry="23.581"/>
  </g>
</svg>
