<svg viewBox="0 0 630 630" xmlns="http://www.w3.org/2000/svg">
  <g fill="none" fill-rule="evenodd">
    <path fill="#F3DF49" d="M0 0h630v630H0z"/>
    <path d="M213.863 497.296c9.3 16.492 17.762 30.444 38.057 30.444 19.454 0 31.719-7.61 31.719-37.21v-201.3h59.203v202.137c0 61.32-35.943 89.232-88.384 89.232-47.362 0-74.853-24.529-88.808-54.13l48.213-29.173zM470.64 580.86c-25.56 0-47.88-6.21-66.96-18.63-19.08-12.42-32.58-27.09-40.5-44.01l46.98-24.3c12.96 25.56 33.12 38.34 60.48 38.34 16.56 0 29.43-4.32 38.61-12.96s13.77-20.7 13.77-36.18c0-31.32-20.16-46.98-60.48-46.98-25.92 0-48.42 6.84-67.5 20.52l-2.7-1.62V289.8h168.48v47.52H440.4v55.08c9.36-2.88 21.78-4.32 37.26-4.32 29.88 0 54.54 9 73.98 27 19.44 18 29.16 41.04 29.16 69.12 0 28.8-9.45 52.11-28.35 69.93-18.9 17.82-46.17 26.73-81.81 26.73z" fill="#2E2E2C"/>
  </g>
</svg>
