<svg viewBox="0 0 175 200" xmlns="http://www.w3.org/2000/svg">
  <path d="M84.034 155.012a201.958 201.958 0 0 1-5.822-13.256 153.112 153.112 0 0 1-6.95 8.308l-3.963 4.511-5.02-2.12C47.61 146.266 5.067 125.583.682 92.175c-3.137-34.805 17.228-53.09 9.866-72.438 29.698 7.1 53.113 18.602 68.093 33.32 23.503-30 53.607-31.176 61.636-53.058 55.767 77.943 46.871 149.19-46.084 160.675C86.33 175.139 77.569 188.57 68.045 200l-13.034-8.094c11.176-10.73 20.74-23.256 29.023-36.894zm8.968-38.832a124.015 124.015 0 0 0 5.203 12.009c13.534-29.388 22.772-61.525 30.214-91.12-8.022 8.34-23.479 11.597-35.584 28.364a31.36 31.36 0 0 0-2.025 3.534c7.561 14.004 8.72 29.977 2.192 47.213zm-40.088 11.532c-5.146-28.65-12.096-55.274-24.257-78.832 12.979 18.118 28.054 44.385 36.045 74.114C92.74 89.762 74.4 54.94 22.692 42.59c4.806 12.637-8.499 24.583-6.45 47.324 3.019 22.946 28.69 34.575 36.672 37.8zm56.172 1.978c50.93-8.769 56.664-49.007 27.03-93.9-3.781 27.165-13.217 61.398-27.03 93.9z" fill="#26a2ff" fill-rule="evenodd"/>
</svg>
