<svg fill="none" xmlns="http://www.w3.org/2000/svg" viewBox="0 0 60 60">
  <mask id="a" style="mask-type:alpha" maskUnits="userSpaceOnUse" x="0" y="0" width="60" height="60">
    <path d="M30 60a30 30 0 1 0 0-60 30 30 0 0 0 0 60z" fill="#000"/>
  </mask>
  <g mask="url(#a)">
    <path d="M30 60a30 30 0 1 0 0-60 30 30 0 0 0 0 60z" fill="#000"/>
    <path d="M49.84 52.5 23.04 18H18v23.99h4.04V23.13l24.63 31.82a30.1 30.1 0 0 0 3.17-2.44z" fill="url(#b)"/>
    <path d="M42.33 18h-4v24h4V18z" fill="url(#c)"/>
  </g>
  <rect x="1" y="1" width="58" height="58" rx="29" stroke="#fff" stroke-width="2"/>
  <defs>
    <linearGradient id="b" x1="36.33" y1="38.83" x2="48.17" y2="53.5" gradientUnits="userSpaceOnUse">
      <stop stop-color="#fff"/>
      <stop offset="1" stop-color="#fff" stop-opacity="0"/>
    </linearGradient>
    <linearGradient id="c" x1="40.33" y1="18" x2="40.27" y2="35.63" gradientUnits="userSpaceOnUse">
      <stop stop-color="#fff"/>
      <stop offset="1" stop-color="#fff" stop-opacity="0"/>
    </linearGradient>
  </defs>
</svg>
