<svg xmlns="http://www.w3.org/2000/svg" fill="none" viewBox="0 0 240 240"><mask id="a" width="42" height="42" x="99" y="6" fill="#000" maskUnits="userSpaceOnUse"><path fill="#fff" d="M99 6h42v42H99z"/><path fill-rule="evenodd" d="M120 44a17 17 0 1 0 0-34 17 17 0 0 0 0 34zm0-7a10 10 0 1 0 0-20 10 10 0 0 0 0 20z" clip-rule="evenodd"/></mask><path fill="#FF915C" fill-rule="evenodd" d="M120 44a17 17 0 1 0 0-34 17 17 0 0 0 0 34zm0-7a10 10 0 1 0 0-20 10 10 0 0 0 0 20z" clip-rule="evenodd"/><path fill="#2B3C5A" d="M133 27a13 13 0 0 1-13 13v8a21 21 0 0 0 21-21h-8zm-13-13a13 13 0 0 1 13 13h8a21 21 0 0 0-21-21v8zm-13 13a13 13 0 0 1 13-13V6a21 21 0 0 0-21 21h8zm13 13a13 13 0 0 1-13-13h-8a21 21 0 0 0 21 21v-8zm6-13a6 6 0 0 1-6 6v8a14 14 0 0 0 14-14h-8zm-6-6a6 6 0 0 1 6 6h8a14 14 0 0 0-14-14v8zm-6 6a6 6 0 0 1 6-6v-8a14 14 0 0 0-14 14h8zm6 6a6 6 0 0 1-6-6h-8a14 14 0 0 0 14 14v-8z" mask="url(#a)"/><g clip-path="url(#b)"><rect width="200" height="200" x="20" y="20" fill="#91EDE9" rx="100"/><path fill="#91EDE9" d="M20 20h200v200H20z"/><path fill="#fff" d="M228 220H12v-43.5s19.18-15.8 28.5-16.5c11.84-.89 14.78 3.6 26.5 5.5 12.33 2 20.25-10.9 32.5-8.5 12.5 2.44 28.67 11.86 39 11.5 21.84-.76 20.55-3.87 38.5 0 7.63 1.65 15.77-13.42 28.5-11 6.45 1.22 22.5 2.5 22.5 2.5v60z" opacity=".8"/><path fill="#91EDE9" d="M230 221H14v-43.5s19.18-15.8 28.5-16.5c11.84-.89 14.78 3.6 26.5 5.5 12.33 2 20.25-10.9 32.5-8.5 12.5 2.44 28.67 11.86 39 11.5 21.84-.76 20.55-3.87 38.5 0 7.63 1.65 15.77-13.42 28.5-11 6.45 1.22 22.5 2.5 22.5 2.5v60z" opacity=".6"/><path fill="#48ACBA" d="M229 223H13v-43.5s19.18-15.8 28.5-16.5c11.84-.89 14.78 3.6 26.5 5.5 12.33 2 20.25-10.9 32.5-8.5 12.5 2.44 28.67 11.86 39 11.5 21.84-.76 20.55-4.87 38.5-1 7.63 1.65 15.77-14.42 28.5-12 6.45 1.22 22.5 2.5 22.5 2.5v62z"/><g filter="url(#c)"><mask id="d" width="148" height="178" x="46" y="6" fill="#000" maskUnits="userSpaceOnUse"><path fill="#fff" d="M46 6h148v178H46z"/><path fill-rule="evenodd" d="M127.02 42.49a17 17 0 1 0-14.03 0L112.55 55h-.05l-23.72 1.8A3 3 0 0 0 86 59.77v6.44a3 3 0 0 0 2.77 3L112 71l-1.1 41.77c-.33 12.61-2.39 28.07-14.71 30.77-1.37.3-2.77.46-4.19.46-7.38 0-15.9-9.1-21.37-18.42a62.7 62.7 0 0 1 6.64-2.44c1.3-.4 1.56-2.22.42-2.97-8.18-5.4-14.67-12.67-18.65-21.06-.55-1.16-2.2-1.24-2.75-.09a65.07 65.07 0 0 0-3.52 9 62.3 62.3 0 0 0-1.98 28.24c.2 1.2 1.68 1.63 2.56.78a55.43 55.43 0 0 1 5.24-4.47C68.63 164.2 102.22 180 120 180c17.79 0 51.4-15.82 61.43-47.45 1.85 1.4 3.6 2.89 5.23 4.48.87.85 2.37.42 2.56-.78l.05-.32.04-.27a62.57 62.57 0 0 0-2.06-27.63 65.21 65.21 0 0 0-3.5-9c-.55-1.15-2.2-1.06-2.75.1-3.97 8.38-10.43 15.64-18.57 21.04-1.13.75-.87 2.57.43 2.97 2.24.69 4.42 1.5 6.53 2.41-5.46 9.34-14 18.45-21.39 18.45-1.42 0-2.82-.16-4.18-.46-12.33-2.7-14.38-18.16-14.71-30.77L128 71l23.22-1.79a3 3 0 0 0 2.77-2.99v-6.44a3 3 0 0 0-2.77-2.99L127.5 55h-.05l-.43-12.51zM130 27a10 10 0 1 1-20 0 10 10 0 0 1 20 0z" clip-rule="evenodd"/></mask><path fill="#FF915C" fill-rule="evenodd" d="M127.02 42.49a17 17 0 1 0-14.03 0L112.55 55h-.05l-23.72 1.8A3 3 0 0 0 86 59.77v6.44a3 3 0 0 0 2.77 3L112 71l-1.1 41.77c-.33 12.61-2.39 28.07-14.71 30.77-1.37.3-2.77.46-4.19.46-7.38 0-15.9-9.1-21.37-18.42a62.7 62.7 0 0 1 6.64-2.44c1.3-.4 1.56-2.22.42-2.97-8.18-5.4-14.67-12.67-18.65-21.06-.55-1.16-2.2-1.24-2.75-.09a65.07 65.07 0 0 0-3.52 9 62.3 62.3 0 0 0-1.98 28.24c.2 1.2 1.68 1.63 2.56.78a55.43 55.43 0 0 1 5.24-4.47C68.63 164.2 102.22 180 120 180c17.79 0 51.4-15.82 61.43-47.45 1.85 1.4 3.6 2.89 5.23 4.48.87.85 2.37.42 2.56-.78l.05-.32.04-.27a62.57 62.57 0 0 0-2.06-27.63 65.21 65.21 0 0 0-3.5-9c-.55-1.15-2.2-1.06-2.75.1-3.97 8.38-10.43 15.64-18.57 21.04-1.13.75-.87 2.57.43 2.97 2.24.69 4.42 1.5 6.53 2.41-5.46 9.34-14 18.45-21.39 18.45-1.42 0-2.82-.16-4.18-.46-12.33-2.7-14.38-18.16-14.71-30.77L128 71l23.22-1.79a3 3 0 0 0 2.77-2.99v-6.44a3 3 0 0 0-2.77-2.99L127.5 55h-.05l-.43-12.51zM130 27a10 10 0 1 1-20 0 10 10 0 0 1 20 0z" clip-rule="evenodd"/><path fill="#2B3C5A" d="m127.02 42.49-1.65-3.64-2.44 1.1.1 2.68 3.99-.14zm-14.03 0 4 .14.09-2.68-2.44-1.1-1.65 3.64zM112.55 55v4h3.87l.13-3.86-4-.14zm-.05 0v-4h-.15l-.15.01.3 3.99zm-23.72 1.8-.3-4 .3 4zm0 12.41-.31 4 .3-4zM112 71l4 .1.1-3.8-3.79-.29-.3 3.99zm-1.1 41.77 4 .1-4-.1zm-14.71 30.77.86 3.9-.86-3.9zm-25.56-17.96-1.6-3.67-4.13 1.8 2.28 3.9 3.45-2.03zm6.64-2.44-1.17-3.83 1.17 3.83zm.42-2.97 2.21-3.34-2.2 3.34zM59.04 99.1l-3.61 1.71 3.61-1.71zm-2.75-.09 3.6 1.73-3.6-1.73zm-3.52 9-3.82-1.17 3.82 1.18zm-2.07 27.64-3.96.6 3.96-.6zm.1.6-3.96.63 3.95-.63zm2.55.78 2.78 2.87-2.78-2.87zm5.24-4.47 3.8-1.2-1.7-5.39-4.5 3.4 2.4 3.2zm122.84-.02 2.4-3.2-4.5-3.4-1.72 5.39 3.82 1.2zm5.23 4.48-2.79 2.86 2.79-2.86zm2.56-.79-3.95-.63 3.95.63zm.05-.31 3.95.61-3.95-.61zm.04-.27-3.96-.6 3.96.6zm-2.06-27.63-3.83 1.17 3.83-1.17zm-3.5-9-3.61 1.73 3.61-1.72zm-2.75.1-3.62-1.72 3.62 1.71zm-18.57 21.04-2.21-3.33 2.21 3.33zm.43 2.97-1.17 3.82 1.17-3.82zm6.53 2.41 3.45 2.02 2.28-3.9-4.13-1.79-1.6 3.67zm-25.57 18-.86 3.9.86-3.9zm-14.71-30.78-4 .1 4-.1zM128 71l-.32-3.99-3.79.3.1 3.8 4-.11zm23.22-1.79.3 4-.3-4zm0-12.42.3-3.99-.3 4zM127.5 55l.3-3.99-.15-.01h-.15v4zm-.05 0-4 .14.14 3.86h3.86v-4zm1.22-8.87A21 21 0 0 0 141 27h-8a13 13 0 0 1-7.63 11.85l3.3 7.28zM141 27a21 21 0 0 0-21-21v8a13 13 0 0 1 13 13h8zM120 6a21 21 0 0 0-21 21h8a13 13 0 0 1 13-13V6zM99 27a21 21 0 0 0 12.33 19.13l3.3-7.28A13 13 0 0 1 107 27h-8zM109 42.35l-.43 12.51 8 .28.42-12.51-8-.28zm3.56 8.65h-.05v8h.05v-8zm-.35.01-23.73 1.8.6 7.97 23.73-1.8-.6-7.97zm-23.73 1.8A7 7 0 0 0 82 59.77h8a1 1 0 0 1-.92 1l-.6-7.98zM82 59.77v6.44h8v-6.44h-8zm0 6.44a7 7 0 0 0 6.46 6.98l.62-7.97a1 1 0 0 1 .92 1h-8zm6.46 6.98L111.7 75l.62-7.98-23.23-1.78-.61 7.97zM108 70.9l-1.1 41.76 8 .22L116 71.1l-8-.21zm-1.1 41.76c-.17 6.23-.76 12.7-2.62 17.85-1.83 5.04-4.62 8.18-8.95 9.13l1.72 7.81c7.99-1.75 12.39-7.7 14.75-14.22 2.33-6.41 2.93-13.97 3.1-20.35l-8-.22zm-11.57 26.98c-1.09.24-2.2.36-3.33.36v8c1.72 0 3.4-.19 5.05-.55l-1.72-7.81zM92 140c-2.16 0-5.19-1.43-8.7-4.65a52.5 52.5 0 0 1-9.22-11.79l-6.9 4.05a60.43 60.43 0 0 0 10.7 13.62c3.97 3.65 8.9 6.77 14.12 6.77v-8zm-19.78-10.75c2-.87 4.08-1.63 6.22-2.28l-2.34-7.65c-2.43.74-4.78 1.6-7.06 2.6l3.18 7.33zm6.22-2.28a5.68 5.68 0 0 0 1.46-10.14l-4.41 6.68a2.37 2.37 0 0 1-1.06-2.29c.1-.7.61-1.58 1.67-1.9l2.34 7.65zm1.46-10.14c-7.63-5.04-13.6-11.75-17.25-19.44l-7.22 3.43c4.32 9.11 11.32 16.91 20.06 22.69l4.41-6.68zM62.65 97.4c-1.79-3.78-7.77-4.69-9.97-.1l7.22 3.46a2.57 2.57 0 0 1-2.39 1.45 2.42 2.42 0 0 1-2.08-1.38l7.22-3.43zm-9.97-.1a69.06 69.06 0 0 0-3.73 9.57l7.64 2.34c.89-2.88 2-5.7 3.3-8.45l-7.21-3.45zm-3.73 9.57a66.3 66.3 0 0 0-2.2 29.4l7.9-1.2a58.3 58.3 0 0 1 1.94-25.86l-7.64-2.34zm-2.2 29.4c.02.2.06.42.1.63l7.89-1.27-.09-.56-7.9 1.2zm.1.63c.75 4.76 6.34 5.86 9.28 3.02l-5.56-5.75c.67-.65 1.6-.81 2.39-.58.81.25 1.6.98 1.78 2.04l-7.9 1.27zm9.28 3.02a51.55 51.55 0 0 1 4.86-4.14l-4.8-6.4a59.43 59.43 0 0 0-5.62 4.8l5.56 5.74zm-1.36-6.13c5.36 16.88 16.97 29.41 29.4 37.7C96.55 179.7 110.15 184 120 184v-8c-7.92 0-20-3.6-31.4-11.19-11.3-7.53-21.52-18.7-26.2-33.45l-7.63 2.42zM120 184c9.86 0 23.47-4.3 35.84-12.53 12.44-8.29 24.04-20.83 29.4-37.71l-7.63-2.42c-4.68 14.75-14.9 25.94-26.2 33.47C140 172.39 127.91 176 120 176v8zm59.02-48.26a51.6 51.6 0 0 1 4.85 4.16l5.57-5.74a59.3 59.3 0 0 0-5.6-4.8l-4.82 6.38zm4.85 4.16c2.93 2.85 8.54 1.74 9.3-3.02l-7.9-1.26c.17-1.07.97-1.8 1.78-2.05a2.44 2.44 0 0 1 2.4.59l-5.58 5.74zm9.3-3.02.05-.34-7.9-1.22-.05.3 7.9 1.26zm.05-.34.05-.29-7.92-1.18-.03.25 7.9 1.22zm.05-.29a66.58 66.58 0 0 0-2.2-29.39l-7.65 2.34a58.58 58.58 0 0 1 1.93 25.87l7.92 1.18zm-2.2-29.39a69.2 69.2 0 0 0-3.7-9.54l-7.23 3.44c1.3 2.74 2.4 5.56 3.28 8.44l7.65-2.34zm-3.7-9.54c-2.2-4.61-8.2-3.7-9.99.1l7.23 3.41a2.42 2.42 0 0 1-2.08 1.38c-.86.03-1.9-.42-2.39-1.45l7.22-3.44zm-9.99.1c-3.63 7.67-9.58 14.39-17.16 19.42l4.42 6.67c8.7-5.78 15.67-13.57 19.97-22.68l-7.23-3.41zm-17.16 19.42a5.68 5.68 0 0 0 1.47 10.13l2.34-7.65a2.38 2.38 0 0 1 1.67 1.9c.1.69-.14 1.68-1.06 2.29l-4.42-6.67zm1.47 10.13c2.1.64 4.14 1.4 6.1 2.25l3.2-7.34a66 66 0 0 0-6.96-2.56l-2.34 7.65zm4.25-3.44a52.52 52.52 0 0 1-9.23 11.8c-3.51 3.24-6.54 4.67-8.7 4.67v8c5.22 0 10.15-3.13 14.12-6.78a60.45 60.45 0 0 0 10.71-13.65l-6.9-4.04zM148 140a15.5 15.5 0 0 1-3.32-.36l-1.72 7.81c1.64.36 3.33.55 5.04.55v-8zm-3.32-.36c-4.34-.95-7.12-4.08-8.95-9.13-1.87-5.14-2.46-11.62-2.63-17.85l-8 .22c.18 6.38.78 13.94 3.1 20.36 2.37 6.5 6.77 12.46 14.76 14.21l1.72-7.81zm-11.58-26.98L132 70.9l-8 .2 1.1 41.77 8-.2zM128.3 75l23.24-1.79-.62-7.97L127.7 67l.62 7.98zm23.24-1.79a7 7 0 0 0 6.46-6.98h-8a1 1 0 0 1 .92-1l.62 7.98zm6.46-6.98v-6.44h-8v6.44h8zm0-6.44a7 7 0 0 0-6.47-6.98l-.6 7.98a1 1 0 0 1-.93-1h8zm-6.47-6.98-23.73-1.79-.6 7.98 23.73 1.79.6-7.98zM127.5 51h-.05v8h.05v-8zm3.95 3.86-.43-12.5-8 .27.43 12.5 8-.27zM120 41a14 14 0 0 0 14-14h-8a6 6 0 0 1-6 6v8zm-14-14a14 14 0 0 0 14 14v-8a6 6 0 0 1-6-6h-8zm14-14a14 14 0 0 0-14 14h8a6 6 0 0 1 6-6v-8zm14 14a14 14 0 0 0-14-14v8a6 6 0 0 1 6 6h8z" mask="url(#d)"/></g><path fill="#8A380F" d="M86 67.15a2 2 0 0 0 1.85 2L112 71l6.63-6.63a.8.8 0 0 0-.56-1.37H86v4.15Z"/><path fill="#8A380F" fill-rule="evenodd" d="M182.12 98.81a.9.9 0 0 1 1.57.1c1.41 2.96 2.6 6 3.55 9.12a62.57 62.57 0 0 1 1.97 28.22c-.19 1.2-1.68 1.63-2.56.78-3.27-3.18-7-6-11.09-8.36a1.55 1.55 0 0 1-.64-1.98c3.37-7.58 5.85-16.67 7.05-27.47a.94.94 0 0 1 .15-.4z" clip-rule="evenodd"/><path fill="#8A380F" d="m127 42 .5 13-5.82 5.43a1 1 0 0 1-1.68-.73V42h7zM184 120c-4 40-44 60-64 60V64.5c0-.83.67-1.5 1.5-1.5H154v3.29a3 3 0 0 1-2.7 2.98L128 71l1.1 41.77c.34 12.61 2.37 28.1 14.7 30.78 1.35.3 2.73.45 4.13.45a5 5 0 0 0-3.65 1.62c-4.87 5.8-10.4 11.64-18.57 14.28 21.5 1 51.1-13.63 56.29-60.9l2 21z"/><path fill="#8A380F" fill-rule="evenodd" d="M122 39.9c-1.1.11-2 1-2 2.1s.9 2.01 2 1.88a17 17 0 0 0 15-16.8.08.08 0 0 0-.16-.01C135.8 33.8 129.68 39.1 122 39.9z" clip-rule="evenodd"/><path fill="#2B3C5A" d="M220 220H12v-40c-.13-2.13 20.04-10.78 29-11.5 10.65-.85 15.24 8.4 26 9.84 11.5 1.53 17.25-5.74 29.5-3.34 12.5 2.44 22.17 9.86 32.5 9.5 21.84-.76 23.05-11.37 41-7.5 7.63 1.65 10.5.66 28.5-3.5S224 178 224 178l-4 42z" opacity=".4"/><path fill="#2B3C5A" d="M222 221H14v-40s19.68-10.8 29-11.5c11.84-.89 10.28 1.6 22 3.5 12.33 2 11.24-2.9 23.5-.5 12.5 2.44 32.17 13.36 42.5 13 21.84-.76 23.05-11.37 41-7.5 7.63 1.65 9.5 5.5 27.5 1.34S222 179 222 179v42z" opacity=".6"/><path fill="#2B3C5A" d="M222 223H10v-40s19.68-10.8 29-11.5c11.84-.89 14.28 7.93 26 9.84 12.33 2 16.75-10.24 29-7.84 12.5 2.44 22.67 14.36 33 14 21.84-.76 23.05-11.37 41-7.5 7.63 1.65 9.5 5.5 27.5 1.34S222 183 222 183v40z"/><g filter="url(#e)"><circle cx="37" cy="54" r="3" fill="#fff" fill-opacity=".5"/></g><g filter="url(#f)"><circle cx="93.5" cy="90.5" r="2.5" fill="#fff" fill-opacity=".5"/></g><g filter="url(#g)"><circle cx="33.5" cy="72.5" r="1.5" fill="#fff" fill-opacity=".5"/></g><g filter="url(#h)"><circle cx="33" cy="90" r="1" fill="#fff" fill-opacity=".5"/></g><g filter="url(#i)" opacity=".5"><circle cx="66.5" cy="201.5" r="8.5" fill="#fff" fill-opacity=".5"/></g><g filter="url(#j)" opacity=".6"><circle cx="48.5" cy="186.5" r="1.5" fill="#91EDE9"/></g><g filter="url(#k)"><circle cx="180" cy="177" r="12" fill="#fff" fill-opacity=".5"/></g><g filter="url(#l)" opacity=".5"><circle cx="158" cy="207" r="7" fill="#fff" fill-opacity=".5"/></g><g filter="url(#m)" opacity=".5"><circle cx="213" cy="148" r="2" fill="#fff" fill-opacity=".5"/></g><g filter="url(#n)"><circle cx="204" cy="192" r="3" fill="#fff" fill-opacity=".5"/></g><g filter="url(#o)" opacity=".6"><circle cx="143" cy="198" r="3" fill="#fff" fill-opacity=".5"/></g><g filter="url(#p)" opacity=".8"><circle cx="55.5" cy="62.5" r="4.5" fill="#fff" fill-opacity=".5"/></g><g filter="url(#q)"><circle cx="157.5" cy="95.5" r="4.5" fill="#fff" fill-opacity=".5"/></g><g filter="url(#r)"><circle cx="150" cy="102" r="2" fill="#fff" fill-opacity=".5"/></g><g filter="url(#s)"><circle cx="165" cy="92" r="2" fill="#fff" fill-opacity=".5"/></g><g filter="url(#t)"><circle cx="208.5" cy="70.5" r="1.5" fill="#fff" fill-opacity=".5"/></g><g filter="url(#u)" opacity=".6"><circle cx="202" cy="87" r="3" fill="#fff" fill-opacity=".5"/></g><g filter="url(#v)"><circle cx="192" cy="44" r="2" fill="#fff" fill-opacity=".5"/></g></g><defs><filter id="c" width="150" height="181" x="44" y="3" color-interpolation-filters="sRGB" filterUnits="userSpaceOnUse"><feFlood flood-opacity="0" result="BackgroundImageFix"/><feColorMatrix in="SourceAlpha" result="hardAlpha" values="0 0 0 0 0 0 0 0 0 0 0 0 0 0 0 0 0 0 127 0"/><feOffset dx="-2" dy="-3"/><feComposite in2="hardAlpha" operator="out"/><feColorMatrix values="0 0 0 0 1 0 0 0 0 1 0 0 0 0 1 0 0 0 1 0"/><feBlend in2="BackgroundImageFix" result="effect1_dropShadow_103_1402"/><feBlend in="SourceGraphic" in2="effect1_dropShadow_103_1402" result="shape"/></filter><filter id="e" width="6" height="6" x="34" y="51" color-interpolation-filters="sRGB" filterUnits="userSpaceOnUse"><feFlood flood-opacity="0" result="BackgroundImageFix"/><feBlend in="SourceGraphic" in2="BackgroundImageFix" result="shape"/><feColorMatrix in="SourceAlpha" result="hardAlpha" values="0 0 0 0 0 0 0 0 0 0 0 0 0 0 0 0 0 0 127 0"/><feOffset dx="1" dy="1"/><feComposite in2="hardAlpha" k2="-1" k3="1" operator="arithmetic"/><feColorMatrix values="0 0 0 0 1 0 0 0 0 1 0 0 0 0 1 0 0 0 0.8 0"/><feBlend in2="shape" result="effect1_innerShadow_103_1402"/></filter><filter id="f" width="5" height="5" x="91" y="88" color-interpolation-filters="sRGB" filterUnits="userSpaceOnUse"><feFlood flood-opacity="0" result="BackgroundImageFix"/><feBlend in="SourceGraphic" in2="BackgroundImageFix" result="shape"/><feColorMatrix in="SourceAlpha" result="hardAlpha" values="0 0 0 0 0 0 0 0 0 0 0 0 0 0 0 0 0 0 127 0"/><feOffset dx="1" dy="1"/><feComposite in2="hardAlpha" k2="-1" k3="1" operator="arithmetic"/><feColorMatrix values="0 0 0 0 1 0 0 0 0 1 0 0 0 0 1 0 0 0 0.8 0"/><feBlend in2="shape" result="effect1_innerShadow_103_1402"/></filter><filter id="g" width="3" height="3" x="32" y="71" color-interpolation-filters="sRGB" filterUnits="userSpaceOnUse"><feFlood flood-opacity="0" result="BackgroundImageFix"/><feBlend in="SourceGraphic" in2="BackgroundImageFix" result="shape"/><feColorMatrix in="SourceAlpha" result="hardAlpha" values="0 0 0 0 0 0 0 0 0 0 0 0 0 0 0 0 0 0 127 0"/><feOffset dx="1" dy="1"/><feComposite in2="hardAlpha" k2="-1" k3="1" operator="arithmetic"/><feColorMatrix values="0 0 0 0 1 0 0 0 0 1 0 0 0 0 1 0 0 0 0.8 0"/><feBlend in2="shape" result="effect1_innerShadow_103_1402"/></filter><filter id="h" width="2" height="2" x="32" y="89" color-interpolation-filters="sRGB" filterUnits="userSpaceOnUse"><feFlood flood-opacity="0" result="BackgroundImageFix"/><feBlend in="SourceGraphic" in2="BackgroundImageFix" result="shape"/><feColorMatrix in="SourceAlpha" result="hardAlpha" values="0 0 0 0 0 0 0 0 0 0 0 0 0 0 0 0 0 0 127 0"/><feOffset dx="1" dy="1"/><feComposite in2="hardAlpha" k2="-1" k3="1" operator="arithmetic"/><feColorMatrix values="0 0 0 0 1 0 0 0 0 1 0 0 0 0 1 0 0 0 0.8 0"/><feBlend in2="shape" result="effect1_innerShadow_103_1402"/></filter><filter id="i" width="17" height="17" x="58" y="193" color-interpolation-filters="sRGB" filterUnits="userSpaceOnUse"><feFlood flood-opacity="0" result="BackgroundImageFix"/><feBlend in="SourceGraphic" in2="BackgroundImageFix" result="shape"/><feColorMatrix in="SourceAlpha" result="hardAlpha" values="0 0 0 0 0 0 0 0 0 0 0 0 0 0 0 0 0 0 127 0"/><feOffset dx="1" dy="1"/><feComposite in2="hardAlpha" k2="-1" k3="1" operator="arithmetic"/><feColorMatrix values="0 0 0 0 1 0 0 0 0 1 0 0 0 0 1 0 0 0 0.8 0"/><feBlend in2="shape" result="effect1_innerShadow_103_1402"/></filter><filter id="j" width="3" height="3" x="47" y="185" color-interpolation-filters="sRGB" filterUnits="userSpaceOnUse"><feFlood flood-opacity="0" result="BackgroundImageFix"/><feBlend in="SourceGraphic" in2="BackgroundImageFix" result="shape"/><feColorMatrix in="SourceAlpha" result="hardAlpha" values="0 0 0 0 0 0 0 0 0 0 0 0 0 0 0 0 0 0 127 0"/><feOffset dx="1" dy="1"/><feComposite in2="hardAlpha" k2="-1" k3="1" operator="arithmetic"/><feColorMatrix values="0 0 0 0 1 0 0 0 0 1 0 0 0 0 1 0 0 0 0.8 0"/><feBlend in2="shape" result="effect1_innerShadow_103_1402"/></filter><filter id="k" width="24" height="24" x="168" y="165" color-interpolation-filters="sRGB" filterUnits="userSpaceOnUse"><feFlood flood-opacity="0" result="BackgroundImageFix"/><feBlend in="SourceGraphic" in2="BackgroundImageFix" result="shape"/><feColorMatrix in="SourceAlpha" result="hardAlpha" values="0 0 0 0 0 0 0 0 0 0 0 0 0 0 0 0 0 0 127 0"/><feOffset dx="1" dy="1"/><feComposite in2="hardAlpha" k2="-1" k3="1" operator="arithmetic"/><feColorMatrix values="0 0 0 0 1 0 0 0 0 1 0 0 0 0 1 0 0 0 0.8 0"/><feBlend in2="shape" result="effect1_innerShadow_103_1402"/></filter><filter id="l" width="14" height="14" x="151" y="200" color-interpolation-filters="sRGB" filterUnits="userSpaceOnUse"><feFlood flood-opacity="0" result="BackgroundImageFix"/><feBlend in="SourceGraphic" in2="BackgroundImageFix" result="shape"/><feColorMatrix in="SourceAlpha" result="hardAlpha" values="0 0 0 0 0 0 0 0 0 0 0 0 0 0 0 0 0 0 127 0"/><feOffset dx="1" dy="1"/><feComposite in2="hardAlpha" k2="-1" k3="1" operator="arithmetic"/><feColorMatrix values="0 0 0 0 1 0 0 0 0 1 0 0 0 0 1 0 0 0 0.8 0"/><feBlend in2="shape" result="effect1_innerShadow_103_1402"/></filter><filter id="m" width="4" height="4" x="211" y="146" color-interpolation-filters="sRGB" filterUnits="userSpaceOnUse"><feFlood flood-opacity="0" result="BackgroundImageFix"/><feBlend in="SourceGraphic" in2="BackgroundImageFix" result="shape"/><feColorMatrix in="SourceAlpha" result="hardAlpha" values="0 0 0 0 0 0 0 0 0 0 0 0 0 0 0 0 0 0 127 0"/><feOffset dx="1" dy="1"/><feComposite in2="hardAlpha" k2="-1" k3="1" operator="arithmetic"/><feColorMatrix values="0 0 0 0 1 0 0 0 0 1 0 0 0 0 1 0 0 0 0.8 0"/><feBlend in2="shape" result="effect1_innerShadow_103_1402"/></filter><filter id="n" width="6" height="6" x="201" y="189" color-interpolation-filters="sRGB" filterUnits="userSpaceOnUse"><feFlood flood-opacity="0" result="BackgroundImageFix"/><feBlend in="SourceGraphic" in2="BackgroundImageFix" result="shape"/><feColorMatrix in="SourceAlpha" result="hardAlpha" values="0 0 0 0 0 0 0 0 0 0 0 0 0 0 0 0 0 0 127 0"/><feOffset dx="1" dy="1"/><feComposite in2="hardAlpha" k2="-1" k3="1" operator="arithmetic"/><feColorMatrix values="0 0 0 0 1 0 0 0 0 1 0 0 0 0 1 0 0 0 0.8 0"/><feBlend in2="shape" result="effect1_innerShadow_103_1402"/></filter><filter id="o" width="6" height="6" x="140" y="195" color-interpolation-filters="sRGB" filterUnits="userSpaceOnUse"><feFlood flood-opacity="0" result="BackgroundImageFix"/><feBlend in="SourceGraphic" in2="BackgroundImageFix" result="shape"/><feColorMatrix in="SourceAlpha" result="hardAlpha" values="0 0 0 0 0 0 0 0 0 0 0 0 0 0 0 0 0 0 127 0"/><feOffset dx="1" dy="1"/><feComposite in2="hardAlpha" k2="-1" k3="1" operator="arithmetic"/><feColorMatrix values="0 0 0 0 1 0 0 0 0 1 0 0 0 0 1 0 0 0 0.8 0"/><feBlend in2="shape" result="effect1_innerShadow_103_1402"/></filter><filter id="p" width="9" height="9" x="51" y="58" color-interpolation-filters="sRGB" filterUnits="userSpaceOnUse"><feFlood flood-opacity="0" result="BackgroundImageFix"/><feBlend in="SourceGraphic" in2="BackgroundImageFix" result="shape"/><feColorMatrix in="SourceAlpha" result="hardAlpha" values="0 0 0 0 0 0 0 0 0 0 0 0 0 0 0 0 0 0 127 0"/><feOffset dx="1" dy="1"/><feComposite in2="hardAlpha" k2="-1" k3="1" operator="arithmetic"/><feColorMatrix values="0 0 0 0 1 0 0 0 0 1 0 0 0 0 1 0 0 0 0.8 0"/><feBlend in2="shape" result="effect1_innerShadow_103_1402"/></filter><filter id="q" width="9" height="9" x="153" y="91" color-interpolation-filters="sRGB" filterUnits="userSpaceOnUse"><feFlood flood-opacity="0" result="BackgroundImageFix"/><feBlend in="SourceGraphic" in2="BackgroundImageFix" result="shape"/><feColorMatrix in="SourceAlpha" result="hardAlpha" values="0 0 0 0 0 0 0 0 0 0 0 0 0 0 0 0 0 0 127 0"/><feOffset dx="1" dy="1"/><feComposite in2="hardAlpha" k2="-1" k3="1" operator="arithmetic"/><feColorMatrix values="0 0 0 0 1 0 0 0 0 1 0 0 0 0 1 0 0 0 0.8 0"/><feBlend in2="shape" result="effect1_innerShadow_103_1402"/></filter><filter id="r" width="4" height="4" x="148" y="100" color-interpolation-filters="sRGB" filterUnits="userSpaceOnUse"><feFlood flood-opacity="0" result="BackgroundImageFix"/><feBlend in="SourceGraphic" in2="BackgroundImageFix" result="shape"/><feColorMatrix in="SourceAlpha" result="hardAlpha" values="0 0 0 0 0 0 0 0 0 0 0 0 0 0 0 0 0 0 127 0"/><feOffset dx="1" dy="1"/><feComposite in2="hardAlpha" k2="-1" k3="1" operator="arithmetic"/><feColorMatrix values="0 0 0 0 1 0 0 0 0 1 0 0 0 0 1 0 0 0 0.8 0"/><feBlend in2="shape" result="effect1_innerShadow_103_1402"/></filter><filter id="s" width="4" height="4" x="163" y="90" color-interpolation-filters="sRGB" filterUnits="userSpaceOnUse"><feFlood flood-opacity="0" result="BackgroundImageFix"/><feBlend in="SourceGraphic" in2="BackgroundImageFix" result="shape"/><feColorMatrix in="SourceAlpha" result="hardAlpha" values="0 0 0 0 0 0 0 0 0 0 0 0 0 0 0 0 0 0 127 0"/><feOffset dx="1" dy="1"/><feComposite in2="hardAlpha" k2="-1" k3="1" operator="arithmetic"/><feColorMatrix values="0 0 0 0 1 0 0 0 0 1 0 0 0 0 1 0 0 0 0.8 0"/><feBlend in2="shape" result="effect1_innerShadow_103_1402"/></filter><filter id="t" width="3" height="3" x="207" y="69" color-interpolation-filters="sRGB" filterUnits="userSpaceOnUse"><feFlood flood-opacity="0" result="BackgroundImageFix"/><feBlend in="SourceGraphic" in2="BackgroundImageFix" result="shape"/><feColorMatrix in="SourceAlpha" result="hardAlpha" values="0 0 0 0 0 0 0 0 0 0 0 0 0 0 0 0 0 0 127 0"/><feOffset dx="1" dy="1"/><feComposite in2="hardAlpha" k2="-1" k3="1" operator="arithmetic"/><feColorMatrix values="0 0 0 0 1 0 0 0 0 1 0 0 0 0 1 0 0 0 0.8 0"/><feBlend in2="shape" result="effect1_innerShadow_103_1402"/></filter><filter id="u" width="6" height="6" x="199" y="84" color-interpolation-filters="sRGB" filterUnits="userSpaceOnUse"><feFlood flood-opacity="0" result="BackgroundImageFix"/><feBlend in="SourceGraphic" in2="BackgroundImageFix" result="shape"/><feColorMatrix in="SourceAlpha" result="hardAlpha" values="0 0 0 0 0 0 0 0 0 0 0 0 0 0 0 0 0 0 127 0"/><feOffset dx="1" dy="1"/><feComposite in2="hardAlpha" k2="-1" k3="1" operator="arithmetic"/><feColorMatrix values="0 0 0 0 1 0 0 0 0 1 0 0 0 0 1 0 0 0 0.8 0"/><feBlend in2="shape" result="effect1_innerShadow_103_1402"/></filter><filter id="v" width="4" height="4" x="190" y="42" color-interpolation-filters="sRGB" filterUnits="userSpaceOnUse"><feFlood flood-opacity="0" result="BackgroundImageFix"/><feBlend in="SourceGraphic" in2="BackgroundImageFix" result="shape"/><feColorMatrix in="SourceAlpha" result="hardAlpha" values="0 0 0 0 0 0 0 0 0 0 0 0 0 0 0 0 0 0 127 0"/><feOffset dx="1" dy="1"/><feComposite in2="hardAlpha" k2="-1" k3="1" operator="arithmetic"/><feColorMatrix values="0 0 0 0 1 0 0 0 0 1 0 0 0 0 1 0 0 0 0.8 0"/><feBlend in2="shape" result="effect1_innerShadow_103_1402"/></filter><clipPath id="b"><rect width="200" height="200" x="20" y="20" fill="#fff" rx="100"/></clipPath></defs></svg>
