<svg xmlns="http://www.w3.org/2000/svg" viewBox="0 0 36.46 41.95">
  <g fill="#fff">
    <path d="M18.01 35.63 5.65 28.5a.5.5 0 0 1-.25-.43V17.05c0-.19.21-.31.37-.22l14.35 8.28a.3.3 0 0 0 .45-.26v-5.37a.6.6 0 0 0-.3-.52L3.01 9a.5.5 0 0 0-.5 0L.25 10.31a.5.5 0 0 0-.25.43v20.47c0 .18.1.34.25.43l17.73 10.24a.5.5 0 0 0 .5 0l14.89-8.6a.3.3 0 0 0 0-.52l-4.64-2.68a.59.59 0 0 0-.6 0l-9.61 5.55a.5.5 0 0 1-.5 0ZM36.21 10.3 18.48.07a.5.5 0 0 0-.5 0L8.61 5.48a.3.3 0 0 0 0 .52l4.6 2.66c.19.11.41.11.6 0l4.2-2.42a.5.5 0 0 1 .5 0l12.36 7.13a.5.5 0 0 1 .25.43v11.07c0 .21.11.41.3.52l4.6 2.65a.3.3 0 0 0 .45-.26V10.74a.5.5 0 0 0-.25-.43Z"/>
  </g>
</svg>
