<svg viewBox="0 0 256 258" xmlns="http://www.w3.org/2000/svg" preserveAspectRatio="xMidYMid">
  <path d="m76.2 140 7.2 5.7-5.4 6.8-7.1-5.6-5.6 7.1-6.9-5.3 5.6-7.2-7-5.5 5.3-6.8 7.2 5.6 5.6-7.1 6.8 5.3-5.6 7.2" fill="#100C72"/>
  <path d="m147.1 110.8 13 3.1-7.6 31.7-13-3.2 7.6-31.6" fill="#26EFC4"/>
  <path d="m89.3 40.2 13.4.8-1.8 32.5-13.4-.8 1.8-32.5" fill="#5740B2"/>
  <path d="m105.8 120.1 30.2 9.1-7 23.1-30.2-9 7-23.2" fill="#C7F9FC"/>
  <path d="M7.8 113.6 22.6 141l-14.7-.3L0 126l7.8-12.4" fill="#016A91"/>
  <path d="m112.4 91.3 21.2 22.9-14.3 3.4-11.3-12.3 4.4-14" fill="#F1FCAB"/>
  <path d="m135.8 101.4-11.6-11 7.2-16.3 11.5 11-7.1 16.3" fill="#8218BF"/>
  <path d="M36.4 56 33 43.4l9.2-9.3 12.6 3.4L58.2 50 49 59.3 36.4 56" fill="#F9C27F"/>
  <path d="m7 107.3 6-21.7 16 16.2-22 5.5" fill="#5AC425"/>
  <path d="m149.8 2.7-15 13-13-15 28 2" fill="#7B4AB2"/>
  <path d="m75.7 97.7 11.4-20 20 11.6-31.4 8.4" fill="#69D637"/>
  <path d="m96 5.2 1.8 4.8-30.7 11.7-1.8-4.7L96 5.2" fill="#F8CC7E"/>
  <path d="m210 29.9-2.6 4.3-27.7-17.7 2.7-4.3L210 30" fill="#DD7A96"/>
  <path d="m43.6 84.7 7.5 1.7L40.8 132l-7.5-1.7 10.3-45.5" fill="#6B14B2"/>
  <path d="M24.3 146A18.5 18.5 0 1 0 43 164.6H24.3V146" fill="#43C648"/>
  <path d="M28.5 108.4c3 1.3 3.8 5.9 1.8 10.2-1.9 4.4-5.8 7-8.8 5.6-3-1.3-3.8-5.9-1.8-10.3 1.9-4.3 5.8-6.8 8.8-5.5" fill="#4BCAF4"/>
  <path d="M97.5 99.3c5 2.3 6.3 10.1 2.9 17.5-3.4 7.5-10.2 11.6-15.2 9.3-5-2.3-6.3-10.2-2.9-17.6 3.4-7.4 10.2-11.5 15.2-9.2" fill="#116570"/>
  <path d="M108.2 159.4a10.3 10.3 0 1 1-18.7 8.6c-2.4-5.1-.5-25.6-.5-25.6s16.8 11.8 19.2 17" fill="#0CD12A"/>
  <path d="M79.9 31A10.3 10.3 0 0 1 67 47.2c-4.5-3.5-12-22.6-12-22.6s20.3 2.9 24.8 6.4" fill="#96E83E"/>
  <path d="M40.8 159.5a10.9 10.9 0 1 1 0-21.8 10.9 10.9 0 0 1 0 21.8zm0-16.8a5.9 5.9 0 1 0 0 11.8 5.9 5.9 0 0 0 0-11.8z" fill="#19218E"/>
  <path d="M26.7 86.3a13.5 13.5 0 1 1 0-26.9 13.5 13.5 0 0 1 0 27zm0-20.7a7.3 7.3 0 1 0 0 14.6 7.3 7.3 0 0 0 0-14.6z" fill="#51870C"/>
  <path d="m207.8 175.8 8 2.5-6.9 4.8.1 8.4-6.7-5-7.9 2.7 2.7-8-5-6.6h8.4l4.8-6.8 2.5 8" fill="#94E1E8"/>
  <path d="M119.3 17.8a12.8 12.8 0 1 1 0 25.5 12.8 12.8 0 0 1 0-25.5" fill="#8BD1DD"/>
  <path d="M50.8 61.9a8.3 8.3 0 1 1 0 16.6 8.3 8.3 0 0 1 0-16.6" fill="#F202A6"/>
  <path d="m98.2 20.3 1.2 8.8-8 3.8-6.1-6.4 4.2-7.8 8.7 1.6" fill="#A6E843"/>
  <path d="m230.3 130.5 9.5 9.5-23 23-9.5-9.5 23-23" fill="#0DAF05"/>
  <path d="M210.4 36.9 207.6 48l-35-8.5 2.8-11.2 35 8.6" fill="#DFED1E"/>
  <path d="m153.5 61.7 9.7 12.8-9.7 7.4-9.8-12.8 9.8-7.4" fill="#9533E0"/>
  <path d="m209.8 141-11.2-11.5 7.8-16 11.1 11.5-7.7 16" fill="#1362E8"/>
  <path d="m194.7 70.6 3.4-12.6 12.6-3.4 9.2 9.2-3.3 12.6-12.6 3.4-9.3-9.2" fill="#1B5DB5"/>
  <path d="m115.2 59.2 15.3-16.6 6.7 21.6-22-5" fill="#99B5E5"/>
  <path d="m85.7 176.7-6.9 27.4-27.4-7 34.3-20.4" fill="#9FF4B7"/>
  <path d="M171.8 81.1h20l-.1 20-20-20" fill="#ED74C4"/>
  <path d="m157.6 146.3 4 6.5-42.3 26.8-4.1-6.5 42.4-26.8" fill="#199908"/>
  <path d="M193 116.8c1.8 5.2-2.8 11.7-10.5 14.5-7.6 2.8-15.4 1-17.3-4.2-1.9-5.2 2.8-11.6 10.4-14.5 7.7-2.8 15.4-1 17.3 4.2" fill="#FF75C3"/>
  <path d="M198.2 145.6a10.3 10.3 0 0 1-10.3 17.9c-5-2.9-15.2-20.7-15.2-20.7s20.6 0 25.5 2.8" fill="#21B749"/>
  <path d="M125.2 233a13.5 13.5 0 1 1 19-19 13.5 13.5 0 0 1-19 19zm14.6-14.7a7.3 7.3 0 1 0-10.3 10.3 7.3 7.3 0 0 0 10.3-10.3z" fill="#EB9E72"/>
  <path d="M43.7 206.1c-.5 4.8-2.8 9-6.3 11.8l-5-6.1a9.4 9.4 0 0 0-5.2-16.7c-2.6-.2-5 .6-6.9 2.2l-5-6.2a17.3 17.3 0 0 1 28.4 15" fill="#046C70"/>
  <path d="m167.3 93 8.2 5-9 3.4-2.4 9.4-6-7.6-9.7.7 5.3-8-3.6-9 9.4 2.5 7.4-6.2.4 9.7" fill="#37E8C7"/>
  <path d="M223.6 47a5 5 0 1 1 0 9.9 5 5 0 0 1 0-9.9" fill="#C16A3C"/>
  <path d="M115 67.3a8.3 8.3 0 1 1 0 16.6 8.3 8.3 0 0 1 0-16.6" fill="#A1D626"/>
  <path d="m234.7 108.7-2.6 8.5-8.8.2-3-8.4 7-5.4 7.4 5" fill="#E868E3"/>
  <path d="m178.3 217.7-1.5-21.2 17.6-1.3 1.5 21.3-17.6 1.2" fill="#14DB96"/>
  <path d="m173.7 244.3-29.7 9.5 3-14.3 15.9-5.2 10.8 10" fill="#71F902"/>
  <path d="M164.9 44.1 157 54.6l-13-1.5-5.2-12 7.8-10.4 13 1.4 5.2 12" fill="#B58E2B"/>
  <path d="m243.8 183-5.6 11.8-13 1-7.5-10.7 5.6-11.8 13-1 7.5 10.7" fill="#BA8712"/>
  <path d="m192 55.4-15.7 14.1L172 49l20 6.5" fill="#A4F9BD"/>
  <path d="m164.7 221.6-12.8-15.3 15.4-12.7-2.6 28" fill="#33089E"/>
  <path d="m83 247 1.6-7.5 49 10.5-1.6 7.5-49-10.4" fill="#8CEBB2"/>
  <path d="M167.1 26.5a11.5 11.5 0 1 0-15.3-5.7l10.5-4.8 4.8 10.5" fill="#1F0FFF"/>
  <path d="M103.5 13.5c-1.3-3 1.3-6.9 5.6-8.8 4.4-1.9 9-1 10.3 2 1.3 2.9-1.2 6.8-5.6 8.7-4.4 2-9 1-10.3-1.9" fill="#71E567"/>
  <path d="M218 91a10.9 10.9 0 1 1-19.9 8.7 10.9 10.9 0 0 1 20-8.7zm-15.3 6.7a5.9 5.9 0 1 0 10.8-4.7 5.9 5.9 0 0 0-10.8 4.7z" fill="#5B26AF"/>
  <path d="M185.9 226a8.3 8.3 0 1 1 0 16.7 8.3 8.3 0 0 1 0-16.7" fill="#8AEF81"/>
  <path d="M140.7 175.4a12.5 12.5 0 1 1 0 25 12.5 12.5 0 0 1 0-25" fill="#07775D"/>
  <path d="m161.7 165.4 14.7-1.8 6.2 13.4-10.8 10-13-7.1 3-14.5" fill="#D18E36"/>
  <path d="m67.8 241.6-26.1-17.8 13.6-20 26 18-13.5 19.8" fill="#1385EF"/>
  <path d="M251.2 85.7a10.3 10.3 0 1 1-20.3 3.9c-1.1-5.6 5.7-25 5.7-25s13.5 15.5 14.6 21.1" fill="#F8BBB9"/>
  <path d="M94.7 181.6c2.5-3.2 9.7-1.6 16 3.5 6.4 5 9.5 11.7 7 14.9-2.5 3.1-9.7 1.6-16-3.5-6.4-5-9.5-11.7-7-14.9" fill="#CC94F8"/>
  <path d="m107 237.4-17-12.2 6.1-22.5 17.2 12.1-6.2 22.6" fill="#67A4E5"/>
  <path d="M63.5 101.5 56 85.7l13.7-13.6L77 87.8l-13.6 13.7" fill="#AF2636"/>
  <path d="M55.8 104.9a11.5 11.5 0 1 0 16.3-1.4l-7.5 8.8-8.8-7.4" fill="#F4ABD7"/>
  <path d="M45.6 177.7a5.8 5.8 0 1 1 0 11.7 5.8 5.8 0 0 1 0-11.7" fill="#E871CE"/>
  <path d="m62.2 181.3-10.7-11 7.2-13.6 15 2.6 2.2 15.2-13.7 6.8" fill="#743AA3"/>
  <path d="M242.7 113.4c3.2-3.6 7.6-5.4 12-5.6l.4 8a9.4 9.4 0 0 0-6.2 16.3c2 1.8 4.4 2.6 6.8 2.5l.3 8a17.3 17.3 0 0 1-13.3-29.2" fill="#D348D6"/>
  <path d="M249.7 155c3 1.4 3.8 6 1.8 10.3-1.9 4.4-5.8 7-8.8 5.6-3-1.3-3.8-5.9-1.8-10.3 1.9-4.3 5.9-6.8 8.8-5.5" fill="#9A08C6"/>
  <path d="m230.7 207.2-22.4 21.6-3.7-14.2 12-11.6 14 4.2" fill="#29DBA8"/>
  <path d="m72.6 62.5 1.6 4.7-4.6 1.5-1.5-4.7-4.8 1.5-1.5-4.5 4.8-1.6-1.6-4.7 4.5-1.5 1.6 4.7 4.8-1.5 1.4 4.5-4.7 1.6" fill="#6176D3"/>
</svg>
