<svg xmlns="http://www.w3.org/2000/svg" width="844" height="844" fill="none">
<rect width="841" height="842" x="1" fill="#7A68E7" fill-opacity=".1" rx="115"/>
<g fill="#7A68E7" clip-path="url(#a)">
<path d="M422.64 359.09c-34.23 0-61.97 27.69-61.97 61.84 0 34.16 27.74 61.85 61.97 61.85 34.22 0 61.97-27.7 61.97-61.85 0-34.15-27.75-61.84-61.97-61.84Z"/>
<path d="M744.95 421.5c0-48.56-45.05-91.14-116.78-119.17.96-6.3 1.82-12.55 2.44-18.68 7.07-69.76-9.77-120.12-47.4-141.8-42.12-24.27-101.6-6.66-161.73 41.37-60.14-48.03-119.62-65.64-161.73-41.38-37.64 21.7-54.48 72.04-47.4 141.81.61 6.13 1.46 12.4 2.44 18.73a329.5 329.5 0 0 0-17.48 7.22C133.25 338.33 98 378.11 98 421.5c0 48.55 45.05 91.13 116.79 119.15a348.92 348.92 0 0 0-2.44 18.69c-7.08 69.76 9.76 120.12 47.4 141.8A83.73 83.73 0 0 0 302.23 712c35.64 0 77.27-18.73 119.25-52.22 41.95 33.5 83.6 52.22 119.3 52.22a83.79 83.79 0 0 0 42.47-10.84c37.64-21.7 54.48-72.05 47.4-141.81a374.06 374.06 0 0 0-2.44-18.69C699.95 512.68 745 470.02 745 421.5M540.5 161.75a54.03 54.03 0 0 1 27.39 6.7c26.13 15.06 37.86 55.92 32.16 112.08-.39 3.83-.85 7.7-1.4 11.6A545.22 545.22 0 0 0 507.37 273a545.36 545.36 0 0 0-62.3-69.42c35.67-27.53 69.15-41.84 95.42-41.84m-12.26 321.26a670.92 670.92 0 0 1-37.66 58.1 672.5 672.5 0 0 1-69.1 3.5 672.6 672.6 0 0 1-69.1-3.5 668.7 668.7 0 0 1-37.54-58.1 660.46 660.46 0 0 1-31.43-61.52 660.34 660.34 0 0 1 31.43-61.51 677.17 677.17 0 0 1 37.43-57.9 674.04 674.04 0 0 1 138.31-.1 679.65 679.65 0 0 1 37.57 58 665.89 665.89 0 0 1 31.43 61.51 666.02 666.02 0 0 1-31.43 61.52m47.13-22.78a482.1 482.1 0 0 1 17.8 60.37A479.24 479.24 0 0 1 532 535.3a682.93 682.93 0 0 0 22.82-36.89 783.16 783.16 0 0 0 20.54-38.1M378.13 574c14.2.86 28.7 1.37 43.37 1.37 14.68 0 29.26-.5 43.48-1.37a481.95 481.95 0 0 1-43.48 45.57 478.88 478.88 0 0 1-43.37-45.57ZM311 535.25a479.16 479.16 0 0 1-61.1-14.65 482.07 482.07 0 0 1 17.73-60.28 638.7 638.7 0 0 0 20.55 38.1 837.12 837.12 0 0 0 22.82 36.88m-43.37-152.65a482.39 482.39 0 0 1-17.68-60.06 485.54 485.54 0 0 1 60.94-14.74c-7.81 11.78-15.46 23.99-22.83 36.72a747.48 747.48 0 0 0-20.54 38.08m197.33-113.67a713.44 713.44 0 0 0-43.48-1.37c-14.67 0-29.12.46-43.36 1.37a478.76 478.76 0 0 1 43.36-45.57 478.87 478.87 0 0 1 43.48 45.57Zm89.93 75.6a670.23 670.23 0 0 0-22.94-36.92 479.06 479.06 0 0 1 61.23 14.72 486.01 486.01 0 0 1-17.73 60.29 644.01 644.01 0 0 0-20.54-38.07m-311.8-64.05c-5.77-56.14 6.03-97.01 32.14-112.07a54.18 54.18 0 0 1 27.4-6.7c26.26 0 59.74 14.3 95.42 41.83a546.19 546.19 0 0 0-62.36 69.47 553.68 553.68 0 0 0-91.3 19.05c-.52-3.9-1-7.75-1.36-11.58m-32.98 57.1c3.51-1.52 7.1-3.04 10.75-4.56a548.93 548.93 0 0 0 29.1 88.4 547.7 547.7 0 0 0-29.12 88.59c-58.16-23.81-91.87-56.8-91.87-88.59 0-30.12 29.67-60.67 81.14-83.84Zm65.18 336.86c-26.1-15.06-37.9-55.93-32.13-112.07.36-3.83.84-7.68 1.37-11.6a545.82 545.82 0 0 0 91.3 19.12 547.48 547.48 0 0 0 62.3 69.46c-49.73 38.35-95.18 51-122.77 35.1m324.82-112.08c5.71 56.16-6.02 97.01-32.15 112.07-27.57 15.95-73.04 3.26-122.75-35.09a547.37 547.37 0 0 0 62.29-69.46 545.39 545.39 0 0 0 91.3-19.12c.54 3.92 1 7.77 1.38 11.6m22.32-52.4a549.9 549.9 0 0 0-29.14-88.55 550.03 550.03 0 0 0 29.12-88.58c58.04 23.8 91.84 56.8 91.84 88.58 0 31.79-33.7 64.78-91.86 88.59"/>
</g>
<path stroke="#7A68E7" stroke-linecap="round" stroke-linejoin="round" stroke-width="42.67" d="M21.5 199.5v-89a89 89 0 0 1 89-89h89M644.5 21.5h89a89 89 0 0 1 89 89v89M822.5 644.5v89a89 89 0 0 1-89 89h-89M199.5 822.5h-89a89 89 0 0 1-89-89v-89"/>
<defs>
<clipPath id="a">
<path fill="#fff" d="M98 131h647v581H98z"/></clipPath>
</defs>
</svg>
