<svg xmlns="http://www.w3.org/2000/svg" viewBox="-100 25 380 380">
  <path shape-rendering="crispEdges" style="fill:#e6008d" d="M0 112h190v60H0zM28 70h14v14H28zM0 84h14v14H0zM28 84h14v14H28zM42 84h14v14H42zM70 84h14v14H70zM0 98h14v14H0zM14 98h14v14H14zM28 98h14v14H28zM42 98h14v14H42zM70 98h14v14H70zM98 98h14v14H98z"/>
  <path shape-rendering="crispEdges" style="fill:#8d2089" d="M0 186h190v60H0z"/>
  <path shape-rendering="crispEdges" style="fill:#5f2688" d="M0 260h190v60H0zM148 348h14v14h-14zM176 334h14v14h-14zM148 334h14v14h-14zM134 334h14v14h-14zM106 334h14v14h-14zM176 320h14v14h-14zM162 320h14v14h-14zM148 320h14v14h-14zM134 320h14v14h-14zM106 320h14v14h-14zM78 320h14v14H78z"/>
</svg>
