<svg xmlns="http://www.w3.org/2000/svg" fill="none" viewBox="0 0 231 231"><g transform="translate(13)"><path fill="#ffc131" d="m 143.143,84 c 0,12.1503 -9.85,22 -22,22 -12.151,0 -22.0004,-9.8497 -22.0004,-22 0,-12.1503 9.8494,-22 22.0004,-22 12.15,0 22,9.8497 22,22 z"/><circle cx="-84.1" cy="-147" r="22" fill="#24c8db" transform="scale(-1)"/><path fill="#ffc131" fill-rule="evenodd" d="m 166.738,154.548 c -8.878,5.738 -18.715,9.721 -28.981,11.793 C 139.858,160.282 141,153.774 141,147 c 0,-2.457 -0.15,-4.879 -0.442,-7.257 4.417,-1.539 8.657,-3.604 12.625,-6.168 9.547,-6.171 17.109,-14.967 21.778,-25.331 4.669,-10.3643 6.246,-21.8564 4.541,-33.0953 C 177.798,63.9098 172.884,53.4021 165.352,44.8883 157.82,36.3744 147.99,30.2165 137.042,27.1546 126.095,24.0926 114.496,24.2568 103.64,27.6274 92.7839,30.998 83.1319,37.4317 75.8437,46.1553 74.9102,47.2727 74.0206,48.4216 73.176,49.5993 61.9292,50.8488 51.0363,54.0318 40.9629,58.9556 44.2417,48.4586 49.5653,38.6591 56.679,30.1442 67.0505,17.7298 80.7861,8.57426 96.2354,3.77762 111.685,-1.01901 128.19,-1.25267 143.769,3.10474 c 15.579,4.35741 29.568,13.12046 40.287,25.23636 10.719,12.1159 17.711,27.069 20.137,43.0629 2.426,15.9938 0.181,32.348 -6.463,47.097 -6.644,14.749 -17.406,27.266 -30.992,36.047 z M 41.9631,74.275 62.5557,76.8042 c 0.4902,-3.9912 1.3844,-7.9024 2.6581,-11.6768 -8.1673,1.8742 -16.005,4.9596 -23.2507,9.1476 z" clip-rule="evenodd"/><path fill="#24c8db" fill-rule="evenodd" d="M 38.4045,76.4519 C 47.3493,70.6709 57.2677,66.6712 67.6171,64.6132 65.2774,70.9669 64,77.8343 64,85.0001 c 0,2.1433 0.1143,4.2599 0.3371,6.3441 -4.3278,1.529 -8.4838,3.565 -12.3772,6.0814 -9.5471,6.1704 -17.1094,14.9664 -21.7783,25.3304 -4.669,10.364 -6.2459,21.856 -4.5413,33.095 1.7046,11.239 6.6181,21.747 14.1503,30.261 7.5321,8.514 17.3624,14.672 28.3097,17.734 10.9473,3.061 22.5459,2.897 33.4017,-0.473 10.857,-3.371 20.509,-9.805 27.797,-18.528 0.938,-1.123 1.832,-2.278 2.68,-3.462 11.256,-1.269 22.153,-4.473 32.226,-9.421 -3.276,10.528 -8.609,20.357 -15.741,28.894 -10.372,12.414 -24.107,21.57 -39.557,26.366 -15.449,4.797 -31.9546,5.031 -47.5334,0.673 C 45.7948,223.538 31.8055,214.775 21.0867,202.659 10.3679,190.543 3.37557,175.59 0.949823,159.596 -1.47592,143.602 0.768139,127.248 7.41237,112.499 14.0566,97.7497 24.8183,85.2327 38.4045,76.4519 Z M 163.062,156.711 v 0 c -0.108,0.062 -0.216,0.124 -0.324,0.186 0.108,-0.062 0.216,-0.124 0.324,-0.186 z" clip-rule="evenodd"/></g></svg>
