<svg width="121" height="59" viewBox="0 0 121 59" xmlns="http://www.w3.org/2000/svg" xmlns:xlink="http://www.w3.org/1999/xlink"><title>logo</title><defs><path id="a" d="M59.994 58.64V.24H0v58.4z"/></defs><g fill="none" fill-rule="evenodd"><path d="M61.072 32.55c.227 0 .455.147.487.38l.714 6.92c.032.32.13.554.26.554s.26-.233.292-.554l.78-6.92c.064-.233.162-.38.39-.38h3.31c.163 0 .358.147.39.322l.844 6.978c.033.32.13.554.26.554s.26-.233.293-.554l.65-6.95c.03-.203.162-.35.357-.35h5.26c.325 0 .422.176.39.41l-3.02 21.05c-.033.292-.228.438-.422.438h-4.74a.4.4 0 0 1-.39-.32l-1.235-7.067c-.033-.26-.13-.466-.26-.466s-.227.234-.26.497L64.287 54.1c-.065.204-.163.35-.357.35h-4.807a.467.467 0 0 1-.454-.38L55.55 32.93c-.033-.263.13-.38.357-.38h5.162zM77.21 32.93c0-.175.195-.38.422-.38H89.16c.194 0 .324.146.324.322v5.255c0 .175-.162.292-.357.292h-5.423c-.13 0-.227.087-.227.203v1.636c0 .115.13.203.227.203h5.48c.13 0 .227.088.227.204v5.314a.27.27 0 0 1-.26.264h-5.543c-.13 0-.228.088-.228.234V48.2c0 .117.097.205.194.205h5.618c.227 0 .358.146.358.292v5.43c0 .176-.163.32-.358.32H77.567c-.195 0-.357-.174-.357-.378V32.93zM91.66 32.93c0-.175.194-.38.422-.38h11.527c.194 0 .324.146.324.322v5.255c0 .175-.163.292-.357.292h-5.423c-.13 0-.227.087-.227.203v1.636c0 .115.13.203.227.203h5.48c.13 0 .227.088.227.204v5.314a.27.27 0 0 1-.26.264h-5.544c-.13 0-.227.088-.227.234V48.2c0 .117.097.205.194.205h5.618c.227 0 .357.146.357.292v5.43c0 .176-.164.32-.358.32H92.016c-.194 0-.357-.174-.357-.378V32.93zM109.194 43.47a.63.63 0 0 0 .065-.233c0-.06-.033-.205-.066-.292l-3.702-10.073c-.065-.146 0-.322.195-.322h5.942c.13 0 .227.117.26.234l.746 3.037c.033.117.097.205.13.205.065 0 .13-.088.162-.204l.747-3.036c.033-.146.13-.234.26-.234h5.942c.13 0 .26.088.26.234 0 .058 0 .117-.032.204l-3.702 9.84c-.065.117-.098.32-.098.38 0 .058.033.233.065.32l3.767 10.628c.065.205 0 .292-.195.292h-6.04c-.097 0-.194-.087-.227-.204l-.747-3.59c-.032-.118-.097-.176-.13-.176-.065 0-.097.058-.13.175l-.746 3.59c-.033.118-.163.205-.293.205h-5.976c-.13 0-.194-.058-.194-.146 0-.058 0-.088.032-.146l3.702-10.686z" stroke="#F5F5F5" stroke-width=".9" fill="#515151"/><g transform="translate(0 .147)"><mask id="b" fill="#fff"><use xlink:href="#a"/></mask><path d="M34.93 21.862a2.734 2.734 0 0 1 0-5.466 2.734 2.734 0 0 1 0 5.466m20.622-10.31a20.59 20.59 0 0 0-5.766-4.86C34.99-4.104 14.29-1.036 3.256 13.506 7.303 8.28 13.39 5.503 19.57 5.472 8.03 10.708 0 22.312 0 35.8c0 3.77.837 7.627 1.993 11.005 1.66-1.508 3.173-5.484 4.948-6.862.87 4.27 2.554 10.537 4.886 14.043 2.168-4.383 3.93-7.445 7.157-11.055.88 6.3 4.505 11.052 8.398 15.71a33.137 33.137 0 0 1 3.138-15.576c.156.076.313.15.472.224A33.468 33.468 0 0 0 41.56 55.13c-1.486-3.093-2.32-6.452-2.788-9.984a33.586 33.586 0 0 1-.294-4.416c0-3.223-.1-6.338.754-9.286.4-1.374.51-2.71 1.075-4.006.22-.503.45-1 .695-1.49 1.054-2.12 2.147-4.147 3.747-6.126.303-.376.802-.745 1.12-1.108 1.435-1.412 4.15-2.285 6.324-2.285 4.123 0 7.406 2.918 7.8 6.95-.146-4.694-1.658-8.434-4.442-11.828" fill="#00B4FF" mask="url(#b)"/><path d="M35.975 17.44a1.69 1.69 0 1 1 .002 3.38 1.69 1.69 0 0 1-.002-3.38" fill="#515151" mask="url(#b)"/></g></g></svg>