<svg viewBox="0 0 512 512" fill="none" xmlns="http://www.w3.org/2000/svg">
  <rect width="512" height="512" rx="254" fill="#EB5E41"/>
  <path d="M231.09 204.51c-17.82 52.06-35.59 103.92-53.23 155.8-.97 2.86-2.24 3.73-5.26 3.72-33.3-.12-66.61-.07-99.92-.07H69l90.56-267.9h3.54c61.3 0 122.6.02 183.89-.06 2.44 0 3.57.64 4.38 2.98 30.21 86.6 60.5 173.18 90.76 259.77.27.77.5 1.57.87 2.78H285.14v75.36l-.66.11-62.04-175.2c1.29-.12 2.33-.28 3.38-.28 22.2-.02 44.4-.01 66.61-.02 6.53 0 7.36-1.12 5.22-7.16-12.1-34.19-24.22-68.37-36.34-102.55-1.33-3.76-2.59-7.55-4.05-11.26-.39-1-.82-2.6-2.12-2.6-1.3 0-1.74 1.68-2.1 2.7-4.58 13.13-9.06 26.3-13.57 39.46l-8.38 24.42Z" fill="#fff"/>
</svg>
