<svg viewBox="0 0 256 256" xmlns="http://www.w3.org/2000/svg" preserveAspectRatio="xMidYMid">
  <defs>
    <linearGradient x1="50%" y1="3.961%" x2="50%" y2="100%" id="a">
      <stop stop-color="#FDFDFD" offset="0%"/>
      <stop stop-color="#CBCBCB" offset="100%"/>
    </linearGradient>
    <linearGradient x1="50%" y1="3.961%" x2="50%" y2="100%" id="b">
      <stop stop-color="#B2E198" offset="0%"/>
      <stop stop-color="#04A171" offset="100%"/>
    </linearGradient>
  </defs>
  <circle fill="url(#a)" cx="128" cy="128" r="127.858"/>
  <circle fill="url(#b)" cx="127.858" cy="128.142" r="116.907"/>
  <path d="M100.453 110.097a221.782 221.782 0 0 0-3.988 6.382 164.44 164.44 0 0 1-3.684-11.377c3.73-.535 7.695-.957 11.874-1.249a224.887 224.887 0 0 0-4.202 6.244zm103.138 7.475c-4.132-3.967-10.04-7.602-17.558-10.804-14.926-6.356-34.918-10.474-56.295-11.595a234.82 234.82 0 0 0-7.529-.277C138.53 75.415 154.292 65.05 163.472 64.7c1.944-.074 3.576.31 4.854 1.141 4.296 2.792 5.488 11.453 3.189 23.166a4.267 4.267 0 0 0 8.373 1.644c3.953-20.137-1.576-28.497-6.911-31.965-2.785-1.81-6.093-2.655-9.83-2.513-14.12.536-33.904 15.592-51.956 38.803-7.148.247-14.038.864-20.483 1.827a106.106 106.106 0 0 1-1.625-9.522c-1.619-13.344.367-22.816 5.312-25.337.794-.405 1.662-.639 2.654-.713 4.418-.332 10.652 2.637 17.542 8.359a4.267 4.267 0 0 0 5.452-6.565c-8.85-7.35-16.8-10.817-23.633-10.303-2.112.158-4.095.703-5.892 1.62-4.593 2.342-7.732 6.828-9.33 13.331-1.368 5.57-1.562 12.513-.576 20.636.39 3.213.96 6.556 1.695 9.998-5.04 1.062-9.71 2.356-13.897 3.869-18.316 6.616-22.544 15.337-22.866 21.488-.308 5.876 2.7 14.62 18.775 22.91a4.267 4.267 0 0 0 3.911-7.583c-9.247-4.77-14.41-10.193-14.165-14.88.346-6.605 11.417-13.596 30.274-17.535 1.747 6.309 3.99 12.861 6.68 19.505-6.777 12.723-11.722 25.262-14.286 36.416-1.833 7.97-2.369 14.89-1.592 20.567.906 6.63 3.558 11.418 7.881 14.228 2.205 1.433 5.176 2.553 9.079 2.553 5.658 0 13.275-2.357 23.343-9.538a4.267 4.267 0 1 0-4.955-6.948c-9.925 7.08-18.454 9.613-22.816 6.778-4.652-3.023-5.633-12.642-2.624-25.728 1.995-8.678 5.555-18.296 10.383-28.21a220.995 220.995 0 0 0 3.283 6.731c9.717 19.087 21.612 35.694 33.494 46.762 5.984 5.573 11.708 9.497 17.011 11.663 3.218 1.314 6.24 1.971 9.045 1.971 2.596 0 5.008-.563 7.216-1.69 4.43-2.259 7.511-6.52 9.157-12.665 1.41-5.263 1.726-11.827.942-19.512-1.543-15.11-7.253-33.539-16.077-51.891a4.267 4.267 0 0 0-7.69 3.697c8.407 17.485 13.833 34.908 15.278 49.06 1.27 12.447-.78 21.31-5.486 23.71-4.942 2.52-13.756-1.438-23.58-10.588-11.17-10.404-22.43-26.168-31.706-44.388a210.555 210.555 0 0 1-5.851-12.483 210.936 210.936 0 0 1 7.143-11.836 213.301 213.301 0 0 1 7.877-11.333c.7-.01 1.405-.017 2.115-.019 3.664-.012 7.592.09 11.688.305 20.404 1.07 39.368 4.95 53.399 10.925 12.34 5.256 19.534 11.704 19.244 17.25-.246 4.708-5.967 9.575-15.696 13.352a4.267 4.267 0 0 0 3.088 7.955c16.905-6.563 20.821-14.967 21.13-20.861.27-5.151-2.04-10.111-6.865-14.743z" fill="#F2F8F6"/>
  <path d="M119.194 129.133c0 5.153 4.174 9.33 9.323 9.33s9.323-4.177 9.323-9.33c0-5.154-4.174-9.331-9.323-9.331s-9.323 4.177-9.323 9.33" fill="#F1F8F3"/>
</svg>
