<svg viewBox="0 0 72 72" xmlns="http://www.w3.org/2000/svg">
  <path fill="#F4AA41" d="M23.5 14.59 19 16.34l-7.25 8.5-4.5 10.75 2 5.25a20.22 20.22 0 0 0 7.25 10L19 47.5s3.82 7.71 10.74 8.96c0 0 10.26 1.94 15.6-.87 3.41-1.8 4.41-4.42 4.41-4.42l3.42-3.42 1.58 2.34 2.08-.09 5.42-7.25L64 37.34l-.17-4.5-2.33-5.5-4.83-7.42S54 15 48.5 16c0 0-6.5-4.83-11.83-4.08s-4.59-1.25-13.17 2.67z"/>
  <path fill="#EA5A47" d="m36 47.25-3.08 2.42h-2.5l-.09 3.83.75 3.5 1.09 1.92 2.83 1.5 4.58-.58 1.59-1.75 1-4.25-.25-4-2 .25z"/>
  <path fill="#3F3F3F" d="m32.5 36.92-1.58 3.75 2.16 1.25 1.25.5 4.34.17 2.91-2.25-1.75-3.25z"/>
  <path d="M29.5 30.1s-1.8 1.25-2.74.68a2 2 0 0 1 2.08-3.42c.94.57.67 2.75.67 2.75z"/>
  <path fill="none" stroke="#000" stroke-linecap="round" stroke-linejoin="round" stroke-miterlimit="10" stroke-width="2" d="M33.1 37h6.15a1 1 0 0 1 .92.61l1.16 2.73-2.18 1.14a1 1 0 0 1-1.45-.75M34.76 40.76a1 1 0 0 1-1.36.75l-2.32-.95 1.1-2.9a1 1 0 0 1 .93-.65M30.44 50.03s-.72 8.79 3 9.93c2.65.82 5.15.54 6.07-.25.87-.75 2.63-4.47 1.82-9.68"/>
  <path d="M44.26 30.1s1.8 1.25 2.75.68a2 2 0 0 0-2.08-3.42c-.94.57-.67 2.75-.67 2.75z"/>
  <path fill="none" stroke="#000" stroke-linecap="round" stroke-linejoin="round" stroke-miterlimit="10" stroke-width="2" d="M25.62 42.84c-.47 3.6 2.24 5.75 4.29 6.84 1.2.64 2.65.52 3.72-.32l2.58-2.02 2.58 2.02c1.07.84 2.52.96 3.72.32 2.05-1.09 4.76-3.24 4.28-6.84"/>
  <path fill="none" stroke="#000" stroke-linecap="round" stroke-linejoin="round" stroke-miterlimit="10" stroke-width="2" d="M19.95 28.36c-2.32 5.16-.5 13.02.12 15.37.12.46.08.94-.13 1.37l-1.98 4.19a2 2 0 0 1-3.34.44c-3.19-3.79-8.55-11.39-6.54-16.69 7.06-18.6 15.86-18.14 15.86-18.14 2.85-1.93 13.1-6.94 24.82.88 0 0 8.63-1.72 14.93 16.93 1.8 5.34-3.43 12.87-6.55 16.65a2 2 0 0 1-3.34-.43l-1.97-4.16c-.2-.43-.25-.91-.13-1.37.63-2.35 2.43-10.21.12-15.37"/>
  <path fill="none" stroke="#000" stroke-linecap="round" stroke-linejoin="round" stroke-miterlimit="10" stroke-width="2" d="M52.63 46.46s-3.08 6.72-7.8 8.27M19.44 46.97s3.08 6.08 7.8 7.63M36.21 47.34v-3.03"/>
</svg>
