<svg xmlns="http://www.w3.org/2000/svg" viewBox="0 0 1000 1000">
  <rect width="1000" height="1000" rx="200" ry="200" fill="#fff"/>
  <svg viewBox="0 0 107 101" xmlns="http://www.w3.org/2000/svg" xmlns:xlink="http://www.w3.org/1999/xlink" xml:space="preserve" fill-rule="evenodd" clip-rule="evenodd" stroke-linejoin="round" stroke-miterlimit="2">
    <path d="M0 0h107v101H0z" fill="none"/>
    <path d="M93.4 76.49a.55.55 0 0 0-.53-.12c-4.19-6.19-9.52-12.06-14.68-17.73l-.85-.93a.5.5 0 0 0-.12-.3.55.55 0 0 0-.34-.2l-.17-.18-.12-.09c-.15-.32-.53-.56-.95-.35-1.58.81-3 1.97-4.4 3.04a73.3 73.3 0 0 0-5.42 4.52c-.7.65-1.39 1.33-1.97 2.09-.28.37-.07.72.27.87-1.22 1.2-2.45 2.45-3.68 3.74a.6.6 0 0 0-.16.44c.01.16.09.31.22.41l2.16 1.65.03.04c3.09 3.05 8.51 7.28 14.25 11.76l2.57 2.01c.39.47.76.94 1.12 1.4.19.25.55.3.8.11l.39.31a.57.57 0 0 0 .8-.1c.07-.09.1-.2.11-.31.04 0 .07.03.1.03.15 0 .31-.06.42-.18L93.43 77.3a.56.56 0 0 0-.04-.8l.01-.01Zm-29.23-3.85.21.25 3.66 3.12-5.12-3.91-.52-.36-.31-.24-.38-.32.1-.11.35-.35c1.72-1.74 4.67-4.64 6.19-6.06-1.61 1.62-4.87 6.37-4.17 7.98h-.01ZM81.7 86.45l-4.22-3.22c-1.65-1.71-3.43-3.4-5.24-5.03 2.28 1.76 4.23 3.25 4.52 3.51 2.21 1.97 2.11 1.61 3.63 2.91l1.83 1.33-.53.49.01.01Zm1.06.81-.08-.06.49-.38-.4.44h-.01Zm-66.93-65.3.4 2.11c.69 3.7 1.33 7.03 2.55 9.56l.48 1.92c.19.73.46 1.64.71 1.83 2.85 2.52 7.22 6.28 11.89 9.82.21.16.5.15.7-.01l.04.04c.11.1.24.15.38.15.16 0 .31-.06.42-.19 5.98-6.65 10.43-12.12 13.6-16.7.2-.25.3-.54.29-.84.2-.24.41-.48.6-.68a.56.56 0 0 0-.1-.86.58.58 0 0 0-.17-.36 271.5 271.5 0 0 0-3.46-3.28c-1.84-1.72-3.74-3.5-7.77-7.51l-.07-.06a.56.56 0 0 0-.22-.14c-1.11-.39-3.39-.78-6.26-1.28-4.22-.72-10-1.72-15.2-3.27h-.04v-.01s-.02 0-.03.02h-.01l.04-.02s-.31.01-.37.04a.58.58 0 0 0-.19.15c-.05.06-.09.12-.47.2-.38.08.08 0 .11 0h-.11v.03c.07.34.05.58.16.97-.02.1.21 1.02.24 1.11l1.83 7.26h.03Zm30.95 6.54-.04.05-.64-.71.68.66Zm-7.09 9.39-.1.12-.02-.02.13-.1h-.01Zm-7.07 8.47Zm3.02-28.57c.35.35 1.74 1.65 2.06 1.97-1.45-.66-5.06-2.34-6.74-2.88 1.65.29 3.93.66 4.68.91Zm-19.18-2.77c.84 1.44 1.5 6.49 2.16 11.4-.37-1.58-.69-3.12-.99-4.6a61.6 61.6 0 0 0-1.67-6.88l.49.05c0 .01 0 .02.02.03h-.01Zm-.29-1.21-.62-.05-.04-.12.66.18v-.01Zm-2.22.45v-.02.02Zm78.54-1.18c.04-.23-1.1-1.24-.74-1.26.85-.04.86-1.35 0-1.31-1.13.06-2.27.32-3.37.53-1.98.37-3.95.78-5.92 1.21-4.39.94-8.77 1.93-13.1 3.11-1.36.37-2.86.7-4.11 1.36-.42.22-.4.67-.17.95a.7.7 0 0 1-.28.09l-1.11.19a.57.57 0 0 0-.39.86c-2.32 3.1-4.96 6.44-7.82 9.95a1007.9 1007.9 0 0 0-8.72 10.14c-9.41 11.06-20.08 23.6-31.9 34.64a.57.57 0 0 0-.03.8c.05.06.12.1.19.13l-.48.44c-.1.09-.14.2-.16.32l-.23.25c-.21.23-.2.59.03.8.23.21.59.2.8-.03l.12-.13a.84.84 0 0 1 1.22 0l1.95 2.09-1.38-1.15a.57.57 0 0 0-.8.07c-.2.24-.17.6.07.8l14.82 12.43a.58.58 0 0 0 .77-.04l.36-.36a.56.56 0 0 0 .63-.12c20.09-20.18 36.27-35.43 54.8-49.06a.55.55 0 0 0 .23-.51.57.57 0 0 0 .48-.39 91.27 91.27 0 0 0 4.28-24.27l.02-.07.04-.14.05-.19c.26-.78.17-1.53-.15-2.15v.02ZM56.57 29.45c.9-1.03 1.79-2.04 2.67-3.02a364.43 364.43 0 0 1-28.81 33.14 830.72 830.72 0 0 0 26.14-30.12ZM24.02 82.26l-.03-.03.2.04a.47.47 0 0 0-.17 0v-.01Zm6.9 6.42-.05-.04.03-.03.04.02c0 .02-.02.03-.03.05h.01Zm8.36-7.21 1.38-1.44.03.05-1.42 1.39h.01Zm2.24-2.21.87-1.02.04-.04c3.29-3.39 6.68-6.82 10.18-10.25l.07-.06 2.72-2.08c-4.52 4.32-9.11 8.78-13.88 13.46v-.01Zm21.65-55.88c-1.86 2.42-3.9 5.56-5.63 8.07-5.46 7.91-23.04 27.28-23.43 27.65a2295.58 2295.58 0 0 1-16.43 15.72.8.8 0 0 1 .03-1.13c24.82-23.4 39.88-42.89 46-51.38-.13.33-.24.69-.55 1.09l.01-.02Zm16.51 7.1-.01.02c0-.02-.02-.07.01-.02Zm-.91-5.13Zm-5.89 9.45c-2.26-1.31-3.32-3.27-2.71-5.25l.19-.66a6.3 6.3 0 0 1 2.8-2.93l.15-.04a.8.8 0 0 1-.04-.43c.05-.31.25-.58.66-.58.67 0 2.75.62 3.54 1.3.24.19.47.4.68.63.3.35.74.92.96 1.33.13.06.23.62.38.91.14.46.2.93.18 1.4l.01.03c-.03.07 0 .37-.04.4-.1.72-.36 1.43-.75 2.05l-.11.16-.03.04c-.3.43-.65.83-1.08 1.13a5 5 0 0 1-4.2.79 6.33 6.33 0 0 1-.57-.25l-.02-.03Zm16.27-1.63a84.31 84.31 0 0 1-1.8 6.38c-.03.08-.03.16-.03.23a.54.54 0 0 0-.27.11A302.64 302.64 0 0 0 74.07 50c3.67-3.32 7.39-6.62 11.23-9.95a6.4 6.4 0 0 0 2.11-3.74l.56-3.37.03-.1c.25-.71 1.34-.4 1.17.33h-.02Z" fill="#6965db" fill-rule="nonzero"/>
  </svg>
</svg>
