<svg viewBox="0 0 145 127" xmlns="http://www.w3.org/2000/svg">
  <path d="M141.824 17.375c-.026-.02-30.283-15.327-30.283-15.327C111.402 2.03 3.449 2 3.449 2c-.36.216-.388.22-.401.243C3.03 2.383 3 17.71 3 17.71c.123.269.15.31.197.343.021.017 28.589 14.474 28.589 14.474H3.449c-.36.217-.386.222-.4.244-.016.14-.048 15.466-.048 15.466.123.269.15.309.198.343.02.017 28.588 14.474 28.588 14.474H3.45c-.36.217-.386.221-.4.244-.016.14-.048 15.465-.048 15.465.123.27.15.31.198.344.02.016 28.588 14.473 28.588 14.473H3.45c-.36.218-.388.222-.401.244C3.03 93.964 3 109.29 3 109.29c.123.27.15.31.197.344.021.016 30.26 15.318 30.26 15.318.065.033 50.634.048 50.634.048.247 0 .449-.2.449-.446v-15.26c-.123-.272-.15-.31-.2-.344-.02-.017-30.258-15.32-30.258-15.32-.14-.018-19.973-.048-19.973-.048v-14.37h78.712c.247 0 .449-.2.449-.447V63.5c-.123-.27-.15-.31-.199-.344-.02-.016-30.26-15.317-30.26-15.317-.14-.018-49.043-.047-49.043-.047L5.322 33.42H141.55c.247 0 .449-.2.449-.447V17.71c-.136-.304-.153-.316-.176-.335zM3.897 3.171l29.315 14.813v14.262L3.897 17.435V3.17zm29.871 14.092L5.322 2.891h105.91l28.443 14.372H33.768zm48.733 31.42 28.445 14.37H34.11v-14.37h48.392zm-28.73 45.792 28.445 14.372H33.768L5.322 94.475H53.77zm-49.874.28 29.315 14.812v14.262L3.897 109.018V94.754zm30.212 14.983h49.534v14.37H34.109v-14.37zM3.897 64.226l29.315 14.813V93.3L3.897 78.49V64.226zm1.425-.28h107.05V78.32H33.767L5.322 63.946zm27.89-1.172L3.897 47.963V33.699l29.315 14.813v14.262zm.897-30.247v-14.37h106.994v14.37H34.109z" fill-rule="nonzero" stroke="#000" stroke-width="2.143" fill="none"/>
</svg>
