<svg xmlns="http://www.w3.org/2000/svg" viewBox="0 0 256 256">
  <path fill="#3d72d7" d="M102.25 180.12 137.58 75.6a1.75 1.75 0 0 1 1.84-1.18l14.65 1.5a1.75 1.75 0 0 1 1.49 2.29l-34.5 103.08a1.75 1.75 0 0 1-1.66 1.2l-15.5-.06a1.75 1.75 0 0 1-1.65-2.31Z"/>
  <path fill="#f5f5f5" d="M58.74 131.41q-1.76.69.02 1.33 18.17 6.57 35.04 12.33a1.36 1.35 9 0 1 .91 1.25q.15 7.9-.41 15.92-.06.81-.34 1.55-.36.93-1.28.55l-57.17-23.73a.68.67 13.7 0 1-.41-.66l.74-15.53a1.01 1.01 0 0 1 .61-.88l55.9-23.96a1.1 1.08 70.2 0 1 1.47.7q.45 1.53.56 3 .55 7.5.3 14.95a.74.74 0 0 1-.48.66q-16.35 6.04-33.74 12.24-.43.15-.87.17-.64.03-.85.11ZM198.44 131.24l-35.69-12.46a.35.35 0 0 1-.24-.33q-.15-7.4.06-15.07.04-1.68.56-3.13.19-.5.7-.36 1.7.47 3.18 1.08 27.17 11.18 54.29 22.47.58.24.58.87l.03 15.71a.97.97 0 0 1-.59.89l-56.91 23.5a1.04 1.03-14.2 0 1-1.43-.85q-.89-8.95-.45-17.58a.9.89 82.7 0 1 .6-.79q18.49-6.23 35.33-12.68 1.73-.66-.02-1.27Z"/>
</svg>
