<svg xmlns="http://www.w3.org/2000/svg" width="506" height="506">
  <path fill="#2ba2d1" d="M354.07 203.55a212.42 212.42 0 0 0-10.2-3.22c.57-2.35 1.1-4.67 1.57-6.96 7.73-37.5 2.68-67.72-14.57-77.66-16.55-9.54-43.6.4-70.92 24.18-2.69 2.35-5.32 4.76-7.9 7.24a193 193 0 0 0-5.24-4.85c-28.64-25.42-57.34-36.14-74.57-26.16-16.53 9.57-21.42 37.97-14.46 73.51.69 3.53 1.47 7.03 2.34 10.5a210.33 210.33 0 0 0-11.74 3.7c-33.57 11.7-55 30.04-55 49.07 0 19.65 23.01 39.36 57.98 51.31 2.83.96 5.69 1.86 8.57 2.68-.94 3.75-1.77 7.52-2.5 11.32-6.62 34.93-1.44 62.66 15.04 72.17 17.02 9.81 45.6-.28 73.41-24.6a180.3 180.3 0 0 0 6.62-6.1c2.78 2.7 5.64 5.3 8.57 7.83 26.95 23.18 53.56 32.55 70.03 23.02 17-9.85 22.53-39.64 15.35-75.89-.56-2.84-1.2-5.66-1.9-8.47 2-.6 3.98-1.2 5.9-1.84 36.35-12.05 60-31.52 60-51.43 0-19.1-22.13-37.56-56.38-49.35Zm-7.88 87.92a182.9 182.9 0 0 1-5.33 1.66 317.75 317.75 0 0 0-16.05-40.16 317.67 317.67 0 0 0 15.43-39.58c3.24.93 6.39 1.92 9.42 2.97 29.34 10.1 47.24 25.03 47.24 36.54 0 12.26-19.33 28.17-50.71 38.57Zm-13.02 25.8c3.17 16.03 3.62 30.52 1.52 41.85-1.89 10.18-5.69 16.97-10.38 19.68-10 5.79-31.36-1.73-54.4-21.56a194.08 194.08 0 0 1-7.98-7.27 318.04 318.04 0 0 0 26.58-33.75 316.13 316.13 0 0 0 42.94-6.62c.63 2.55 1.2 5.1 1.72 7.67Zm-131.7 60.53c-9.76 3.45-17.54 3.55-22.24.84-10-5.77-14.15-28.03-8.48-57.9.67-3.53 1.44-7.04 2.31-10.53a318.36 318.36 0 0 0 42.73 6.18A329.84 329.84 0 0 0 243 350.02c-1.97 1.9-3.98 3.76-6.04 5.57-12.3 10.75-24.63 18.38-35.5 22.21Zm-45.73-86.4c-15.46-5.3-28.23-12.16-36.98-19.65-7.87-6.74-11.84-13.42-11.84-18.85 0-11.55 17.21-26.27 45.92-36.28 3.49-1.21 7.13-2.36 10.92-3.44 3.97 12.91 9.17 26.4 15.45 40.05a329.94 329.94 0 0 0-15.65 40.61c-2.63-.75-5.23-1.57-7.82-2.45Zm15.33-104.37c-5.96-30.45-2-53.42 7.96-59.19 10.6-6.14 34.06 2.62 58.78 24.57 1.61 1.43 3.2 2.9 4.76 4.4a324.63 324.63 0 0 0-27.01 33.42 330.93 330.93 0 0 0-42.31 6.57c-.81-3.23-1.54-6.5-2.18-9.77Zm136.77 33.78a430.83 430.83 0 0 0-9.64-15.86 299.41 299.41 0 0 1 28.9 5.05 289.23 289.23 0 0 1-10.14 27.3 472.01 472.01 0 0 0-9.12-16.5Zm-55.78-54.33a289.75 289.75 0 0 1 18.66 22.53c-12.48-.6-24.99-.6-37.47-.01a298.88 298.88 0 0 1 18.81-22.52Zm-56.13 54.42c-3.1 5.4-6.1 10.86-8.95 16.4a299.04 299.04 0 0 1-10.07-27.44c9.04-2.03 18.69-3.68 28.74-4.94a398.27 398.27 0 0 0-9.72 15.98Zm10.01 80.94a288.26 288.26 0 0 1-29.22-4.7c2.8-9.04 6.25-18.43 10.28-27.99a397.8 397.8 0 0 0 18.94 32.7Zm46.5 38.43a303.66 303.66 0 0 1-19.08-22.83c6.07.24 12.26.36 18.55.36 6.46 0 12.85-.14 19.14-.42a288.18 288.18 0 0 1-18.61 22.9Zm64.65-71.6c4.24 9.65 7.8 19 10.64 27.89-9.19 2.1-19.11 3.78-29.57 5.04 3.35-5.31 6.6-10.7 9.73-16.14a430.2 430.2 0 0 0 9.2-16.8Zm-20.93 10.03a444.1 444.1 0 0 1-15.21 24.54 408 408 0 0 1-29.04 1.02c-9.87 0-19.46-.3-28.7-.9a380.75 380.75 0 0 1-29.03-50.13 380.63 380.63 0 0 1 28.86-50.03 381.34 381.34 0 0 1 57.8 0 407.93 407.93 0 0 1 15.27 24.4 444 444 0 0 1 13.67 25.43 408.1 408.1 0 0 1-13.62 25.67Zm27.94-151.26c10.62 6.12 14.75 30.82 8.08 63.2-.43 2.06-.9 4.17-1.43 6.3a324.28 324.28 0 0 0-42.4-6.7 318.11 318.11 0 0 0-26.8-33.45c2.38-2.29 4.81-4.52 7.3-6.68 23.4-20.38 45.28-28.42 55.25-22.67Zm-72.19 97.15a28.31 28.31 0 1 1 0 56.62 28.31 28.31 0 0 1 0-56.62Z"/>
  <g fill="#e93787" fill-rule="evenodd">
    <path d="m126.96 369.47.01 21.19h-9.42c-24.43.02-40.8-3.6-49.09-10.85-8.3-7.26-12.45-21.73-12.46-43.41l-.02-29.44c0-10.7-3.03-19.91-9.07-27.66-6.04-7.75-15.39-11.62-28.04-11.6H.9L.9 246.66l17.95-.01c13.84-.01 23.47-3.3 28.91-9.88 5.45-6.58 8.16-16.25 8.15-29l-.02-38.27c-.02-21.68 4.12-36.13 12.4-43.35 8.3-7.22 24.65-10.83 49.08-10.85h9.42l.02 21.04h-10.3c-13.74.02-22.7 2.16-26.86 6.43-4.17 4.27-6.25 13.37-6.24 27.3l.03 39.45c0 17.26-3.37 28.87-10.14 34.8-6.76 5.95-19.96 10.25-39.58 12.91 19.04 2.25 32.1 6.58 39.16 13 7.07 6.42 10.6 18.02 10.62 34.8l.02 30.76c0 14.03 2.1 23.16 6.27 27.37 4.18 4.22 13.13 6.32 26.87 6.31ZM389.6 369.54c13.74-.01 22.7-2.13 26.86-6.35 4.17-4.22 6.25-13.35 6.24-27.38l-.02-30.76c-.01-16.77 3.51-28.38 10.57-34.81 7.06-6.43 20.11-10.78 39.14-13.05-19.62-2.64-32.82-6.92-39.6-12.85-6.77-5.93-10.16-17.53-10.17-34.8l-.03-39.45c0-13.93-2.1-23.03-6.27-27.3-4.17-4.26-13.13-6.39-26.87-6.38h-10.3l-.01-21.04h9.42c24.43-.02 40.8 3.58 49.09 10.78 8.3 7.2 12.45 21.65 12.46 43.34l.03 38.26c0 12.76 2.73 22.42 8.18 29 5.45 6.56 15.1 9.84 28.93 9.83h17.96l.01 21.04h-17.96c-12.65.02-22 3.9-28.02 11.65-6.03 7.76-9.04 16.98-9.04 27.68l.02 29.43c.02 21.69-4.12 36.16-12.4 43.43-8.3 7.26-24.65 10.9-49.08 10.92h-9.42l-.01-21.19Z"/>
  </g>
</svg>
