<svg viewBox="0 0 256 233" xmlns="http://www.w3.org/2000/svg" preserveAspectRatio="xMidYMid">
  <g fill="none" fill-rule="evenodd">
    <path d="M.388 0H24.18v157.893h94.087v19.466H.387V0zM183.154 46.503c16.222-2.163 33.526 1.081 46.503 11.896 14.06 9.733 21.63 27.036 22.71 43.258 2.164 19.466 0 38.933-10.814 55.155-9.733 12.977-24.873 21.629-42.177 22.71-16.222 2.163-34.606-1.081-48.665-11.896-12.978-10.814-19.467-27.036-21.63-43.258-2.162-17.304 0-36.77 10.815-51.91 8.652-15.14 25.955-24.874 43.258-25.955zm3.245 18.385c10.814-1.082 22.71 2.162 31.362 9.733 7.57 8.651 11.896 19.466 12.978 30.28 1.081 11.897 0 24.874-5.408 35.689-5.407 10.814-15.14 18.385-27.036 20.547-10.815 2.163-22.71-1.081-30.281-7.57-8.652-6.489-14.059-16.222-16.222-25.955-2.163-14.059-1.081-28.118 4.326-41.095 5.407-11.896 17.303-20.548 30.28-21.63z" fill="#000"/>
    <path d="M.388 205.477h255.224v27.037H.388v-27.037z" fill="#3492FF"/>
  </g>
</svg>
