<svg xmlns="http://www.w3.org/2000/svg" width="400" height="400" fill="none" viewBox="0 0 400 400">
<rect width="400" height="400" fill="#000" rx="20"/>
<path fill="#fff" d="M79.98 203.481c24.844 0 44.98 20.147 44.98 44.991-.001 24.841-20.137 44.98-44.98 44.98-24.84-.001-44.978-20.139-44.98-44.98 0-24.843 20.138-44.989 44.98-44.991m58.887-116.933c24.842 0 44.979 20.139 44.981 44.98a45 45 0 0 1-1.093 9.884c-3.137 13.95-5.802 29.769 2.173 41.636l12.647 18.819c.788 1.172 2.152 1.796 3.562 1.711 1.232-.074 2.388-.687 3.077-1.712l12.662-18.846c7.896-11.752 5.36-27.394 2.329-41.224a45 45 0 0 1-1.041-9.652c.003-24.842 20.149-44.98 44.99-44.98 24.84.001 44.978 20.14 44.981 44.98 0 3.792-.47 7.475-1.355 10.993-3.233 12.855-5.963 27.204.666 38.682l12.144 21.029c.229.397.655.633 1.113.633 24.842.002 44.981 20.148 44.981 44.991-.002 24.841-20.14 44.979-44.981 44.98s-44.978-20.139-44.98-44.98c0-3.875.489-7.636 1.41-11.223 3.325-12.956 6.165-27.45-.524-39.033l-11.565-20.03c-.388-.672-1.113-1.052-1.89-1.052a.5.5 0 0 0-.426.217l-12.832 19.092c-8.036 11.956-5.274 27.915-2.056 41.956a45 45 0 0 1 1.135 10.073c-.002 24.84-20.141 44.978-44.981 44.98-24.842 0-44.988-20.139-44.99-44.98 0-2.604.222-5.156.647-7.638 2.208-12.886 3.808-27.164-3.484-38.015l-8.748-13.018c-5.59-8.318-15.228-12.66-24.59-16.234-16.923-6.461-28.942-22.846-28.942-42.039.002-24.841 20.138-44.98 44.98-44.98"/>
</svg>
