<svg xmlns="http://www.w3.org/2000/svg" viewBox="0 0 308 209">
  <path d="M172.791 209h114.496c3.637 0 7.21-.965 10.359-2.8a20.807 20.807 0 0 0 7.582-7.65A21.026 21.026 0 0 0 308 188.099a21.04 21.04 0 0 0-2.781-10.448L228.326 43.294a20.802 20.802 0 0 0-7.58-7.65 20.574 20.574 0 0 0-10.357-2.8 20.57 20.57 0 0 0-10.356 2.8 20.797 20.797 0 0 0-7.581 7.65L172.791 77.67 134.35 10.447a20.817 20.817 0 0 0-7.584-7.648A20.584 20.584 0 0 0 116.407 0a20.58 20.58 0 0 0-10.358 2.8 20.815 20.815 0 0 0-7.585 7.647L2.781 177.651A21.032 21.032 0 0 0 0 188.099a21.035 21.035 0 0 0 2.772 10.451 20.8 20.8 0 0 0 7.582 7.65 20.572 20.572 0 0 0 10.359 2.8h71.871c28.476 0 49.476-12.618 63.927-37.236l35.082-61.292 18.791-32.801 56.394 98.528h-75.185L172.791 209Zm-81.323-32.846H41.255l75.186-131.363 37.514 65.681-25.117 43.9c-9.596 15.973-20.498 21.793-37.426 21.793" fill="#00dc82"/>
</svg>
