<svg xmlns="http://www.w3.org/2000/svg" fill="none" class="w-4 h-4" viewBox="0 0 22 22">
  <g clip-path="url(#a)">
  <mask id="b" width="23" height="22" x="0" y="0" maskUnits="userSpaceOnUse" style="mask-type:alpha">
  <circle cx="11.008" cy="11" r="11" fill="#000" style="fill:#000;fill-opacity:1"/></mask>
  <g mask="url(#b)"><path fill="#f7f7f7" fill-rule="evenodd" d="M16.737 20.397A11 11 0 0 0 22.016 11c0-6.075-4.925-11-11-11s-11 4.925-11 11c0 2.601.903 4.992 2.412 6.875l4.011-3.202V8.208L3.986 5.754h11.683c.875 0 1.584.71 1.584 1.584v2.833c-.826-.572-1.421-1.032-1.421-1.032l-2.793 1.692 4.781 4.061zM11.32 6.986h3.342s.125 1.39-1.703 1.39z" clip-rule="evenodd" style="fill:#f7f7f7;fill-opacity:1"/></g><path fill="#202123" fill-rule="evenodd" d="m2.422 17.875 4.011-3.202V8.208L3.979 5.754h11.684c.875 0 1.584.71 1.584 1.584v2.833c-.827-.572-1.422-1.032-1.422-1.032l-2.792 1.692 4.78 4.061-1.082 5.505A10.95 10.95 0 0 1 11.008 22a10.98 10.98 0 0 1-8.587-4.125m8.892-10.89h3.341s.126 1.392-1.702 1.392z" clip-rule="evenodd" style="fill:#202123;fill-opacity:1"/><mask id="c" fill="#fff"><path d="M22.008 11c0 6.075-4.925 11-11 11s-11-4.925-11-11 4.925-11 11-11 11 4.925 11 11"/></mask><path fill="#f7f7f7" d="M21.148 11c0 5.6-4.54 10.14-10.14 10.14v1.72c6.55 0 11.86-5.31 11.86-11.86zm-10.14 10.14C5.408 21.14.868 16.6.868 11h-1.72c0 6.55 5.31 11.86 11.86 11.86zM.868 11C.867 5.4 5.407.86 11.007.86V-.86C4.458-.86-.852 4.45-.852 11zM11.007.86c5.6 0 10.14 4.54 10.14 10.14h1.72c0-6.55-5.31-11.86-11.86-11.86z" mask="url(#c)" style="fill:#f7f7f7;fill-opacity:1"/></g><defs>
  <clipPath id="a"><path fill="#fff" d="M0 0h22v22H0z" style="fill:#fff;fill-opacity:1"/></clipPath></defs>
</svg>
