<svg viewBox="0 0 256 256" version="1" xmlns="http://www.w3.org/2000/svg" preserveAspectRatio="xMidYMid">
  <g fill="#DD3735">
    <path d="m256 121-1-10v-10l-2-14-4-10-5-13-12-18-9-11-5-6a152 152 0 0 0-20-13l-7-3-8-4h-3l-6-2-9-3-9-2-10-1-7-1h-15l-7 1-8 1-8 1-8 1-3 1-7 1a167 167 0 0 0-20 8l-10 6a148 148 0 0 0-17 14l-3 4-7 8-5 6-7 13-3 5-4 8-2 6a698 698 0 0 0-5 24l1 10v3l1 2H1l1 2v4l1 2v2l1 1-1 1 1 1-1 1 2 4v3l1-1 1 4v1l1 4h1l-1-5v1h3v-1l-1-1v1l-2-1 2-1-2-2h2v-3l-2-4v-9H7v1l1 6H7l-1-5v1l-1-1 1 2H5v3l-2-3v-6h1v-2l1-1 2-4v-3l1-4v-6a118 118 0 0 1 5-15l4-10 8-14 5-8 5-8 10-10 10-9a106 106 0 0 1 29-16l9-2 11-2 7-1a198 198 0 0 0 6 0l-3 5-3 3-4 6-6 8-6 8-9 12-8 10-6 10-10 14-7 11h-1v1l-1 1-2 4-1 2h-1c0-1 2-1 1-3l-1 2-1 2v1l-1 2h1v-1h1l-2 2-1 2h2v-1l2-2h1l7-9 11-13 4-6 1 1-1 5v14l-1 1 1 2-1 10v16h1v-14l1-3v2l-1 14-1 2v11h1l1-10v11l-1 1v4l-1 3v3l1 1v2l-1 1v1l1 1 1 2v13h-1v-11h-1l-1 15H61l-10 1h-5l-6-1-10 1H19l-2 1h-2l-2 1c-2 0-2 0-2 2h-1l1 1 1-1h1v1h5a69 69 0 0 0 17 2h64l9-1h20l10-1h5l6-1h10l12-1h26l5-1h15l10-1 4 1-1 1h1l-1 1h-1v1h1l-1 2c-1-1-2 0-2 1h1l-1 1v-1c-1 1-2 1-1 2l-1 1v1c-1 0-2 0-1 1h1l-2 1v2h-1 1l-1 1h1l-2 1-1 2-1 1-5 6-3 2-4 5-7 5-8 6-5 3-5 2-3 2-9 4h-1l-6 3-6 2h-7l-11 2-7 1h-8l-6-1h-3l-1-1h-4l-4-1-4-1-2-1-1 1-4-1-4-1h-1v-1l-5-2-2-1c-2-1-3-3-5-3l-3-1 1 1-7-4h-1l-2-2h-2l-8-5-2-2-5-4-3-2-2-2-1-1-1-1-2-2-3-2-3-3-7-9-1-1 1 3-2-2 6 10 2 3h-1l-2-2-3-2-1-2h-1l3 6-1-1 5 5c1 2 3 3 3 5l-1-1-2-2 1 1 3 4 1 1h1l-1 1h1l1 1 2 1h3v1h1l3 4 5 4 9 6 13 7c5 3 10 5 16 6l6 2 6 1 8 2h7l7 1h4l-1 1h-1 10l11-1h1l1-1h4l3-1h2l-2-1 3-1-1 1h1l-1 1 9-2h-1c0-2 2-1 3-2h-3l9-4-2 1 2 1 1-2h1l2-1h3l4-3h1l1-1c2 1 3 0 3-1l1-1 6-3h1l3-2h-1l2-1 7-6h1l1-2 6-5a121 121 0 0 0 13-15l7-11 4-9h1l7-1 2-1-1-1-1-1-1-2-1-1-1-3-1-1 4-10 3-11 1-11 1-7v-12zM39 218l-2-3 3 3h-1zm1 0h1v2l-1-2zm90 36 5-1-5 1zm22-2h-6c1 2 2 1 3 1l-6 1 2-1h-5l-4 1v-1l17-2v1h-1zm1-1 6-1-6 1zM78 76l8-11 3-4h1l-1-1 1-1 1-2h1l1-1 3-3 1-2v-2l2-2 3-4v1l3-4-1 1 2-3 1 1 1-2-1 1v-1l1-2 5-7 2-3 6-8 2-2h1l7 9 5 6 6 9 7 9 9 15 7 10h-16l-17 1-21 1-8 1H78zm99 40v1h-1l-1-4c-1-2-1-5-3-7l-5-7-2-2-6-6-10-5-3-2h26l2 1 2 4v6l1 6v15zM84 87h12l9-1h4l-4 2-5 4-4 4-5 6-4 4-4 6 1-25zm56 83-8 2h-14l-8-1-6-3-6-4-4-4 2 2c0 1-1 1-2-1l-1 1 1-2-1-2-2-4v-1l-1-1-3-3v1l-2-5 2 6-1-1h-1l-1 1 2 4 1 1v1l1 2 3 3 2 3v1c1 1 2 2 3 1l4 5-3-1a33 33 0 0 1 6 3l3 2 7 3-29 1v-19l-1-12v-17h1l1 1 1-1 1-4v-1l1-1-1-1 1-3h1v-3l2-2-1-1h1l1-2 1-1c1 1 0 2-1 2 2 0 2-2 2-3v-1l3-3 2-3 1-1c2 0 3-1 4-3h1l1-1v-1l1-1-1 2h1l3-2h-1l-2 1v-1l4-2 9-4h3a75 75 0 0 1 6-1h11a31 31 0 0 1 8 5l7 5c3 1 5 3 6 5 2 3 4 5 5 9l1 5 1 4-1 6v3l-2 7-2 3h1l1-2v1l-1 3-4 8-2 4-3 4-2 3-8 4-5 2zm-46-4-3-4 3 4zm54 12a35 35 0 0 0 11-8c4-2 7-6 9-9l7-13v-1l3 30-30 1zm88-3-1 1v-1h-2l-14 1h-32v-14h2l-1-1h1v-2l1 2v-3l-1-1 1-1h-1v-5l-1-2v1l-1-4 2 1-1-3h-1v-5h1l-1-1 1-1-1-2v-6l1 2v-4h-1l1-21 2 4 7 10 6 9 7 10a254 254 0 0 0 11 15l4 6 5 7 3 4 2 2-1-1 1 1 1 2zm4-22zm3-38h-1v1l-1-1 1 4 1-1h1c-2 2-2 3-1 4v2l1 1v1h-1l-1-1v4l1 2v-1 5l-1 6v6l-1 4-1 1v-3l-1-1 1 4h-1l-1 3-1 3 1 2h1v-5h1l-1 3 1 2-1 1-1-1 1 2h-1l-2-4-7-10-2-3c-2-4-5-9-9-13l-7-10-6-9-2-3-7-11-6-9a92 92 0 0 1-2-3l-1-6 1-5v-3h-8l-3-2-9-12-8-11-7-9-7-11-10-12-5-6h4l4 1 9 1 8 1 17 4 9 4 20 10 5 4 7 8 7 8 7 8 2 3 4 6 2 5 2 8 2 6 1 5v8l1-1v2h1l1 9-1 8v-3z"/>
    <path d="M188 149zm14 86-3 1h-1l3-2 1 1zM40 117l3-3-3 4v-1zm-25 43-2-5h1l2 4-1 1zm22-42-1 3h-2l3-3zm155 120h3-3zM37 122l1-1 1-1v-1l-2 2-1 1-1 1v1h-1l-1 2h-1l3-2 1-1-1 2-1 1-2 1-2 2-2 3 1 1 2-1v-1l2-2 1-1h-1l3-3 1-1c-1-1 0-1 1-1l-1-1z"/>
    <path d="m39 121-1 2-1-1-2 5h1v-1l3-3v-2zm-29 38h2v-1 2h-1l-1-1zm0-4-1-1v-1l1 2zm2-6 1 3h-1l-1-2 1-1zm192 83h2l-2 1v-1zM98 49h2l-2 2v-2zm25 44 3-1v1h-1l-2 1v-1zm65 73c0 1 2 2 0 3h1l-1 1v-4z"/>
  </g>
</svg>
