<svg xmlns="http://www.w3.org/2000/svg" width="66" height="61" fill="none" viewBox="0 0 66 61">
  <path fill="#000" d="M18.085.7c2.508-1.278 5.287-.557 7.65.722l.466.263 2.186 1.278-2.556 4.37-2.186-1.278-.362-.204c-1.751-.944-2.604-.791-2.9-.64h-.001c-.26.132-.785.596-1.095 2.154-.303 1.523-.301 3.679.107 6.39.211 1.4.526 2.91.94 4.506a80 80 0 0 1 5.12-.588c2.957-4.778 6.117-8.842 9.163-11.842 2.175-2.142 4.396-3.847 6.54-4.836C43.2.05 45.573-.41 47.75.595l.21.102.005.002.295.161c1.438.84 2.368 2.182 2.93 3.645.592 1.54.835 3.346.844 5.253l.013 2.532-5.063.024-.013-2.531-.011-.56c-.048-1.265-.235-2.224-.495-2.902-.288-.749-.604-1.01-.8-1.111l-.117-.05c-.325-.108-1.007-.152-2.27.431-1.412.652-3.156 1.922-5.11 3.846-2.091 2.06-4.303 4.754-6.482 7.938q.666-.01 1.336-.011c8.583 0 16.46 1.155 22.279 3.095 2.895.965 5.422 2.17 7.276 3.631 1.826 1.44 3.352 3.424 3.352 5.93 0 2.16-1.144 3.94-2.606 5.292-1.461 1.35-3.448 2.48-5.71 3.413l-2.34.966-1.931-4.68 2.34-.966c1.956-.807 3.346-1.657 4.205-2.45.858-.794.979-1.325.979-1.575 0-.29-.174-.969-1.423-1.953-1.22-.961-3.142-1.938-5.743-2.805-5.176-1.725-12.487-2.836-20.678-2.836-1.563 0-3.094.041-4.585.119a89 89 0 0 0-3.843 7.47q.471 1.036.981 2.084l.682 1.365.704 1.354c3.55 6.69 7.564 12.196 11.208 15.785 1.953 1.924 3.696 3.194 5.107 3.845 1.264.582 1.946.537 2.27.429l.118-.05c.231-.118.669-.489.986-1.689.317-1.197.422-2.918.211-5.14-.395-4.149-1.842-9.549-4.3-15.439l-.505-1.184-1.011-2.32 4.64-2.023 1.011 2.321.532 1.246c2.594 6.212 4.217 12.121 4.673 16.918.243 2.548.17 4.927-.356 6.917-.493 1.862-1.467 3.655-3.221 4.705l-.361.2h-.002c-2.233 1.137-4.694.679-6.805-.294-2.144-.99-4.365-2.692-6.54-4.834-4.265-4.202-8.753-10.492-12.589-17.906-1.31 3.66-2.195 7.057-2.635 9.979-.408 2.71-.41 4.867-.107 6.39.271 1.365.709 1.89.987 2.088l.109.067.002.002.085.036c.483.174 1.79.171 4.287-1.599l2.064-1.464 2.929 4.13-2.066 1.464c-2.858 2.027-6.443 3.553-9.601 1.941-2.232-1.138-3.307-3.397-3.76-5.676-.462-2.316-.39-5.114.065-8.133.682-4.537 2.279-9.9 4.671-15.516a82 82 0 0 1-2.272-5.96 45 45 0 0 0-4.44 1.208c-2.6.867-4.523 1.843-5.744 2.805-1.248.984-1.422 1.663-1.423 1.953 0 .452.491 1.679 3.381 3.19l2.243 1.174-2.346 4.486-2.243-1.173C3.104 36.07.117 33.565.117 30.02c0-2.506 1.526-4.49 3.352-5.93 1.854-1.46 4.38-2.666 7.276-3.631a49 49 0 0 1 4.6-1.272 49 49 0 0 1-.957-4.679c-.454-3.017-.527-5.815-.067-8.13.454-2.28 1.53-4.54 3.764-5.678m3.964 19.89a2.713 2.713 0 1 0 0 5.425 2.713 2.713 0 0 0 0-5.425"/>
</svg>
