<svg viewBox="0 0 190 190" xmlns="http://www.w3.org/2000/svg">
  <g fill="none" fill-rule="evenodd">
    <path d="M150.3 61.3c3-15 3.7-26.4 1.7-34.8-1.2-5-3.3-9-6.6-11.9a19 19 0 0 0-12.9-4.6c-8.2 0-16.8 3.7-26 10.8-3.7 2.9-7.6 6.4-11.6 10.4l-1.1-1.1a84.1 84.1 0 0 0-29.3-19A22.4 22.4 0 0 0 51 11a19 19 0 0 0-10.4 8.8c-4.1 7.1-5.2 16.4-3.7 28 .6 4.6 1.7 9.7 3.2 15.3-.6 0-1.1.2-1.7.3a84 84 0 0 0-31 15.9A22.4 22.4 0 0 0 .3 91a19 19 0 0 0 2.5 13.5c4 7 11.6 12.6 22.3 17 4.3 1.8 9.2 3.4 14.6 4.9l-.6 1.7c-3 15-3.7 26.5-1.7 34.9 1.2 5 3.3 9 6.6 11.9a19 19 0 0 0 13 4.6c8 0 16.7-3.7 25.9-10.8 3.8-3 7.7-6.5 11.8-10.6a84.1 84.1 0 0 0 30.8 20.7c4.9 1.5 9.5 1.6 13.6.2a19 19 0 0 0 10.4-8.8c4.1-7.1 5.2-16.4 3.7-28-.6-4.8-1.8-10.1-3.4-15.9.7 0 1.3-.2 2-.4a84 84 0 0 0 30.9-15.8c3.7-3.5 6-7.4 7-11.7.9-4.6 0-9.2-2.5-13.5-4-7-11.6-12.6-22.3-17-4.4-1.9-9.5-3.5-15-5l.4-1.6Z" fill="#002C4B" fill-rule="nonzero"/>
    <path d="m76.1 101 13.5 24h-9.2a5 5 0 0 1-4.3-2.5l-6.2-10.7 6.2-10.8Zm42.7 13-4.9 8.5a5 5 0 0 1-4.3 2.5H97.2L91 114h27.8ZM103 81l8 13.5-8 13.5H87l-8-13.6L87 81h16Zm21.1 3.3 4.5 7.7a5 5 0 0 1 0 5l-6.3 11H110l14.1-23.7ZM80 82l-13.9 23.2-4.7-8.2a5 5 0 0 1 0-5l5.8-10H80Zm29.6-18a5 5 0 0 1 4.3 2.5l7 12-6 10.5-14-25h8.7Zm-15.8 0 6.2 11H71.2l4.9-8.5a5 5 0 0 1 4.3-2.5h13.4Z" fill="#FFD94C"/>
    <path d="M54.9 108.4c1.3-.8 3-.3 3.7 1l.5.8a269.4 269.4 0 0 0 28.3 41c1 1.1.8 2.8-.3 3.8l-.6.5c-20.2 17.6-33.2 21.1-39.3 10.6-5.8-10.4-3.7-29.1 6.5-56.3.2-.6.6-1.1 1.2-1.4Zm85.6 20.6c1.5-.2 2.9.7 3.2 2.2l.1.8c5 26 1.5 39-10.5 39-11.7 0-26.6-11-44.7-33.3a2.7 2.7 0 0 1 2.1-4.4h1a263.2 263.2 0 0 0 48.8-4.3Zm7-55.2a2.8 2.8 0 0 1 3.5-1.7l.7.3c25.9 8.8 35.7 18.5 29.5 29-6 10.4-23.7 17.9-53 22.6-.6 0-1.3 0-1.8-.4a2.7 2.7 0 0 1-1-3.8l.5-.8a267.2 267.2 0 0 0 21.5-45.2ZM61.6 66c.7 0 1.4 0 2 .4 1.3.8 1.7 2.4 1 3.8l-.6.8a267.2 267.2 0 0 0-21.5 45.2 2.8 2.8 0 0 1-3.6 1.7l-.7-.3C12.4 108.8 2.6 99 8.8 88.6c6-10.4 23.7-17.9 53-22.6Zm41.8-31.5c20.2-17.6 33.2-21.1 39.3-10.6 5.8 10.4 3.7 29.1-6.5 56.3-.2.6-.6 1.1-1.2 1.4-1.3.8-3 .3-3.7-1l-.5-.8a269.4 269.4 0 0 0-28.3-41c-1-1.1-.8-2.8.3-3.8ZM57.7 18c11.7 0 26.6 11 44.7 33.3a2.7 2.7 0 0 1-2.1 4.4h-1A263.2 263.2 0 0 0 50.5 60c-1.5.2-2.9-.7-3.2-2.2l-.1-.8c-5-26-1.5-39 10.5-39Z" fill="#FF4154"/>
  </g>
</svg>
