<svg xmlns="http://www.w3.org/2000/svg" width="67" height="61" fill="none" viewBox="0 0 67 61">
  <path fill="#fff" d="M18.3.7c2.508-1.278 5.288-.557 7.65.722l.467.263 2.185 1.277-2.555 4.37-2.186-1.277-.362-.204c-1.751-.944-2.604-.791-2.9-.64h-.002c-.258.132-.784.596-1.094 2.154-.303 1.523-.301 3.679.107 6.39.211 1.4.526 2.91.94 4.506a80 80 0 0 1 5.12-.589c2.956-4.777 6.117-8.841 9.163-11.841 2.175-2.142 4.395-3.847 6.539-4.836C43.416.05 45.79-.41 47.967.595l.21.102.004.002.295.16c1.439.84 2.369 2.183 2.931 3.645.592 1.54.834 3.347.844 5.254l.012 2.532-5.062.024-.013-2.531-.012-.56c-.047-1.265-.234-2.224-.495-2.902-.287-.749-.603-1.01-.798-1.111l-.119-.05c-.324-.108-1.007-.152-2.27.431-1.411.652-3.155 1.922-5.108 3.846-2.092 2.06-4.305 4.754-6.483 7.938q.665-.01 1.336-.011c8.583 0 16.46 1.155 22.278 3.095 2.896.965 5.422 2.17 7.277 3.631 1.825 1.44 3.351 3.424 3.351 5.93 0 2.16-1.144 3.94-2.605 5.292-1.462 1.35-3.448 2.48-5.71 3.413l-2.34.966-1.932-4.68 2.34-.966c1.957-.807 3.346-1.657 4.205-2.45.858-.794.98-1.325.98-1.575 0-.29-.175-.97-1.423-1.953-1.22-.961-3.143-1.938-5.743-2.805-5.176-1.725-12.488-2.836-20.678-2.836-1.563 0-3.094.041-4.585.119a89 89 0 0 0-3.844 7.47q.47 1.036.982 2.084l.681 1.365.704 1.354c3.551 6.69 7.565 12.196 11.209 15.785 1.953 1.924 3.696 3.194 5.107 3.845 1.264.582 1.946.537 2.27.428l.118-.048c.23-.119.668-.49.986-1.69.317-1.197.422-2.918.21-5.14-.394-4.149-1.841-9.549-4.3-15.439l-.505-1.184-1.01-2.32 4.64-2.023 1.01 2.321.533 1.246c2.594 6.212 4.216 12.121 4.673 16.918.242 2.548.17 4.927-.357 6.917-.492 1.862-1.467 3.655-3.22 4.705l-.362.2h-.002c-2.233 1.137-4.693.679-6.804-.294-2.144-.99-4.365-2.692-6.54-4.834-4.266-4.202-8.753-10.492-12.59-17.906-1.308 3.66-2.194 7.057-2.634 9.979-.408 2.71-.41 4.867-.107 6.39.271 1.365.709 1.89.987 2.088l.108.067.002.002.086.036c.483.174 1.79.171 4.286-1.599l2.065-1.464 2.929 4.13-2.066 1.464c-2.858 2.027-6.443 3.553-9.601 1.941-2.232-1.138-3.308-3.397-3.761-5.676-.46-2.316-.389-5.114.065-8.133.683-4.537 2.28-9.9 4.672-15.516a82 82 0 0 1-2.272-5.96 45 45 0 0 0-4.44 1.208c-2.6.867-4.524 1.843-5.744 2.805-1.248.984-1.423 1.663-1.423 1.953 0 .451.49 1.679 3.381 3.19l2.242 1.174-2.345 4.486-2.244-1.173C3.32 36.07.333 33.565.333 30.02c0-2.506 1.526-4.49 3.351-5.93 1.855-1.46 4.38-2.666 7.277-3.631a49 49 0 0 1 4.6-1.272 49 49 0 0 1-.957-4.679c-.454-3.017-.527-5.815-.067-8.13.453-2.28 1.53-4.541 3.763-5.678m3.964 19.89a2.713 2.713 0 1 0 0 5.425 2.713 2.713 0 0 0 0-5.426"/>
</svg>
