<svg xmlns="http://www.w3.org/2000/svg" width="410" height="425" fill="none" viewBox="0 0 410 425">
<path fill="#0b84f3" fill-opacity=".2" d="M116.44 45.7c-6.99.38-12.62 1.48-18.29 3.64a69 69 0 0 0-10.02 5A56.4 56.4 0 0 0 65.07 82.8c-.84 2.32-3.13 9.71-4.6 14.8-9.82 34.03-15.4 71.24-16.59 110.62-.19 6.27-.19 21.2 0 27.37.8 26.11 3.3 49.68 7.82 73.72 1.83 9.72 4.78 22.8 6.49 28.73a56.3 56.3 0 0 0 20.72 29.85 56 56 0 0 0 36.55 11c5.53-.37 16.5-1.84 25.41-3.43 40.17-7.16 77.27-19.98 110.92-38.33 21.3-11.62 39.52-24.2 57.1-39.48a285 285 0 0 0 45.6-49.9c3.04-4.24 4.57-6.72 6.1-9.84a55 55 0 0 0 5.78-25.01c0-8.34-1.58-15.75-4.98-23.34-1.63-3.66-3.19-6.28-6.7-11.27a285 285 0 0 0-44.63-49.91c-27.05-24.1-59.16-43.86-95.03-58.49a363 363 0 0 0-24.65-8.97 387 387 0 0 0-64.1-14.65c-3.2-.44-7.56-.69-9.84-.57"/><path fill="#0b84f3" fill-opacity=".1" d="M92.39.6c-8.88.49-16.03 1.9-23.24 4.64a88 88 0 0 0-12.74 6.34 71.7 71.7 0 0 0-29.3 36.18 444 444 0 0 0-5.86 18.8C8.78 109.82 1.7 157.1.18 207.14c-.24 7.97-.24 26.95 0 34.8 1.02 33.17 4.19 63.12 9.94 93.67 2.33 12.36 6.07 28.97 8.24 36.51a71.5 71.5 0 0 0 26.34 37.94 71.3 71.3 0 0 0 46.45 13.98c7.02-.47 20.96-2.34 32.29-4.36 51.04-9.1 98.2-25.4 140.95-48.7 27.08-14.78 50.23-30.78 72.57-50.18a363 363 0 0 0 57.93-63.4c3.88-5.4 5.82-8.55 7.77-12.52 5-10.23 7.36-20.4 7.34-31.78 0-10.6-2-20.02-6.32-29.66-2.08-4.65-4.06-7.99-8.5-14.33-16.4-23.33-34.57-43.67-56.74-63.42-34.37-30.62-75.18-55.74-120.75-74.33a462 462 0 0 0-31.33-11.4A492 492 0 0 0 104.9 1.33 82 82 0 0 0 92.4.6"/><path fill="#0b84f3" d="M141.33 92.47a42 42 0 0 0-13.15 2.62 50 50 0 0 0-7.2 3.59 40.6 40.6 0 0 0-16.59 20.47c-.6 1.67-2.25 6.99-3.31 10.65-7.06 24.47-11.07 51.22-11.93 79.54-.14 4.51-.14 15.25 0 19.69a337 337 0 0 0 5.62 53c1.32 7 3.44 16.4 4.67 20.67a40.5 40.5 0 0 0 14.9 21.47 40.3 40.3 0 0 0 26.29 7.91c3.97-.26 11.86-1.32 18.27-2.46 28.89-5.15 55.57-14.37 79.77-27.57a226 226 0 0 0 41.06-28.4 205 205 0 0 0 32.79-35.87c2.19-3.06 3.29-4.84 4.4-7.08a39.5 39.5 0 0 0 4.14-17.99c0-6-1.13-11.33-3.57-16.78-1.18-2.64-2.3-4.52-4.82-8.11a205 205 0 0 0-32.1-35.9c-19.45-17.32-42.54-31.53-68.33-42.05-5.6-2.28-11.1-4.28-17.73-6.45a278 278 0 0 0-46.1-10.54c-2.3-.32-5.44-.5-7.08-.41"/>
</svg>
