<svg xmlns="http://www.w3.org/2000/svg" width="91" height="88" fill="none" viewBox="0 0 91 88">
  <path fill="#3e95ff" d="M73.685 44.98c0-15.805-12.87-28.675-28.675-28.675-7.295 0-13.95 2.734-19.037 7.252a7.686 7.686 0 0 1-10.206-11.494C23.54 5.161 33.786.935 45.01.935c24.294 0 44.045 19.751 44.045 44.045a43.85 43.85 0 0 1-7.002 23.804l5.967 5.642a7.685 7.685 0 0 1-10.56 11.169l-11-10.4a7.685 7.685 0 0 1-.372-10.792c4.72-5.123 7.597-11.945 7.597-19.423m-72.72.01a7.685 7.685 0 1 1 15.37 0c0 10.116 5.268 19.05 13.253 24.171A7.685 7.685 0 0 1 21.291 82.1C9.097 74.28.965 60.574.965 44.99"/><path fill="#3e95ff" d="M45.01 58.3c7.35 0 13.31-5.96 13.31-13.31s-5.96-13.31-13.31-13.31S31.7 37.64 31.7 44.99 37.659 58.3 45.01 58.3"/>
</svg>
