<svg data-name="Layer 1" xmlns="http://www.w3.org/2000/svg" viewBox="0 0 360 360">
  <path d="M141.35 63.15a9.43 9.43 0 0 1-4.44 12.57c-.3.14-.6.27-.91.38-47.87 17-82 60.9-82 112.47V198H0v-9.43c0-73 47.88-135.3 115.35-160a9.43 9.43 0 0 1 11.76 4.79zM0 216h54v144H0zm360-27.43V198h-54v-9.43c0-51.57-34.1-95.46-82-112.47a9.44 9.44 0 0 1-5.76-12c.11-.31.24-.62.38-.92l14.24-29.82a9.43 9.43 0 0 1 11.76-4.79c67.5 24.7 115.38 87.03 115.38 160zM306 216h54v144h-54z" style="fill:#27272a"/>
  <path d="M214.26 2.32a9.45 9.45 0 0 1 7.26 13.42l-2.59 5.42-20.06 42a9.48 9.48 0 0 1-9.11 5.35 175.56 175.56 0 0 0-19.52 0 9.48 9.48 0 0 1-9.11-5.35l-20.06-42-2.59-5.42a9.46 9.46 0 0 1 7.26-13.42 254.39 254.39 0 0 1 68.52 0zM288 188.57V360h-54V188.57c0-28.41-24.18-51.43-54-51.43s-54 23-54 51.43V360H72V188.57c0-56.81 48.36-102.86 108-102.86s108 46.05 108 102.86z" style="fill:#ffc905"/>
</svg>
