<svg xmlns="http://www.w3.org/2000/svg" width="57" height="57" fill="none">
  <path fill="#FFC83C" d="M0 0h57v57H0z"/>
  <path fill="#fff" d="M40.78 34.54ZM21.1 24.46l.05-.23-.05.23Zm.05-.23Zm19.63 11.21a16.66 16.66 0 0 1-.16 1.6l-.04.26-.07.42-.01.05-.1.46-.05.23a21.38 21.38 0 0 1-.32 1.2 5.7 5.7 0 0 1-.39.9c-1.29 5.34-4.9 7.94-11.02 7.94H28c-7.62-.21-10-4.52-10.55-5.84-.97-2.32-1.5-8.37-1.5-11.67 0-3.05-.67-6.05-.67-6.08l-.05-.26c-.3-1.5-.76-3.78-1.32-6.17-.29-1.25-.06-2.42.62-3.2a2.75 2.75 0 0 1 2.4-.85c2.2.22 2.75 2.95 3.08 4.59.11.59.2 1.2.3 1.8.2 1.25.39 2.53.8 3.64a8.91 8.91 0 0 1 .22-.92l.07-.19.05-.1.04-.1a4.32 4.32 0 0 1 .27-.4c.85-1.08 1.74-1.08 2.34-1.08.31 0 1.82.07 2.6 1.23l.15.26c.03-.2.07-.38.12-.53a2.72 2.72 0 0 1 .55-1c.6-.67 1.5-.93 2.23-.93.14 0 .32 0 .53.03l.12.02.12.03a2.73 2.73 0 0 1 .88.3 2.94 2.94 0 0 1 1.2 1.08l-.09-2.02c-.09-2.2-.2-4.68-.1-6.6.17-3.45 1.24-5.05 3.34-5.05 2.55 0 2.84 2.8 2.84 4.9a165.33 165.33 0 0 0 .35 12.42c.1 1.57.23 3.73.43 5.1l.11.76.03.03a4.95 4.95 0 0 1 .94 1.2l.05.1.09.24.04.11.02.12a4.9 4.9 0 0 1 .13 1.07 9 9 0 0 1 0 .9Z"/>
  <path fill="#000" d="M21.15 24.23Zm-.05.23.05-.23-.05.23Zm18.42 15.12Zm1.26-5.04Zm0 0v-.19a7.25 7.25 0 0 0-.15-1l-.04-.11a2.48 2.48 0 0 0-.09-.23l-.05-.12a3.03 3.03 0 0 0-.35-.56 4.95 4.95 0 0 0-.62-.66l-.11-.76c-.2-1.37-.33-3.53-.43-5.1l-.09-1.34c-.26-3.6-.26-7.92-.26-11.08 0-2.1-.29-4.9-2.84-4.9-2.1 0-3.17 1.6-3.34 5.05-.1 1.92.01 4.4.1 6.6l.08 2.02a2.94 2.94 0 0 0-1.7-1.29 2.73 2.73 0 0 0-.19-.05l-.18-.04a.92.92 0 0 0-.12-.03l-.12-.02-.53-.03a3.01 3.01 0 0 0-2.45 1.22c-.14.21-.25.45-.33.71a4.6 4.6 0 0 0-.12.53l-.15-.26c-.78-1.16-2.29-1.23-2.6-1.23-.6 0-1.49 0-2.34 1.07a1.3 1.3 0 0 0-.18.27 4.32 4.32 0 0 0-.09.15l-.04.08-.05.11a4.2 4.2 0 0 0-.3 1.12c-.4-1.12-.6-2.4-.79-3.64-.1-.6-.19-1.22-.3-1.81-.33-1.64-.88-4.37-3.07-4.6a2.73 2.73 0 0 0-2.4.87c-.7.77-.92 1.94-.63 3.2.56 2.38 1.01 4.66 1.32 6.16l.05.26c0 .03.67 3.03.67 6.08 0 3.3.53 9.35 1.5 11.67.55 1.32 2.93 5.63 10.55 5.84h.62c6.12 0 9.73-2.6 11.02-7.94a2.17 2.17 0 0 0 .16-.29 5.7 5.7 0 0 0 .38-1.14l.17-.67.06-.23.09-.46v-.05l.08-.42.04-.27a17.24 17.24 0 0 0 .16-1.59c.01-.3.02-.6 0-.9Zm-7.85-20.97C33.13 9.52 34.54 9 35.75 9c1.61 0 2.33 1.35 2.33 4.38 0 3.04 0 7.5.26 11.12l.08 1.33a84 84 0 0 0 .43 5.14l.04.21a13.67 13.67 0 0 0-4.77-2.05c-.18-.03-.5-.05-.9-.07.2-1.48.26-3.89-.1-5.53v-.05a67.8 67.8 0 0 0-.1-3.37c-.08-2.18-.19-4.66-.1-6.55ZM27.2 24.45a10.55 10.55 0 0 1 .25-1.67c.35-1.16 1.45-1.57 2.29-1.57.5 0 1.64.13 2.34 1.13a2.44 2.44 0 0 1 .34.65l.1.3c.06.22.11.46.16.72.13.73.18 1.6.18 2.44 0 .96-.07 1.9-.16 2.6-1.45-.03-3.61 0-5.2.03a21.54 21.54 0 0 1-.3-4.63Zm-5.68 1.02a7.4 7.4 0 0 1 .07-.83v-.03l.07-.36.04-.18a2.9 2.9 0 0 1 .58-1.16l.13-.13c.09-.1.17-.16.26-.22.22-.17.44-.26.65-.3a.98.98 0 0 1 .22-.05c.19-.02.37-.02.55-.02.25 0 1.46.05 2.12.92.06.09.13.19.18.3l.06.12c.05.1.09.21.11.31l.03.1.03.12.03.12.01.12a2.26 2.26 0 0 1 .03.33v.42l-.01.3v.53l.02.35a22.8 22.8 0 0 0 .26 2.87l-1.54.04c-.9 0-1.8.62-1.8 1.8 0 .33.06.7.2 1.1-.5-.2-1.04-.64-1.44-1.64-.18-.44-.33-.9-.45-1.4a16.7 16.7 0 0 1-.31-1.65 11.6 11.6 0 0 1-.1-1.88Zm18.75 9.75-.02.38v.03l-.03.4v.04l-.1.85-.01.01a16.02 16.02 0 0 1-.72 2.96l-.05.14a1.31 1.31 0 0 1-.15.27l-.05.07v.06c-.48 1.96-1.9 7.8-11.13 7.55-7.32-.2-9.58-4.27-10.1-5.52-.93-2.25-1.45-8.21-1.45-11.47s-.68-6.16-.69-6.2l-.05-.24c-.3-1.5-.76-3.79-1.32-6.18-.24-1.08-.05-2.1.51-2.74.4-.47.98-.7 1.66-.7l.3.01c1.68.17 2.23 2.25 2.62 4.18.12.58.2 1.2.3 1.79.22 1.44.45 2.92 1 4.2.05.12.12.22.21.32a13.06 13.06 0 0 0 .9 5.16c.47 1.17 1.17 1.83 2.2 2.08a3.78 3.78 0 0 0 2.28 1.88c.94.27 2.06.27 3.04.27.89 0 1.73 0 2.05.21.7.46.68.94.66 1.4v.2h.52v-.18c.02-.52.04-1.23-.9-1.85-.44-.3-1.28-.3-2.33-.3-.95 0-2.03 0-2.9-.25a3.22 3.22 0 0 1-1.76-1.3 3.8 3.8 0 0 1-.31-.54c-.22-.45-.32-.9-.32-1.27 0-.88.67-1.29 1.3-1.29l1.62-.04a7.6 7.6 0 0 1 6.97.04A12.52 12.52 0 0 1 39.09 32l.15.14.11.1.02.02.09.1.1.12.08.1.08.1.07.1c.02.03.05.06.06.1a1.71 1.71 0 0 1 .2.38l.01.02.03.1.06.2c.1.48.14 1.04.13 1.63Z"/>
</svg>
