<svg viewBox="0 0 755 871" xmlns="http://www.w3.org/2000/svg" fill-rule="evenodd" clip-rule="evenodd" stroke-linejoin="round" stroke-miterlimit="1.4">
  <path d="M0 216.4 375.8 0l378.4 216.4v438L378.3 870.8 0 654.4v-438z" fill="#f3df49"/>
  <path d="M83.9 382.7c23.4 0 30.6-11.2 30.6-24.9 0-15.7-13.7-20.8-24.5-23.3-10.2-2.2-14.9-2.8-14.9-7 0-3 2.6-4.3 8-4.3a23 23 0 0 1 14.4 5.6l12.6-13.5A36 36 0 0 0 83 305c-16 0-28.9 6.8-28.9 23.6 0 15.6 11.4 21.2 21.5 23.8 12.1 3.1 16.8 3.1 16.8 7.2 0 3.1-2.4 4.5-10.1 4.5-7 0-13.5-3-18.6-7.9L50 368.5c6.5 7.7 16.6 14.2 34 14.2zm75.6.3c10.8 0 17.1-3.8 20.8-6.8l-9-16.5c-1.5 1-4.3 3.2-8.2 3.2-3.6 0-6-1.6-6-9.1V326h19v-19.6h-19v-38.8h-23.5v38.8h-11V326h11v27c0 22.4 10.8 30 25.9 30zm79.5-46.2h-17.4c-18.4 0-30.5 6.5-30.5 22.4 0 17.3 12.6 23.5 26.3 23.5 10 0 16.4-3.4 22-12l-.5 10.4h23.5v-42.4c0-23.4-14.6-33.7-33.6-33.7-17.5 0-25.4 5.4-32.4 12.2l13.1 14c3.3-3 8-6.8 17-6.8 7.9 0 12 3.8 12.4 12.4zm0 14v3c0 6.3-5 10.5-14.6 10.5-6.7 0-10.2-2.5-10.2-6.7s2.7-6.8 8.6-6.8H239zm41.4 30.2H304v-39.8c0-9.5 5.6-14.7 15-14.7 8.5 0 12.5 4.7 12.5 13.1v41.5h23.6v-43c0-21.2-11.7-33.1-28-33.1-10.3 0-19 4.9-23.6 13.8l.5-12.3h-23.6v74.6zm124.1 1.7c11.3 0 19.2-4.6 23.4-12.5l-.5 10.9H451V254.7h-23.6V317c-4.7-7.3-11.4-12-23.3-12-18 0-33.4 15.7-33.4 38.6 0 23 15.6 39 33.8 39zm6.8-20.7c-10 0-16.3-6.6-16.3-18.4 0-11 6.3-17.8 16.3-17.8 10.1 0 16.8 6.8 16.8 17.8 0 11.8-6.7 18.4-16.8 18.4zm102.2-25.2h-17.3c-18.4 0-30.5 6.5-30.5 22.4 0 17.3 12.6 23.5 26.3 23.5 10 0 16.4-3.4 22-12l-.5 10.4h23.4v-42.4c0-23.4-14.5-33.7-33.6-33.7-17.5 0-25.3 5.4-32.3 12.2l13.1 14c3.3-3 8-6.8 17-6.8 7.8 0 12 3.8 12.4 12.4zm0 14v3c0 6.3-4.9 10.5-14.5 10.5-6.7 0-10.2-2.5-10.2-6.7s2.6-6.8 8.6-6.8h16.1zM555 381h23.6v-33c0-16 5.8-20.8 16.4-20.8 3.4 0 6.2.9 9.1 2.3l7.6-21.6c-3-1.5-6.7-3-11.6-3-7.7 0-16.4 2.9-21.9 15.1l.4-13.5H555v74.6zm97.3 1.7c11.3 0 19.2-4.6 23.4-12.5l-.5 10.9h23.6V254.7h-23.6V317c-4.7-7.3-11.4-12-23.3-12-18 0-33.4 15.7-33.4 38.6 0 23 15.6 39 33.8 39zM659 362c-10 0-16.3-6.6-16.3-18.4 0-11 6.3-17.8 16.3-17.8 10.1 0 16.8 6.8 16.8 17.8 0 11.8-6.7 18.4-16.8 18.4zM285.4 658.6c38.7 0 65.3-20.7 65.3-66V443.2h-43.8V592c0 21.9-9 27.5-23.4 27.5-15 0-21.3-10.3-28.1-22.5l-35.7 21.6c10.4 21.8 30.7 40 65.7 40zm168.7 0c41.6 0 72.5-21.6 72.5-61 0-36.5-21-52.8-58.1-68.7l-11-4.7c-18.7-8.1-26.8-13.5-26.8-26.6 0-10.6 8.1-18.7 21-18.7 12.4 0 20.5 5.3 28 18.7l34.1-21.9c-14.4-25.3-34.4-35-62.2-35-39 0-64 25-64 57.9 0 35.6 20.9 52.5 52.5 65.9l10.9 4.7c20 8.7 31.9 14 31.9 29 0 12.5-11.6 21.6-29.7 21.6-21.6 0-33.8-11.2-43.1-26.5l-35.7 20.6c12.8 25.3 39 44.7 79.7 44.7z" fill="#2e2e2c" fill-rule="nonzero"/>
</svg>
