<svg width="180" height="180" xmlns="http://www.w3.org/2000/svg">
  <defs>
    <linearGradient x1="41.05%" y1="31.72%" x2="73.61%" y2="59.89%" id="a">
      <stop stop-color="#5BD3F3" offset="0%"/>
      <stop stop-color="#5BD3F3" offset="100%"/>
    </linearGradient>
    <linearGradient x1="42.15%" y1="56.08%" x2="65.27%" y2="39.38%" id="b">
      <stop stop-color="#D573DE" stop-opacity="0" offset="0%"/>
      <stop stop-color="#D573DE" offset="100%"/>
    </linearGradient>
  </defs>
  <g fill-rule="nonzero" fill="none">
    <path d="M123.05 93.43c1 2.33 5.4 11.61 6.3 13.9-5.5 9.23-6.8 11.63-18.33 26.28-46.9 49.1-83.08 57.03-105.26 34.1A33.41 33.41 0 0 1 0 158.56c.47.86 1.1 1.81 1.87 2.84l.28.37.14.19.3.38.31.39.33.39.34.4.34.4.37.43.37.42.39.43.2.22.4.44.2.22.43.45.22.23c27.4 25.07 54.71 3.56 91.81-38 5.6-6.58 13.85-18.36 24.75-35.34Zm14.33-79.33c17.36 15.09 17.36 38.5 4.34 71.93-1-2.46-5.4-12.29-6.5-14.8 10.25-28.4 10.5-41.9-4.25-55.36-8.48-7.74-14.5-8.06-25.97-6.18l-.76.13-.37.07-.76.13-.77.15-.38.07-9.05 1.81v-.02l.2-.07c18.15-6.68 33.73-7.22 44.27 2.14Z" fill="url(#a)"/>
    <path d="M125.89 63.51c27.56 52.07 29.3 80.25 20.12 99.96-3.3 7.1-11.55 12-15.1 13.92-8.9 4.79-27.34 2.4-43.82-2.43l-2.47-1.06c8.28 2.67 26.28 6.16 35.98 3.49 31.86-8.77 28.07-46.72-3.96-106.33C84.62 11.46 49.58-4.9 21.95 6.34A23.01 23.01 0 0 0 15 10.72l.21-.22.43-.45.21-.22.43-.44c3.08-3.1 6.28-5.51 9.57-6.63 24.98-8.44 67.86-.05 100.04 60.75Z" fill="url(#b)"/>
  </g>
</svg>
