<svg viewBox="0 0 32 32" fill="none" xmlns="http://www.w3.org/2000/svg">
  <path d="M3.37.5h25.26a2.95 2.95 0 0 1 2.87 3.02v24.96c0 1.69-1.3 3.02-2.87 3.02H3.37A2.95 2.95 0 0 1 .5 28.48V3.52C.5 1.83 1.8.5 3.37.5Z" fill="#000"/>
  <path d="M18.64 9.15a2.7 2.7 0 0 1-.8 1.97 2.6 2.6 0 0 1-1.92.8 2.7 2.7 0 0 1-2.76-2.78c0-.76.26-1.42.8-1.96.52-.54 1.18-.8 1.96-.8.76 0 1.4.26 1.93.8s.8 1.2.8 1.97Zm-5.52 9.73c0-.77.27-1.43.8-1.96a2.7 2.7 0 0 1 3.93 0c.55.53.87 1.14.96 1.82a6.1 6.1 0 0 1-.69 3.77 6.52 6.52 0 0 1-2.69 2.84c-.64.38-1.17.37-1.58-.03-.4-.38-.28-.82.34-1.34a3.62 3.62 0 0 0 1.31-2.21c.03-.2-.05-.28-.24-.28-.46-.03-.93-.29-1.41-.78a2.5 2.5 0 0 1-.72-1.83Z" fill="#fff"/>
</svg>
