<svg width="532" height="300" viewBox="0 0 532 300" fill="none" xmlns="http://www.w3.org/2000/svg">
<style>rect{ fill: #2e2e2e; }</style>
<g>
<rect x="119" y="98" width="98" height="98" fill="#2E2E2E" stroke="white" stroke-width="2"/>
<path d="M160.526 171L167.402 145.872H162.47L159.302 158.58L157.43 166.5H157.178L155.342 158.58L152.21 145.872H147.026L153.902 171H160.526ZM188.34 171V167.544H186.144V158.796C186.144 154.332 183.192 151.992 178.332 151.992C174.3 151.992 171.708 153.612 170.556 155.664L173.184 157.896C174.192 156.456 175.524 155.448 177.864 155.448C180.42 155.448 181.536 156.672 181.536 159.012V160.236H178.26C172.788 160.236 170.016 162.108 170.016 165.852C170.016 169.344 172.428 171.432 176.136 171.432C179.016 171.432 181.068 170.1 181.752 167.796H181.932C182.148 169.776 183.408 171 185.64 171H188.34ZM177.684 168.264C175.776 168.264 174.588 167.472 174.588 165.996V165.276C174.588 163.728 175.848 162.9 178.368 162.9H181.536V165.384C181.536 167.148 179.88 168.264 177.684 168.264Z" fill="#72D7D1"/>
<path opacity="0.5" d="M137.864 128.896C137.864 126.304 136.01 124.594 133.832 124.594C131.996 124.594 131.114 125.494 130.664 126.25H130.448V124.45C130.448 122.668 131.582 121.498 133.49 121.498C135.362 121.498 136.244 122.506 136.244 124.036H137.72C137.72 121.768 136.136 120.148 133.49 120.148C130.79 120.148 128.972 121.93 128.972 124.522V128.914C128.972 131.524 130.898 133.252 133.4 133.252C135.938 133.252 137.864 131.488 137.864 128.896ZM133.4 125.872C135.182 125.872 136.388 127.096 136.388 128.896C136.388 130.696 135.182 131.902 133.4 131.902C131.654 131.902 130.448 130.696 130.448 128.896C130.448 127.096 131.654 125.872 133.4 125.872Z" fill="white"/>
<rect x="217" y="98" width="98" height="98" fill="#2E2E2E" stroke="white" stroke-width="2"/>
<path d="M254.926 171.432C261.01 171.432 264.286 168.156 264.286 163.476C264.286 159.732 262.162 157.248 257.842 156.456L255.214 155.988C252.442 155.52 251.398 154.584 251.398 152.676C251.398 150.444 252.802 149.292 255.502 149.292C258.022 149.292 259.894 150.3 261.226 151.884L263.998 148.932C262.27 146.772 259.39 145.44 255.466 145.44C249.994 145.44 246.646 148.104 246.646 152.892C246.646 156.384 248.446 159.192 253.09 159.984L255.754 160.416C258.49 160.848 259.534 161.82 259.534 163.8C259.534 166.212 257.95 167.58 255.07 167.58C252.586 167.58 250.39 166.572 248.518 164.412L245.674 167.364C247.582 169.812 250.642 171.432 254.926 171.432ZM277.52 171.432C281.516 171.432 284 169.596 285.26 166.968L281.804 164.916C280.976 166.572 279.752 167.688 277.556 167.688C274.748 167.688 273.236 165.924 273.236 163.26V160.164C273.236 157.464 274.784 155.736 277.484 155.736C279.572 155.736 280.76 156.816 281.408 158.4L284.972 156.456C283.748 153.792 281.408 151.992 277.484 151.992C271.868 151.992 268.412 155.736 268.412 161.712C268.412 167.688 271.832 171.432 277.52 171.432Z" fill="#72D7D1"/>
<path opacity="0.5" d="M226.342 120.4V121.768H233.722L228.538 133H230.158L235.378 121.696V120.4H226.342Z" fill="white"/>
<rect x="21" y="98" width="98" height="98" fill="#2E2E2E" stroke="white" stroke-width="2"/>
<path d="M53.2381 145.872V149.76H61.7341V163.584C61.7341 166.284 60.5101 167.544 58.3861 167.544C56.0461 167.544 55.0381 165.996 54.6061 163.908L50.1781 164.844C50.9341 168.84 53.6341 171.432 58.3861 171.432C63.2821 171.432 66.4861 168.588 66.4861 164.124V145.872H53.2381ZM90.34 171V167.544H88.144V158.796C88.144 154.332 85.192 151.992 80.332 151.992C76.3 151.992 73.708 153.612 72.556 155.664L75.184 157.896C76.192 156.456 77.524 155.448 79.864 155.448C82.42 155.448 83.536 156.672 83.536 159.012V160.236H80.26C74.788 160.236 72.016 162.108 72.016 165.852C72.016 169.344 74.428 171.432 78.136 171.432C81.016 171.432 83.068 170.1 83.752 167.796H83.932C84.148 169.776 85.408 171 87.64 171H90.34ZM79.684 168.264C77.776 168.264 76.588 167.472 76.588 165.996V165.276C76.588 163.728 77.848 162.9 80.368 162.9H83.536V165.384C83.536 167.148 81.88 168.264 79.684 168.264Z" fill="#72D7D1"/>
<path opacity="0.5" d="M31.278 120.4V127.132H33.528C33.816 126.592 34.41 125.836 35.742 125.836C37.326 125.836 38.388 126.916 38.388 128.734C38.388 130.678 37.29 131.902 35.382 131.902C33.456 131.902 32.268 130.768 32.268 128.824V128.554H30.81V128.878C30.81 131.542 32.664 133.252 35.382 133.252C38.1 133.252 39.882 131.326 39.882 128.734C39.882 126.178 38.208 124.522 36.03 124.522C34.248 124.522 33.42 125.332 32.952 126.196H32.736V121.75H39.54V120.4H31.278Z" fill="white"/>
<rect x="413" y="98" width="98" height="98" fill="#2E2E2E" stroke="white" stroke-width="2"/>
<path d="M448.01 171V161.424H452.834C457.694 161.424 460.394 158.4 460.394 153.648C460.394 148.86 457.694 145.872 452.834 145.872H443.294V171H448.01ZM448.01 149.724H451.862C454.382 149.724 455.426 150.732 455.426 152.964V154.332C455.426 156.564 454.382 157.572 451.862 157.572H448.01V149.724ZM481.044 171V167.364H473.484V156.06H481.044V152.424H473.484V145.872H469.2V150.372C469.2 151.92 468.624 152.424 467.148 152.424H463.476V156.06H468.876V165.96C468.876 168.912 470.532 171 474.06 171H481.044Z" fill="#72D7D1"/>
<path opacity="0.5" d="M422.72 124.504C422.72 127.096 424.574 128.806 426.752 128.806C428.588 128.806 429.488 127.906 429.92 127.15H430.136V128.95C430.136 130.732 429.002 131.902 427.112 131.902C425.24 131.902 424.358 130.894 424.358 129.364H422.882C422.882 131.632 424.448 133.252 427.112 133.252C429.794 133.252 431.612 131.47 431.612 128.878V124.486C431.612 121.876 429.686 120.148 427.184 120.148C424.646 120.148 422.72 121.912 422.72 124.504ZM427.184 127.528C425.402 127.528 424.196 126.304 424.196 124.504C424.196 122.704 425.402 121.498 427.184 121.498C428.93 121.498 430.136 122.704 430.136 124.504C430.136 126.304 428.93 127.528 427.184 127.528Z" fill="white"/>
<rect x="315" y="98" width="98" height="98" fill="#2E2E2E" stroke="white" stroke-width="2"/>
<path d="M350.01 161.244H352.854L357.642 171H362.826L357.462 160.704C360.594 160.02 362.394 157.32 362.394 153.648C362.394 148.86 359.694 145.872 354.834 145.872H345.294V171H350.01V161.244ZM350.01 157.572V149.724H353.862C356.382 149.724 357.426 150.732 357.426 152.964V154.332C357.426 156.564 356.382 157.572 353.862 157.572H350.01ZM375.952 149.544C378.112 149.544 378.904 148.5 378.904 147.204V146.34C378.904 145.044 378.112 144 375.952 144C373.792 144 373 145.044 373 146.34V147.204C373 148.5 373.792 149.544 375.952 149.544ZM367.528 171H383.944V167.364H378.256V152.424H367.528V156.06H373.648V167.364H367.528V171Z" fill="#72D7D1"/>
<path opacity="0.5" d="M325.008 123.514C325.008 125.26 326.286 126.052 327.186 126.34V126.556C326.25 126.754 324.774 127.69 324.774 129.634C324.774 131.776 326.628 133.252 329.328 133.252C332.01 133.252 333.882 131.776 333.882 129.634C333.882 127.69 332.406 126.754 331.452 126.556V126.34C332.352 126.052 333.648 125.26 333.648 123.514C333.648 121.534 331.956 120.148 329.328 120.148C326.682 120.148 325.008 121.534 325.008 123.514ZM326.484 123.64C326.484 122.308 327.636 121.498 329.328 121.498C331.02 121.498 332.172 122.308 332.172 123.64C332.172 124.972 331.02 125.782 329.328 125.782C327.636 125.782 326.484 124.972 326.484 123.64ZM326.25 129.526C326.25 127.996 327.492 127.132 329.328 127.132C331.146 127.132 332.406 127.996 332.406 129.526C332.406 131.056 331.146 131.902 329.328 131.902C327.492 131.902 326.25 131.056 326.25 129.526Z" fill="white"/>
<rect x="217" y="196" width="98" height="98" fill="#2E2E2E" stroke="white" stroke-width="2"/>
<path d="M264.214 265.04H251.65L257.122 260.612C260.758 257.696 263.53 254.996 263.53 250.892C263.53 246.572 260.47 243.44 255.106 243.44C249.886 243.44 247.15 246.392 246.07 249.704L250.174 251.252C250.786 249.164 252.082 247.508 254.71 247.508C257.086 247.508 258.526 248.804 258.526 251.18V251.54C258.526 253.664 257.23 255.428 254.566 257.732L246.502 264.608V269H264.214V265.04ZM276.8 269.432C283.352 269.432 286.304 264.644 286.304 256.436C286.304 248.228 283.352 243.44 276.8 243.44C270.248 243.44 267.296 248.228 267.296 256.436C267.296 264.644 270.248 269.432 276.8 269.432ZM276.8 265.652C273.344 265.652 272.084 262.988 272.084 258.668V254.204C272.084 249.884 273.344 247.22 276.8 247.22C280.256 247.22 281.516 249.884 281.516 254.204V258.668C281.516 262.988 280.256 265.652 276.8 265.652ZM276.8 258.56C278.456 258.56 279.032 257.804 279.032 256.832V256.04C279.032 255.068 278.456 254.312 276.8 254.312C275.144 254.312 274.568 255.068 274.568 256.04V256.832C274.568 257.804 275.144 258.56 276.8 258.56Z" fill="#FE6A6A"/>
<path opacity="0.5" d="M229.708 218.4L226.108 223.836H227.782L230.338 219.84H230.554V231H232.03L232.048 218.4H229.708ZM234.39 223.296V226.104C234.39 229.398 236.118 231.252 239.016 231.252C241.896 231.252 243.624 229.398 243.624 226.104V223.296C243.624 220.002 241.86 218.148 239.016 218.148C236.118 218.148 234.39 220.002 234.39 223.296ZM235.866 223.242C235.866 220.866 236.91 219.498 239.016 219.498C241.104 219.498 242.148 220.866 242.148 223.242V226.158C242.148 228.534 241.104 229.902 239.016 229.902C236.91 229.902 235.866 228.534 235.866 226.158V223.242Z" fill="white"/>
<rect x="315" y="196" width="98" height="98" fill="#2E2E2E" stroke="white" stroke-width="2"/>
<path d="M363.006 269V265.148H357.318V243.872H350.082L343.854 251.288L346.806 253.772L352.278 247.292H352.602V265.148H345.69V269H363.006ZM374.8 269.432C380.776 269.432 384.088 266.3 384.088 262.124C384.088 258.812 382.036 256.796 379.048 256.004V255.716C381.604 254.816 383.332 252.872 383.332 249.956C383.332 246.104 380.236 243.44 374.8 243.44C369.364 243.44 366.268 246.104 366.268 249.956C366.268 252.872 367.996 254.816 370.552 255.716V256.004C367.564 256.796 365.512 258.812 365.512 262.124C365.512 266.3 368.824 269.432 374.8 269.432ZM374.8 265.76C371.992 265.76 370.408 264.392 370.408 262.16V261.44C370.408 259.172 371.956 257.804 374.8 257.804C377.644 257.804 379.192 259.172 379.192 261.44V262.16C379.192 264.392 377.608 265.76 374.8 265.76ZM374.8 254.312C372.172 254.312 370.732 253.016 370.732 250.928V250.424C370.732 248.372 372.172 247.112 374.8 247.112C377.428 247.112 378.868 248.372 378.868 250.424V250.928C378.868 253.016 377.428 254.312 374.8 254.312Z" fill="#FE6A6A"/>
<path opacity="0.5" d="M327.708 218.4L324.108 223.836H325.782L328.338 219.84H328.554V231H330.03L330.048 218.4H327.708ZM335.126 218.4L331.526 223.836H333.2L335.756 219.84H335.972V231H337.448L337.466 218.4H335.126Z" fill="white"/>
<rect x="119" y="0" width="98" height="98" fill="#2E2E2E" stroke="white" stroke-width="2"/>
<path d="M167.582 73L160.49 47.872H153.938L146.882 73H151.634L153.362 66.628H160.814L162.578 73H167.582ZM160.022 62.776H154.19L156.962 52.516H157.25L160.022 62.776ZM187.044 73V69.364H179.484V58.06H187.044V54.424H179.484V47.872H175.2V52.372C175.2 53.92 174.624 54.424 173.148 54.424H169.476V58.06H174.876V67.96C174.876 70.912 176.532 73 180.06 73H187.044Z" fill="#D0D0D0"/>
<path opacity="0.5" d="M128.882 26.432V26.9H130.358V26.522C130.358 24.578 131.528 23.498 133.436 23.498C135.056 23.498 136.244 24.47 136.244 26.144C136.244 27.962 134.948 28.754 132.806 29.384C130.412 30.086 128.864 31.04 128.864 33.542V35H137.648V33.65H130.358V33.362C130.358 31.634 131.438 31.184 133.454 30.572C135.92 29.816 137.72 28.736 137.72 26.198C137.72 23.768 135.938 22.148 133.436 22.148C130.772 22.148 128.882 23.786 128.882 26.432Z" fill="white"/>
<rect x="217" y="0" width="98" height="98" fill="#2E2E2E" stroke="white" stroke-width="2"/>
<path d="M274.071 73V69.112H262.911V62.2H273.675V58.312H262.911V51.76H274.071V47.872H258.195V73H274.071Z" fill="#D0D0D0"/>
<path opacity="0.5" d="M227.026 22.4V23.768H233.56L229.636 27.224V28.61H231.436C232.966 28.61 234.226 29.51 234.226 31.166C234.226 32.732 233.074 33.902 231.292 33.902C229.366 33.902 228.142 32.84 228.142 30.95V30.23H226.666V31.004C226.666 33.614 228.574 35.252 231.31 35.252C233.758 35.252 235.702 33.596 235.702 31.202C235.702 28.88 234.064 27.44 231.976 27.44H231.526V27.242L235.576 23.714V22.4H227.026Z" fill="white"/>
<rect x="413" y="0" width="98" height="98" fill="#2E2E2E" stroke="white" stroke-width="2"/>
<path d="M451.214 73.432C457.766 73.432 460.718 68.644 460.718 60.436C460.718 52.228 457.766 47.44 451.214 47.44C444.662 47.44 441.71 52.228 441.71 60.436C441.71 68.644 444.662 73.432 451.214 73.432ZM451.214 69.58C447.866 69.58 446.714 66.916 446.714 62.596V58.276C446.714 53.956 447.866 51.292 451.214 51.292C454.562 51.292 455.714 53.956 455.714 58.276V62.56C455.714 66.916 454.562 69.58 451.214 69.58ZM464.7 73H481.044V69.364H474.996V58.06H481.872V54.424H474.996V49.996H481.872V46.36H475.608C472.044 46.36 470.388 48.448 470.388 51.4V54.424H464.34V58.06H470.388V69.364H464.7V73Z" fill="#D0D0D0"/>
<path opacity="0.5" d="M427.868 22.4L422.396 31.202V32.498H428.912V35H430.388V32.498H432.548V31.148H430.388V22.4H427.868ZM428.696 23.624H428.912V31.148H424.034L428.696 23.624Z" fill="white"/>
<rect x="21" y="0" width="98" height="98" fill="#2E2E2E" stroke="white" stroke-width="2"/>
<path d="M58.9261 73.432C65.0101 73.432 68.2861 70.156 68.2861 65.476C68.2861 61.732 66.1621 59.248 61.8421 58.456L59.2141 57.988C56.4421 57.52 55.3981 56.584 55.3981 54.676C55.3981 52.444 56.8021 51.292 59.5021 51.292C62.0221 51.292 63.8941 52.3 65.2261 53.884L67.9981 50.932C66.2701 48.772 63.3901 47.44 59.4661 47.44C53.9941 47.44 50.6461 50.104 50.6461 54.892C50.6461 58.384 52.4461 61.192 57.0901 61.984L59.7541 62.416C62.4901 62.848 63.5341 63.82 63.5341 65.8C63.5341 68.212 61.9501 69.58 59.0701 69.58C56.5861 69.58 54.3901 68.572 52.5181 66.412L49.6741 69.364C51.5821 71.812 54.6421 73.432 58.9261 73.432ZM89.044 73V69.364H81.484V58.06H89.044V54.424H81.484V47.872H77.2V52.372C77.2 53.92 76.624 54.424 75.148 54.424H71.476V58.06H76.876V67.96C76.876 70.912 78.532 73 82.06 73H89.044Z" fill="#D0D0D0"/>
<path opacity="0.5" d="M33.708 22.4L30.108 27.836H31.782L34.338 23.84H34.554V35H36.03L36.048 22.4H33.708Z" fill="white"/>
</g>
</svg>
