<svg xmlns="http://www.w3.org/2000/svg" viewBox="0 0 256 256"><path d="M163 18.9c1.9 2.4 2.9 5.7 4.9 12.2l43.3 142.3c-16.3-8.4-33.7-14.4-51.8-17.5l-28.2-95.3c-.6-1.9-2.6-3.1-4.6-2.5-1.2.4-2.1 1.3-2.5 2.5l-27.9 95.2c-18.1 3.2-35.7 9.1-52 17.6L87.9 31.1c2-6.5 3-9.8 4.9-12.2 1.7-2.1 3.9-3.8 6.5-4.8 2.9-1.1 6.3-1.1 13.1-1.1h31.1c6.8 0 10.2 0 13.1 1.1 2.5 1 4.7 2.7 6.4 4.8z" style="fill-rule:evenodd;clip-rule:evenodd;fill:#fff"/><path d="M168.2 180.1c-7.1 6.1-21.4 10.3-37.8 10.3-20.2 0-37-6.3-41.5-14.7-1.6 4.8-2 10.4-2 13.9 0 0-1.1 17.4 11 29.4 0-6.3 5.1-11.4 11.3-11.4 10.7 0 10.7 9.4 10.7 17v.7c0 11.2 6.7 21.3 17.1 25.6-1.5-3.2-2.3-6.7-2.3-10.2 0-11 6.5-15.1 14-19.9 6-3.8 12.6-8 17.2-16.4 2.5-4.6 3.7-9.6 3.7-14.8.1-3.3-.5-6.5-1.4-9.5z" style="fill-rule:evenodd;clip-rule:evenodd;fill:#ff5d01"/><linearGradient id="a" gradientUnits="userSpaceOnUse" x1="164.144" y1="144.804" x2="121.864" y2="56.314" gradientTransform="matrix(1 0 0 -1 0 258)"><stop offset="0" style="stop-color:#ff1639"/><stop offset="1" style="stop-color:#ff1639;stop-opacity:0"/></linearGradient><path d="M168.2 180.1c-7.1 6.1-21.4 10.3-37.8 10.3-20.2 0-37-6.3-41.5-14.7-1.6 4.8-2 10.4-2 13.9 0 0-1.1 17.4 11 29.4 0-6.3 5.1-11.4 11.3-11.4 10.7 0 10.7 9.4 10.7 17v.7c0 11.2 6.7 21.3 17.1 25.6-1.5-3.2-2.3-6.7-2.3-10.2 0-11 6.5-15.1 14-19.9 6-3.8 12.6-8 17.2-16.4 2.5-4.6 3.7-9.6 3.7-14.8.1-3.3-.5-6.5-1.4-9.5z" style="fill-rule:evenodd;clip-rule:evenodd;fill:url(#a)"/></svg>
