<svg xmlns="http://www.w3.org/2000/svg" viewBox="0 0 171 159.9">
  <path fill="#09d3ac" d="M141.3 73.3c0-7-8-13-20.5-16.8 3-12.6 1.7-22.7-4.3-26.1a9.6 9.6 0 0 0-4.8-1.2c-5.6 0-12.6 3.9-19.7 10.6-7.1-6.7-14.2-10.6-19.7-10.6a9.5 9.5 0 0 0-4.9 1.3c-6 3.4-7.1 13.4-4.2 26-12.4 3.7-20.5 9.8-20.5 16.6s8.1 13 20.6 16.8c-3 12.6-1.7 22.7 4.3 26.1a9.4 9.4 0 0 0 4.8 1.2c5.5 0 12.6-3.9 19.7-10.6 7.1 6.7 14.1 10.6 19.7 10.6a9.6 9.6 0 0 0 4.8-1.3c6-3.4 7.2-13.4 4.3-26 12.4-3.7 20.4-9.8 20.4-16.6zM96.6 42c8.2-7.4 13.3-8.2 15-8.2a4.7 4.7 0 0 1 2.5.6c2.9 1.7 4 7.4 3.1 15a56.7 56.7 0 0 1-1 5.8 97.7 97.7 0 0 0-12.6-2 98.5 98.5 0 0 0-8.2-10.1l1.2-1.1zM71.8 78.9A134.8 134.8 0 0 0 77 88c-2.7-.4-5.3-.9-7.8-1.5.7-2.5 1.5-5 2.6-7.6zM69 60a88 88 0 0 1 8-1.5c-1 1.5-2 3-2.8 4.6l-2.5 4.6L69 60zm5.2 13.3q1.9-3.9 4.1-7.8c1.5-2.6 3.1-5.2 4.8-7.6a110.8 110.8 0 0 1 17.9 0 129.6 129.6 0 0 1 8.8 15.4 113 113 0 0 1-8.8 15.4 112.7 112.7 0 0 1-17.9 0 112.2 112.2 0 0 1-8.8-15.4zm32.9-14.7c2.7.3 5.3.8 7.8 1.4-.7 2.5-1.6 5-2.6 7.6a135.3 135.3 0 0 0-5.2-9zm2.7 24.9 2.5-4.5c1 2.6 2 5.1 2.7 7.6a87.2 87.2 0 0 1-8 1.5l2.9-4.6zM92 46.6c1.8 1.9 3.6 4 5.3 6.2l-5.2-.1h-5.4c1.7-2.1 3.5-4.2 5.3-6.1zm-22.2-12a4.8 4.8 0 0 1 2.5-.6 13.1 13.1 0 0 1 5.2 1.3 39 39 0 0 1 10 6.8l1.1 1a98.5 98.5 0 0 0-8.1 10 98.9 98.9 0 0 0-12.7 2.1c-.4-2-.8-3.8-1-5.6-1-7.6.2-13.4 3-15zm-5.3 50.7a58.8 58.8 0 0 1-5.5-2c-7.1-3-11.5-6.9-11.5-10.2s4.4-7.1 11.5-10a57.6 57.6 0 0 1 5.4-2A98 98 0 0 0 69 73.2a98.7 98.7 0 0 0-4.5 12zm23 19c-8.2 7.4-13.3 8.2-15.1 8.2a4.7 4.7 0 0 1-2.4-.6c-2.9-1.6-4-7.4-3.1-15a56 56 0 0 1 1-5.8 99.5 99.5 0 0 0 12.6 2 97.2 97.2 0 0 0 8.2 10.2zm4.6-4.4c-1.8-2-3.6-4-5.3-6.3l5.2.1h5.4a95.5 95.5 0 0 1-5.3 6.2zm22.2 12a4.8 4.8 0 0 1-2.5.5c-1.8 0-7-.8-15.2-8l-1.1-1.1a98.4 98.4 0 0 0 8.1-10 97 97 0 0 0 12.7-2c.4 1.9.8 3.8 1 5.6 1 7.5-.2 13.3-3 15zM125 83.4c-1.7.7-3.5 1.4-5.5 2a98.5 98.5 0 0 0-4.5-12.2 98.1 98.1 0 0 0 4.5-12 58.8 58.8 0 0 1 5.5 2c7 3 11.5 6.9 11.5 10.1s-4.4 7.1-11.5 10zm-33.1-1a9.2 9.2 0 1 0-9.2-9.2 9.2 9.2 0 0 0 9.2 9.2zM31 17.9v110.6h122V18zm117.3 105.9H35.8V22.6h112.5zm-85-34c-3 12.8-1.7 22.8 4.3 26.2a9.4 9.4 0 0 0 4.8 1.2c5.5 0 12.6-3.9 19.7-10.6 7 6.7 14.1 10.6 19.7 10.6a9.6 9.6 0 0 0 4.8-1.3c6-3.4 7.2-13.4 4.3-26 12.4-3.7 20.4-9.7 20.4-16.6s-8-13-20.5-16.7c3-12.7 1.7-22.8-4.3-26.2a9.6 9.6 0 0 0-4.8-1.2c-5.6 0-12.6 4-19.7 10.6-7.1-6.6-14.2-10.5-19.7-10.5a9.5 9.5 0 0 0-4.9 1.2c-6 3.4-7.2 13.4-4.2 26-12.4 3.8-20.5 9.8-20.5 16.7s8.1 13 20.6 16.7zm24.2 14.6c-8.2 7.3-13.3 8-15.1 8a4.7 4.7 0 0 1-2.4-.5c-3-1.6-4-7.4-3.1-15a56 56 0 0 1 1-5.8 99.5 99.5 0 0 0 12.5 2 97.2 97.2 0 0 0 8.3 10.2zm24.8-37-2.5-4.4-2.7-4.5c2.7.3 5.4.8 7.8 1.4-.7 2.5-1.6 5-2.6 7.6zm2.7 19a87.2 87.2 0 0 1-7.9 1.5l2.8-4.6q1.4-2.4 2.4-4.5c1 2.7 2 5.2 2.7 7.7zm-5.2-13.3a113 113 0 0 1-8.8 15.5l-9 .3s-6-.1-9-.3a112.2 112.2 0 0 1-8.8-15.4q1.9-4 4-7.9l4.9-7.6a110.8 110.8 0 0 1 17.9 0 129.6 129.6 0 0 1 8.8 15.5zM77 88c-2.7-.4-5.3-.9-7.8-1.5a91 91 0 0 1 2.6-7.5 134.8 134.8 0 0 0 5.2 9zm-2.8-25-2.5 4.5Q70.3 63.6 69 60a88 88 0 0 1 8-1.5L74.1 63zm17.9 36.9c-1.8-2-3.6-4-5.3-6.3l5.2.1h5.3a92.4 92.4 0 0 1-5.2 6.1zm22.2 12a4.8 4.8 0 0 1-2.5.5c-1.8 0-7-.8-15.2-8l-1.1-1.1a98.4 98.4 0 0 0 8.1-10 97 97 0 0 0 12.7-2c.4 1.9.8 3.8 1 5.6 1 7.5-.2 13.3-3 15zm5.2-50.7a58.8 58.8 0 0 1 5.6 2c7 3 11.5 6.8 11.5 10.1s-4.4 7.2-11.5 10.1l-5.5 2a98.5 98.5 0 0 0-4.5-12.2 98.1 98.1 0 0 0 4.4-12zM96.5 42c8.2-7.3 13.4-8.1 15.2-8.1a4.7 4.7 0 0 1 2.4.6c2.9 1.6 4 7.3 3 15a56.7 56.7 0 0 1-1 5.7 97.7 97.7 0 0 0-12.5-2 98.5 98.5 0 0 0-8.2-10.1c.3-.4.7-.8 1.2-1.1zM92 46.6c1.8 1.9 3.6 4 5.3 6.2l-5.2-.1h-5.4c1.7-2.1 3.5-4.2 5.3-6.1zm-22.2-12a4.8 4.8 0 0 1 2.5-.6 13.1 13.1 0 0 1 5.2 1.3 39 39 0 0 1 10 6.8l1.1 1a98.5 98.5 0 0 0-8.1 10 98.9 98.9 0 0 0-12.7 2.1c-.4-2-.8-3.8-1-5.6-1-7.6.2-13.4 3-15zM59 63a57.6 57.6 0 0 1 5.4-1.9A98 98 0 0 0 69 73.2a98.7 98.7 0 0 0-4.5 12 58.8 58.8 0 0 1-5.5-2c-7.1-3-11.5-6.8-11.5-10S51.9 66 59 63zm33 1a9.2 9.2 0 1 0 9.2 9.2A9.2 9.2 0 0 0 92 64zm0 0a9.2 9.2 0 1 0 9.2 9.2A9.2 9.2 0 0 0 92 64zm0 0a9.2 9.2 0 1 0 9.2 9.2A9.2 9.2 0 0 0 92 64zm49.4 9.3c0-6.9-8.2-13-20.6-16.7 3-12.7 1.7-22.8-4.3-26.2a9.6 9.6 0 0 0-4.8-1.2c-5.6 0-12.6 3.9-19.7 10.6-7.1-6.7-14.2-10.5-19.7-10.5a9.5 9.5 0 0 0-4.9 1.2c-6 3.4-7.1 13.4-4.2 26-12.4 3.7-20.5 9.8-20.5 16.7s8.1 13 20.6 16.7c-3 12.7-1.7 22.7 4.3 26.1a9.4 9.4 0 0 0 4.8 1.2c5.5 0 12.6-3.8 19.7-10.6 7.1 6.7 14.1 10.6 19.7 10.6a9.6 9.6 0 0 0 4.8-1.2c6-3.5 7.2-13.5 4.3-26 12.4-3.8 20.4-9.9 20.4-16.7zM96.5 42c8.2-7.4 13.3-8.2 15-8.2a4.7 4.7 0 0 1 2.5.6c2.9 1.7 4 7.4 3.1 15a56.7 56.7 0 0 1-1 5.8 97.7 97.7 0 0 0-12.6-2 98.5 98.5 0 0 0-8.2-10.1l1.2-1.1zM71.8 78.9A134.8 134.8 0 0 0 77 88c-2.7-.4-5.3-.9-7.8-1.5.7-2.5 1.5-5 2.6-7.6zM69 60a88 88 0 0 1 8-1.5c-1 1.5-2 3-2.8 4.6l-2.5 4.6L69 60zm5.2 13.3q1.9-3.9 4.1-7.8c1.5-2.6 3.1-5.2 4.8-7.6a110.8 110.8 0 0 1 17.9 0 129.6 129.6 0 0 1 8.8 15.4 113 113 0 0 1-8.8 15.4 112.7 112.7 0 0 1-17.9 0 112.2 112.2 0 0 1-8.8-15.4zm32.9-14.7c2.7.3 5.3.8 7.8 1.4-.7 2.5-1.6 5-2.6 7.6a135.3 135.3 0 0 0-5.2-9zm2.7 24.9 2.5-4.5c1 2.6 2 5.1 2.7 7.6a87.2 87.2 0 0 1-8 1.5l2.9-4.6zM92 46.6c1.8 1.9 3.6 4 5.3 6.2l-5.2-.1h-5.4c1.7-2.1 3.5-4.2 5.3-6.1zm-22.2-12a4.8 4.8 0 0 1 2.5-.6 13.1 13.1 0 0 1 5.2 1.3 39 39 0 0 1 10 6.8l1.1 1a98.5 98.5 0 0 0-8.1 10 98.9 98.9 0 0 0-12.7 2.1c-.4-2-.8-3.8-1-5.6-1-7.6.2-13.4 3-15zm-5.3 50.7a58.8 58.8 0 0 1-5.5-2c-7.1-3-11.5-6.9-11.5-10.2s4.4-7.1 11.5-10a57.6 57.6 0 0 1 5.4-2A98 98 0 0 0 69 73.2a98.7 98.7 0 0 0-4.5 12zm23 19c-8.2 7.4-13.3 8.2-15.1 8.2a4.7 4.7 0 0 1-2.4-.6c-2.9-1.6-4-7.4-3.1-15a56 56 0 0 1 1-5.8 99.5 99.5 0 0 0 12.6 2 97.2 97.2 0 0 0 8.2 10.2zm4.6-4.4c-1.8-2-3.6-4-5.3-6.3l5.2.1h5.4a95.5 95.5 0 0 1-5.3 6.2zm22.2 12a4.8 4.8 0 0 1-2.5.5c-1.8 0-7-.8-15.2-8l-1.1-1.1a98.4 98.4 0 0 0 8.1-10 97 97 0 0 0 12.7-2c.4 1.9.8 3.8 1 5.6 1 7.5-.2 13.3-3 15zM125 83.4c-1.7.7-3.5 1.4-5.5 2a98.5 98.5 0 0 0-4.5-12.2 98.1 98.1 0 0 0 4.5-12 58.8 58.8 0 0 1 5.5 2c7 3 11.5 6.9 11.5 10.1s-4.4 7.1-11.5 10zm-33.1-1a9.2 9.2 0 1 0-9.2-9.2 9.2 9.2 0 0 0 9.2 9.2zm-69.3 54.5V26.2L17.9 31v110.7h122l4.8-4.8z"/>
</svg>
