<svg fill="none" xmlns="http://www.w3.org/2000/svg" viewBox="0 0 172 253">
  <path d="M6.42 210.5h28.03v14H6.42a2.96 2.96 0 0 1-2.96-2.96v-8.08a2.96 2.96 0 0 1 2.96-2.96Z" fill="#EDF4FC"/>
  <path d="M48.24 74.18v24.74a37.32 37.32 0 0 0 37.22 37.22 37.32 37.32 0 0 0 37.21-37.22V74.68c-21.9 10.23-52.83 10.07-74.43-.5Z" fill="#F9D0B4"/>
  <path d="M129.22 71.14a61.11 61.11 0 0 1-6.55 3.54v24.24c0 .84-.03 1.67-.09 2.5a15.54 15.54 0 0 0 6.64-30.28ZM48.24 74.18a59.76 59.76 0 0 1-5.77-3.24 15.54 15.54 0 0 0 5.87 30.48c-.06-.83-.1-1.66-.1-2.5V74.18Z" fill="#F9D0B4"/>
  <path d="m116.65 151.26-8.14-7.42a1.87 1.87 0 0 0-2.62.09l-15.68 16.5a2.12 2.12 0 0 0-.02 2.89l.6.65a50.87 50.87 0 0 1 14.68 3.62l11.36-13.75c.64-.77.56-1.9-.18-2.58ZM81.21 163.97l.6-.65c.76-.82.75-2.09-.02-2.9L66.1 143.93a1.87 1.87 0 0 0-2.61-.1l-8.14 7.44c-.74.67-.82 1.8-.18 2.57l11.36 13.75c4.6-1.9 9.53-3.14 14.68-3.62Z" fill="#EDF4FC"/>
  <path d="m81.81 163.32-.6.65a51.57 51.57 0 0 1 9.58 0l-.6-.65a2.12 2.12 0 0 1 .02-2.9l14.88-15.65c-1.25-2-1.95-4.34-1.95-6.8v-6.33a36.9 36.9 0 0 1-34.28.55v5.78c0 2.45-.7 4.8-1.95 6.8l14.88 15.65c.77.81.78 2.08.02 2.9Z" fill="#F9D0B4"/>
  <path d="M165.58 210.5h-28.04v14h28.04a2.96 2.96 0 0 0 2.96-2.96v-8.08a2.96 2.96 0 0 0-2.96-2.96Z" fill="#EDF4FC"/>
  <path d="M160.55 250.5c2.34 0 4.2-1.97 4.07-4.31l-1.25-21.69h-25.83v26h23Z" fill="#F9D0B4"/>
  <path d="M160.51 175.24a14.69 14.69 0 0 0-11.08-13.43l-28.9-7.27-3.3-1.63c-.04.34-.17.66-.4.93l-11.36 13.75A50.99 50.99 0 0 0 86 163.74a50.99 50.99 0 0 0-19.47 3.85l-11.36-13.75c-.23-.27-.36-.6-.4-.93l-3.3 1.63-28.9 7.27a14.68 14.68 0 0 0-11.08 13.43L9.44 210.5h25.02v40h103.08v-40h25.02l-2.05-35.26Z" fill="#F5C84C"/>
  <path d="M34.45 224.5H8.63l-1.25 21.69a4.08 4.08 0 0 0 4.07 4.31h23v-26Z" fill="#F9D0B4"/>
  <path d="M86 163.74a51.4 51.4 0 0 0-51.34 51.34c0 13.73 5.42 26.2 14.22 35.42h25.07a37.48 37.48 0 0 1-25.37-35.41A37.46 37.46 0 0 1 86 177.67a37.46 37.46 0 0 1 37.42 37.42 37.48 37.48 0 0 1-25.37 35.41h25.07a51.15 51.15 0 0 0 14.22-35.41A51.4 51.4 0 0 0 86 163.74Z" fill="#818182"/>
  <path d="M101.66 218.28c0 1.47-.22 2.89-.6 4.24a73.3 73.3 0 0 0 22.33-8.67 37.17 37.17 0 0 0-3.39-14.36 59.52 59.52 0 0 1-21.53 9.34c2 2.63 3.2 5.9 3.2 9.44ZM70.34 218.28c0-3.55 1.2-6.82 3.2-9.45A59.52 59.52 0 0 1 52 199.5a37.17 37.17 0 0 0-3.39 14.36c6.82 4.03 14.34 7 22.33 8.67a15.6 15.6 0 0 1-.6-4.25ZM79.04 232.29v18.21h13.92v-18.21a15.54 15.54 0 0 1-13.92 0Z" fill="#5B5D60"/>
  <path d="M86 202.61a15.68 15.68 0 0 0-15.66 15.67c0 8.63 7.02 15.66 15.66 15.66s15.66-7.03 15.66-15.66c0-8.64-7.02-15.67-15.66-15.67Z" fill="#818182"/>
  <path d="M86 163.74a51.06 51.06 0 0 0-30.2 9.86 80.4 80.4 0 0 0 7.8 11.54 37.22 37.22 0 0 1 22.4-7.47c8.4 0 16.16 2.78 22.4 7.47a80.24 80.24 0 0 0 7.8-11.54 51.05 51.05 0 0 0-30.2-9.86Z" fill="#FC657E"/>
  <path d="M38.34 62.3v2.81c0 1.92.94 3.7 2.52 4.79 24 16.45 66.29 16.45 90.27 0a5.8 5.8 0 0 0 2.53-4.79v-2.8c-27.22-8.54-65.02-9.5-95.32 0Z" fill="#5B5D60"/>
  <path d="M134.3 46.77c-8.2-3.77-17.2-6.56-26.62-8.26a115.9 115.9 0 0 0-20.5-1.73h-2.2c-7.76 0-15.51.62-23.11 2.16a109.17 109.17 0 0 0-24.16 7.83 3.64 3.64 0 0 0-2.03 4.13l2.66 11.4c30.3-9.5 68.1-8.53 95.33 0l2.66-11.4c.39-1.68-.47-3.4-2.04-4.13Z" fill="#FCDD86"/>
  <path d="M147 36.35C141.37 26.48 119.86 2.5 86 2.5S30.64 26.48 25 36.35c-4.2 7.33 5.58 13.1 10.92 15.59l-.24-1.04c-.4-1.68.46-3.4 2.03-4.13a109.11 109.11 0 0 1 24.16-7.83 116.1 116.1 0 0 1 23.1-2.16h2.22c6.87 0 13.73.51 20.5 1.73 9.4 1.7 18.4 4.5 26.6 8.26a3.64 3.64 0 0 1 2.03 4.13l-.24 1.04c5.34-2.5 15.11-8.26 10.93-15.59Z" fill="#F5C84C"/>
  <path d="M85.46 138.64a39.76 39.76 0 0 1-39.72-39.72V74.94a2.5 2.5 0 1 1 5 0v23.98a34.75 34.75 0 0 0 34.72 34.72 34.75 34.75 0 0 0 34.71-34.72v-23.5a2.5 2.5 0 1 1 5 0v23.5a39.76 39.76 0 0 1-39.71 39.72ZM137.54 252.04a2.5 2.5 0 0 1-2.5-2.5V192.9a2.5 2.5 0 1 1 5 0v56.64a2.5 2.5 0 0 1-2.5 2.5ZM34.45 252.04a2.5 2.5 0 0 1-2.5-2.5V192.9a2.5 2.5 0 1 1 5 0v56.64a2.5 2.5 0 0 1-2.5 2.5Z" fill="#000"/>
  <path d="M125.06 104.14c-.66 0-1.33-.05-2.05-.14a2.5 2.5 0 1 1 .6-4.96A13.05 13.05 0 0 0 138.1 86.1a13 13 0 0 0-8.95-12.37 2.5 2.5 0 1 1 1.56-4.75 18 18 0 0 1 12.4 17.12c0 9.94-8.1 18.04-18.04 18.04ZM45.86 104.14c-9.95 0-18.04-8.1-18.04-18.04 0-7.92 5.3-15.03 12.9-17.29a2.5 2.5 0 1 1 1.42 4.8 13.1 13.1 0 0 0-9.32 12.49 13.05 13.05 0 0 0 14.25 12.97 2.5 2.5 0 0 1 .53 4.97c-.61.06-1.18.1-1.74.1ZM86 115.57c-4.78 0-9.26-1.95-12-5.21a2.5 2.5 0 0 1 3.83-3.21c1.8 2.14 4.86 3.42 8.17 3.42 3.31 0 6.37-1.28 8.17-3.42a2.5 2.5 0 0 1 3.83 3.2c-2.74 3.27-7.22 5.22-12 5.22ZM102.79 92.82a5 5 0 1 0 0-10 5 5 0 0 0 0 10ZM69.21 92.82a5 5 0 1 0 0-10 5 5 0 0 0 0 10Z" fill="#000"/>
  <path d="M86 84.71c-17.08 0-34.15-4.25-46.55-12.75a8.3 8.3 0 0 1-3.62-6.85v-2.55a2.5 2.5 0 1 1 5 0v2.55c0 1.09.55 2.1 1.45 2.73 23.29 15.97 64.15 15.97 87.44 0a3.31 3.31 0 0 0 1.44-2.73v-2.66a2.5 2.5 0 1 1 5 0v2.66a8.3 8.3 0 0 1-3.61 6.85c-12.4 8.5-29.48 12.75-46.55 12.75Z" fill="#000"/>
  <path d="M38.34 64.8a2.5 2.5 0 0 1-2.44-1.93l-2.66-11.4a6.17 6.17 0 0 1 3.42-6.97 111.79 111.79 0 0 1 24.71-8.01c7.3-1.47 15.27-2.2 23.6-2.2h2.22c7.54 0 14.38.58 20.94 1.76a113.2 113.2 0 0 1 27.2 8.45 6.16 6.16 0 0 1 3.43 6.97l-2.66 11.4a2.5 2.5 0 0 1-3.18 1.82c-28.5-8.94-65.33-8.93-93.84 0-.24.07-.5.11-.74.11ZM86 53c15.88 0 31.76 2.05 45.84 6.14l2.05-8.8a1.15 1.15 0 0 0-.64-1.3c-8-3.68-16.75-6.4-26.01-8.07a112.46 112.46 0 0 0-20.05-1.69h-2.35c-7.99 0-15.55.7-22.48 2.1a106.76 106.76 0 0 0-23.6 7.66c-.5.23-.77.77-.65 1.3l2.05 8.8C54.25 55.04 70.12 53 86 53Z" fill="#000"/>
  <path d="M35.58 54.28c-.36 0-.73-.08-1.07-.24-4.85-2.32-10.97-6.17-12.6-11.4-.79-2.5-.47-5.1.91-7.53C28.4 25.35 50.63 0 86 0c35.37 0 57.6 25.35 63.18 35.11a9.27 9.27 0 0 1 .92 7.52c-1.64 5.24-7.76 9.1-12.6 11.4a2.5 2.5 0 0 1-2.16-4.51c5.5-2.62 9.14-5.68 9.99-8.38a4.22 4.22 0 0 0-.5-3.55C139.66 28.53 119 5 86 5 53.01 5 32.34 28.53 27.16 37.6a4.23 4.23 0 0 0-.49 3.54c.85 2.7 4.49 5.76 9.99 8.38a2.5 2.5 0 0 1-1.08 4.76ZM106 169.44a2.5 2.5 0 0 1-1.93-4.1l10.45-12.63-7.24-6.61-15.02 15.79a2.5 2.5 0 0 1-3.72 3.34l-.19-.21a4.63 4.63 0 0 1 .05-6.32l15.68-16.5a4.4 4.4 0 0 1 6.12-.2l8.13 7.42a4.37 4.37 0 0 1 .42 6.01l-10.82 13.1c-.5.6-1.2.91-1.93.91ZM66.05 169.51a2.5 2.5 0 0 1-1.93-.9l-10.88-13.18a4.37 4.37 0 0 1 .42-6.01l8.14-7.43a4.4 4.4 0 0 1 6.12.22L83.6 158.7a4.63 4.63 0 0 1 .05 6.32l-.3.32a2.5 2.5 0 1 1-3.67-3.4l.05-.05-15.01-15.8-7.24 6.62 10.5 12.7a2.5 2.5 0 0 1-1.93 4.1Z" fill="#000"/>
  <path d="M104.7 146.6a2.5 2.5 0 0 1-2.2-1.3 15.4 15.4 0 0 1-1.86-7.33v-5.7a2.5 2.5 0 1 1 5 0v5.7c0 1.72.44 3.43 1.26 4.94a2.5 2.5 0 0 1-2.2 3.7ZM67.26 146.68a2.5 2.5 0 0 1-2.2-3.71 10.38 10.38 0 0 0 1.3-5v-4.78a2.5 2.5 0 1 1 5 0v4.78c0 2.59-.66 5.15-1.91 7.41a2.5 2.5 0 0 1-2.2 1.3ZM86 204.76a2.5 2.5 0 0 1-2.5-2.5v-23.9a2.5 2.5 0 1 1 5 0v23.9a2.5 2.5 0 0 1-2.5 2.5ZM165.58 227h-28.04a2.5 2.5 0 0 1-2.5-2.5v-14a2.5 2.5 0 0 1 2.5-2.5h28.04a5.47 5.47 0 0 1 5.46 5.46v8.08a5.47 5.47 0 0 1-5.46 5.46Zm-25.54-5h25.54c.26 0 .46-.2.46-.46v-8.08c0-.25-.2-.46-.46-.46h-25.54v9ZM34.45 227H6.42a5.47 5.47 0 0 1-5.46-5.46v-8.08A5.47 5.47 0 0 1 6.42 208h28.03a2.5 2.5 0 0 1 2.5 2.5v14a2.5 2.5 0 0 1-2.5 2.5ZM6.42 213c-.26 0-.46.2-.46.46v8.08c0 .25.2.46.46.46h25.53v-9H6.42Z" fill="#000"/>
  <path d="M160.55 253h-23a2.5 2.5 0 1 1 0-5h23a1.57 1.57 0 0 0 1.58-1.67l-1.22-20.94a2.5 2.5 0 1 1 5-.29l1.21 20.95a6.61 6.61 0 0 1-6.57 6.95ZM162.49 211.82a2.5 2.5 0 0 1-2.5-2.35l-1.98-34.09c-.3-5.35-3.99-9.83-9.19-11.14l-28.9-7.28c-.17-.04-.34-.1-.5-.18l-2.85-1.4a2.5 2.5 0 0 1 2.2-4.49l2.63 1.3 28.64 7.2a17.11 17.11 0 0 1 12.97 15.71l1.98 34.08a2.5 2.5 0 0 1-2.36 2.64h-.14Z" fill="#000"/>
  <path d="M137.54 253H34.46a2.5 2.5 0 1 1 0-5h103.08a2.5 2.5 0 1 1 0 5ZM9.48 212.5h-.15a2.5 2.5 0 0 1-2.35-2.64l2.01-34.77a17.1 17.1 0 0 1 12.97-15.7l28.64-7.2 2.5-1.24a2.5 2.5 0 1 1 2.21 4.48l-2.73 1.35c-.16.08-.33.14-.5.19l-28.9 7.27c-5.2 1.3-8.9 5.78-9.2 11.14l-2.01 34.77a2.5 2.5 0 0 1-2.5 2.35Z" fill="#000"/>
  <path d="M34.45 253h-23a6.6 6.6 0 0 1-6.57-6.95l1.22-20.99a2.5 2.5 0 1 1 4.99.3l-1.22 20.97a1.57 1.57 0 0 0 1.58 1.66h23a2.5 2.5 0 0 1 0 5.01ZM98.4 252.88a2.5 2.5 0 0 1-.82-4.86 35 35 0 0 0 23.34-32.94A34.96 34.96 0 0 0 86 180.17a34.96 34.96 0 0 0-34.92 34.91c0 14.68 9.3 27.88 23.13 32.86a2.5 2.5 0 0 1-1.69 4.7 40.04 40.04 0 0 1-26.44-37.55A39.96 39.96 0 0 1 86 175.17a39.96 39.96 0 0 1 39.92 39.92 40 40 0 0 1-26.68 37.65c-.27.1-.56.14-.83.14Z" fill="#000"/>
  <path d="M48.38 252.47a2.5 2.5 0 0 1-1.83-.8c-9.28-10-14.4-23-14.4-36.59A53.9 53.9 0 0 1 86 161.24a53.9 53.9 0 0 1 53.84 53.84 53.64 53.64 0 0 1-14.33 36.52 2.5 2.5 0 1 1-3.67-3.4 48.65 48.65 0 0 0 13-33.12A48.9 48.9 0 0 0 86 166.24a48.9 48.9 0 0 0-48.84 48.84 48.65 48.65 0 0 0 13.05 33.18 2.5 2.5 0 0 1-1.83 4.2Z" fill="#000"/>
  <path d="M99.02 211.21a2.5 2.5 0 0 1-.54-4.94 56.81 56.81 0 0 0 19.42-8.36 2.5 2.5 0 0 1 2.79 4.15 61.81 61.81 0 0 1-21.12 9.09c-.18.04-.37.06-.55.06ZM101.66 224.9a2.5 2.5 0 0 1-.53-4.95 70.77 70.77 0 0 0 20.59-8.02 2.5 2.5 0 0 1 2.52 4.32c-6.88 4-14.3 6.9-22.04 8.59-.18.03-.36.05-.54.05ZM72.97 211.2a2.5 2.5 0 0 1-.55-.05 61.77 61.77 0 0 1-21.37-9.27 2.5 2.5 0 1 1 2.82-4.13 56.8 56.8 0 0 0 19.65 8.52 2.5 2.5 0 0 1-.55 4.94ZM70.34 224.9c-.18 0-.36-.03-.54-.06a75.71 75.71 0 0 1-21.98-8.56 2.5 2.5 0 1 1 2.51-4.32 70.77 70.77 0 0 0 20.54 8 2.5 2.5 0 0 1-.53 4.93ZM92.96 252.5a2.5 2.5 0 0 1-2.5-2.5v-17.1a2.5 2.5 0 1 1 5 0V250a2.5 2.5 0 0 1-2.5 2.5ZM79.04 252.5a2.5 2.5 0 0 1-2.5-2.5v-17.06a2.5 2.5 0 1 1 5 0V250a2.5 2.5 0 0 1-2.5 2.5Z" fill="#000"/>
  <path d="M86 236.44a18.18 18.18 0 0 1-18.16-18.16A18.18 18.18 0 0 1 86 200.1a18.18 18.18 0 0 1 18.16 18.16A18.18 18.18 0 0 1 86 236.44Zm0-31.33a13.18 13.18 0 0 0 0 26.33c7.26 0 13.16-5.9 13.16-13.16S93.26 205.1 86 205.1Z" fill="#000"/>
  <path d="M89.48 221.35h-6.96a2.5 2.5 0 1 1 0-5h6.96a2.5 2.5 0 1 1 0 5ZM108.88 187.06a2.5 2.5 0 0 1-1.95-4.07 78.38 78.38 0 0 0 6.76-10.03 2.5 2.5 0 0 1 4.33 2.5 83.63 83.63 0 0 1-7.2 10.67 2.5 2.5 0 0 1-1.94.93ZM63 186.9a2.5 2.5 0 0 1-1.96-.94 83.34 83.34 0 0 1-6.92-10.27 2.5 2.5 0 1 1 4.33-2.5 78.27 78.27 0 0 0 6.5 9.65A2.5 2.5 0 0 1 63 186.9Z" fill="#000"/>
</svg>
