<svg xmlns="http://www.w3.org/2000/svg" viewBox="0 0 1024 1024">
  <path fill="#2f72a0" d="M354.408 863.507c-9.436-5.242-87.93-60.735-108.9-77.161l366.13-3.223 23.765-71.646c75.833-230.37 83.978-250.472 84.46-251.443 49.058 35.17 70.145 50.196 71.543 51.594-46.924 150.082-107.422 323.95-113.046 346.669-19.922 3.304-317.66 8.705-323.952 5.21z" stroke="null"/>
  <path fill="#5fb9ce" d="M678.38 858.328c4.262-17.058 47.283-152.78 48.68-160.119.7-2.796 5.942-18.523 11.534-34.95l47.182-153.778c.565.242-263.673-197.679-262.951-198.91 23.332-17.36 41.22-30.083 64.267-47.3 272.786 197.837 298.99 215.454 298.99 217.202 0 3.145-33.203 107.295-61.162 191.524-21.67 74.97-29.534 101.53-30.062 101.882-57.667 41.59-115.08 86.197-116.477 84.45z" stroke="null"/>
  <path fill="#e07674" d="M147.833 472.291c38.095-123.721 41.94-127.954 42.327-128.925L301.417 698.3c314.546 0 306.818 1.476 338.428 1.786-17.475 54.289-26.204 84.563-26.709 83.709-.504-.855-367.29 2.61-367.003 2.832.286.223-66.828-203.343-100.242-305.015l1.942-9.32z" stroke="null"/>
  <path fill="#ee9464" d="M287.542 655.642c-7.34-23.766-23.416-72.695-35.3-109.392-46.482-141.896-62.635-202.928-62.714-203.368-.08-.44 15.183-10.524 38.6-27.3 13.28-9.436 39.143-27.96 57.317-41.59 48.58-35.648 84.928-61.86 123.023-89.47l33.551-24.466 71.298.7 70.947 1.048-296.023 214.94 7.689 25.164c12.582 43.337 34.95 113.237 59.414 188.029 12.932 39.493 26.212 80.035 29.008 90.17l5.592 18.174h-88.772l-13.63-42.639z" stroke="null"/>
  <path fill="#f7c866" d="M570.443 277.837c-85.86 63.142-170.166 123.954-256.026 187.097l-27.765-87.141c98.541-71.647 198.08-144.292 296.622-215.939L842.7 344.59c33.356 109.451 37.289 114.472 44.226 135.732L735.58 374.298 586.52 265.954l-16.077 11.883z" stroke="null"/>
</svg>
