<svg viewBox="0 0 256 224" xmlns="http://www.w3.org/2000/svg" preserveAspectRatio="xMidYMid">
  <defs>
    <linearGradient x1="47.952%" y1="97.595%" x2="47.952%" y2="0%" id="a">
      <stop stop-color="#FFB300" offset="0%"/>
      <stop stop-color="#DC3939" offset="61.372%"/>
      <stop stop-color="#FF1BB4" offset="100%"/>
    </linearGradient>
  </defs>
  <path d="M13.18 4.5h229.64c4.517 0 8.18 3.655 8.18 8.163v197.674c0 4.508-3.663 8.163-8.18 8.163H13.18c-4.517 0-8.18-3.655-8.18-8.163V12.663C5 8.155 8.663 4.5 13.18 4.5z"/>
  <path d="M7.175 14.35v194.583a7.178 7.178 0 0 0 7.178 7.175h227.294a7.175 7.175 0 0 0 7.178-7.175V14.35a7.178 7.178 0 0 0-7.178-7.175H14.353a7.175 7.175 0 0 0-7.178 7.175zM0 14.35C0 6.425 6.424 0 14.353 0h227.294C249.574 0 256 6.427 256 14.35v194.583c0 7.925-6.424 14.35-14.353 14.35H14.353C6.426 223.283 0 216.856 0 208.933V14.35z" fill="url(#a)"/>
  <path d="M76.15 83.31h38.486v7.473H76.149V83.31zM64.406 63.947 30.52 94.393l10.547-26.645-14.887-10.04 33.885-30.443-11.47 28.345 15.81 8.337z" fill="#FFF"/>
</svg>
