<svg xmlns="http://www.w3.org/2000/svg" viewBox="0 0 602.3 681.7">
  <path d="M602.3 488.7a45.2 45.2 0 0 1-22.5 39.1l-256 147.9a45.2 45.2 0 0 1-45.2 0l-256-147.9a45.2 45.2 0 0 1-22.6-39V193A45.2 45.2 0 0 1 22.6 154l256-147.8a45.2 45.2 0 0 1 45.2 0l256 147.8a45.2 45.2 0 0 1 22.5 39.1Z" fill="#356290"/>
  <path d="M558.4 454.4A60.8 60.8 0 0 1 528 507L331.6 620.5a60.8 60.8 0 0 1-60.8 0L74.3 507A60.8 60.8 0 0 1 44 454.4V227.5a60.8 60.8 0 0 1 30.4-52.7L270.8 61.4a60.8 60.8 0 0 1 60.8 0L528 174.8a60.8 60.8 0 0 1 30.4 52.7Z" fill="#1784b2"/>
  <path d="M516.3 444a36.6 36.6 0 0 1-18.3 31.6L319.5 578.7a36.6 36.6 0 0 1-36.6 0l-178.6-103A36.6 36.6 0 0 1 86 443.8V237.8a36.6 36.6 0 0 1 18.3-31.7l178.6-103a36.6 36.6 0 0 1 36.6 0L498 206a36.6 36.6 0 0 1 18.3 31.7Z" fill="#50bfc3"/>
  <path d="M245.8 407v-37.5l-65.3-21.9 65.3-22.5v-37.5l-106 43.5v32.5Zm38.7 29.3 60.3-190.7h-29.4l-60.3 190.7Zm72-29.3 106.1-43.8v-32.4l-106-43.2V326l59.3 23.3-59.3 19.4Z" fill="#fff"/>
</svg>
