<svg viewBox="0 0 256 308" xmlns="http://www.w3.org/2000/svg" preserveAspectRatio="xMidYMid">
  <path d="M235.734 269.653c-13.904 13.905-48.045 4.005-87.062-22.24l64.99-64.57c26.113 38.908 35.945 72.937 22.072 86.81zM34.924 128.987c-19.995-33.53-26.45-61.888-14.098-74.24 12.41-12.41 40.946-5.85 74.672 14.356l-60.575 59.884zm189.879 42.787 18.762-18.64V0l-91.368 90.753a375.755 375.755 0 0 0-5.545-4.59l18.762-18.492L165.398 0l-58.806 58.135C64.664 33.522 27.224 26.73 9.762 44.193-7.625 61.577-.994 98.731 23.348 140.43L9.712 153.911v153.142l71.743-71.18-.097-85.356 53.85-53.074a391.704 391.704 0 0 1 5.558 4.664L88.612 153.91l-.006 153.18 48.391-48.078c46.832 30.785 90.077 40.837 109.249 21.665 19.124-19.124 9.161-62.205-21.443-108.904z" fill="#7D4F8F"/>
  <path d="M9.67 154.304v153.534l71.926-71.363-.097-85.573 84.271-83.058L165.754 0 9.67 154.304" fill="#3F2A70"/>
  <path d="m88.256 307.886.006-153.577L243.616 0v153.53L88.256 307.885" fill="#5A2A79"/>
  <path d="M136.995 258.884c46.833 30.785 90.077 40.837 109.249 21.665 27.021-27.021-4.013-101.864-69.316-167.167S36.782 17.045 9.761 44.066C-7.624 61.45-.993 98.603 23.35 140.301l11.575-11.442c-19.995-33.53-26.45-61.887-14.098-74.24 20.55-20.549 85.316 10.901 144.66 70.246 59.345 59.344 90.795 124.11 70.246 144.659-13.904 13.905-48.045 4.005-87.06-22.24l-11.677 11.6" fill="#7D4F8F"/>
</svg>
