<svg fill="none" xmlns="http://www.w3.org/2000/svg" data-scope="icon" viewBox="0 0 34 34">
  <path d="M0 4.13A3.83 3.83 0 0 1 3.83.3h25.4a3.83 3.83 0 0 1 3.82 3.83v25.74a3.83 3.83 0 0 1-3.83 3.83H3.82A3.83 3.83 0 0 1 0 29.87V4.13Z" fill="#F6E458"/>
  <path d="M21.18 7.77a15.1 15.1 0 0 0-8.64.26 8 8 0 0 0-4.68 4.27 11.6 11.6 0 0 0-.95 4.7c-.03 1.72.19 3.42.53 5.1.3 1.52.72 3.02 1.31 4.46.06.13.13.18.28.18h7.39l.08-.01-.03-.08a2.63 2.63 0 0 0-.05-.12l-.41-.86c-.3-.63-.6-1.25-.87-1.89a20.01 20.01 0 0 1-1.64-6.01 7.47 7.47 0 0 1 .18-2.76 2.8 2.8 0 0 1 1.98-2.07 4.84 4.84 0 0 1 2.89.04c.85.27 1.4.85 1.64 1.73.18.67.18 1.34.05 2.02-.1.52-.32 1-.7 1.37-.7.68-1.55.84-2.47.79l-.5-.05-.24-.02v.07a40.01 40.01 0 0 1 .13.6c.1.38.18.76.3 1.13.23.74.49 1.45.79 2.15a13.57 13.57 0 0 0 6.3-2 5.86 5.86 0 0 0 2.12-2.23c.81-1.52.97-3.14.73-4.82a6.76 6.76 0 0 0-2.36-4.31c-.93-.8-2-1.3-3.16-1.64Z" fill="#000"/>
</svg>