<svg viewBox="0 0 256 295" xmlns="http://www.w3.org/2000/svg" preserveAspectRatio="xMidYMid">
  <path d="M49.07 101.52c.03 30.47.08 60.94.04 91.41 26.35 15.23 52.69 30.49 79.02 45.76l78.98-45.67c-.03-30.47-.08-60.95-.04-91.42a48928.6 48928.6 0 0 1-79.02-45.76l-78.98 45.68" fill="#B7A634"/>
  <path d="m128.41 78.99-.04-.03-.31-.17a27468.1 27468.1 0 0 1-59.26 34.2v68.52c19.78 11.4 39.56 22.8 59.32 34.24 5.04-2.97 54.2-31.3 59.26-34.2l.02-68.52a19008.18 19008.18 0 0 1-58.99-34.04" fill="#F9DF34"/>
  <path d="m92.59 126.98 1.65 2.86-3.13 1.81 4.45 7.72c.42.72.82 1.13 1.2 1.24.38.1.93-.06 1.65-.48a8.81 8.81 0 0 0 1.26-.88l1.91 3.31c-.33.27-.7.54-1.13.82-.43.27-.86.53-1.28.77-.67.39-1.32.7-1.96.96-.65.25-1.27.37-1.87.37-.6 0-1.18-.16-1.72-.5a4.57 4.57 0 0 1-1.49-1.67l-5.3-9.19-2.6 1.5-1.65-2.86 2.6-1.5-2.7-4.67 4.28-2.47 2.7 4.67 3.13-1.8m2.6-9.42 4.68 8.1.09-.05c.02-1.22.33-2.28.94-3.17.6-.9 1.3-1.59 2.11-2.05a8.36 8.36 0 0 1 3.09-1.16 4.83 4.83 0 0 1 2.48.3 5.8 5.8 0 0 1 2.05 1.5c.63.7 1.22 1.53 1.78 2.5l5.53 9.57-4.28 2.47-5.07-8.8c-.75-1.28-1.5-2.12-2.27-2.52-.77-.4-1.66-.31-2.69.28-1.16.67-1.8 1.5-1.93 2.5-.12 1 .28 2.29 1.2 3.87l4.7 8.17-4.27 2.47-12.42-21.51 4.28-2.47m26.92 8.15c1 .26 2.11.03 3.32-.66a4.39 4.39 0 0 0 1.85-1.94c.38-.79.5-1.47.36-2.03l3.76-2.18c.48 2.22.33 4.09-.46 5.61a9.42 9.42 0 0 1-3.82 3.82 10.3 10.3 0 0 1-3.65 1.32c-1.22.18-2.37.1-3.47-.22a8.7 8.7 0 0 1-3.08-1.68 11 11 0 0 1-2.47-3 10.52 10.52 0 0 1-1.3-3.58 8.82 8.82 0 0 1 4.5-9.23 7.97 7.97 0 0 1 7.53-.57 9.77 9.77 0 0 1 3.08 2.16c.92.94 1.68 2.04 2.3 3.29l-11.24 6.49c.86 1.35 1.8 2.15 2.8 2.4zm.1-10.98c-.83-.27-1.77-.1-2.81.5a4.3 4.3 0 0 0-1.5 1.33 3.76 3.76 0 0 0-.54 2.9c.1.44.24.82.4 1.14l6.95-4.02a5.71 5.71 0 0 0-2.5-1.85zm8.34-9.68 1.26 2.17.09-.05c.02-1.22.34-2.28.97-3.2a8.4 8.4 0 0 1 5.38-3.3 4.82 4.82 0 0 1 2.48.3c.74.3 1.43.8 2.06 1.5.62.7 1.22 1.52 1.77 2.49l5.54 9.58-4.28 2.47-5.08-8.8c-.75-1.28-1.5-2.13-2.27-2.53-.76-.4-1.66-.3-2.68.29-1.17.67-1.81 1.5-1.94 2.5-.12 1 .28 2.28 1.2 3.87l4.71 8.17-4.28 2.47-9-15.58 4.07-2.35" fill="#524739"/>
  <path d="M189.06 109.46a18918.44 18918.44 0 0 1-58.43-33.77l-.1-.05-.3-.18a4.42 4.42 0 0 0-4.4.04 26580.1 26580.1 0 0 1-58.69 33.92 4.43 4.43 0 0 0-2.21 3.84l-.02 67.98c0 1.58.85 3.05 2.22 3.84 19.6 11.3 39.2 22.61 58.77 33.96a4.4 4.4 0 0 0 4.48-.02c2.91-1.72 5.85-3.41 8.78-5.1l6.22-3.6c2.1-1.24 27.62-15.95 28.64-16.54 5-2.9 10-5.78 15.01-8.67a4.43 4.43 0 0 0 2.22-3.84l.03-67.97c0-1.59-.85-3.05-2.22-3.84zm-6.67 69.25a82031 82031 0 0 0-54.28 31.37 30156.4 30156.4 0 0 0-54.33-31.4v-62.86c18.11-10.44 36.2-20.89 54.28-31.37 17.75 10.3 36.01 20.85 54.35 31.4l-.02 62.86z" fill="#524839"/>
  <path d="M4.9 76.04c.05 47.44.12 94.88.05 142.32 41.1 23.7 82.15 47.45 123.2 71.23l123.14-71.1c-.06-47.44-.13-94.88-.06-142.31a77548.1 77548.1 0 0 1-123.2-71.23L4.9 76.05zM128.51 56.3c26.16 15.16 52.37 30.28 78.6 45.35l-.04 91.3a8451.3 8451.3 0 0 0-20.2 11.65 97824 97824 0 0 1-40.47-70.09l-38.53 22.22c13.48 23.36 26.96 46.72 40.46 70.08-6.72 3.92-13.5 7.75-20.2 11.7a39961.24 39961.24 0 0 0-79.06-45.6l.02-91.3c26.33-15.16 52.65-30.34 78.95-45.57l.4.23.07.03z" fill="#F9DF34"/>
  <path d="M128.15 294.16c-.8 0-1.58-.2-2.3-.62-49.7-28.79-87.7-50.75-123.18-71.22a4.57 4.57 0 0 1-2.29-3.97c.06-43.98 0-88.71-.04-131.97L.32 76.05c0-1.63.87-3.15 2.29-3.96L125.75.99a4.58 4.58 0 0 1 4.57 0c36.6 21.2 79.86 46.24 123.2 71.23a4.57 4.57 0 0 1 2.28 3.96c-.06 43.75 0 88.22.04 131.24l.02 11.07c0 1.63-.87 3.14-2.29 3.96l-123.14 71.1c-.7.4-1.5.61-2.28.61zM9.53 215.72c34.3 19.78 71.09 41.06 118.62 68.59l118.56-68.46-.01-8.42c-.05-42.15-.1-85.71-.05-128.61a77894.48 77894.48 0 0 1-118.62-68.6L9.47 78.69v7.7c.06 42.39.11 86.2.06 129.34zm118.6 27.36c-.79 0-1.58-.2-2.29-.62a39147.95 39147.95 0 0 0-79.04-45.6 4.58 4.58 0 0 1-2.29-3.97l.02-91.3c0-1.63.87-3.14 2.29-3.95a33622.8 33622.8 0 0 0 78.93-45.57 4.58 4.58 0 0 1 4.54-.03l.41.24a26300.48 26300.48 0 0 0 78.69 45.4 4.57 4.57 0 0 1 2.3 3.97l-.03 91.29c0 1.63-.88 3.15-2.3 3.96a9738.6 9738.6 0 0 0-20.2 11.64 4.57 4.57 0 0 1-6.24-1.67 104453 104453 0 0 1-38.18-66.12l-30.61 17.64c12.71 22.05 25.44 44.09 38.17 66.12a4.57 4.57 0 0 1-1.66 6.24c-2.79 1.63-5.6 3.24-8.4 4.85-3.93 2.27-7.87 4.54-11.78 6.84-.72.43-1.52.64-2.33.64zm-74.48-52.83c24.84 14.3 49.66 28.61 74.47 42.97 3.18-1.86 6.37-3.7 9.56-5.54l4.42-2.55c-12.74-22.03-25.46-44.08-38.18-66.13a4.57 4.57 0 0 1 1.68-6.24l38.53-22.22a4.57 4.57 0 0 1 6.24 1.68c12.72 22.04 25.44 44.09 38.18 66.12l13.96-8.05.03-86c-25.23-14.5-50.27-28.95-74.49-42.98a34191.96 34191.96 0 0 1-74.38 42.93l-.02 86z" fill="#524839"/>
</svg>
