<svg viewBox="0 0 256 151" xmlns="http://www.w3.org/2000/svg" preserveAspectRatio="xMidYMid">
  <path d="M208.615 119.908H96.683c-10.537 0-19.11-8.572-19.11-19.107 0-10.539 8.572-19.111 19.11-19.111h61.129c17.84 0 32.353-14.513 32.353-32.353 0-17.84-14.512-32.354-32.353-32.354H47.223C44.17 7.143 34.995 0 24.152 0 10.811 0 0 10.81 0 24.152c0 13.341 10.812 24.152 24.153 24.152 11.239 0 20.687-7.677 23.381-18.076h110.279c10.535 0 19.107 8.573 19.107 19.11 0 10.536-8.572 19.109-19.107 19.109h-61.13c-17.839 0-32.353 14.513-32.353 32.354 0 17.84 14.513 32.352 32.354 32.352h111.93c2.878 10.121 12.189 17.53 23.234 17.53 13.341 0 24.152-10.81 24.152-24.151 0-13.342-10.81-24.152-24.152-24.152-11.044 0-20.354 7.408-23.233 17.528z" fill="#F26B00"/>
</svg>
