<svg viewBox="0 0 512 315" xmlns="http://www.w3.org/2000/svg" preserveAspectRatio="xMidYMid">
  <path d="M78.909 244.604c13.28-15.884 14.842-32.289 4.557-62.755-6.51-19.27-17.317-34.112-9.375-46.09 8.463-12.76 26.43-.39 11.458 16.665l2.994 2.084c17.968 2.083 26.821-22.525 13.41-29.555-35.413-18.488-66.4 17.056-52.73 58.198 5.86 17.446 14.062 35.934 7.422 50.647-5.729 12.629-16.795 20.05-24.217 20.31-15.493.782-5.207-34.762 12.63-43.616 1.562-.78 3.775-1.822 1.692-4.426-22.003-2.474-34.893 7.681-42.314 21.873-21.613 41.272 41.012 56.505 74.473 16.665zM465.594 123.26c5.078 12.5 12.76 24.868 8.203 35.804-3.776 9.375-8.724 13.28-14.192 14.192-7.681 1.302-5.598-22.785 7.552-29.945 1.171-.651 2.864-3.776 1.302-5.599-16.666-.911-26.04 7.03-31.118 17.577-14.712 30.856 33.33 39.32 56.897 8.983 9.374-12.108 9.764-24.086.78-45.83-5.728-13.8-14.451-24.086-8.983-33.2 5.86-9.634 19.92-1.301 9.374 11.588l2.344 1.302c13.67.781 19.27-17.446 8.853-22.003-27.471-11.718-53.12 17.837-41.012 47.131zM291.651 90.32c-9.504-7.551-36.195 5.078-43.746 23.826-9.505 23.826-23.566 58.59-37.367 73.822-14.582 16.014-16.014 3.646-14.582-5.598 3.385-21.743 24.607-72.13 36.195-86.321-4.297-6.38-32.42-5.468-51.949 24.868-7.29 11.457-23.956 49.605-42.444 79.68-4.036 6.51-9.114 1.953-5.208-13.28 4.427-17.576 17.446-65.88 34.242-103.897 44.006-8.723 90.747-14.843 126.551-14.973 4.818-1.302 8.073-5.598 0-5.859-30.856-1.041-77.206 2.604-120.562 8.073 8.333-16.666 17.316-29.946 26.43-35.544-9.895-6.25-29.945-3.776-41.403 13.15-5.077 7.551-10.155 16.665-14.972 26.56-31.769 4.947-58.98 10.546-72.78 15.754-14.322 5.468-12.76 22.784-4.037 19.53 18.098-6.77 42.575-13.802 69.786-20.051-17.316 39.06-30.857 85.149-34.112 103.897-8.072 45.57 20.18 45.309 33.982 27.342 14.972-19.66 46.22-88.795 51.037-96.086 1.432-2.474 3.385-1.172 2.344 1.042-34.893 69.655-31.899 96.606-3.646 90.617 12.76-2.734 34.763-24.607 40.491-35.934 1.172-2.735 3.646-2.474 3.125-1.302-22.133 57.417-50.256 103.897-69.135 118.479-17.186 13.15-29.945-15.363 30.857-56.245 8.984-6.12 4.817-14.452-5.338-11.588-31.377 4.948-121.213 33.46-160.663 60.802-2.995 2.083-5.729 3.776-5.599 8.073.13 2.473 4.427 1.562 6.51.26 51.037-30.596 92.83-42.575 140.743-52.6.651.26 1.432.39 2.083.13 2.214-.52 2.084.651.651 1.563-3.255 1.823-6.51 3.515-7.29 3.776-32.29 12.629-51.82 40.49-44.919 54.682 5.86 12.239 37.497 7.812 52.47-.26 36.715-19.92 63.406-58.98 81.633-112.88 15.884-47.783 35.935-101.945 40.622-103.508zm213.393 110.277c-59.76-7.812-188.656 2.604-245.552 17.707-16.925 4.427-12.238 13.41-3.645 11.718.13 0 3.775-.912 3.906-.912 46.74-9.113 160.142-17.055 226.282-4.426 7.942 1.432 31.768-22.394 19.009-24.087zm-196.728-7.03c16.665-8.333 41.403-59.891 57.677-88.144 1.172-2.083 3.255-.39 2.084 1.042-41.143 70.827-23.696 79.03-7.422 77.988 21.743-1.302 41.794-32.55 46.22-39.58 1.823-2.734 2.865-.52 1.823 1.432-1.041 3.255-4.817 8.984-8.333 16.796-4.947 11.066.26 15.363 4.557 17.316 6.77 3.255 25.259 1.172 28.123-10.156-18.488-.39 25.779-87.622 30.336-92.96-12.369-7.161-31.508.65-40.231 17.837-18.618 36.845-34.242 66.53-44.007 67.051-19.008 1.042 21.873-82.154 28.514-84.758-4.037-5.859-29.946-3.385-44.398 19.009-5.208 8.072-36.976 64.317-44.787 73.561-13.801 16.405-14.843 2.344-10.937-14.061 1.302-5.599 3.515-12.76 6.38-20.702 9.113-20.57 18.878-27.08 24.867-33.72 40.231-44.658 63.276-80.853 54.162-95.045-8.072-12.629-35.023-7.03-52.339 19.01-31.898 47.782-61.323 113.27-65.099 143.216-3.645 29.945 18.098 32.159 32.81 24.868zm16.926-87.623c1.432-3.255 2.343-4.166 4.817-9.635 14.322-31.507 32.289-64.708 44.658-80.201 7.681-8.072 18.488 2.864-1.042 32.81-11.457 17.706-24.477 33.981-38.668 48.303v.13c-3.646 4.036-6.9 7.421-8.333 9.374-1.042 1.302-2.213 1.042-1.432-.781z" fill="#ddd"/>
</svg>
