<svg viewBox="0 0 291 69" fill="none" xmlns="http://www.w3.org/2000/svg">
  <path d="M0 36.53c.07 17.6 14.4 32.01 32.01 32.01a32.05 32.05 0 0 0 32.01-32V32a13.2 13.2 0 0 1 23.4-8.31h20.7A32.07 32.07 0 0 0 77.2 0a32.05 32.05 0 0 0-32 32.01v4.52A13.2 13.2 0 0 1 32 49.71a13.2 13.2 0 0 1-13.18-13.18 3.77 3.77 0 0 0-3.77-3.77H3.76A3.77 3.77 0 0 0 0 36.53zm122.49 32.01a32.14 32.14 0 0 1-30.89-23.7h20.67a13.16 13.16 0 0 0 23.4-8.3V32a32.05 32.05 0 0 1 32.01-32c17.43 0 31.64 14 32 31.33l.1 5.2a13.2 13.2 0 0 0 23.4 8.31h20.7a32.07 32.07 0 0 1-30.91 23.7c-17.61 0-31.94-14.42-32.01-32l-.1-4.7v-.2a13.2 13.2 0 0 0-13.18-12.81 13.2 13.2 0 0 0-13.18 13.18v4.52a32.05 32.05 0 0 1-32.01 32.01zM247.94 23.7a13.16 13.16 0 0 1 23.4 8.31 3.77 3.77 0 0 0 3.77 3.77h11.3a3.77 3.77 0 0 0 3.76-3.77A32.05 32.05 0 0 0 258.16 0a32.07 32.07 0 0 0-30.92 23.7h20.7z" fill="currentColor"/>
</svg>
