<svg viewBox="0 0 504 504" fill="none" xmlns="http://www.w3.org/2000/svg">
  <path d="m446.6 136.5-184 329a10 10 0 0 1-17.4.1l-187.6-329A10 10 0 0 1 68 121.8l184.2 32.9c1.2.2 2.4.2 3.6 0L436 121.8a10 10 0 0 1 10.5 14.7z" fill="url(#a)"/>
  <path d="m340 78.6-136.2 26.7a5 5 0 0 0-4 4.6l-8.4 141.4a5 5 0 0 0 6.1 5.2l38-8.8a5 5 0 0 1 6 6l-11.3 55a5 5 0 0 0 6.3 5.9l23.4-7.2a5 5 0 0 1 6.4 5.8L248.4 400c-1.1 5.4 6 8.3 9 3.7l2.1-3.1 111-221.4a5 5 0 0 0-5.5-7.2l-39 7.6a5 5 0 0 1-5.7-6.3L345.7 85c1-3.6-2-7-5.7-6.3z" fill="url(#b)"/>
  <defs>
    <linearGradient id="a" x1="53" y1="110" x2="282" y2="421" gradientUnits="userSpaceOnUse">
      <stop stop-color="#41D1FF"/>
      <stop offset="1" stop-color="#BD34FE"/>
    </linearGradient>
    <linearGradient id="b" x1="241.7" y1="85.8" x2="283.1" y2="370" gradientUnits="userSpaceOnUse">
      <stop stop-color="#FFEA83"/>
      <stop offset=".1" stop-color="#FFDD35"/>
      <stop offset="1" stop-color="#FFA800"/>
    </linearGradient>
  </defs>
</svg>
