<svg viewBox="0 0 165 165" fill="none" xmlns="http://www.w3.org/2000/svg">
  <path d="M120.83 57.25 84.7 109.5a3.11 3.11 0 0 1-5.65-1.9l1.44-28.84-23.35-4.95a3.1 3.1 0 0 1-2.43-3.37c.06-.5.24-.99.53-1.4l36.14-52.26a3.1 3.1 0 0 1 5.65 1.9l-1.44 28.85 23.35 4.95a3.1 3.1 0 0 1 2.43 3.37c-.06.5-.24.99-.53 1.4Z" fill="#FCC72B"/>
  <path d="M82.99 153.34a7.3 7.3 0 0 1-5.18-2.14l-34.14-34.14A7.32 7.32 0 0 1 54 106.7L83 135.68l63.11-63.12a7.32 7.32 0 0 1 10.35 10.35L88.16 151.2a7.29 7.29 0 0 1-5.17 2.14Z" fill="#729B1B"/>
  <path d="M82.96 153.34a7.3 7.3 0 0 0 5.17-2.14l34.15-34.14a7.31 7.31 0 0 0-10.35-10.35l-28.97 28.97-63.12-63.12A7.32 7.32 0 0 0 9.49 82.91l68.3 68.29a7.29 7.29 0 0 0 5.17 2.14Z" fill="#729B1B" fill-opacity=".5"/>
</svg>
